<svg width="530" height="530" viewBox="0 0 530 530" fill="none" xmlns="http://www.w3.org/2000/svg">
<path d="M508.343 250.926C503.607 290.469 464.165 314.194 458.067 317.866C454.329 320.109 451.953 321.172 446.769 324.645C441.619 328.084 424.756 339.88 410.351 360.233C394.6 382.479 400.714 388.178 384.648 416.705C375.178 433.535 368.499 445.398 355.556 455.4C324.172 479.69 282.818 472.131 276.771 470.934C253.212 466.266 230.367 452.941 216.195 440.779C215.214 439.949 214.267 439.118 213.387 438.287C209.865 435.031 207.04 431.924 205.03 429.133C203.75 427.355 199.697 421.357 192.037 417.004C183.946 412.385 176.054 412.036 172.549 411.92C133.555 410.591 96.2054 416.506 70.6026 407.119C59.0555 402.882 48.9871 395.206 40.8295 385.669C40.3144 385.071 39.8159 384.457 39.3175 383.858C31.3592 374.023 25.3946 362.393 21.9056 350.596C21.5567 349.417 21.2245 348.22 20.9254 347.024C20.3107 344.582 19.7956 342.14 19.3968 339.714C14.7282 311.154 25.0458 281.048 42.7402 262.905C48.4555 257.04 52.9248 254.482 57.095 251.375C57.7762 250.86 58.4574 250.345 59.1219 249.797C61.6972 247.653 64.1728 245.061 66.8477 241.057C79.9565 221.253 74.806 200.335 75.1383 185.333C75.1715 183.306 75.3211 181.262 75.5869 179.252C75.753 177.79 75.9855 176.311 76.2679 174.849C83.8109 135.074 127.756 98.6386 164.673 83.4697C201.989 68.1512 239.139 71.6569 270.192 82.0575C271.039 82.3399 271.87 82.6224 272.7 82.9215C309.202 95.698 336.849 117.712 345.687 128.943C346.468 129.94 348.661 132.831 352.184 136.287C370.377 154.131 392.723 156.158 411.198 159.73C429.358 163.236 448.115 166.857 464.314 174.384C464.829 174.633 465.361 174.866 465.859 175.115C474.333 179.202 482.059 184.435 488.571 191.364C496.879 200.186 503.026 211.517 506.233 223.629C506.532 224.725 506.797 225.822 507.047 226.935C508.791 234.86 509.29 243.018 508.343 250.96V250.926Z" fill="#F2F4F7"/>
<path d="M272.683 82.9055C257.597 87.7902 242.595 92.9406 227.725 98.4732C210.097 105.036 192.569 111.914 175.406 119.623C158.991 126.984 142.875 134.942 127.257 143.88C111.756 152.769 96.7366 162.555 82.631 173.537C80.2385 175.398 77.8958 177.292 75.5698 179.219C75.736 177.757 75.9684 176.278 76.2509 174.816C79.4076 172.291 82.5976 169.816 85.8374 167.39C100.342 156.557 115.644 146.871 131.461 138.082C147.244 129.326 163.543 121.484 180.141 114.356C197.819 106.764 215.795 99.8521 233.988 93.6051C245.967 89.4847 258.013 85.5638 270.175 82.0249C271.022 82.3073 271.853 82.5898 272.683 82.8889V82.9055Z" fill="white"/>
<path d="M59.2214 262.125C58.4904 272.376 56.0315 282.411 52.5923 292.081C49.07 301.983 44.6008 311.52 39.7993 320.874C35.5294 329.214 31.2262 337.671 25.8598 345.38C24.5971 347.158 23.2845 348.919 21.8889 350.597C21.54 349.417 21.2078 348.221 20.9087 347.025C22.5037 344.998 23.9823 342.855 25.3945 340.678C27.7538 336.99 29.9136 333.185 32.007 329.331C34.4161 324.895 36.792 320.442 39.0681 315.939C43.6869 306.835 47.9403 297.531 51.1801 287.861C54.3535 278.374 56.5964 268.505 57.0284 258.487C57.1281 256.127 57.1614 253.752 57.0783 251.392C57.7595 250.877 58.4406 250.362 59.1052 249.814C59.4707 253.918 59.5039 258.055 59.2214 262.159V262.125Z" fill="white"/>
<path d="M507.047 226.902C486.378 228.713 465.793 231.272 445.307 234.578C443.878 234.81 442.466 235.043 441.071 235.276C439.841 235.475 438.612 235.674 437.366 235.89C401.462 242.005 365.924 250.195 330.9 260.214C293.136 270.997 256.003 283.989 219.534 298.61C182.75 313.347 146.696 329.845 111.357 347.755C93.8791 356.594 76.6167 365.832 59.4707 375.285C53.2402 378.725 47.0265 382.164 40.846 385.636C40.3309 385.038 39.8324 384.423 39.334 383.825C66.9804 367.743 95.2083 352.673 123.835 338.484C159.24 320.94 195.36 304.824 232.178 290.452C269.078 276.064 306.727 263.52 344.923 253.086C376.158 244.546 407.809 237.485 439.742 232.136C440.938 231.953 442.117 231.737 443.314 231.554C448.913 230.64 454.512 229.793 460.111 228.979C475.429 226.786 490.814 224.975 506.249 223.596C506.548 224.692 506.814 225.789 507.063 226.902H507.047Z" fill="white"/>
<path d="M465.86 175.097C465.246 177.291 464.598 179.45 463.933 181.627C461.524 189.336 458.733 196.945 455.842 204.505C453.051 211.765 450.01 218.959 446.455 225.888C445.458 227.815 444.411 229.709 443.315 231.586C442.584 232.833 441.836 234.079 441.072 235.291C435.041 244.928 427.913 253.866 420.935 262.821C404.105 284.37 386.194 305.105 367.204 324.777C348.247 344.415 328.21 363.04 307.027 380.269C285.91 397.432 263.696 413.232 240.353 427.221C232.428 431.973 224.387 436.492 216.196 440.762C215.215 439.931 214.268 439.101 213.388 438.27C224.735 432.388 235.851 426.042 246.733 419.313C269.694 405.091 291.559 389.074 312.243 371.712C333.061 354.251 352.733 335.46 371.341 315.689C389.966 295.884 407.527 275.166 424.241 253.717C428.777 247.902 433.313 242.053 437.367 235.89C437.433 235.79 437.5 235.707 437.55 235.59C438.297 234.444 439.028 233.298 439.726 232.135C443.099 226.585 446.039 220.804 448.681 214.872C454.596 201.631 459.148 187.874 464.299 174.333C464.814 174.582 465.345 174.815 465.844 175.064L465.86 175.097Z" fill="white"/>
<path d="M112.554 214.025V379.97C112.703 381.432 113.484 387.862 118.136 392.298C120.811 394.84 123.586 395.637 125.064 395.903H392.839C394.052 395.77 398.189 395.106 401.628 390.919C405.931 385.669 405.748 378.956 405.698 377.843C405.217 366.495 405.831 303.128 405.698 216.152" fill="white"/>
<path d="M101.174 178.487C116.177 150.293 127.824 129.757 131.994 123.095C133.091 121.334 135.466 117.612 139.952 115.452C143.325 113.824 146.432 113.658 148.11 113.691H367.105C368.55 113.691 373.401 113.525 378.053 116.383C381.509 118.493 383.536 121.467 384.666 123.51C395.548 142.002 406.431 160.511 417.33 179.002V223.812C416.732 239.163 404.77 251.558 390.199 252.638C376.907 253.634 364.197 245.012 359.96 231.703C355.558 244.679 343.28 253.452 329.573 253.402C315.882 253.352 303.671 244.53 299.334 231.537C297.573 234.694 294.184 239.828 288.17 243.932C279.596 249.813 270.89 250.096 265.075 250.295C258.28 250.528 248.378 250.843 238.559 244.563C226.414 236.771 222.742 224.177 221.812 220.539C221.562 223.579 220.366 233.099 212.674 240.841C204.234 249.331 190.859 252.754 178.88 248.285C163.345 242.503 159.225 226.869 158.876 225.49C156.201 239.695 144.006 249.979 130.349 250.145C115.247 250.328 101.839 238.117 100.659 222.067C100.809 207.53 100.975 193.008 101.124 178.471L101.174 178.487Z" fill="white"/>
<path d="M134.253 122.729C135.166 121.566 137.144 119.373 140.45 117.928C144.171 116.3 147.511 116.499 148.973 116.682C155.27 116.781 161.583 116.881 167.88 116.997C168.478 116.997 170.954 117.13 172.566 118.991C174.51 121.234 174.46 125.122 172.067 128.162C166.435 145.159 160.802 162.172 155.17 179.168C153.642 182.342 153.924 185.698 155.785 187.542C156.2 187.941 157.064 188.639 158.576 188.938C158.626 201.399 158.676 213.843 158.726 226.304C158.211 229.211 156.599 235.99 150.817 241.655C140.034 252.205 124.915 248.883 123.835 248.633C112.255 245.892 103.167 236.04 100.575 223.512C100.758 208.51 100.941 193.507 101.124 178.504C112.156 159.912 123.187 141.338 134.219 122.746L134.253 122.729Z" fill="#EEA563"/>
<path d="M232.842 122.381C233.656 122.148 234.836 121.666 235.484 120.553C236.215 119.324 235.683 118.294 236.265 117.446C237.361 115.851 241.166 116.682 241.847 116.832C251.002 118.759 268.247 117.663 273.631 117.147C277.9 116.732 281.007 116.084 283.699 118.078C286.69 120.287 287.221 124.242 287.421 125.671C288.6 133.895 292.837 153.101 298.901 179.618C299.433 184.037 299.848 188.639 300.147 193.408C300.978 207.048 300.546 219.592 299.449 230.807C287.587 245.195 271.205 252.954 257.049 249.83C249.59 248.185 243.409 243.666 242.329 242.852C239.388 240.659 231.297 234.462 228.539 223.945C227.609 220.373 227.609 217.565 227.609 215.887C227.609 204.057 226.645 192.228 226.562 180.398C226.446 162.704 229.386 145.026 228.39 127.365C228.34 126.418 228.107 123.245 229.785 122.248C230.715 121.683 231.945 121.999 232.875 122.364L232.842 122.381Z" fill="#EEA563"/>
<path d="M336.716 114.19C350.589 115.037 358.946 114.638 364.163 114.04C365.309 113.907 367.735 113.608 370.825 114.19C370.825 114.19 377.272 115.419 383.402 121.467C389.749 127.73 402.825 149.18 417.013 179.767C418.675 200.136 415.917 215.92 413.292 226.121C410.019 238.831 406.829 243.234 402.742 245.959C394.584 251.425 383.236 249.963 375.61 245.643C365.525 239.944 362.252 229.411 360.89 225.024C358.863 218.495 359.195 206.931 359.959 184.103C360.026 182.276 360.076 180.764 360.109 179.767C352.3 157.902 344.508 136.054 336.699 114.19H336.716Z" fill="#EEA563"/>
<path d="M314.886 125.654C305.997 129.342 297.208 133.247 288.203 136.653C279.198 140.059 270.01 143.066 260.723 145.691C242.148 150.924 223.141 154.546 203.951 156.557C193.152 157.686 182.303 158.185 171.47 158.65C171.121 158.65 171.121 159.182 171.47 159.198C181.239 159.547 191.009 159.032 200.745 158.152C210.481 157.271 219.768 155.992 229.205 154.297C248.312 150.858 267.119 145.757 285.345 139.045C295.464 135.323 305.615 131.22 315.052 125.986C315.235 125.886 315.102 125.571 314.919 125.654H314.886Z" fill="black"/>
<path d="M123.304 167.522C121.792 164.996 123.653 160.71 126.195 158.434C130.797 154.28 139.353 155.077 141.081 158.633C142.294 161.142 140.035 164.797 137.974 166.691C133.555 170.761 125.381 170.977 123.304 167.522Z" fill="white"/>
<path d="M132.193 149.329C128.272 144.494 132.775 134.442 138.39 128.86C139.055 128.212 147.13 120.353 152.031 123.078C156.118 125.354 155.387 133.545 154.091 137.965C152.247 144.311 146.598 151.987 139.204 152.02C138.357 152.02 134.386 152.037 132.176 149.329H132.193Z" fill="white"/>
<path d="M381.924 262.092H325.634C317.89 262.092 311.611 268.37 311.611 276.114V374.571C311.611 382.316 317.89 388.594 325.634 388.594H381.924C389.668 388.594 395.946 382.316 395.946 374.571V276.114C395.946 268.37 389.668 262.092 381.924 262.092Z" fill="#C9C8C8"/>
<path d="M117.638 148.116C120.546 145.691 122.938 143.547 124.749 141.886C127.607 139.278 129.95 136.968 132.192 133.612C133.621 131.469 134.967 129.425 134.253 128.445C133.239 127.033 128.703 128.827 128.487 128.91C124.866 135.307 121.244 141.703 117.622 148.1L117.638 148.116Z" fill="white"/>
<path d="M348.197 272.941C348.314 270.432 350.291 267.774 353.165 267.774C356.023 267.774 358.133 270.449 358.133 272.941C358.133 276.247 354.461 279.005 351.52 278.108C349.443 277.477 348.114 275.134 348.214 272.941H348.197Z" fill="white"/>
<path d="M328.758 289.887C331.865 286.664 330.885 284.703 333.51 282.66C336.268 280.5 338.145 282.062 341.152 279.769C342.897 278.44 345.156 275.748 344.675 273.156C343.927 269.219 337.265 267.906 335.587 267.574C333.227 267.109 326.415 265.763 321.73 270.265C317.294 274.519 318.125 280.832 318.623 284.737C318.906 286.913 319.637 292.446 322.544 293.21C324.953 293.841 327.728 290.95 328.741 289.904L328.758 289.887Z" fill="white"/>
<path d="M387.408 233.879C389.617 225.373 400.068 219.242 403.839 221.634C406.896 223.578 406.199 231.503 402.909 236.67C399.586 241.887 392.558 246.008 389.119 243.798C386.427 242.07 386.627 236.936 387.408 233.879Z" fill="white"/>
<path d="M225.615 129.707C224.502 129.059 224.917 126.6 225 126.202C225.365 124.208 226.911 121.649 228.522 121.865C229.901 122.031 231.048 124.191 230.798 126.002C230.433 128.694 226.96 130.505 225.631 129.724L225.615 129.707Z" fill="#F2F4F7"/>
<path d="M195.509 250.012C192.419 250.261 190.309 249.497 189.129 248.949C181.919 245.51 179.908 234.926 182.201 228.297C183.032 225.888 184.145 224.875 184.477 224.575C186.886 222.465 190.01 222.798 194.812 223.13C206.99 223.961 210.629 220.505 213.204 223.329C213.902 224.094 215.862 226.802 213.104 234.478C212.539 236.754 211.094 241.14 207.206 244.629C204.93 246.673 202.537 247.769 201.524 248.218C199.165 249.281 197.038 249.763 195.509 250.012Z" fill="#F2F4F7"/>
<path d="M285.611 262.092H140.417C134.104 262.092 128.987 267.21 128.987 273.523V377.163C128.987 383.476 134.104 388.594 140.417 388.594H285.611C291.924 388.594 297.042 383.476 297.042 377.163V273.523C297.042 267.21 291.924 262.092 285.611 262.092Z" fill="#F2F4F7"/>
<path d="M296.409 337.271C278.382 354.168 260.339 371.065 242.312 387.962H248.975C264.991 372.66 281.007 357.375 297.04 342.073C296.841 340.478 296.625 338.866 296.426 337.271H296.409Z" fill="black"/>
<path d="M297.041 346.426C283.799 360.482 270.558 374.538 257.316 388.594H276.888C283.6 380.27 290.329 371.946 297.041 363.639V346.426Z" fill="black"/>
<path d="M176.271 262.09C160.504 272.94 144.754 283.789 128.987 294.638V298.974C146.482 286.829 163.977 274.684 181.455 262.539C179.727 262.389 177.999 262.223 176.255 262.074L176.271 262.09Z" fill="black"/>
<path d="M184.012 262.557C165.67 275.45 147.328 288.342 128.985 301.235V303.096C148.109 289.539 167.232 275.965 186.338 262.407C185.557 262.457 184.793 262.507 184.012 262.557Z" fill="black"/>
<path d="M327.827 325.093C330.369 325.093 332.429 323.033 332.429 320.491C332.429 317.95 330.369 315.889 327.827 315.889C325.285 315.889 323.225 317.95 323.225 320.491C323.225 323.033 325.285 325.093 327.827 325.093Z" fill="black"/>
<path d="M101.174 178.487C116.177 150.293 127.824 129.757 131.994 123.095C133.091 121.334 135.466 117.612 139.952 115.452C143.325 113.824 146.432 113.658 148.11 113.691H367.105C368.55 113.691 373.401 113.525 378.053 116.383C381.509 118.493 383.536 121.467 384.666 123.51C395.548 142.002 406.431 160.511 417.33 179.002V223.812C416.732 239.163 404.77 251.558 390.199 252.638C376.907 253.634 364.197 245.012 359.96 231.703C355.558 244.679 343.28 253.452 329.573 253.402C315.882 253.352 303.671 244.53 299.334 231.537C297.573 234.694 294.184 239.828 288.17 243.932C279.596 249.813 270.89 250.096 265.075 250.295C258.28 250.528 248.378 250.843 238.559 244.563C226.414 236.771 222.742 224.177 221.812 220.539C221.562 223.579 220.366 233.099 212.674 240.841C204.234 249.331 190.859 252.754 178.88 248.285C163.345 242.503 159.225 226.869 158.876 225.49C156.201 239.695 144.006 249.979 130.349 250.145C115.247 250.328 101.839 238.117 100.659 222.067C100.809 207.53 100.975 193.008 101.124 178.471L101.174 178.487Z" stroke="black" stroke-width="3.71904" stroke-linecap="round" stroke-linejoin="round"/>
<path d="M104.912 179.301C207.506 179.434 310.1 179.584 412.694 179.717" stroke="black" stroke-width="3.71904" stroke-linecap="round" stroke-linejoin="round"/>
<path d="M158.91 225.507V183.805" stroke="black" stroke-width="3.71904" stroke-linecap="round" stroke-linejoin="round"/>
<path d="M221.844 222.565V182.873" stroke="black" stroke-width="3.71904" stroke-linecap="round" stroke-linejoin="round"/>
<path d="M299.667 232.435V188.822" stroke="black" stroke-width="3.71904" stroke-linecap="round" stroke-linejoin="round"/>
<path d="M359.976 231.803V180.431" stroke="black" stroke-width="3.71904" stroke-linecap="round" stroke-linejoin="round"/>
<path d="M112.554 245.045V382.712C112.703 383.925 113.484 389.259 118.136 392.947C120.811 395.057 123.586 395.705 125.064 395.937H392.839C394.052 395.821 398.189 395.273 401.628 391.801C405.931 387.448 405.748 381.865 405.698 380.951V246.823" stroke="black" stroke-width="3.71904" stroke-linecap="round" stroke-linejoin="round"/>
<path d="M297.042 276.662V285.135" stroke="black" stroke-width="3.71904" stroke-linecap="round" stroke-linejoin="round"/>
<path d="M297.042 287.628V372.993" stroke="black" stroke-width="3.71904" stroke-linecap="round" stroke-linejoin="round"/>
<path d="M283.699 388.594H142.526" stroke="black" stroke-width="3.71904" stroke-linecap="round" stroke-linejoin="round"/>
<path d="M128.987 373.192V273.257C128.987 267.093 133.988 262.092 140.152 262.092H285.877C286.059 262.092 286.242 262.092 286.425 262.092" stroke="black" stroke-width="3.71904" stroke-linecap="round" stroke-linejoin="round"/>
<path d="M381.924 262.092H325.634C317.89 262.092 311.611 268.37 311.611 276.114V374.571C311.611 382.316 317.89 388.594 325.634 388.594H381.924C389.668 388.594 395.946 382.316 395.946 374.571V276.114C395.946 268.37 389.668 262.092 381.924 262.092Z" stroke="black" stroke-width="3.71904" stroke-linecap="round" stroke-linejoin="round"/>
<path d="M327.827 325.093C330.369 325.093 332.429 323.033 332.429 320.491C332.429 317.95 330.369 315.889 327.827 315.889C325.285 315.889 323.225 317.95 323.225 320.491C323.225 323.033 325.285 325.093 327.827 325.093Z" stroke="black" stroke-width="3.71904" stroke-linecap="round" stroke-linejoin="round"/>
<path d="M67.3306 400.59C67.8456 388.611 68.0949 376.167 68.0451 363.291C68.0118 355.233 67.8457 347.358 67.5798 339.682C67.4303 337.971 67.2641 333.418 70.2547 330.577C71.6171 329.281 73.129 328.833 75.2557 328.334C83.2804 326.49 90.2751 326.357 93.0829 326.324C96.0901 326.291 99.9779 326.291 104.53 326.39C105.427 326.44 108.219 326.723 110.595 328.916C111.99 330.212 112.671 331.624 113.004 332.488C116.11 341.626 119.118 351.511 121.892 362.095C124.717 372.911 126.96 383.228 128.738 392.915C128.937 393.911 129.136 395.473 128.854 397.367C128.688 398.464 128.488 399.743 127.641 401.039C126.295 403.066 124.185 403.814 123.271 404.079C115.114 405.608 105.793 406.837 95.4921 407.369C87.3843 407.784 79.8746 407.701 73.0627 407.336C72.5642 407.253 70.4375 406.887 68.8592 404.943C67.3971 403.132 67.3638 401.155 67.3638 400.607L67.3306 400.59Z" fill="#C9C8C8"/>
<path d="M67.5297 337.139C66.5328 345.995 65.2038 355.315 63.4925 365.035C62.0969 372.96 60.5351 380.553 58.8736 387.763C58.7075 388.528 58.425 389.707 58.0429 391.136C56.9131 395.306 56.2818 396.27 56.5808 397.715C56.7636 398.613 57.3286 399.726 60.2361 401.736C62.3794 403.215 65.8682 405.242 70.8526 406.588" fill="#C9C8C8"/>
<path d="M107.288 361.994L107.571 366.48C107.621 367.195 107.072 367.826 106.341 367.876L102.487 368.125C101.772 368.175 101.224 368.79 101.257 369.521L101.506 373.375C101.556 374.09 101.008 374.721 100.277 374.771L95.7909 375.053C95.0765 375.103 94.4452 374.555 94.3954 373.824L94.1461 369.936C94.0963 369.222 93.4816 368.673 92.7506 368.706L88.8629 368.956C88.1484 369.006 87.5169 368.457 87.4671 367.726L87.1848 363.24C87.1349 362.526 87.6832 361.895 88.4142 361.845L92.9 361.562C93.6145 361.512 94.246 362.061 94.2958 362.792L94.5449 366.679C94.5947 367.394 95.2096 367.942 95.9406 367.909L99.197 367.693C99.9114 367.643 100.46 367.028 100.426 366.297L100.177 362.443C100.127 361.729 100.676 361.097 101.407 361.047L105.893 360.765C106.607 360.715 107.238 361.263 107.288 361.994Z" fill="black"/>
<path d="M106.458 394.675C108.269 389.69 113.668 387.913 114.483 387.663C116.061 387.181 120.763 385.72 122.906 388.212C124.368 389.906 123.986 392.698 123.139 394.425C121.81 397.183 118.919 398.064 115.895 398.994C114.25 399.493 107.92 401.42 106.209 398.911C105.361 397.665 106.009 395.854 106.441 394.658L106.458 394.675Z" fill="white"/>
<path d="M113.37 380.436C112.423 378.243 113.37 375.236 115.729 374.289C117.49 373.591 119.717 374.172 120.614 375.551C122.225 378.044 119.335 382.995 116.527 382.945C115.098 382.928 113.885 381.599 113.387 380.419L113.37 380.436Z" fill="white"/>
<path d="M67.3306 400.59C67.8456 388.611 68.0949 376.167 68.0451 363.291C68.0118 355.233 67.8457 347.358 67.5798 339.682C67.4303 337.971 67.2641 333.418 70.2547 330.577C71.6171 329.281 73.129 328.833 75.2557 328.334C83.2804 326.49 90.2751 326.357 93.0829 326.324C96.0901 326.291 99.9779 326.291 104.53 326.39C105.427 326.44 108.219 326.723 110.595 328.916C111.99 330.212 112.671 331.624 113.004 332.488C116.11 341.626 119.118 351.511 121.892 362.095C124.717 372.911 126.96 383.228 128.738 392.915C128.937 393.911 129.136 395.473 128.854 397.367C128.688 398.464 128.488 399.743 127.641 401.039C126.295 403.066 124.185 403.814 123.271 404.079C115.114 405.608 105.793 406.837 95.4921 407.369C87.3843 407.784 79.8746 407.701 73.0627 407.336C72.5642 407.253 70.4375 406.887 68.8592 404.943C67.3971 403.132 67.3638 401.155 67.3638 400.607L67.3306 400.59Z" stroke="black" stroke-width="3.71904" stroke-linecap="round" stroke-linejoin="round"/>
<path d="M67.5297 337.139C66.5328 345.995 65.2038 355.315 63.4925 365.035C62.0969 372.96 60.5351 380.553 58.8736 387.763C58.7075 388.528 58.425 389.707 58.0429 391.136C56.9131 395.306 56.2818 396.27 56.5808 397.715C56.7636 398.613 57.3286 399.726 60.2361 401.736C62.3794 403.215 65.8682 405.242 70.8526 406.588" stroke="black" stroke-width="3.71904" stroke-linecap="round" stroke-linejoin="round"/>
<path d="M107.288 361.994L107.571 366.48C107.621 367.195 107.072 367.826 106.341 367.876L102.487 368.125C101.772 368.175 101.224 368.79 101.257 369.521L101.506 373.375C101.556 374.09 101.008 374.721 100.277 374.771L95.7909 375.053C95.0765 375.103 94.4452 374.555 94.3954 373.824L94.1461 369.936C94.0963 369.222 93.4816 368.673 92.7506 368.706L88.8629 368.956C88.1484 369.006 87.5169 368.457 87.4671 367.726L87.1848 363.24C87.1349 362.526 87.6832 361.895 88.4142 361.845L92.9 361.562C93.6145 361.512 94.246 362.061 94.2958 362.792L94.5449 366.679C94.5947 367.394 95.2096 367.942 95.9406 367.909L99.197 367.693C99.9114 367.643 100.46 367.028 100.426 366.297L100.177 362.443C100.127 361.729 100.676 361.097 101.407 361.047L105.893 360.765C106.607 360.715 107.238 361.263 107.288 361.994Z" stroke="black" stroke-width="3.71904" stroke-linecap="round" stroke-linejoin="round"/>
<path d="M82.5158 338.086C78.113 333.202 77.382 326.606 80.3062 322.269C82.0507 319.694 85.1411 317.817 88.4805 317.634C93.8138 317.351 97.2861 321.522 98.5654 323.05C102.005 327.17 102.32 331.839 102.337 333.517" stroke="black" stroke-width="3.71904" stroke-linecap="round" stroke-linejoin="round"/>
<path d="M82.4496 339.814C83.4039 339.814 84.1774 339.041 84.1774 338.086C84.1774 337.132 83.4039 336.358 82.4496 336.358C81.4954 336.358 80.7217 337.132 80.7217 338.086C80.7217 339.041 81.4954 339.814 82.4496 339.814Z" stroke="black" stroke-width="3.71904" stroke-linecap="round" stroke-linejoin="round"/>
<path d="M102.353 335.644C103.308 335.644 104.081 334.87 104.081 333.916C104.081 332.962 103.308 332.188 102.353 332.188C101.399 332.188 100.625 332.962 100.625 333.916C100.625 334.87 101.399 335.644 102.353 335.644Z" stroke="black" stroke-width="3.71904" stroke-linecap="round" stroke-linejoin="round"/>
</svg>
