<svg width="542" height="542" viewBox="0 0 542 542" fill="none" xmlns="http://www.w3.org/2000/svg">
<path d="M531.017 349.052C531.017 349.697 530.983 350.326 530.932 350.972C529.522 376.101 515.029 402.946 494.335 418.883C462.188 443.621 420.884 437.556 403.384 434.973C373.871 430.641 368.111 420.497 342.473 423.233C335.167 424.014 308.39 427.242 288.511 447.597C286.081 450.078 286.591 449.925 282.853 454.139C274.493 463.517 257.503 482.632 234.99 492.418C228.534 495.239 198.324 507.421 167.979 495.035C160.062 491.807 153.418 487.423 147.472 482.326C146.775 481.731 146.078 481.12 145.399 480.508C137.855 473.678 131.416 465.709 124.874 457.605C111.655 441.226 114.561 438.643 100.951 423.657C96.9246 419.24 92.8129 415.213 88.8031 411.594C88.1404 410.999 87.4778 410.422 86.8322 409.861C77.2835 401.468 68.6182 395.521 63.9458 392.327C51.8995 384.137 49.7927 384.29 43.5061 379.72C42.9964 379.346 42.4697 378.972 41.96 378.564C41.2634 378.038 40.5668 377.46 39.8532 376.865C29.5229 368.2 18.1392 353.248 11.0881 325.995C9.76285 316.124 8.19972 293.645 20.2291 270.504C22.4208 266.325 28.1806 256.079 38.8337 246.106C39.2075 245.749 39.5983 245.409 39.9721 245.069C44.3217 241.127 49.4529 237.288 55.4336 233.906C56.9967 233.023 58.5429 232.207 60.106 231.477C60.7007 231.171 61.2953 230.882 61.89 230.627C100.085 213.229 134.593 232.853 160.554 207.197C166.178 201.641 168.574 196.748 171.428 191.753C184.8 168.306 212.699 134.206 251.08 107.394C251.811 106.885 252.541 106.375 253.306 105.865C274.527 91.3383 298.875 79.1051 325.686 72.088C346.822 66.5491 405.984 51.0536 456.887 83.8285C463.905 88.348 477.718 98.2705 489.9 114.344C490.818 115.567 491.752 116.807 492.653 118.099C493.706 119.628 494.759 121.191 495.779 122.805C496.357 123.722 496.917 124.657 497.478 125.608C500.332 130.4 502.949 135.616 505.192 141.257C521.605 182.459 510.917 227.059 505.837 240.482C505.362 241.722 504.206 244.644 503.442 248.756C500.434 264.999 507.553 278.694 512.158 288.344C513.143 290.417 526.073 317.806 529.556 333.165C530.711 338.28 531.17 343.615 531 349.052H531.017Z" fill="#F2F4F7"/>
<path d="M492.671 118.115C491.175 117.639 489.663 117.197 488.134 116.773C479.044 114.241 469.767 112.372 460.388 111.217C441.495 108.889 422.295 109.348 403.555 112.678C393.411 114.462 383.387 116.959 373.295 119.049C363.865 120.986 354.367 122.464 344.767 123.144C326.163 124.486 307.354 123.178 289.089 119.406C279.965 117.503 270.977 114.955 262.227 111.777C258.489 110.418 254.768 108.957 251.115 107.377C251.846 106.867 252.576 106.357 253.341 105.848C267.511 111.607 282.31 115.787 297.398 118.285C315.883 121.36 334.845 121.802 353.467 119.559C373.448 117.18 392.732 110.945 412.696 108.396C431.402 106.018 450.415 106.493 469.003 109.62C476.054 110.809 483.037 112.372 489.935 114.326C490.853 115.549 491.787 116.79 492.688 118.081L492.671 118.115Z" fill="white"/>
<path d="M350.475 386.806C348.266 387.078 346.091 387.332 343.917 387.757C339.788 388.573 335.574 389.116 331.411 389.762C327.232 390.391 323.035 391.019 318.872 391.767C310.462 393.228 302.103 395.012 293.811 397.102C277.262 401.248 260.985 406.583 245.184 413.073C229.519 419.513 214.278 427.073 199.7 435.705C186.821 443.333 174.418 451.999 163.697 462.516C158.447 467.681 153.656 473.288 149.459 479.353C148.763 480.356 148.1 481.358 147.471 482.361C146.775 481.766 146.078 481.154 145.398 480.543C150.784 471.725 157.717 463.875 165.362 456.909C176.729 446.562 189.642 438.015 202.98 430.438C217.982 421.908 233.614 414.483 249.704 408.197C265.777 401.927 282.343 396.813 299.146 392.922C307.591 390.968 316.086 389.32 324.649 387.995C328.948 387.315 333.263 386.772 337.613 386.466C341.895 386.143 346.159 386.007 350.441 385.82C351.104 385.786 351.07 386.755 350.441 386.84L350.475 386.806Z" fill="white"/>
<path d="M64.0637 298.249C62.9933 310.041 61.1414 321.764 58.4059 333.284C55.6874 344.752 52.0514 356.017 47.4299 366.874C45.7479 370.833 43.9299 374.724 41.976 378.564C41.2793 378.037 40.5827 377.459 39.8691 376.865C42.4177 371.903 44.7114 366.806 46.7843 361.624C51.0999 350.835 54.447 339.638 56.9277 328.272C59.4083 316.82 61.0394 305.181 61.9059 293.492C62.7215 282.618 62.8744 271.676 62.4666 260.785C62.4326 259.799 62.3986 258.814 62.3477 257.846C62.2967 256.928 62.2627 256.028 62.2118 255.11C61.872 248.518 61.3113 241.925 60.5637 235.35C60.4108 234.059 60.2579 232.75 60.1049 231.459C60.6996 231.153 61.2943 230.864 61.8889 230.61C63.4691 240.192 64.4375 249.86 64.8963 259.579C64.8963 259.748 64.8963 259.935 64.9303 260.105C64.9812 260.955 64.9982 261.787 65.0322 262.654C65.474 274.513 65.1342 286.424 64.0298 298.249H64.0637Z" fill="white"/>
<path d="M112.097 356.001C109.344 373.281 102.242 389.524 93.305 404.458C91.8608 406.871 90.3657 409.25 88.8195 411.595C88.1569 411 87.4942 410.422 86.8486 409.861C89.3632 406.022 91.7589 402.114 94.0016 398.121C102.327 383.237 108.563 366.892 110.279 349.817C111.128 341.44 110.89 332.945 109.242 324.671C107.73 317.076 105.046 309.753 101.461 302.906C94.1376 288.871 83.3146 276.961 70.9794 267.124C69.0425 265.577 67.0546 264.065 65.0667 262.638C64.2171 261.992 63.3506 261.381 62.4841 260.769C58.4913 257.949 54.3796 255.298 50.1999 252.749C46.5809 250.558 42.9449 248.451 39.292 246.344C39.139 246.259 39.0201 246.191 38.8672 246.089C39.241 245.732 39.6317 245.393 40.0055 245.053C45.8673 247.856 51.5591 251.05 57.0641 254.415C58.8481 255.519 60.6151 256.64 62.3652 257.83C63.2317 258.39 64.0812 258.968 64.9308 259.563C69.3653 262.621 73.6469 265.9 77.7077 269.417C89.669 279.765 99.9314 292.473 106.32 307.017C109.599 314.442 111.791 322.241 112.776 330.312C113.813 338.858 113.473 347.506 112.097 356.001Z" fill="white"/>
<path d="M531.017 349.052C531.017 349.698 530.983 350.326 530.932 350.972C528.927 351.719 526.855 352.263 524.833 352.756C519.583 353.996 514.247 354.846 508.861 355.237C490.342 356.596 470.87 352.076 456.191 340.37C449.717 335.222 444.008 328.697 440.202 321.323C438.266 317.585 436.787 313.695 435.768 309.617C434.782 305.607 434.579 301.376 434.799 297.265C434.833 296.738 435.547 296.755 435.598 297.265C435.972 301.784 437.093 306.236 438.571 310.534C439.999 314.697 441.97 318.673 444.263 322.428C453.115 336.904 467.863 346.571 484.225 350.445C493.23 352.569 502.541 352.994 511.75 352.297C516.371 351.94 520.976 351.278 525.529 350.309C527.347 349.918 529.233 349.562 531.068 349.052H531.017Z" fill="white"/>
<path d="M497.513 125.625C492.806 125.727 488.1 125.999 483.41 126.492C466.301 128.276 449.446 132.931 433.866 140.22C426.067 143.873 418.574 148.172 411.506 153.048C407.955 155.495 404.506 158.094 401.176 160.847C399.494 162.206 397.846 163.582 396.215 164.993C394.533 166.42 392.969 167.949 391.202 169.274C390.387 169.869 389.197 168.68 389.809 167.881C391.321 165.859 393.207 164.109 395.025 162.359C396.792 160.677 398.61 159.063 400.496 157.5C404.285 154.356 408.244 151.434 412.356 148.699C426.917 138.946 443.245 131.776 460.218 127.443C468.781 125.269 477.532 123.824 486.35 123.179C489.51 122.941 492.67 122.822 495.831 122.805C496.408 123.722 496.969 124.657 497.53 125.608L497.513 125.625Z" fill="white"/>
<path d="M304.345 454.529C302.425 448.685 310.326 441.786 312.178 440.172C321.489 432.051 337.817 427.225 342.863 433.325C346.703 437.98 343.084 447.954 338.293 453.561C331.53 461.478 320.469 463.042 312.671 460.578C310.377 459.847 305.586 458.335 304.345 454.546V454.529Z" fill="#EEA563"/>
<path d="M310.361 449.449C311.193 450.01 312.365 449.823 313.266 449.551C313.742 449.398 314.269 449.211 314.71 448.973C315.033 448.803 315.322 448.548 315.611 448.31C315.985 448.005 315.135 448.667 315.509 448.378C316.647 447.529 317.82 446.696 319.043 445.932C320.266 445.167 321.455 444.539 322.696 443.893C323.307 443.57 323.902 443.247 324.531 442.941C325.193 442.619 323.953 443.128 324.429 442.975C324.599 442.925 324.752 442.856 324.922 442.806C325.295 442.687 325.669 442.602 326.06 442.534C326.994 442.381 327.997 441.463 328.456 440.699C328.965 439.832 329.169 438.575 328.863 437.606C328.133 435.364 326.162 434.429 323.936 434.803C322.169 435.109 320.453 435.992 318.924 436.893C317.395 437.793 315.934 438.949 314.523 440.053C313.334 441.005 312.213 442.024 311.159 443.111C309.698 444.606 308.101 447.92 310.395 449.449H310.361Z" fill="white"/>
<path d="M333.075 436.043C333.075 436.043 333.041 436.009 333.024 435.992L333.262 436.298C333.262 436.298 333.228 436.247 333.211 436.23L333.364 436.604C333.364 436.604 333.347 436.536 333.33 436.502L333.381 436.91C333.381 436.91 333.381 436.825 333.381 436.791L333.33 437.215C333.33 437.215 333.33 437.164 333.347 437.13L333.177 437.521C333.177 437.521 333.194 437.487 333.211 437.453L332.956 437.793C332.956 437.793 332.99 437.759 333.007 437.742L331.376 438.167C331.376 438.167 331.41 438.167 331.427 438.167L331.019 437.997C331.019 437.997 331.07 438.031 331.087 438.048L330.747 437.776C330.747 437.776 330.764 437.776 330.764 437.793L330.323 437.028C330.323 437.028 330.323 437.079 330.34 437.113L330.272 436.638C330.272 436.638 330.272 436.706 330.272 436.74L330.34 436.23C330.34 436.23 330.34 436.298 330.306 436.315L330.509 435.839C330.509 435.839 330.475 435.89 330.475 435.907L330.798 435.499C330.798 435.499 330.764 435.533 330.747 435.55L331.172 435.227C331.172 435.227 331.155 435.227 331.138 435.244L331.648 435.024C331.648 435.024 331.631 435.024 331.614 435.024L334.315 436.553V436.519L334.4 437.113C334.4 437.113 334.4 437.028 334.4 436.977L334.315 437.623C334.349 437.402 334.4 437.164 334.4 436.943C334.4 436.502 334.281 436.094 334.06 435.703C333.925 435.533 333.806 435.363 333.67 435.193L334.044 435.686C334.044 435.686 333.959 435.567 333.925 435.482L334.162 436.06C334.162 436.06 334.111 435.907 334.094 435.822L334.179 436.468C334.179 436.468 334.179 436.315 334.179 436.247L334.094 436.893C334.094 436.893 334.129 436.74 334.146 436.672L333.908 437.249C333.908 437.249 333.942 437.198 333.959 437.164L330.153 437.657C330.153 437.657 330.221 437.725 330.255 437.776L329.881 437.283C329.881 437.283 329.966 437.385 330 437.453L329.677 436.23C329.677 436.23 329.677 436.332 329.677 436.4L329.762 435.737C329.762 435.856 329.711 435.975 329.66 436.077L329.932 435.431C329.932 435.431 329.898 435.499 329.881 435.533C329.745 435.788 329.694 435.822 329.541 436.281C329.524 436.366 329.49 436.451 329.456 436.536L329.745 435.856C329.745 435.856 329.694 435.941 329.677 435.992L333.602 434.956C333.602 434.956 333.517 434.905 333.483 434.871L334.06 435.329C334.06 435.329 333.976 435.261 333.942 435.21L334.4 435.805C334.23 435.584 334.061 435.346 333.874 435.126L334.332 435.72C334.332 435.72 334.247 435.601 334.213 435.533L334.502 436.23C334.502 436.23 334.451 436.094 334.451 436.026L334.553 436.808C334.553 436.808 334.553 436.689 334.553 436.621L334.451 437.402C334.451 437.402 334.468 437.3 334.485 437.249L334.196 437.946C334.196 437.946 334.247 437.844 334.281 437.81L333.823 438.405C333.823 438.405 333.891 438.337 333.925 438.303L333.33 438.761C333.33 438.761 333.432 438.694 333.483 438.677L332.786 438.965C332.786 438.965 332.922 438.914 332.99 438.914L332.226 439.016C332.226 439.016 332.361 439.016 332.412 439.016L331.648 438.914C331.648 438.914 331.767 438.931 331.835 438.965L331.138 438.677C331.138 438.677 331.223 438.71 331.257 438.744L330.679 438.286C330.679 438.286 330.747 438.354 330.781 438.388L330.34 437.81C330.34 437.81 330.391 437.878 330.408 437.929L330.119 437.249C330.119 437.249 330.153 437.351 330.153 437.402L330.051 436.638C330.051 436.638 330.051 436.757 330.051 436.808L330.153 436.043C330.153 436.043 330.119 436.196 330.085 436.264L330.374 435.584C330.374 435.584 330.323 435.703 330.272 435.754L330.713 435.176C330.628 435.278 330.543 435.38 330.458 435.499C330.204 435.771 330.034 436.094 329.949 436.468C329.898 436.723 329.864 436.977 329.847 437.232C329.847 437.623 329.915 437.98 330.085 438.32C330.204 438.676 330.391 438.965 330.662 439.237L331.24 439.679C331.682 439.934 332.158 440.07 332.667 440.07C333.143 440.104 333.704 439.917 334.111 439.679C334.332 439.56 334.519 439.39 334.706 439.22C334.723 439.203 334.757 439.186 334.774 439.152C334.978 438.931 335.182 438.693 335.318 438.439C335.454 438.184 335.59 437.895 335.658 437.606C335.658 437.606 335.658 437.572 335.658 437.555C335.692 437.334 335.743 436.994 335.76 436.774C335.76 436.74 335.76 436.706 335.76 436.672C335.743 436.366 335.726 436.043 335.624 435.754C335.437 435.16 335.352 435.058 335.029 434.633C334.706 434.208 334.655 434.157 334.111 433.783C333.857 433.613 333.534 433.511 333.279 433.409C333.245 433.409 333.228 433.392 333.194 433.392C333.177 433.392 333.16 433.392 333.143 433.392C332.905 433.358 332.582 433.308 332.361 433.291C332.293 433.291 332.226 433.291 332.175 433.291C331.988 433.308 331.512 433.341 331.24 433.443C331.002 433.528 330.645 433.647 330.391 433.817C330.221 433.936 329.966 434.14 329.796 434.276C329.796 434.276 329.762 434.293 329.762 434.31C329.745 434.327 329.728 434.344 329.694 434.378C329.184 434.973 329.15 435.075 328.861 435.805C328.759 436.094 328.742 436.519 328.709 436.74C328.692 436.926 328.742 437.13 328.759 437.317C328.776 437.453 328.793 437.657 328.827 437.81C328.861 437.963 328.946 438.133 329.014 438.252C329.082 438.371 329.133 438.558 329.201 438.694C329.269 438.829 329.405 438.965 329.49 439.067C329.609 439.22 329.643 439.288 329.745 439.39C329.847 439.492 329.983 439.577 330.085 439.645C330.187 439.713 330.323 439.849 330.458 439.934C330.73 440.087 331.036 440.24 331.342 440.291C331.716 440.41 332.107 440.427 332.48 440.342C332.854 440.325 333.211 440.206 333.551 440.002L334.129 439.56C334.485 439.203 334.723 438.779 334.859 438.303C334.944 437.963 334.995 437.589 335.012 437.232C335.029 436.655 334.859 436.06 334.553 435.567C334.383 435.295 334.196 435.04 333.976 434.82C333.755 434.599 333.517 434.429 333.262 434.259L333.755 434.633C333.874 434.786 334.01 434.939 334.129 435.109C334.095 435.058 334.061 435.007 334.027 434.939C333.891 434.752 333.755 434.565 333.602 434.395C333.585 434.361 333.551 434.344 333.534 434.31C333.228 434.004 332.871 433.8 332.463 433.681C332.141 433.579 331.818 433.562 331.495 433.63C331.172 433.63 330.866 433.749 330.594 433.919C330.238 434.14 329.949 434.429 329.728 434.786C329.711 434.82 329.694 434.837 329.677 434.871C329.626 434.973 329.575 435.109 329.541 435.193C329.507 435.295 329.439 435.414 329.405 435.516C329.405 435.55 329.388 435.584 329.371 435.601C329.371 435.618 329.371 435.635 329.371 435.652C329.337 435.856 329.303 436.111 329.286 436.315C329.286 436.383 329.286 436.434 329.286 436.502C329.286 436.519 329.286 436.536 329.286 436.553C329.303 436.774 329.337 437.011 329.371 437.215C329.371 437.249 329.371 437.283 329.388 437.317C329.456 437.572 329.575 437.827 329.694 438.065C329.694 438.099 329.728 438.116 329.745 438.15C329.745 438.15 329.762 438.184 329.779 438.184C329.932 438.49 330.136 438.71 330.408 438.88C330.56 439.033 330.747 439.135 330.951 439.186C331.053 439.237 331.155 439.288 331.257 439.305L331.903 439.39C331.903 439.39 331.903 439.39 331.92 439.39C331.937 439.39 331.971 439.39 331.988 439.39C332.141 439.39 332.497 439.356 332.718 439.271C333.092 439.169 333.415 438.982 333.687 438.711C333.908 438.507 334.061 438.269 334.146 437.997C334.281 437.742 334.349 437.453 334.332 437.147C334.332 436.757 334.23 436.383 334.027 436.043C334.027 436.026 334.01 436.009 333.993 435.992C333.891 435.822 333.772 435.669 333.636 435.516C333.636 435.516 333.636 435.516 333.619 435.499C333.534 435.414 333.296 435.244 333.194 435.176C333.177 435.176 333.16 435.159 333.126 435.142L332.667 434.939C332.667 434.939 332.65 434.939 332.633 434.939C332.446 434.888 332.26 434.871 332.09 434.854C332.073 434.854 332.039 434.854 332.022 434.854C331.92 434.854 331.631 434.888 331.529 434.922C331.529 434.922 331.512 434.922 331.495 434.922L331.954 434.854C331.954 434.854 331.903 434.854 331.886 434.854C331.801 434.854 331.716 434.871 331.648 434.888C331.563 434.888 331.478 434.905 331.41 434.922C331.393 434.922 331.359 434.922 331.342 434.939L330.951 435.109C330.696 435.261 330.492 435.448 330.357 435.703C330.102 436.128 330.051 436.689 330.204 437.164C330.238 437.3 330.323 437.453 330.374 437.572C330.374 437.589 330.391 437.623 330.408 437.64C330.493 437.776 330.594 437.929 330.713 438.048C330.951 438.269 331.257 438.473 331.58 438.541L331.971 438.592C332.175 438.592 332.361 438.558 332.548 438.456C332.667 438.422 332.786 438.354 332.871 438.269C333.041 438.167 333.16 438.031 333.262 437.844L333.415 437.487L333.466 437.096C333.466 436.893 333.432 436.706 333.33 436.519C333.262 436.332 333.16 436.179 333.024 436.043H333.075Z" fill="white"/>
<path d="M107.731 184.906C105.981 178.704 110.891 172.367 113.202 169.376C118.401 162.682 125.231 160.337 128.612 159.233C133.539 157.619 137.583 156.293 141.882 157.925C148.559 160.456 152.331 168.782 151.889 175.765C151.244 186.112 141.321 193.384 132.52 195.134C122.75 197.071 110.024 193.044 107.714 184.906H107.731Z" fill="#F2F4F7"/>
<path d="M129.479 170.99C128.613 167.983 132.045 163.175 135.783 163.158C140.506 163.124 143.768 170.735 141.984 173.369C140.03 176.274 130.668 175.102 129.462 170.99H129.479Z" fill="white"/>
<path d="M186.021 140.814C233.238 137.823 283.53 136.175 336.558 136.498C379.901 136.77 421.324 138.316 460.691 140.814C462.441 140.814 471.701 140.984 479.194 148.476C483.934 153.217 486.857 159.758 486.857 166.979V384.425C486.857 398.867 475.15 410.59 460.691 410.59C415.003 412.918 367.022 414.209 316.934 414.09C271.501 413.988 227.801 412.731 186.021 410.59C184.271 410.59 175.011 410.42 167.518 402.928C162.778 398.187 159.855 391.646 159.855 384.425V166.979C159.855 152.537 171.562 140.814 186.021 140.814Z" fill="white"/>
<path d="M485.378 359.67C483.866 366.297 481.436 372.583 477.358 378.088C473.28 383.593 468.098 387.688 462.339 391.035C456.579 394.382 450.547 396.931 444.396 399.292C437.464 401.96 430.481 404.526 423.362 406.632C419.335 407.822 415.258 408.858 411.129 409.64C409.039 410.031 406.932 410.285 404.825 410.659C402.719 411.033 400.493 411.509 398.267 411.73C397.961 411.764 397.944 412.205 398.267 412.222C400.187 412.273 402.124 412.307 404.044 412.29C405.964 412.273 407.901 411.933 409.804 411.594C413.61 410.948 417.381 410.064 421.102 409.028C428.612 406.955 435.918 404.254 443.207 401.518C455.729 396.795 468.761 391.307 477.29 380.501C481.946 374.622 485.293 367.265 485.905 359.738C485.922 359.432 485.446 359.365 485.378 359.67Z" fill="black"/>
<path d="M475.778 391.579C467.334 394.688 458.737 397.016 449.901 398.647C441.066 400.278 431.62 401.722 422.462 403.098C403.653 405.936 384.726 408.161 365.696 408.246C355.009 408.297 344.271 407.957 333.686 406.377C333.499 406.343 333.414 406.632 333.601 406.666C342.878 408.365 352.341 409.555 361.771 409.742C371.201 409.928 380.937 409.47 390.485 408.62C400.034 407.771 409.498 406.53 418.962 405.137C428.425 403.744 437.685 402.317 446.996 400.634C456.868 398.85 467.045 396.761 476.016 392.088C476.305 391.935 476.101 391.46 475.795 391.562L475.778 391.579Z" fill="black"/>
<path d="M486.992 186.892C471.021 186.315 454.914 185.805 438.671 185.38C411.707 184.7 384.369 184.208 356.674 183.97C288.933 183.392 223.247 184.293 159.736 186.4V165.076C160.093 162.562 161.452 155.426 167.484 149.088C173.38 142.887 180.244 141.12 182.742 140.627C225.524 137.806 270.991 136.107 318.87 136.022C359.885 135.937 399.151 137.042 436.462 139.047C442.953 139.37 449.375 139.743 455.747 140.134C457.531 139.947 469.152 139.013 478.038 147.644C483.747 153.2 485.31 159.809 485.786 162.426C486.194 170.581 486.584 178.72 486.992 186.892Z" fill="#EEA563"/>
<path d="M486.993 186.892C471.022 186.314 454.915 185.805 438.672 185.38C437.941 169.935 437.193 154.491 436.463 139.046C442.953 139.369 449.376 139.743 455.747 140.134C457.531 139.947 469.153 139.012 478.039 147.644C483.748 153.2 485.311 159.809 485.787 162.425C486.194 170.581 486.585 178.719 486.993 186.892Z" fill="#C9C8C8"/>
<path d="M440.336 139.166C445.433 136.601 455.865 139.778 457.462 145.521C458.346 148.681 456.375 151.943 453.521 153.88C449.477 156.598 442.834 157.176 439.164 154.611C436.19 152.521 436.309 149.14 436.377 147.169C436.445 145.555 436.615 141.035 440.319 139.183L440.336 139.166Z" fill="white"/>
<path d="M461.065 152.741C459.773 152.486 458.482 148.731 459.977 146.199C461.489 143.634 465.72 142.58 467.963 144.568C469.866 146.25 469.968 149.75 468.694 150.753C467.555 151.636 465.941 150.107 463.613 151.109C462.05 151.789 461.812 152.893 461.065 152.741Z" fill="white"/>
<path d="M186.021 140.814C233.238 137.823 283.53 136.175 336.558 136.498C379.901 136.77 421.324 138.316 460.691 140.814C462.441 140.814 471.701 140.984 479.194 148.476C483.934 153.217 486.857 159.758 486.857 166.979V384.425C486.857 398.867 475.15 410.59 460.691 410.59C415.003 412.918 367.022 414.209 316.934 414.09C271.501 413.988 227.801 412.731 186.021 410.59C184.271 410.59 175.011 410.42 167.518 402.928C162.778 398.187 159.855 391.646 159.855 384.425V166.979C159.855 152.537 171.562 140.814 186.021 140.814Z" stroke="black" stroke-width="3.22" stroke-linecap="round" stroke-linejoin="round"/>
<path d="M159.873 186.603C212.493 184.921 266.659 184.004 322.286 183.987C378.678 183.987 433.574 184.904 486.874 186.603" stroke="black" stroke-width="3.22" stroke-linecap="round" stroke-linejoin="round"/>
<path d="M436.377 139.404C436.887 146.947 437.294 154.695 437.583 162.664C437.855 170.394 438.008 177.921 438.059 185.261" stroke="black" stroke-width="3.22" stroke-linecap="round" stroke-linejoin="round"/>
<path d="M454.523 156.649C456.953 158.671 459.655 161.219 462.373 164.38C465.482 167.999 467.81 171.499 469.543 174.506" stroke="black" stroke-width="3.22" stroke-linecap="round" stroke-linejoin="round"/>
<path d="M453.742 173.775C455.56 171.193 457.888 168.287 460.81 165.314C464.157 161.933 467.454 159.316 470.308 157.345" stroke="black" stroke-width="3.22" stroke-linecap="round" stroke-linejoin="round"/>
<path d="M404.35 162.188C407.204 161.9 410.364 161.713 413.813 161.73C417.687 161.73 421.221 162.018 424.364 162.409" stroke="black" stroke-width="3.22" stroke-linecap="round" stroke-linejoin="round"/>
<path d="M423.839 216.795H235.804C226.777 216.795 219.459 224.113 219.459 233.14V272.388C219.459 281.415 226.777 288.733 235.804 288.733H423.839C432.866 288.733 440.184 281.415 440.184 272.388V233.14C440.184 224.113 432.866 216.795 423.839 216.795Z" fill="#C9C8C8"/>
<path d="M421.835 237.508C419.253 234.84 416.772 229.59 419.168 226.6C421.377 223.847 426.746 224.255 429.821 226.6C434.476 230.151 434.527 238.578 431.282 240.651C428.751 242.265 424.248 239.988 421.835 237.508Z" fill="white"/>
<path d="M410.791 246.783C407.834 248.381 400.189 252.645 396.875 261.48C395.703 264.607 394.65 267.41 395.907 269.959C398.387 274.988 407.664 274.699 412.371 274.563C418.012 274.393 422.48 274.257 425.454 270.927C428.376 267.648 428.053 263.264 427.628 257.606C427.221 251.983 426.762 245.798 422.786 243.793C419.439 242.111 415.361 244.303 410.774 246.783H410.791Z" fill="white"/>
<path d="M224.303 282.719C333.45 282.685 412.966 282.515 422.804 282.43C424.35 282.43 427.255 282.226 430.314 280.612C438.707 276.177 439.574 265.575 439.642 264.624C439.523 268.99 439.404 273.374 439.285 277.741C438.877 278.998 437.62 282.43 434.12 285.08C430.195 288.071 425.998 288.139 424.741 288.122C362.198 288.326 299.656 288.53 237.114 288.733C235.5 288.818 231.099 288.801 227.208 285.811C225.9 284.792 224.965 283.687 224.303 282.719Z" fill="black"/>
<path d="M423.839 216.795H235.804C226.777 216.795 219.459 224.113 219.459 233.14V272.388C219.459 281.415 226.777 288.733 235.804 288.733H423.839C432.866 288.733 440.184 281.415 440.184 272.388V233.14C440.184 224.113 432.866 216.795 423.839 216.795Z" stroke="black" stroke-width="3.22" stroke-linecap="round" stroke-linejoin="round"/>
<path d="M262.004 233.496C261.562 238.169 261.29 243.181 261.239 248.499C261.154 257.13 261.715 265.048 262.598 272.048" stroke="black" stroke-width="3.22" stroke-linecap="round" stroke-linejoin="round"/>
<path d="M339.617 310.635H319.993C314.579 310.635 310.189 315.024 310.189 320.438V340.062C310.189 345.477 314.579 349.866 319.993 349.866H339.617C345.032 349.866 349.421 345.477 349.421 340.062V320.438C349.421 315.024 345.032 310.635 339.617 310.635Z" fill="#FFEECD"/>
<path d="M328.098 310.635C327.962 311.11 326.874 315.324 329.559 318.654C331.717 321.339 336.236 323.326 339.498 321.084C342.421 319.062 343.304 314.338 340.739 310.702C336.525 310.685 332.328 310.652 328.114 310.635H328.098Z" fill="white"/>
<path d="M310.935 316.7C308.54 324.04 310.052 331.839 315.013 336.817C318.802 340.623 325.19 343.341 331.001 341.659C332.191 341.319 336.472 340.079 338.018 336.579C339.31 333.691 337.832 331.295 339.225 330.275C340.771 329.154 344.254 330.921 346.242 332.943C348.739 335.492 350.218 339.807 348.739 343.664C347.567 346.688 345.07 348.183 343.812 348.914C340.788 350.698 337.916 350.8 333.89 350.868C330.067 350.936 330.526 350.392 323.237 349.866C318.411 349.526 317.12 349.679 315.268 348.642C312.617 347.164 311.275 344.564 310.579 342.763C310.698 334.081 310.816 325.382 310.935 316.7Z" fill="white"/>
<path d="M339.617 310.635H319.993C314.579 310.635 310.189 315.024 310.189 320.438V340.062C310.189 345.477 314.579 349.866 319.993 349.866H339.617C345.032 349.866 349.421 345.477 349.421 340.062V320.438C349.421 315.024 345.032 310.635 339.617 310.635Z" stroke="black" stroke-width="3.22" stroke-linecap="round" stroke-linejoin="round"/>
<path d="M350.218 337.598C348.468 335.424 345.24 334.965 342.64 335.44C339.616 336.001 337.322 338.159 334.943 339.926C329.778 343.749 323.033 344.887 317.103 342.118C314.062 340.708 311.768 338.278 309.339 336.069C309.152 335.899 308.795 336.069 308.897 336.324C309.373 337.649 309.933 338.737 310.953 339.739C311.972 340.742 313.213 341.676 314.47 342.441C316.967 343.953 319.788 344.853 322.693 345.091C325.803 345.346 328.946 344.768 331.817 343.545C334.689 342.322 336.965 340.028 339.667 338.397C341.213 337.462 342.878 336.851 344.713 336.851C346.548 336.851 348.264 337.445 349.997 338.006C350.252 338.091 350.371 337.768 350.235 337.598H350.218Z" fill="black"/>
<path d="M321.81 311.365C321.657 312.572 321.708 313.591 322.065 314.763C322.404 315.868 322.931 316.938 323.611 317.856C324.953 319.657 326.822 321.016 328.912 321.815C331.002 322.613 333.482 322.953 335.589 322.035C337.441 321.237 338.8 319.572 339.412 317.652C340.092 315.494 339.786 312.164 337.934 310.618C337.56 310.312 336.796 310.584 337.016 311.161C337.458 312.3 338.087 313.285 338.291 314.509C338.495 315.732 338.359 317.04 337.798 318.162C336.694 320.353 334.4 321.509 331.987 321.152C326.873 320.404 323.05 316.327 322.218 311.314C322.167 311.043 321.81 311.144 321.793 311.365H321.81Z" fill="black"/>
<path d="M282.391 310.635H262.766C257.352 310.635 252.963 315.024 252.963 320.438V340.062C252.963 345.477 257.352 349.866 262.766 349.866H282.391C287.805 349.866 292.194 345.477 292.194 340.062V320.438C292.194 315.024 287.805 310.635 282.391 310.635Z" fill="#FFEECD"/>
<path d="M289.697 314.882C288.202 315.018 283.903 315.595 280.012 318.993C278.908 319.962 275.306 323.105 274.677 327.829C274.337 330.428 275.17 331.448 274.185 333.283C273.182 335.186 270.786 336.935 268 336.698C264.194 336.358 262.614 332.518 262.427 332.076C260.966 328.423 263.056 325.008 263.396 324.464C265.281 321.508 267.643 321.831 268.968 319.35C269.733 317.94 270.209 315.527 268.357 311.263C270.26 310.532 275.612 308.782 281.915 310.617C285.585 311.688 288.185 313.59 289.663 314.865L289.697 314.882Z" fill="white"/>
<path d="M282.391 310.635H262.766C257.352 310.635 252.963 315.024 252.963 320.438V340.062C252.963 345.477 257.352 349.866 262.766 349.866H282.391C287.805 349.866 292.194 345.477 292.194 340.062V320.438C292.194 315.024 287.805 310.635 282.391 310.635Z" stroke="black" stroke-width="3.22" stroke-linecap="round" stroke-linejoin="round"/>
<path d="M268.85 311.245C268.629 313.743 268.119 316.037 266.862 318.228C265.808 320.097 264.432 321.796 262.937 323.343C261.442 324.889 259.777 326.18 257.908 327.216C256.939 327.76 255.92 328.236 254.883 328.644C253.949 329.001 252.997 329.221 252.114 329.697C251.876 329.833 251.978 330.224 252.25 330.224C253.388 330.224 254.476 329.765 255.529 329.357C256.582 328.95 257.534 328.491 258.502 327.947C260.507 326.826 262.393 325.449 264.058 323.869C265.723 322.289 267.167 320.369 268.204 318.296C269.24 316.224 270.124 313.556 269.274 311.211C269.189 310.973 268.867 311.024 268.85 311.262V311.245Z" fill="black"/>
<path d="M290.241 315.663C289.034 315.544 287.607 316.037 286.503 316.495C285.177 317.039 283.954 317.753 282.833 318.619C280.709 320.25 278.908 322.323 277.719 324.736C274.677 330.903 275.306 338.464 271.551 344.326C270.582 345.855 269.257 347.146 267.677 348.03C266.097 348.913 264.228 349.168 262.376 349.083C262.036 349.083 262.002 349.559 262.291 349.661C264.908 350.544 267.779 349.253 269.784 347.588C272.197 345.583 273.488 342.746 274.507 339.84C275.714 336.408 276.342 332.789 277.294 329.289C278.143 326.129 279.571 323.275 281.915 320.964C283.088 319.791 284.43 318.823 285.891 318.007C286.588 317.617 287.318 317.26 288.049 316.954C288.779 316.648 289.629 316.461 290.36 316.071C290.546 315.969 290.444 315.714 290.258 315.697L290.241 315.663Z" fill="black"/>
<path d="M396.84 310.635H377.216C371.801 310.635 367.412 315.024 367.412 320.438V340.062C367.412 345.477 371.801 349.866 377.216 349.866H396.84C402.254 349.866 406.643 345.477 406.643 340.062V320.438C406.643 315.024 402.254 310.635 396.84 310.635Z" stroke="black" stroke-width="3.22" stroke-linecap="round" stroke-linejoin="round"/>
<path d="M370.538 323.072C370.708 322.749 372.764 319.147 376.893 318.349C382.415 317.278 388.09 321.9 388.514 325.977C388.752 328.152 387.291 328.322 385.609 333.249C383.808 338.499 384.709 340.504 382.704 342.152C380.869 343.665 377.98 343.681 375.975 342.883C371.949 341.269 370.946 336.172 370.165 332.162C369.485 328.73 368.941 325.96 370.521 323.072H370.538Z" fill="#FFEECD"/>
<path d="M402.819 312.674C401.63 312.759 400.848 314.628 400.152 316.361C398.741 319.759 398.843 322.749 398.877 323.446C398.962 325.247 399.251 331.567 403.057 333.249C403.21 333.317 405.3 334.218 406.659 333.249C407.407 332.706 407.763 331.72 407.593 326.164C407.474 322.222 407.407 320.218 406.863 318.535C406.744 318.145 404.926 312.521 402.819 312.674Z" fill="#FFEECD"/>
<path d="M396.84 310.635H377.216C371.801 310.635 367.412 315.024 367.412 320.438V340.062C367.412 345.477 371.801 349.866 377.216 349.866H396.84C402.254 349.866 406.643 345.477 406.643 340.062V320.438C406.643 315.024 402.254 310.635 396.84 310.635Z" stroke="black" stroke-width="3.22" stroke-linecap="round" stroke-linejoin="round"/>
<path d="M369.196 320.744C368.788 320.523 370.674 319.265 370.912 319.13C371.66 318.688 372.424 318.314 373.257 318.042C374.718 317.583 376.196 317.481 377.708 317.651C380.801 318.008 383.536 319.724 385.099 322.426C386.663 325.127 386.832 328.406 385.694 331.414C384.556 334.421 382.925 337.479 384.335 340.708C385.065 342.39 386.425 343.766 387.002 345.499C387.546 347.079 387.291 348.625 386.289 349.951C386.153 350.137 386.374 350.358 386.561 350.307C388.039 349.967 388.531 348.472 388.515 347.096C388.481 345.244 387.563 343.749 386.628 342.203C385.422 340.198 384.793 338.363 385.473 336.052C386.085 333.996 387.223 332.127 387.716 330.037C389.347 323.139 383.638 315.426 376.264 316.394C374.31 316.649 372.407 317.227 370.793 318.382C370.454 318.62 368.075 320.506 369.111 320.897C369.196 320.931 369.264 320.778 369.179 320.744H369.196Z" fill="black"/>
<path d="M401.529 312.69C398.097 314.882 396.636 319.045 397.146 322.986C397.435 325.195 398.216 327.37 399.457 329.222C400.544 330.853 402.107 332.875 403.976 333.64C404.163 333.724 404.265 333.453 404.163 333.334C403.534 332.603 402.719 332.042 402.039 331.363C401.359 330.683 400.697 329.868 400.153 329.035C399.015 327.319 398.131 325.399 397.791 323.36C397.163 319.435 398.59 315.426 401.699 312.894C401.818 312.809 401.665 312.622 401.546 312.69H401.529Z" fill="black"/>
<path d="M438.195 332.536C437.175 333.453 436.971 333.776 437.583 333.47C437.821 333.385 438.042 333.249 438.212 333.062C438.467 332.892 438.517 332.773 438.806 332.638L437.532 332.977C438.619 332.892 439.69 332.841 440.726 332.468C441.678 332.128 442.578 331.941 443.513 331.941C445.348 331.907 446.996 332.162 448.474 333.368C448.015 332.994 449.188 334.218 448.916 333.878C448.814 333.742 449.307 334.524 449.425 334.727C449.527 334.931 449.646 335.118 449.731 335.339C449.408 334.608 449.697 335.305 449.731 335.458C449.867 335.968 450.003 336.477 450.122 336.987C450.326 337.752 450.088 336.206 450.139 336.987C450.139 337.208 450.173 337.429 450.173 337.667C450.173 338.126 450.139 338.567 450.122 339.026C450.173 337.905 450.02 339.315 449.952 339.621C449.901 339.842 449.799 340.045 449.765 340.266C449.85 339.825 450.037 339.757 449.765 340.249C449.629 340.504 449.442 340.759 449.324 341.014C449.374 340.929 449.901 340.402 449.442 340.878C449.018 341.32 448.627 341.762 448.151 342.135C448.763 341.66 447.726 342.356 447.523 342.458C447.302 342.594 447.064 342.713 446.826 342.832C446.673 342.917 445.62 343.325 446.435 343.019C443.819 343.987 441.083 344.395 438.535 345.601C433.165 348.15 430.124 354.997 430.668 360.774C430.957 363.917 433.42 368.794 437.345 366.857C440.319 365.378 440.59 362.082 441.202 359.211C441.338 358.582 441.508 357.971 441.729 357.359C441.474 358.106 441.916 357.002 442.051 356.764C442.187 356.543 442.323 356.323 442.459 356.119C442.935 355.422 441.967 356.594 442.578 356.034C442.765 355.864 442.935 355.677 443.122 355.507C442.663 355.915 442.969 355.626 443.292 355.422C443.292 355.422 444.073 354.963 443.649 355.201C443.156 355.456 444.209 354.997 444.311 354.963C444.855 354.776 445.399 354.623 445.942 354.47C447.302 354.08 448.61 353.655 449.918 353.111C454.93 351.004 459.263 347.165 460.181 341.558C461.098 335.951 458.957 330.395 454.319 327.065C449.68 323.734 443.7 323.412 438.636 325.824C436.649 326.776 434.083 329.596 434.83 332.094C435.085 332.96 435.833 333.725 436.801 333.691C437.43 333.674 438.11 333.249 438.127 332.57L438.195 332.536Z" fill="#F2F4F7"/>
<path d="M430.873 371.19C430.873 371.19 430.771 371.224 430.703 371.224L432.079 371.037C432.079 371.037 431.927 371.037 431.842 371.037L433.235 371.224C433.235 371.224 433.099 371.19 433.031 371.173L434.288 371.7C434.288 371.7 434.186 371.649 434.135 371.615L435.223 372.447C435.223 372.447 435.155 372.379 435.121 372.345L435.97 373.433C435.97 373.433 435.936 373.399 435.936 373.382L435.087 379.94C435.427 379.583 435.732 379.209 435.987 378.785L436.548 377.442C436.82 376.457 436.82 375.455 436.548 374.469L435.987 373.127C435.495 372.277 434.815 371.615 433.982 371.122L432.64 370.561C431.655 370.289 430.652 370.289 429.667 370.561C428.936 370.731 428.307 371.071 427.764 371.564C427.152 371.954 426.676 372.481 426.32 373.144C425.912 373.789 425.691 374.486 425.657 375.234C425.487 375.981 425.521 376.729 425.759 377.476C425.929 378.207 426.269 378.836 426.761 379.379C427.152 379.991 427.679 380.467 428.342 380.824C428.987 381.231 429.684 381.452 430.431 381.486C431.179 381.656 431.927 381.622 432.674 381.384C433.133 381.197 433.575 381.01 434.033 380.807H428.562C429.718 381.35 430.21 381.554 431.502 381.588C431.519 381.588 431.553 381.588 431.57 381.588C432.062 381.554 432.538 381.469 433.031 381.401C433.082 381.401 433.116 381.384 433.167 381.367C433.626 381.214 434.101 381.01 434.526 380.79C434.56 380.773 434.611 380.739 434.645 380.722L435.698 379.906C435.698 379.906 435.715 379.906 435.732 379.889C435.732 379.889 435.766 379.855 435.783 379.838C436.123 379.498 436.395 379.091 436.667 378.7L437.177 377.476L437.364 376.117L437.177 374.758C437.024 374.095 436.718 373.518 436.259 373.025C436.038 372.634 435.732 372.328 435.342 372.107C435.019 371.785 434.645 371.564 434.22 371.445C433.829 371.207 433.388 371.105 432.929 371.088C432.249 370.935 431.57 370.969 430.89 371.173L430.873 371.19Z" fill="#F2F4F7"/>
<path d="M148.184 64.4585C149.985 64.6114 151.225 63.4221 151.989 61.9269C152.958 60.0409 153.74 58.5118 155.252 56.9826C158.089 54.0772 162.048 51.5796 165.888 50.2713C173.041 47.8247 180.568 49.9995 185.206 56.0651C189.845 62.1308 189.76 70.6091 186.395 77.2354C182.708 84.4734 175.165 88.4152 170.866 95.2115C167.995 99.7479 167.298 105.049 168.046 110.299C168.436 113.035 169.201 115.685 170.152 118.285C171.104 120.884 172.038 123.96 174.145 125.947C176.252 127.935 180.007 126.576 179.922 123.552C179.837 120.884 178.563 118.659 177.662 116.212C176.762 113.765 175.98 111.285 175.691 108.736C175.182 104.335 176.354 100.36 179.259 97.0295C182.165 93.6993 185.461 91.2526 188.315 88.1434C191.442 84.7452 193.803 80.7864 195.265 76.4029C198.238 67.4828 196.811 57.5263 190.864 50.1864C184.917 42.8464 176.099 39.4823 167.145 41.2324C161.572 42.3198 156.22 45.429 151.989 49.15C150.138 50.7811 148.404 52.684 147.3 54.9098C146.688 56.0991 146.162 57.4244 145.907 58.7497C145.822 59.2254 145.754 59.7861 145.754 60.2788C145.788 60.7715 145.839 61.2642 145.924 61.757C146.043 62.4876 146.145 62.2667 146.23 61.1113C145.091 62.6065 146.688 64.3735 148.167 64.4925L148.184 64.4585Z" fill="black"/>
<rect x="176.77" y="253.768" width="62.2304" height="62.2304" rx="13.7273" fill="#FEAA00"/>
<path d="M219.278 266.759C220.18 266.834 220.816 266.69 220.99 266.389C221.127 266.132 221.953 265.848 222.762 265.809C223.567 265.731 225.12 265.823 226.154 266.006C227.968 266.275 228.017 266.352 228.246 267.873C228.381 268.835 228.004 271.634 227.325 274.666C226.671 277.533 225.652 281.248 224.968 282.98C224.324 284.709 223.087 287.023 222.179 288.128C221.271 289.232 219.492 290.99 218.291 292.001C217.045 292.976 215.074 294.428 213.925 295.149C212.776 295.871 209.779 297.22 207.306 298.112C204.833 299.004 200.301 300.462 197.257 301.328C194.208 302.154 191.16 302.98 190.52 303.083C189.843 303.231 189.102 303.547 188.844 303.816C188.582 304.045 188.268 304.157 188.171 304.003C188.031 303.814 188.299 302.813 188.72 301.716C189.137 300.578 189.512 298.592 189.543 297.248C189.574 295.904 189.926 293.676 190.279 292.301C190.632 290.926 191.451 288.49 192.062 286.846C192.718 285.238 193.935 282.723 194.812 281.296C195.648 279.874 197.408 277.509 198.691 276.083C199.974 274.658 201.539 273.205 202.196 272.856C202.812 272.512 205.028 271.483 207.051 270.554C209.077 269.665 211.535 268.613 212.517 268.273C213.5 267.933 214.97 267.586 215.775 267.508C216.576 267.389 217.406 267.145 217.551 266.969C217.696 266.792 218.502 266.713 219.278 266.759Z" fill="#FFEECD"/>
<path d="M180.38 131.792H180.329C181.28 132.199 182.232 132.573 183.166 132.964C183.149 132.93 183.132 132.896 183.116 132.862L183.37 133.474C183.319 133.355 183.285 133.27 183.234 133.134C183.166 132.913 183.065 132.726 182.895 132.556C182.827 132.454 182.759 132.369 182.674 132.284L183.081 132.811C183.081 132.811 182.98 132.658 182.946 132.573L183.217 133.202C183.183 133.1 183.149 133.015 183.132 132.913L183.234 133.61C183.234 133.508 183.234 133.406 183.234 133.304L183.132 134.017C183.132 133.915 183.166 133.831 183.2 133.746L182.929 134.391C182.929 134.391 182.963 134.323 182.98 134.289L179.259 135.258C179.259 135.258 179.31 135.292 179.327 135.309L178.749 134.867C178.834 134.969 179.055 135.122 179.055 135.105C179.293 135.275 179.242 135.275 179.378 135.343C179.395 135.343 179.429 135.377 179.446 135.394L178.851 134.935C178.851 134.935 178.936 135.02 178.987 135.071L178.511 134.459C178.511 134.459 178.579 134.561 178.596 134.629L178.273 133.864C178.273 133.864 178.307 133.966 178.307 134.017L178.63 131.503C178.63 131.503 178.613 131.537 178.596 131.537C178.358 131.928 178.222 132.335 178.188 132.794C178.086 133.236 178.103 133.695 178.256 134.136C178.375 134.408 178.494 134.68 178.596 134.952L178.256 134.153C178.256 134.153 178.29 134.255 178.307 134.323L178.188 133.423C178.188 133.423 178.188 133.508 178.188 133.559L178.307 132.658C178.426 132.403 178.545 132.131 178.647 131.86C178.63 131.911 178.596 131.962 178.562 131.996L179.106 131.282C179.106 131.282 179.021 131.367 178.97 131.418L179.7 130.857C179.7 130.857 179.683 130.857 179.666 130.874L180.533 130.517C180.533 130.517 180.482 130.517 180.465 130.534H180.431C180.278 130.568 180.125 130.619 179.989 130.721C179.836 130.789 179.683 130.857 179.53 130.908L178.783 131.486L178.205 132.233C177.509 133.321 177.916 132.811 177.831 133.151C177.831 133.185 177.814 133.202 177.797 133.236L178.171 132.369C178.171 132.369 178.154 132.42 178.137 132.437C177.814 132.998 177.645 133.61 177.645 134.255C177.645 134.901 177.814 135.513 178.137 136.073C178.46 136.617 178.885 137.042 179.429 137.365C179.989 137.687 180.601 137.857 181.247 137.857C181.603 137.857 181.96 137.789 182.3 137.721C182.487 137.687 182.64 137.602 182.844 137.517C183.302 137.365 183.693 137.11 184.033 136.753C184.492 136.294 184.815 135.75 184.984 135.122C185.069 134.799 185.12 134.442 185.12 134.102C185.12 134.068 185.12 134.034 185.12 134C185.12 133.966 185.12 133.932 185.12 133.898C185.12 133.881 185.12 133.864 185.12 133.847V133.814L185.001 132.879C185.001 132.879 185.001 132.811 184.984 132.777C184.883 132.454 184.747 132.148 184.594 131.86L184.934 132.675C184.934 132.675 184.933 132.59 184.899 132.556C184.899 132.556 184.899 132.539 184.899 132.522L184.56 131.707C184.56 131.707 184.543 131.673 184.526 131.639C184.441 131.486 184.288 131.316 184.203 131.214C183.965 130.84 183.659 130.551 183.251 130.347C182.861 130.11 182.453 129.974 181.994 129.94C181.433 129.872 181.264 129.838 180.618 130.008H182.351C182.351 130.008 182.283 129.991 182.249 129.974C182.249 129.974 182.215 129.974 182.198 129.974C181.926 129.923 181.603 129.889 181.331 129.855C181.128 129.838 180.924 129.889 180.737 129.906C180.55 129.923 180.346 129.94 180.159 130.008C179.904 130.11 179.632 130.195 179.395 130.33C178.97 130.568 178.545 130.976 178.324 131.401L178.766 130.823C178.375 131.248 178.341 131.316 178.171 131.758C178.035 131.979 177.984 132.216 177.984 132.471C177.933 132.624 177.916 132.777 177.933 132.93L178.035 132.199C177.95 132.471 177.933 132.862 177.899 133.1C177.899 133.168 177.899 133.236 177.899 133.304C177.899 133.593 177.95 133.898 178.018 134.187C178.018 134.255 178.052 134.323 178.069 134.391C178.171 134.646 178.273 134.935 178.409 135.173C178.409 135.207 178.443 135.224 178.46 135.258C178.596 135.462 178.766 135.666 178.919 135.852C178.97 135.903 179.004 135.954 179.055 136.005L179.581 136.413L180.193 136.668C180.193 136.668 180.227 136.668 180.244 136.668C180.278 136.668 180.312 136.685 180.346 136.702L181.009 136.787C181.348 136.787 181.671 136.736 181.977 136.566C182.198 136.498 182.368 136.396 182.538 136.243C182.81 136.073 183.031 135.835 183.183 135.53V135.479C183.285 135.275 183.37 135.088 183.455 134.884L183.54 134.221L183.455 133.559C183.37 133.236 183.234 132.947 183.014 132.709C182.895 132.522 182.759 132.369 182.572 132.267C182.419 132.114 182.232 132.013 182.028 131.945C181.841 131.826 181.62 131.775 181.399 131.775C181.06 131.707 180.737 131.724 180.397 131.826L180.38 131.792Z" fill="black"/>
<path d="M55.8419 476.329C53.5142 475.887 49.5893 474.816 45.5625 471.996C42.3513 469.753 40.2785 467.239 39.0382 465.472C38.2906 464.112 38.0188 462.923 37.8998 462.141C37.7809 461.428 37.6619 460.629 37.9168 459.627C38.0527 459.1 38.2566 458.59 38.5624 458.115L95.277 366.994C95.8038 366.382 96.8911 365.312 98.6072 364.615C100.595 363.8 102.362 363.919 103.161 364.038C108.632 367.691 114.103 371.344 119.574 374.997C119.947 375.472 120.729 376.611 120.899 378.276C121.12 380.349 120.253 381.878 119.947 382.371L63.2328 473.491C62.7571 474.052 61.6866 475.173 59.9026 475.87C58.1186 476.566 56.5555 476.447 55.8249 476.346L55.8419 476.329Z" fill="#C9C8C8"/>
<path d="M55.8419 476.329C53.5142 475.887 49.5893 474.816 45.5625 471.996C42.3513 469.753 40.2785 467.239 39.0382 465.472C38.2906 464.112 38.0188 462.923 37.8998 462.141C37.7809 461.428 37.6619 460.629 37.9168 459.627C38.0527 459.1 38.2566 458.59 38.5624 458.115L95.277 366.994C95.8038 366.382 96.8911 365.312 98.6072 364.615C100.595 363.8 102.362 363.919 103.161 364.038C108.632 367.691 114.103 371.344 119.574 374.997C119.947 375.472 120.729 376.611 120.899 378.276C121.12 380.349 120.253 381.878 119.947 382.371L63.2328 473.491C62.7571 474.052 61.6866 475.173 59.9026 475.87C58.1186 476.566 56.5555 476.447 55.8249 476.346L55.8419 476.329Z" stroke="black" stroke-width="3.22" stroke-linecap="round" stroke-linejoin="round"/>
<path d="M110.161 348.016C107.527 354.014 104.911 360.011 102.277 366.026C103.399 367.725 105.2 370.07 107.969 372.228C111.537 375.031 115.088 376.288 117.28 376.883C122.445 372.568 127.627 368.269 132.792 363.953" fill="white"/>
<path d="M116.531 378.038C112.148 385.31 107.764 392.599 103.381 399.871C103.737 400.398 104.111 401.077 104.349 401.927C105.165 404.883 103.653 407.466 103.262 408.111C108.546 399.956 113.847 391.8 119.131 383.645C119.539 383.186 120.864 381.572 120.915 379.142C120.949 377.511 120.371 376.271 120.048 375.693C118.876 376.475 117.704 377.256 116.531 378.038Z" fill="black"/>
<path d="M101.461 401.756C101.699 402.793 101.886 404.033 101.92 405.426C101.988 408.705 101.173 411.373 100.459 413.055C99.6434 414.244 98.8448 415.434 98.0293 416.623C98.6919 414.907 99.4056 412.511 99.6095 409.606C99.7284 407.941 99.6434 406.446 99.4905 405.188C100.153 404.05 100.799 402.895 101.461 401.756Z" fill="black"/>
<path d="M110.161 348.016C107.527 354.014 104.911 360.011 102.277 366.026C103.399 367.725 105.2 370.07 107.969 372.228C111.537 375.031 115.088 376.288 117.28 376.883C122.445 372.568 127.627 368.269 132.792 363.953" fill="white"/>
<path d="M110.161 348.016C107.527 354.014 104.911 360.011 102.277 366.026C103.399 367.725 105.2 370.07 107.969 372.228C111.537 375.031 115.088 376.288 117.28 376.883C122.445 372.568 127.627 368.269 132.792 363.953" stroke="black" stroke-width="3.22" stroke-linecap="round" stroke-linejoin="round"/>
<path d="M117.619 354.336C114.408 360.3 111.18 366.264 107.969 372.21" stroke="black" stroke-width="3.22" stroke-linecap="round" stroke-linejoin="round"/>
<path d="M54.3457 475.988C55.1782 474.663 56.0278 473.337 56.8603 472.012" stroke="black" stroke-width="3.22" stroke-linecap="round" stroke-linejoin="round"/>
<path d="M62.0762 463.791C64.0131 460.647 65.9501 457.487 67.887 454.344" stroke="black" stroke-width="3.22" stroke-linecap="round" stroke-linejoin="round"/>
<path d="M73.8359 443.724C88.3119 421.449 102.788 399.157 117.281 376.883" stroke="black" stroke-width="3.22" stroke-linecap="round" stroke-linejoin="round"/>
<path d="M158.906 204.105C114.917 204.105 79.2539 239.785 79.2539 283.774C79.2539 327.763 114.917 363.426 158.906 363.426C202.894 363.426 238.575 327.763 238.575 283.774C238.575 239.785 202.894 204.105 158.906 204.105ZM158.906 346.894C124.041 346.894 95.8027 318.622 95.8027 283.791C95.8027 248.96 124.058 220.688 158.906 220.688C193.754 220.688 222.009 248.943 222.009 283.791C222.009 318.639 193.754 346.894 158.906 346.894Z" fill="white"/>
<path d="M244.965 290.519C244.965 334.508 209.301 370.188 165.296 370.188C140.795 370.188 118.878 359.127 104.266 341.729C118.521 355.168 137.754 363.426 158.907 363.426C202.896 363.426 238.576 327.763 238.576 283.757C238.576 264.218 231.542 246.31 219.87 232.462C235.314 247.006 244.982 267.616 244.982 290.502L244.965 290.519Z" fill="white"/>
<path d="M206.327 242.13C195.283 232.581 180.875 226.821 165.107 226.821C130.26 226.821 102.004 255.077 102.004 289.907C102.004 305.861 107.917 320.439 117.704 331.551C104.298 319.998 95.8027 302.871 95.8027 283.774C95.8027 248.926 124.075 220.671 158.906 220.671C177.799 220.671 194.773 228.979 206.327 242.147V242.13Z" fill="white"/>
<path d="M174.605 361.642C176.933 363.868 179.261 366.077 181.589 368.303C184.545 367.606 187.501 366.893 190.458 366.196C188.181 363.987 185.904 361.778 183.644 359.57C180.637 360.266 177.63 360.946 174.622 361.642H174.605Z" fill="black"/>
<path d="M192.989 364.871C190.525 362.866 188.061 360.844 185.598 358.839C187.399 358.125 189.183 357.412 190.984 356.698C191.765 357.735 192.938 358.941 194.637 359.774C200.413 362.645 206.751 358.567 207.244 358.244C202.503 360.453 197.746 362.645 193.006 364.854L192.989 364.871Z" fill="black"/>
<path d="M102.312 255.824C103.552 259.069 104.792 262.315 106.05 265.56C104.758 269.519 103.518 274.395 102.771 280.036C102.091 285.218 101.972 289.873 102.125 293.781C102.601 288.208 102.55 281.072 100.732 273.07C100.103 270.317 99.3384 267.769 98.5059 265.475C99.7802 262.264 101.054 259.035 102.329 255.824H102.312Z" fill="black"/>
<path d="M103.279 253.956C103.517 255.247 103.823 256.623 104.231 258.05C104.944 260.582 105.794 262.808 106.66 264.711C107.238 263.878 107.833 263.029 108.41 262.196C107.833 260.191 107.255 257.354 107.272 253.939C107.272 250.677 107.816 247.975 108.36 246.004C106.677 248.655 104.978 251.305 103.296 253.956H103.279Z" fill="black"/>
<path d="M97.3004 270.029C98.5577 275.041 99.815 280.037 101.072 285.049C101.225 290.877 101.973 298.267 104.216 306.542C105.847 312.573 107.902 317.756 109.924 321.986C107.869 319.557 105.116 315.87 102.652 310.959C97.4193 300.544 96.7737 291.148 96.4678 286.017C96.23 282.058 96.23 276.553 97.3004 270.029Z" fill="black"/>
<path d="M129.648 209.66C133.216 208.25 137.481 206.874 142.374 205.838C149.272 204.376 155.406 204.037 160.316 204.139C159.925 204.376 155.966 206.772 155.575 211.377C155.253 215.284 157.648 219.141 161.573 220.823C158.532 220.178 153.401 219.481 147.216 220.636C141.507 221.707 137.226 223.916 134.66 225.496C137.311 223.423 138.67 220.161 138.126 217C137.464 213.076 133.963 209.966 129.631 209.66H129.648Z" fill="#F2F4F7"/>
<path d="M187.179 209.271C191.512 212.737 192.616 215.761 192.82 217.902C193.007 219.822 192.378 220.128 192.463 223.169C192.514 225.531 192.599 228.912 194.791 231.834C195.454 232.701 196.847 234.298 199.48 235.419C201.944 237.492 204.781 240.194 207.602 243.609C210.388 246.99 212.495 250.235 214.041 253.039C208.264 247.856 206.073 241.774 208.078 238.427C208.842 237.152 210.541 235.725 212.444 235.708C215.468 235.691 216.437 239.276 220.43 241.162C222.927 242.334 225.68 242.385 228.364 241.876C224.694 236.88 219.597 230.917 212.733 225.072C203.337 217.069 194.077 212.227 187.162 209.288L187.179 209.271Z" fill="#F2F4F7"/>
<path d="M216.862 308.768C216.659 309.533 216.149 311.758 217.338 313.39C219.156 315.887 223.489 315.055 224.61 314.851C232.409 313.372 236.028 303.161 236.555 301.615C237.778 300.29 239.443 298.183 240.598 295.227C241.431 293.069 241.567 291.608 242.297 286.986C242.603 284.998 243.096 282.076 243.759 278.508C244.506 282.569 245.118 287.955 244.88 294.241C244.812 296.212 244.506 302.159 242.637 309.703C241.55 314.103 239.426 321.001 235.229 328.715C227.363 343.14 216.574 352.332 216.047 351.924C215.741 351.669 219.394 348.475 221.722 341.968C222.792 338.96 222.775 337.55 224.389 335.664C226.649 333.048 228.841 333.319 229.962 331.298C230.71 329.938 230.999 327.509 228.263 322.819C225.952 326.982 223.608 330.329 221.654 332.844C220.091 334.866 216.489 339.283 210.95 344.058C206.906 347.558 203.661 349.97 203.491 349.766C203.1 349.325 220.498 337.193 219.037 327.186C218.901 326.302 218.528 323.669 216.37 322.106C213.702 320.169 210.185 321.205 209.557 321.409C212.003 317.195 214.433 312.965 216.879 308.751L216.862 308.768Z" fill="#F2F4F7"/>
<path d="M138.314 218.004C137.515 219.177 136.156 220.944 134.134 222.728C129.139 227.111 123.787 228.283 121.595 228.912C107.493 232.956 98.6578 251.102 96.8907 254.704C92.4732 263.76 91.6746 271.711 91.2668 276.316C90.4173 285.542 89.6357 294.241 94.1722 302.838C97.3834 308.921 101.631 311.86 100.357 315.547C99.3713 318.368 95.7694 319.931 92.9149 319.914C88.3445 319.863 83.9269 315.734 83.1113 309.736C84.9973 315.649 88.6672 324.586 96.0072 333.54C106.507 346.334 118.86 352.264 125.248 354.795C124.466 352.977 123.821 350.65 124.891 349.172C126.318 347.184 129.988 347.88 136.513 348.815C153.622 351.244 158.295 350.718 161.217 350.089C165.176 349.239 168.217 347.727 170.12 346.64C164.751 347.608 155.338 348.611 144.142 345.909C130.464 342.613 121.714 335.647 119.437 333.744C109.583 325.555 105.165 316.363 102.668 310.994C100.051 305.404 95.2936 294.904 95.8203 280.513C96.398 264.83 102.956 253.616 105.811 249.267C116.158 233.5 130.719 227.247 135.969 225.293C139.843 223.492 141.882 221.096 141.423 219.669C141.032 218.48 138.925 218.123 138.331 218.038L138.314 218.004Z" fill="#F2F4F7"/>
<path d="M158.907 363.443C202.907 363.443 238.576 327.774 238.576 283.774C238.576 239.774 202.907 204.105 158.907 204.105C114.907 204.105 79.2383 239.774 79.2383 283.774C79.2383 327.774 114.907 363.443 158.907 363.443Z" stroke="black" stroke-width="3.22" stroke-linecap="round" stroke-linejoin="round"/>
<path d="M158.906 346.877C193.757 346.877 222.009 318.625 222.009 283.774C222.009 248.923 193.757 220.671 158.906 220.671C124.055 220.671 95.8027 248.923 95.8027 283.774C95.8027 318.625 124.055 346.877 158.906 346.877Z" stroke="black" stroke-width="3.22" stroke-linecap="round" stroke-linejoin="round"/>
<path d="M244.965 290.519C244.965 334.508 209.301 370.188 165.296 370.188C140.795 370.188 118.878 359.127 104.266 341.729C118.521 355.168 137.754 363.426 158.907 363.426C202.896 363.426 238.576 327.763 238.576 283.757C238.576 264.218 231.542 246.31 219.87 232.462C235.314 247.006 244.982 267.616 244.982 290.502L244.965 290.519Z" stroke="black" stroke-width="3.22" stroke-linecap="round" stroke-linejoin="round"/>
<path d="M206.327 242.13C195.283 232.581 180.875 226.821 165.107 226.821C130.26 226.821 102.004 255.077 102.004 289.907C102.004 305.861 107.917 320.439 117.704 331.551C104.298 319.998 95.8027 302.871 95.8027 283.774C95.8027 248.926 124.075 220.671 158.906 220.671C177.799 220.671 194.773 228.979 206.327 242.147V242.13Z" stroke="black" stroke-width="3.22" stroke-linecap="round" stroke-linejoin="round"/>
<path d="M136.598 208.319C135.969 210.324 135.255 211.904 133.149 212.601C131.483 213.144 129.682 213.28 127.983 213.705C124.619 214.572 121.306 216.084 118.826 218.581C116.345 221.079 114.714 224.596 112.233 227.264C110.908 228.691 109.328 229.795 107.408 230.237C106.473 230.458 105.488 230.475 104.553 230.271C103.772 230.101 103.092 229.846 102.277 229.778C101.971 229.761 101.818 230.118 101.937 230.356C103.279 232.803 107.289 231.902 109.294 230.9C111.944 229.574 113.864 226.958 115.512 224.596C117.449 221.81 119.318 218.853 122.411 217.239C125.282 215.727 128.595 215.166 131.755 214.504C133.132 214.215 134.627 213.824 135.697 212.873C136.988 211.717 137.243 210.052 137.294 208.404C137.294 207.996 136.717 207.945 136.598 208.302V208.319Z" fill="black"/>
</svg>
