<svg width="14" height="14" viewBox="0 0 14 14" fill="none" xmlns="http://www.w3.org/2000/svg">
<path opacity="0.4" d="M6.99984 12.8333C10.2215 12.8333 12.8332 10.2217 12.8332 6.99999C12.8332 3.77833 10.2215 1.16666 6.99984 1.16666C3.77818 1.16666 1.1665 3.77833 1.1665 6.99999C1.1665 10.2217 3.77818 12.8333 6.99984 12.8333Z" fill="#17B26A"/>
<path d="M6.17184 9.08833C6.05517 9.08833 5.94434 9.04166 5.86267 8.96L4.21184 7.30916C4.04267 7.14 4.04267 6.86 4.21184 6.69083C4.381 6.52166 4.661 6.52166 4.83017 6.69083L6.17184 8.0325L9.17017 5.03416C9.33934 4.865 9.61934 4.865 9.7885 5.03416C9.95767 5.20333 9.95767 5.48333 9.7885 5.6525L6.481 8.96C6.39934 9.04166 6.2885 9.08833 6.17184 9.08833Z" fill="#17B26A"/>
</svg>
