<svg width="200" height="200" viewBox="0 0 200 200" fill="none" xmlns="http://www.w3.org/2000/svg">
<rect width="200" height="200" rx="44.1176" fill="#B65701"/>
<path d="M136.615 41.7535C139.512 41.9926 141.556 41.5317 142.115 40.5632C142.556 39.7367 145.21 38.8246 147.81 38.7011C150.398 38.4482 155.39 38.7437 158.713 39.3328C164.544 40.199 164.699 40.445 165.438 45.3339C165.87 48.425 164.66 57.421 162.478 67.1649C160.374 76.3788 157.1 88.3182 154.901 93.8858C152.832 99.4408 148.857 106.879 145.939 110.428C143.02 113.978 137.303 119.628 133.441 122.878C129.437 126.011 123.102 130.677 119.41 132.996C115.718 135.315 106.085 139.651 98.1368 142.517C90.1884 145.382 75.6263 150.069 65.8415 152.853C56.044 155.508 46.2464 158.163 44.1891 158.494C42.015 158.968 39.6327 159.984 38.8029 160.849C37.9605 161.584 36.9508 161.944 36.6415 161.452C36.1902 160.843 37.0512 157.625 38.4045 154.099C39.7451 150.443 40.9497 144.058 41.0502 139.74C41.1506 135.422 42.2794 128.262 43.4148 123.842C44.5502 119.423 47.1809 111.594 49.1461 106.31C51.2533 101.143 55.1652 93.0579 57.9824 88.4743C60.6704 83.9033 66.3272 76.3004 70.4509 71.7196C74.5746 67.1389 79.6039 62.4696 81.7147 61.3494C83.6963 60.2419 90.8178 56.9348 97.3178 53.9495C103.83 51.0936 111.728 47.7107 114.887 46.6187C118.045 45.5266 122.769 44.4122 125.356 44.1594C127.931 43.7772 130.598 42.9944 131.064 42.4265C131.531 41.8587 134.119 41.6058 136.615 41.7535Z" fill="#F9EFE6"/>
</svg>
