<svg width="137" height="34" viewBox="0 0 137 34" fill="none" xmlns="http://www.w3.org/2000/svg">
<rect y="0.750488" width="33.181" height="33.181" rx="7.31933" fill="#B65702"/>
<path d="M22.6652 7.67758C23.1458 7.71726 23.485 7.64078 23.5777 7.48011C23.651 7.34299 24.0912 7.19167 24.5226 7.17117C24.9519 7.12922 25.7801 7.17824 26.3313 7.27598C27.2988 7.41969 27.3245 7.4605 27.4471 8.27159C27.5189 8.78441 27.318 10.2769 26.956 11.8935C26.607 13.4221 26.0638 15.4029 25.699 16.3266C25.3557 17.2482 24.6963 18.4823 24.2121 19.0711C23.7279 19.6599 22.7794 20.5973 22.1387 21.1365C21.4744 21.6562 20.4233 22.4304 19.8109 22.8152C19.1984 23.1999 17.6002 23.9193 16.2815 24.3947C14.9628 24.8701 12.5469 25.6477 10.9236 26.1096C9.29812 26.55 7.67266 26.9905 7.33134 27.0455C6.97065 27.124 6.57542 27.2926 6.43775 27.436C6.29799 27.558 6.13047 27.6177 6.07916 27.5361C6.00428 27.4351 6.14713 26.9013 6.37165 26.3162C6.59406 25.7096 6.79391 24.6504 6.81057 23.934C6.82724 23.2176 7.0145 22.0297 7.20288 21.2965C7.39125 20.5633 7.8277 19.2644 8.15373 18.3878C8.50333 17.5306 9.15232 16.1892 9.61972 15.4288C10.0657 14.6704 11.0042 13.4091 11.6883 12.6491C12.3724 11.8891 13.2068 11.1145 13.557 10.9286C13.8858 10.7449 15.0673 10.1962 16.1456 9.70096C17.2261 9.22715 18.5364 8.6659 19.0604 8.48473C19.5844 8.30356 20.3681 8.11868 20.7974 8.07672C21.2246 8.01332 21.6669 7.88345 21.7444 7.78924C21.8219 7.69503 22.2511 7.65307 22.6652 7.67758Z" fill="#FFEECD"/>
<path d="M46.8601 29.1309C40.9137 29.6138 39.0352 29.273 39.0352 23.0805V7.82652C41.2103 7.82652 43.9787 7.7129 43.9787 10.6387V23.0805C43.9787 24.9695 44.007 25.1115 46.8601 25.1115V29.1309Z" fill="#B65702"/>
<path d="M56.0412 29.273C51.4367 29.273 48.1598 25.9921 48.1598 21.6318C48.1598 17.6976 50.8858 14.0048 55.7022 14.0048C58.9226 14.0048 61.8605 15.9932 62.8492 19.899C63.2871 21.6034 61.917 22.9243 60.2362 22.9243H52.9338C53.2728 24.3446 54.2474 25.424 55.787 25.424C57.1571 25.424 57.7503 25.1683 58.965 24.4014C60.3633 23.5634 61.6628 24.2167 62.8068 26.0063C61.1684 27.9237 59.191 29.273 56.0412 29.273ZM52.948 20.4245C53.2163 20.3393 53.5271 20.2967 53.9226 20.2967H58.3011C57.9198 18.777 57.1571 17.9532 55.7022 17.9532C54.1909 17.9532 53.2728 18.9616 52.948 20.4245Z" fill="#B65702"/>
<path d="M74.0378 16.8596C74.857 14.8144 75.309 14.3599 77.1169 14.3599H79.8994L72.0886 33.9315H67.2722L69.3626 28.648C68.6281 28.4208 68.0349 27.8669 67.6959 26.9011L63.2749 14.3599H66.0292C68.2326 14.3599 68.7976 16.1779 69.0942 17.0726C69.7298 18.9758 70.549 21.4614 71.3259 23.7054L74.0378 16.8596Z" fill="#B65702"/>
<path d="M91.1692 16.8596C91.9884 14.8144 92.4404 14.3599 94.2483 14.3599H97.0309L89.22 33.9315H84.4036L86.494 28.648C85.7595 28.4208 85.1663 27.8669 84.8273 26.9011L80.4064 14.3599H83.1606C85.3641 14.3599 85.929 16.1779 86.2257 17.0726C86.8613 18.9758 87.6805 21.4614 88.4573 23.7054L91.1692 16.8596Z" fill="#B65702"/>
<path d="M104.449 29.4008C99.5759 29.4008 96.8781 25.6796 96.8781 21.5892C96.8781 17.4845 99.9573 14.161 104.449 14.161C108.926 14.161 112.005 17.4845 112.005 21.5892C112.005 25.6796 109.322 29.4008 104.449 29.4008ZM101.652 21.7028C101.652 23.6628 102.768 25.0405 104.449 25.0405C106.116 25.0405 107.231 23.6628 107.231 21.7028C107.231 20.0126 106.116 14.3599 104.449 14.3599C102.768 14.3599 101.652 20.0126 101.652 21.7028Z" fill="#B65702"/>
<path d="M116.65 29.1309L112.159 14.3599H114.419C116.679 14.3599 117.413 14.5729 117.893 16.6323L118.939 20.8222C119.179 21.788 119.278 22.697 119.292 23.6202L122.526 14.3599H126.283L129.108 22.626L130.817 16.5329C131.467 14.3315 132.187 14.3741 134.207 14.3599H136.382L132.032 29.1309H127.06L124.772 21.5608L124.334 19.9842L123.868 21.5324L121.552 29.1309H116.65Z" fill="#B65702"/>
</svg>
