<svg width="1440" height="800" viewBox="0 0 1440 800" fill="none" xmlns="http://www.w3.org/2000/svg">
<mask id="mask0_1599_103477" style="mask-type:alpha" maskUnits="userSpaceOnUse" x="0" y="0" width="1440" height="1440">
<rect width="1440" height="1440" fill="url(#paint0_radial_1599_103477)"/>
</mask>
<g mask="url(#mask0_1599_103477)">
<g clip-path="url(#clip0_1599_103477)">
<mask id="path-3-inside-1_1599_103477" fill="white">
<path d="M-48 0H16V64H-48V0Z"/>
</mask>
<path d="M16 64V65H17V64H16ZM16 0H15V64H16H17V0H16ZM16 64V63H-48V64V65H16V64Z" fill="#D0D5DD" mask="url(#path-3-inside-1_1599_103477)"/>
<mask id="path-5-inside-2_1599_103477" fill="white">
<path d="M16 0H80V64H16V0Z"/>
</mask>
<path d="M80 64V65H81V64H80ZM80 0H79V64H80H81V0H80ZM80 64V63H16V64V65H80V64Z" fill="#D0D5DD" mask="url(#path-5-inside-2_1599_103477)"/>
<mask id="path-7-inside-3_1599_103477" fill="white">
<path d="M80 0H144V64H80V0Z"/>
</mask>
<path d="M144 64V65H145V64H144ZM144 0H143V64H144H145V0H144ZM144 64V63H80V64V65H144V64Z" fill="#D0D5DD" mask="url(#path-7-inside-3_1599_103477)"/>
<mask id="path-9-inside-4_1599_103477" fill="white">
<path d="M144 0H208V64H144V0Z"/>
</mask>
<path d="M208 64V65H209V64H208ZM208 0H207V64H208H209V0H208ZM208 64V63H144V64V65H208V64Z" fill="#D0D5DD" mask="url(#path-9-inside-4_1599_103477)"/>
<mask id="path-11-inside-5_1599_103477" fill="white">
<path d="M208 0H272V64H208V0Z"/>
</mask>
<path d="M272 64V65H273V64H272ZM272 0H271V64H272H273V0H272ZM272 64V63H208V64V65H272V64Z" fill="#D0D5DD" mask="url(#path-11-inside-5_1599_103477)"/>
<mask id="path-13-inside-6_1599_103477" fill="white">
<path d="M272 0H336V64H272V0Z"/>
</mask>
<path d="M336 64V65H337V64H336ZM336 0H335V64H336H337V0H336ZM336 64V63H272V64V65H336V64Z" fill="#D0D5DD" mask="url(#path-13-inside-6_1599_103477)"/>
<mask id="path-15-inside-7_1599_103477" fill="white">
<path d="M336 0H400V64H336V0Z"/>
</mask>
<path d="M400 64V65H401V64H400ZM400 0H399V64H400H401V0H400ZM400 64V63H336V64V65H400V64Z" fill="#D0D5DD" mask="url(#path-15-inside-7_1599_103477)"/>
<mask id="path-17-inside-8_1599_103477" fill="white">
<path d="M400 0H464V64H400V0Z"/>
</mask>
<path d="M464 64V65H465V64H464ZM464 0H463V64H464H465V0H464ZM464 64V63H400V64V65H464V64Z" fill="#D0D5DD" mask="url(#path-17-inside-8_1599_103477)"/>
<mask id="path-19-inside-9_1599_103477" fill="white">
<path d="M464 0H528V64H464V0Z"/>
</mask>
<path d="M528 64V65H529V64H528ZM528 0H527V64H528H529V0H528ZM528 64V63H464V64V65H528V64Z" fill="#D0D5DD" mask="url(#path-19-inside-9_1599_103477)"/>
<mask id="path-21-inside-10_1599_103477" fill="white">
<path d="M528 0H592V64H528V0Z"/>
</mask>
<path d="M592 64V65H593V64H592ZM592 0H591V64H592H593V0H592ZM592 64V63H528V64V65H592V64Z" fill="#D0D5DD" mask="url(#path-21-inside-10_1599_103477)"/>
<mask id="path-23-inside-11_1599_103477" fill="white">
<path d="M592 0H656V64H592V0Z"/>
</mask>
<path d="M656 64V65H657V64H656ZM656 0H655V64H656H657V0H656ZM656 64V63H592V64V65H656V64Z" fill="#D0D5DD" mask="url(#path-23-inside-11_1599_103477)"/>
<mask id="path-25-inside-12_1599_103477" fill="white">
<path d="M656 0H720V64H656V0Z"/>
</mask>
<path d="M720 64V65H721V64H720ZM720 0H719V64H720H721V0H720ZM720 64V63H656V64V65H720V64Z" fill="#D0D5DD" mask="url(#path-25-inside-12_1599_103477)"/>
<mask id="path-27-inside-13_1599_103477" fill="white">
<path d="M720 0H784V64H720V0Z"/>
</mask>
<path d="M784 64V65H785V64H784ZM784 0H783V64H784H785V0H784ZM784 64V63H720V64V65H784V64Z" fill="#D0D5DD" mask="url(#path-27-inside-13_1599_103477)"/>
<mask id="path-29-inside-14_1599_103477" fill="white">
<path d="M784 0H848V64H784V0Z"/>
</mask>
<path d="M848 64V65H849V64H848ZM848 0H847V64H848H849V0H848ZM848 64V63H784V64V65H848V64Z" fill="#D0D5DD" mask="url(#path-29-inside-14_1599_103477)"/>
<mask id="path-31-inside-15_1599_103477" fill="white">
<path d="M848 0H912V64H848V0Z"/>
</mask>
<path d="M912 64V65H913V64H912ZM912 0H911V64H912H913V0H912ZM912 64V63H848V64V65H912V64Z" fill="#D0D5DD" mask="url(#path-31-inside-15_1599_103477)"/>
<mask id="path-33-inside-16_1599_103477" fill="white">
<path d="M912 0H976V64H912V0Z"/>
</mask>
<path d="M976 64V65H977V64H976ZM976 0H975V64H976H977V0H976ZM976 64V63H912V64V65H976V64Z" fill="#D0D5DD" mask="url(#path-33-inside-16_1599_103477)"/>
<mask id="path-35-inside-17_1599_103477" fill="white">
<path d="M976 0H1040V64H976V0Z"/>
</mask>
<path d="M1040 64V65H1041V64H1040ZM1040 0H1039V64H1040H1041V0H1040ZM1040 64V63H976V64V65H1040V64Z" fill="#D0D5DD" mask="url(#path-35-inside-17_1599_103477)"/>
<mask id="path-37-inside-18_1599_103477" fill="white">
<path d="M1040 0H1104V64H1040V0Z"/>
</mask>
<path d="M1104 64V65H1105V64H1104ZM1104 0H1103V64H1104H1105V0H1104ZM1104 64V63H1040V64V65H1104V64Z" fill="#D0D5DD" mask="url(#path-37-inside-18_1599_103477)"/>
<mask id="path-39-inside-19_1599_103477" fill="white">
<path d="M1104 0H1168V64H1104V0Z"/>
</mask>
<path d="M1168 64V65H1169V64H1168ZM1168 0H1167V64H1168H1169V0H1168ZM1168 64V63H1104V64V65H1168V64Z" fill="#D0D5DD" mask="url(#path-39-inside-19_1599_103477)"/>
<mask id="path-41-inside-20_1599_103477" fill="white">
<path d="M1168 0H1232V64H1168V0Z"/>
</mask>
<path d="M1232 64V65H1233V64H1232ZM1232 0H1231V64H1232H1233V0H1232ZM1232 64V63H1168V64V65H1232V64Z" fill="#D0D5DD" mask="url(#path-41-inside-20_1599_103477)"/>
<mask id="path-43-inside-21_1599_103477" fill="white">
<path d="M1232 0H1296V64H1232V0Z"/>
</mask>
<path d="M1296 64V65H1297V64H1296ZM1296 0H1295V64H1296H1297V0H1296ZM1296 64V63H1232V64V65H1296V64Z" fill="#D0D5DD" mask="url(#path-43-inside-21_1599_103477)"/>
<mask id="path-45-inside-22_1599_103477" fill="white">
<path d="M1296 0H1360V64H1296V0Z"/>
</mask>
<path d="M1360 64V65H1361V64H1360ZM1360 0H1359V64H1360H1361V0H1360ZM1360 64V63H1296V64V65H1360V64Z" fill="#D0D5DD" mask="url(#path-45-inside-22_1599_103477)"/>
<mask id="path-47-inside-23_1599_103477" fill="white">
<path d="M1360 0H1424V64H1360V0Z"/>
</mask>
<path d="M1424 64V65H1425V64H1424ZM1424 0H1423V64H1424H1425V0H1424ZM1424 64V63H1360V64V65H1424V64Z" fill="#D0D5DD" mask="url(#path-47-inside-23_1599_103477)"/>
<mask id="path-49-inside-24_1599_103477" fill="white">
<path d="M1424 0H1488V64H1424V0Z"/>
</mask>
<path d="M1488 64V65H1489V64H1488ZM1488 0H1487V64H1488H1489V0H1488ZM1488 64V63H1424V64V65H1488V64Z" fill="#D0D5DD" mask="url(#path-49-inside-24_1599_103477)"/>
<mask id="path-51-inside-25_1599_103477" fill="white">
<path d="M-48 64H16V128H-48V64Z"/>
</mask>
<path d="M16 128V129H17V128H16ZM16 64H15V128H16H17V64H16ZM16 128V127H-48V128V129H16V128Z" fill="#D0D5DD" mask="url(#path-51-inside-25_1599_103477)"/>
<mask id="path-53-inside-26_1599_103477" fill="white">
<path d="M16 64H80V128H16V64Z"/>
</mask>
<path d="M80 128V129H81V128H80ZM80 64H79V128H80H81V64H80ZM80 128V127H16V128V129H80V128Z" fill="#D0D5DD" mask="url(#path-53-inside-26_1599_103477)"/>
<mask id="path-55-inside-27_1599_103477" fill="white">
<path d="M80 64H144V128H80V64Z"/>
</mask>
<path d="M80 64H144V128H80V64Z" fill="#F2F4F7"/>
<path d="M144 128V129H145V128H144ZM144 64H143V128H144H145V64H144ZM144 128V127H80V128V129H144V128Z" fill="#D0D5DD" mask="url(#path-55-inside-27_1599_103477)"/>
<mask id="path-57-inside-28_1599_103477" fill="white">
<path d="M144 64H208V128H144V64Z"/>
</mask>
<path d="M208 128V129H209V128H208ZM208 64H207V128H208H209V64H208ZM208 128V127H144V128V129H208V128Z" fill="#D0D5DD" mask="url(#path-57-inside-28_1599_103477)"/>
<mask id="path-59-inside-29_1599_103477" fill="white">
<path d="M208 64H272V128H208V64Z"/>
</mask>
<path d="M272 128V129H273V128H272ZM272 64H271V128H272H273V64H272ZM272 128V127H208V128V129H272V128Z" fill="#D0D5DD" mask="url(#path-59-inside-29_1599_103477)"/>
<mask id="path-61-inside-30_1599_103477" fill="white">
<path d="M272 64H336V128H272V64Z"/>
</mask>
<path d="M336 128V129H337V128H336ZM336 64H335V128H336H337V64H336ZM336 128V127H272V128V129H336V128Z" fill="#D0D5DD" mask="url(#path-61-inside-30_1599_103477)"/>
<mask id="path-63-inside-31_1599_103477" fill="white">
<path d="M336 64H400V128H336V64Z"/>
</mask>
<path d="M336 64H400V128H336V64Z" fill="#F2F4F7"/>
<path d="M400 128V129H401V128H400ZM400 64H399V128H400H401V64H400ZM400 128V127H336V128V129H400V128Z" fill="#D0D5DD" mask="url(#path-63-inside-31_1599_103477)"/>
<mask id="path-65-inside-32_1599_103477" fill="white">
<path d="M400 64H464V128H400V64Z"/>
</mask>
<path d="M464 128V129H465V128H464ZM464 64H463V128H464H465V64H464ZM464 128V127H400V128V129H464V128Z" fill="#D0D5DD" mask="url(#path-65-inside-32_1599_103477)"/>
<mask id="path-67-inside-33_1599_103477" fill="white">
<path d="M464 64H528V128H464V64Z"/>
</mask>
<path d="M528 128V129H529V128H528ZM528 64H527V128H528H529V64H528ZM528 128V127H464V128V129H528V128Z" fill="#D0D5DD" mask="url(#path-67-inside-33_1599_103477)"/>
<mask id="path-69-inside-34_1599_103477" fill="white">
<path d="M528 64H592V128H528V64Z"/>
</mask>
<path d="M592 128V129H593V128H592ZM592 64H591V128H592H593V64H592ZM592 128V127H528V128V129H592V128Z" fill="#D0D5DD" mask="url(#path-69-inside-34_1599_103477)"/>
<mask id="path-71-inside-35_1599_103477" fill="white">
<path d="M592 64H656V128H592V64Z"/>
</mask>
<path d="M656 128V129H657V128H656ZM656 64H655V128H656H657V64H656ZM656 128V127H592V128V129H656V128Z" fill="#D0D5DD" mask="url(#path-71-inside-35_1599_103477)"/>
<mask id="path-73-inside-36_1599_103477" fill="white">
<path d="M656 64H720V128H656V64Z"/>
</mask>
<path d="M720 128V129H721V128H720ZM720 64H719V128H720H721V64H720ZM720 128V127H656V128V129H720V128Z" fill="#D0D5DD" mask="url(#path-73-inside-36_1599_103477)"/>
<mask id="path-75-inside-37_1599_103477" fill="white">
<path d="M720 64H784V128H720V64Z"/>
</mask>
<path d="M784 128V129H785V128H784ZM784 64H783V128H784H785V64H784ZM784 128V127H720V128V129H784V128Z" fill="#D0D5DD" mask="url(#path-75-inside-37_1599_103477)"/>
<mask id="path-77-inside-38_1599_103477" fill="white">
<path d="M784 64H848V128H784V64Z"/>
</mask>
<path d="M848 128V129H849V128H848ZM848 64H847V128H848H849V64H848ZM848 128V127H784V128V129H848V128Z" fill="#D0D5DD" mask="url(#path-77-inside-38_1599_103477)"/>
<mask id="path-79-inside-39_1599_103477" fill="white">
<path d="M848 64H912V128H848V64Z"/>
</mask>
<path d="M912 128V129H913V128H912ZM912 64H911V128H912H913V64H912ZM912 128V127H848V128V129H912V128Z" fill="#D0D5DD" mask="url(#path-79-inside-39_1599_103477)"/>
<mask id="path-81-inside-40_1599_103477" fill="white">
<path d="M912 64H976V128H912V64Z"/>
</mask>
<path d="M976 128V129H977V128H976ZM976 64H975V128H976H977V64H976ZM976 128V127H912V128V129H976V128Z" fill="#D0D5DD" mask="url(#path-81-inside-40_1599_103477)"/>
<mask id="path-83-inside-41_1599_103477" fill="white">
<path d="M976 64H1040V128H976V64Z"/>
</mask>
<path d="M1040 128V129H1041V128H1040ZM1040 64H1039V128H1040H1041V64H1040ZM1040 128V127H976V128V129H1040V128Z" fill="#D0D5DD" mask="url(#path-83-inside-41_1599_103477)"/>
<mask id="path-85-inside-42_1599_103477" fill="white">
<path d="M1040 64H1104V128H1040V64Z"/>
</mask>
<path d="M1040 64H1104V128H1040V64Z" fill="#F2F4F7"/>
<path d="M1104 128V129H1105V128H1104ZM1104 64H1103V128H1104H1105V64H1104ZM1104 128V127H1040V128V129H1104V128Z" fill="#D0D5DD" mask="url(#path-85-inside-42_1599_103477)"/>
<mask id="path-87-inside-43_1599_103477" fill="white">
<path d="M1104 64H1168V128H1104V64Z"/>
</mask>
<path d="M1168 128V129H1169V128H1168ZM1168 64H1167V128H1168H1169V64H1168ZM1168 128V127H1104V128V129H1168V128Z" fill="#D0D5DD" mask="url(#path-87-inside-43_1599_103477)"/>
<mask id="path-89-inside-44_1599_103477" fill="white">
<path d="M1168 64H1232V128H1168V64Z"/>
</mask>
<path d="M1232 128V129H1233V128H1232ZM1232 64H1231V128H1232H1233V64H1232ZM1232 128V127H1168V128V129H1232V128Z" fill="#D0D5DD" mask="url(#path-89-inside-44_1599_103477)"/>
<mask id="path-91-inside-45_1599_103477" fill="white">
<path d="M1232 64H1296V128H1232V64Z"/>
</mask>
<path d="M1296 128V129H1297V128H1296ZM1296 64H1295V128H1296H1297V64H1296ZM1296 128V127H1232V128V129H1296V128Z" fill="#D0D5DD" mask="url(#path-91-inside-45_1599_103477)"/>
<mask id="path-93-inside-46_1599_103477" fill="white">
<path d="M1296 64H1360V128H1296V64Z"/>
</mask>
<path d="M1360 128V129H1361V128H1360ZM1360 64H1359V128H1360H1361V64H1360ZM1360 128V127H1296V128V129H1360V128Z" fill="#D0D5DD" mask="url(#path-93-inside-46_1599_103477)"/>
<mask id="path-95-inside-47_1599_103477" fill="white">
<path d="M1360 64H1424V128H1360V64Z"/>
</mask>
<path d="M1424 128V129H1425V128H1424ZM1424 64H1423V128H1424H1425V64H1424ZM1424 128V127H1360V128V129H1424V128Z" fill="#D0D5DD" mask="url(#path-95-inside-47_1599_103477)"/>
<mask id="path-97-inside-48_1599_103477" fill="white">
<path d="M1424 64H1488V128H1424V64Z"/>
</mask>
<path d="M1488 128V129H1489V128H1488ZM1488 64H1487V128H1488H1489V64H1488ZM1488 128V127H1424V128V129H1488V128Z" fill="#D0D5DD" mask="url(#path-97-inside-48_1599_103477)"/>
<mask id="path-99-inside-49_1599_103477" fill="white">
<path d="M-48 128H16V192H-48V128Z"/>
</mask>
<path d="M16 192V193H17V192H16ZM16 128H15V192H16H17V128H16ZM16 192V191H-48V192V193H16V192Z" fill="#D0D5DD" mask="url(#path-99-inside-49_1599_103477)"/>
<mask id="path-101-inside-50_1599_103477" fill="white">
<path d="M16 128H80V192H16V128Z"/>
</mask>
<path d="M80 192V193H81V192H80ZM80 128H79V192H80H81V128H80ZM80 192V191H16V192V193H80V192Z" fill="#D0D5DD" mask="url(#path-101-inside-50_1599_103477)"/>
<mask id="path-103-inside-51_1599_103477" fill="white">
<path d="M80 128H144V192H80V128Z"/>
</mask>
<path d="M144 192V193H145V192H144ZM144 128H143V192H144H145V128H144ZM144 192V191H80V192V193H144V192Z" fill="#D0D5DD" mask="url(#path-103-inside-51_1599_103477)"/>
<mask id="path-105-inside-52_1599_103477" fill="white">
<path d="M144 128H208V192H144V128Z"/>
</mask>
<path d="M208 192V193H209V192H208ZM208 128H207V192H208H209V128H208ZM208 192V191H144V192V193H208V192Z" fill="#D0D5DD" mask="url(#path-105-inside-52_1599_103477)"/>
<mask id="path-107-inside-53_1599_103477" fill="white">
<path d="M208 128H272V192H208V128Z"/>
</mask>
<path d="M272 192V193H273V192H272ZM272 128H271V192H272H273V128H272ZM272 192V191H208V192V193H272V192Z" fill="#D0D5DD" mask="url(#path-107-inside-53_1599_103477)"/>
<mask id="path-109-inside-54_1599_103477" fill="white">
<path d="M272 128H336V192H272V128Z"/>
</mask>
<path d="M336 192V193H337V192H336ZM336 128H335V192H336H337V128H336ZM336 192V191H272V192V193H336V192Z" fill="#D0D5DD" mask="url(#path-109-inside-54_1599_103477)"/>
<mask id="path-111-inside-55_1599_103477" fill="white">
<path d="M336 128H400V192H336V128Z"/>
</mask>
<path d="M400 192V193H401V192H400ZM400 128H399V192H400H401V128H400ZM400 192V191H336V192V193H400V192Z" fill="#D0D5DD" mask="url(#path-111-inside-55_1599_103477)"/>
<mask id="path-113-inside-56_1599_103477" fill="white">
<path d="M400 128H464V192H400V128Z"/>
</mask>
<path d="M464 192V193H465V192H464ZM464 128H463V192H464H465V128H464ZM464 192V191H400V192V193H464V192Z" fill="#D0D5DD" mask="url(#path-113-inside-56_1599_103477)"/>
<mask id="path-115-inside-57_1599_103477" fill="white">
<path d="M464 128H528V192H464V128Z"/>
</mask>
<path d="M464 128H528V192H464V128Z" fill="#F2F4F7"/>
<path d="M528 192V193H529V192H528ZM528 128H527V192H528H529V128H528ZM528 192V191H464V192V193H528V192Z" fill="#D0D5DD" mask="url(#path-115-inside-57_1599_103477)"/>
<mask id="path-117-inside-58_1599_103477" fill="white">
<path d="M528 128H592V192H528V128Z"/>
</mask>
<path d="M592 192V193H593V192H592ZM592 128H591V192H592H593V128H592ZM592 192V191H528V192V193H592V192Z" fill="#D0D5DD" mask="url(#path-117-inside-58_1599_103477)"/>
<mask id="path-119-inside-59_1599_103477" fill="white">
<path d="M592 128H656V192H592V128Z"/>
</mask>
<path d="M656 192V193H657V192H656ZM656 128H655V192H656H657V128H656ZM656 192V191H592V192V193H656V192Z" fill="#D0D5DD" mask="url(#path-119-inside-59_1599_103477)"/>
<mask id="path-121-inside-60_1599_103477" fill="white">
<path d="M656 128H720V192H656V128Z"/>
</mask>
<path d="M720 192V193H721V192H720ZM720 128H719V192H720H721V128H720ZM720 192V191H656V192V193H720V192Z" fill="#D0D5DD" mask="url(#path-121-inside-60_1599_103477)"/>
<mask id="path-123-inside-61_1599_103477" fill="white">
<path d="M720 128H784V192H720V128Z"/>
</mask>
<path d="M784 192V193H785V192H784ZM784 128H783V192H784H785V128H784ZM784 192V191H720V192V193H784V192Z" fill="#D0D5DD" mask="url(#path-123-inside-61_1599_103477)"/>
<mask id="path-125-inside-62_1599_103477" fill="white">
<path d="M784 128H848V192H784V128Z"/>
</mask>
<path d="M784 128H848V192H784V128Z" fill="#F2F4F7"/>
<path d="M848 192V193H849V192H848ZM848 128H847V192H848H849V128H848ZM848 192V191H784V192V193H848V192Z" fill="#D0D5DD" mask="url(#path-125-inside-62_1599_103477)"/>
<mask id="path-127-inside-63_1599_103477" fill="white">
<path d="M848 128H912V192H848V128Z"/>
</mask>
<path d="M912 192V193H913V192H912ZM912 128H911V192H912H913V128H912ZM912 192V191H848V192V193H912V192Z" fill="#D0D5DD" mask="url(#path-127-inside-63_1599_103477)"/>
<mask id="path-129-inside-64_1599_103477" fill="white">
<path d="M912 128H976V192H912V128Z"/>
</mask>
<path d="M976 192V193H977V192H976ZM976 128H975V192H976H977V128H976ZM976 192V191H912V192V193H976V192Z" fill="#D0D5DD" mask="url(#path-129-inside-64_1599_103477)"/>
<mask id="path-131-inside-65_1599_103477" fill="white">
<path d="M976 128H1040V192H976V128Z"/>
</mask>
<path d="M1040 192V193H1041V192H1040ZM1040 128H1039V192H1040H1041V128H1040ZM1040 192V191H976V192V193H1040V192Z" fill="#D0D5DD" mask="url(#path-131-inside-65_1599_103477)"/>
<mask id="path-133-inside-66_1599_103477" fill="white">
<path d="M1040 128H1104V192H1040V128Z"/>
</mask>
<path d="M1104 192V193H1105V192H1104ZM1104 128H1103V192H1104H1105V128H1104ZM1104 192V191H1040V192V193H1104V192Z" fill="#D0D5DD" mask="url(#path-133-inside-66_1599_103477)"/>
<mask id="path-135-inside-67_1599_103477" fill="white">
<path d="M1104 128H1168V192H1104V128Z"/>
</mask>
<path d="M1168 192V193H1169V192H1168ZM1168 128H1167V192H1168H1169V128H1168ZM1168 192V191H1104V192V193H1168V192Z" fill="#D0D5DD" mask="url(#path-135-inside-67_1599_103477)"/>
<mask id="path-137-inside-68_1599_103477" fill="white">
<path d="M1168 128H1232V192H1168V128Z"/>
</mask>
<path d="M1232 192V193H1233V192H1232ZM1232 128H1231V192H1232H1233V128H1232ZM1232 192V191H1168V192V193H1232V192Z" fill="#D0D5DD" mask="url(#path-137-inside-68_1599_103477)"/>
<mask id="path-139-inside-69_1599_103477" fill="white">
<path d="M1232 128H1296V192H1232V128Z"/>
</mask>
<path d="M1296 192V193H1297V192H1296ZM1296 128H1295V192H1296H1297V128H1296ZM1296 192V191H1232V192V193H1296V192Z" fill="#D0D5DD" mask="url(#path-139-inside-69_1599_103477)"/>
<mask id="path-141-inside-70_1599_103477" fill="white">
<path d="M1296 128H1360V192H1296V128Z"/>
</mask>
<path d="M1360 192V193H1361V192H1360ZM1360 128H1359V192H1360H1361V128H1360ZM1360 192V191H1296V192V193H1360V192Z" fill="#D0D5DD" mask="url(#path-141-inside-70_1599_103477)"/>
<mask id="path-143-inside-71_1599_103477" fill="white">
<path d="M1360 128H1424V192H1360V128Z"/>
</mask>
<path d="M1424 192V193H1425V192H1424ZM1424 128H1423V192H1424H1425V128H1424ZM1424 192V191H1360V192V193H1424V192Z" fill="#D0D5DD" mask="url(#path-143-inside-71_1599_103477)"/>
<mask id="path-145-inside-72_1599_103477" fill="white">
<path d="M1424 128H1488V192H1424V128Z"/>
</mask>
<path d="M1424 128H1488V192H1424V128Z" fill="#F2F4F7"/>
<path d="M1488 192V193H1489V192H1488ZM1488 128H1487V192H1488H1489V128H1488ZM1488 192V191H1424V192V193H1488V192Z" fill="#D0D5DD" mask="url(#path-145-inside-72_1599_103477)"/>
<mask id="path-147-inside-73_1599_103477" fill="white">
<path d="M-48 192H16V256H-48V192Z"/>
</mask>
<path d="M-48 192H16V256H-48V192Z" fill="#F2F4F7"/>
<path d="M16 256V257H17V256H16ZM16 192H15V256H16H17V192H16ZM16 256V255H-48V256V257H16V256Z" fill="#D0D5DD" mask="url(#path-147-inside-73_1599_103477)"/>
<mask id="path-149-inside-74_1599_103477" fill="white">
<path d="M16 192H80V256H16V192Z"/>
</mask>
<path d="M80 256V257H81V256H80ZM80 192H79V256H80H81V192H80ZM80 256V255H16V256V257H80V256Z" fill="#D0D5DD" mask="url(#path-149-inside-74_1599_103477)"/>
<mask id="path-151-inside-75_1599_103477" fill="white">
<path d="M80 192H144V256H80V192Z"/>
</mask>
<path d="M144 256V257H145V256H144ZM144 192H143V256H144H145V192H144ZM144 256V255H80V256V257H144V256Z" fill="#D0D5DD" mask="url(#path-151-inside-75_1599_103477)"/>
<mask id="path-153-inside-76_1599_103477" fill="white">
<path d="M144 192H208V256H144V192Z"/>
</mask>
<path d="M144 192H208V256H144V192Z" fill="#F2F4F7"/>
<path d="M208 256V257H209V256H208ZM208 192H207V256H208H209V192H208ZM208 256V255H144V256V257H208V256Z" fill="#D0D5DD" mask="url(#path-153-inside-76_1599_103477)"/>
<mask id="path-155-inside-77_1599_103477" fill="white">
<path d="M208 192H272V256H208V192Z"/>
</mask>
<path d="M272 256V257H273V256H272ZM272 192H271V256H272H273V192H272ZM272 256V255H208V256V257H272V256Z" fill="#D0D5DD" mask="url(#path-155-inside-77_1599_103477)"/>
<mask id="path-157-inside-78_1599_103477" fill="white">
<path d="M272 192H336V256H272V192Z"/>
</mask>
<path d="M336 256V257H337V256H336ZM336 192H335V256H336H337V192H336ZM336 256V255H272V256V257H336V256Z" fill="#D0D5DD" mask="url(#path-157-inside-78_1599_103477)"/>
<mask id="path-159-inside-79_1599_103477" fill="white">
<path d="M336 192H400V256H336V192Z"/>
</mask>
<path d="M400 256V257H401V256H400ZM400 192H399V256H400H401V192H400ZM400 256V255H336V256V257H400V256Z" fill="#D0D5DD" mask="url(#path-159-inside-79_1599_103477)"/>
<mask id="path-161-inside-80_1599_103477" fill="white">
<path d="M400 192H464V256H400V192Z"/>
</mask>
<path d="M464 256V257H465V256H464ZM464 192H463V256H464H465V192H464ZM464 256V255H400V256V257H464V256Z" fill="#D0D5DD" mask="url(#path-161-inside-80_1599_103477)"/>
<mask id="path-163-inside-81_1599_103477" fill="white">
<path d="M464 192H528V256H464V192Z"/>
</mask>
<path d="M528 256V257H529V256H528ZM528 192H527V256H528H529V192H528ZM528 256V255H464V256V257H528V256Z" fill="#D0D5DD" mask="url(#path-163-inside-81_1599_103477)"/>
<mask id="path-165-inside-82_1599_103477" fill="white">
<path d="M528 192H592V256H528V192Z"/>
</mask>
<path d="M592 256V257H593V256H592ZM592 192H591V256H592H593V192H592ZM592 256V255H528V256V257H592V256Z" fill="#D0D5DD" mask="url(#path-165-inside-82_1599_103477)"/>
<mask id="path-167-inside-83_1599_103477" fill="white">
<path d="M592 192H656V256H592V192Z"/>
</mask>
<path d="M656 256V257H657V256H656ZM656 192H655V256H656H657V192H656ZM656 256V255H592V256V257H656V256Z" fill="#D0D5DD" mask="url(#path-167-inside-83_1599_103477)"/>
<mask id="path-169-inside-84_1599_103477" fill="white">
<path d="M656 192H720V256H656V192Z"/>
</mask>
<path d="M720 256V257H721V256H720ZM720 192H719V256H720H721V192H720ZM720 256V255H656V256V257H720V256Z" fill="#D0D5DD" mask="url(#path-169-inside-84_1599_103477)"/>
<mask id="path-171-inside-85_1599_103477" fill="white">
<path d="M720 192H784V256H720V192Z"/>
</mask>
<path d="M784 256V257H785V256H784ZM784 192H783V256H784H785V192H784ZM784 256V255H720V256V257H784V256Z" fill="#D0D5DD" mask="url(#path-171-inside-85_1599_103477)"/>
<mask id="path-173-inside-86_1599_103477" fill="white">
<path d="M784 192H848V256H784V192Z"/>
</mask>
<path d="M848 256V257H849V256H848ZM848 192H847V256H848H849V192H848ZM848 256V255H784V256V257H848V256Z" fill="#D0D5DD" mask="url(#path-173-inside-86_1599_103477)"/>
<mask id="path-175-inside-87_1599_103477" fill="white">
<path d="M848 192H912V256H848V192Z"/>
</mask>
<path d="M912 256V257H913V256H912ZM912 192H911V256H912H913V192H912ZM912 256V255H848V256V257H912V256Z" fill="#D0D5DD" mask="url(#path-175-inside-87_1599_103477)"/>
<mask id="path-177-inside-88_1599_103477" fill="white">
<path d="M912 192H976V256H912V192Z"/>
</mask>
<path d="M976 256V257H977V256H976ZM976 192H975V256H976H977V192H976ZM976 256V255H912V256V257H976V256Z" fill="#D0D5DD" mask="url(#path-177-inside-88_1599_103477)"/>
<mask id="path-179-inside-89_1599_103477" fill="white">
<path d="M976 192H1040V256H976V192Z"/>
</mask>
<path d="M1040 256V257H1041V256H1040ZM1040 192H1039V256H1040H1041V192H1040ZM1040 256V255H976V256V257H1040V256Z" fill="#D0D5DD" mask="url(#path-179-inside-89_1599_103477)"/>
<mask id="path-181-inside-90_1599_103477" fill="white">
<path d="M1040 192H1104V256H1040V192Z"/>
</mask>
<path d="M1040 192H1104V256H1040V192Z" fill="#F2F4F7"/>
<path d="M1104 256V257H1105V256H1104ZM1104 192H1103V256H1104H1105V192H1104ZM1104 256V255H1040V256V257H1104V256Z" fill="#D0D5DD" mask="url(#path-181-inside-90_1599_103477)"/>
<mask id="path-183-inside-91_1599_103477" fill="white">
<path d="M1104 192H1168V256H1104V192Z"/>
</mask>
<path d="M1168 256V257H1169V256H1168ZM1168 192H1167V256H1168H1169V192H1168ZM1168 256V255H1104V256V257H1168V256Z" fill="#D0D5DD" mask="url(#path-183-inside-91_1599_103477)"/>
<mask id="path-185-inside-92_1599_103477" fill="white">
<path d="M1168 192H1232V256H1168V192Z"/>
</mask>
<path d="M1232 256V257H1233V256H1232ZM1232 192H1231V256H1232H1233V192H1232ZM1232 256V255H1168V256V257H1232V256Z" fill="#D0D5DD" mask="url(#path-185-inside-92_1599_103477)"/>
<mask id="path-187-inside-93_1599_103477" fill="white">
<path d="M1232 192H1296V256H1232V192Z"/>
</mask>
<path d="M1296 256V257H1297V256H1296ZM1296 192H1295V256H1296H1297V192H1296ZM1296 256V255H1232V256V257H1296V256Z" fill="#D0D5DD" mask="url(#path-187-inside-93_1599_103477)"/>
<mask id="path-189-inside-94_1599_103477" fill="white">
<path d="M1296 192H1360V256H1296V192Z"/>
</mask>
<path d="M1360 256V257H1361V256H1360ZM1360 192H1359V256H1360H1361V192H1360ZM1360 256V255H1296V256V257H1360V256Z" fill="#D0D5DD" mask="url(#path-189-inside-94_1599_103477)"/>
<mask id="path-191-inside-95_1599_103477" fill="white">
<path d="M1360 192H1424V256H1360V192Z"/>
</mask>
<path d="M1424 256V257H1425V256H1424ZM1424 192H1423V256H1424H1425V192H1424ZM1424 256V255H1360V256V257H1424V256Z" fill="#D0D5DD" mask="url(#path-191-inside-95_1599_103477)"/>
<mask id="path-193-inside-96_1599_103477" fill="white">
<path d="M1424 192H1488V256H1424V192Z"/>
</mask>
<path d="M1488 256V257H1489V256H1488ZM1488 192H1487V256H1488H1489V192H1488ZM1488 256V255H1424V256V257H1488V256Z" fill="#D0D5DD" mask="url(#path-193-inside-96_1599_103477)"/>
<mask id="path-195-inside-97_1599_103477" fill="white">
<path d="M-48 256H16V320H-48V256Z"/>
</mask>
<path d="M16 320V321H17V320H16ZM16 256H15V320H16H17V256H16ZM16 320V319H-48V320V321H16V320Z" fill="#D0D5DD" mask="url(#path-195-inside-97_1599_103477)"/>
<mask id="path-197-inside-98_1599_103477" fill="white">
<path d="M16 256H80V320H16V256Z"/>
</mask>
<path d="M80 320V321H81V320H80ZM80 256H79V320H80H81V256H80ZM80 320V319H16V320V321H80V320Z" fill="#D0D5DD" mask="url(#path-197-inside-98_1599_103477)"/>
<mask id="path-199-inside-99_1599_103477" fill="white">
<path d="M80 256H144V320H80V256Z"/>
</mask>
<path d="M144 320V321H145V320H144ZM144 256H143V320H144H145V256H144ZM144 320V319H80V320V321H144V320Z" fill="#D0D5DD" mask="url(#path-199-inside-99_1599_103477)"/>
<mask id="path-201-inside-100_1599_103477" fill="white">
<path d="M144 256H208V320H144V256Z"/>
</mask>
<path d="M208 320V321H209V320H208ZM208 256H207V320H208H209V256H208ZM208 320V319H144V320V321H208V320Z" fill="#D0D5DD" mask="url(#path-201-inside-100_1599_103477)"/>
<mask id="path-203-inside-101_1599_103477" fill="white">
<path d="M208 256H272V320H208V256Z"/>
</mask>
<path d="M272 320V321H273V320H272ZM272 256H271V320H272H273V256H272ZM272 320V319H208V320V321H272V320Z" fill="#D0D5DD" mask="url(#path-203-inside-101_1599_103477)"/>
<mask id="path-205-inside-102_1599_103477" fill="white">
<path d="M272 256H336V320H272V256Z"/>
</mask>
<path d="M272 256H336V320H272V256Z" fill="#F2F4F7"/>
<path d="M336 320V321H337V320H336ZM336 256H335V320H336H337V256H336ZM336 320V319H272V320V321H336V320Z" fill="#D0D5DD" mask="url(#path-205-inside-102_1599_103477)"/>
<mask id="path-207-inside-103_1599_103477" fill="white">
<path d="M336 256H400V320H336V256Z"/>
</mask>
<path d="M400 320V321H401V320H400ZM400 256H399V320H400H401V256H400ZM400 320V319H336V320V321H400V320Z" fill="#D0D5DD" mask="url(#path-207-inside-103_1599_103477)"/>
<mask id="path-209-inside-104_1599_103477" fill="white">
<path d="M400 256H464V320H400V256Z"/>
</mask>
<path d="M464 320V321H465V320H464ZM464 256H463V320H464H465V256H464ZM464 320V319H400V320V321H464V320Z" fill="#D0D5DD" mask="url(#path-209-inside-104_1599_103477)"/>
<mask id="path-211-inside-105_1599_103477" fill="white">
<path d="M464 256H528V320H464V256Z"/>
</mask>
<path d="M528 320V321H529V320H528ZM528 256H527V320H528H529V256H528ZM528 320V319H464V320V321H528V320Z" fill="#D0D5DD" mask="url(#path-211-inside-105_1599_103477)"/>
<mask id="path-213-inside-106_1599_103477" fill="white">
<path d="M528 256H592V320H528V256Z"/>
</mask>
<path d="M592 320V321H593V320H592ZM592 256H591V320H592H593V256H592ZM592 320V319H528V320V321H592V320Z" fill="#D0D5DD" mask="url(#path-213-inside-106_1599_103477)"/>
<mask id="path-215-inside-107_1599_103477" fill="white">
<path d="M592 256H656V320H592V256Z"/>
</mask>
<path d="M592 256H656V320H592V256Z" fill="#F2F4F7"/>
<path d="M656 320V321H657V320H656ZM656 256H655V320H656H657V256H656ZM656 320V319H592V320V321H656V320Z" fill="#D0D5DD" mask="url(#path-215-inside-107_1599_103477)"/>
<mask id="path-217-inside-108_1599_103477" fill="white">
<path d="M656 256H720V320H656V256Z"/>
</mask>
<path d="M720 320V321H721V320H720ZM720 256H719V320H720H721V256H720ZM720 320V319H656V320V321H720V320Z" fill="#D0D5DD" mask="url(#path-217-inside-108_1599_103477)"/>
<mask id="path-219-inside-109_1599_103477" fill="white">
<path d="M720 256H784V320H720V256Z"/>
</mask>
<path d="M784 320V321H785V320H784ZM784 256H783V320H784H785V256H784ZM784 320V319H720V320V321H784V320Z" fill="#D0D5DD" mask="url(#path-219-inside-109_1599_103477)"/>
<mask id="path-221-inside-110_1599_103477" fill="white">
<path d="M784 256H848V320H784V256Z"/>
</mask>
<path d="M848 320V321H849V320H848ZM848 256H847V320H848H849V256H848ZM848 320V319H784V320V321H848V320Z" fill="#D0D5DD" mask="url(#path-221-inside-110_1599_103477)"/>
<mask id="path-223-inside-111_1599_103477" fill="white">
<path d="M848 256H912V320H848V256Z"/>
</mask>
<path d="M912 320V321H913V320H912ZM912 256H911V320H912H913V256H912ZM912 320V319H848V320V321H912V320Z" fill="#D0D5DD" mask="url(#path-223-inside-111_1599_103477)"/>
<mask id="path-225-inside-112_1599_103477" fill="white">
<path d="M912 256H976V320H912V256Z"/>
</mask>
<path d="M976 320V321H977V320H976ZM976 256H975V320H976H977V256H976ZM976 320V319H912V320V321H976V320Z" fill="#D0D5DD" mask="url(#path-225-inside-112_1599_103477)"/>
<mask id="path-227-inside-113_1599_103477" fill="white">
<path d="M976 256H1040V320H976V256Z"/>
</mask>
<path d="M1040 320V321H1041V320H1040ZM1040 256H1039V320H1040H1041V256H1040ZM1040 320V319H976V320V321H1040V320Z" fill="#D0D5DD" mask="url(#path-227-inside-113_1599_103477)"/>
<mask id="path-229-inside-114_1599_103477" fill="white">
<path d="M1040 256H1104V320H1040V256Z"/>
</mask>
<path d="M1104 320V321H1105V320H1104ZM1104 256H1103V320H1104H1105V256H1104ZM1104 320V319H1040V320V321H1104V320Z" fill="#D0D5DD" mask="url(#path-229-inside-114_1599_103477)"/>
<mask id="path-231-inside-115_1599_103477" fill="white">
<path d="M1104 256H1168V320H1104V256Z"/>
</mask>
<path d="M1168 320V321H1169V320H1168ZM1168 256H1167V320H1168H1169V256H1168ZM1168 320V319H1104V320V321H1168V320Z" fill="#D0D5DD" mask="url(#path-231-inside-115_1599_103477)"/>
<mask id="path-233-inside-116_1599_103477" fill="white">
<path d="M1168 256H1232V320H1168V256Z"/>
</mask>
<path d="M1232 320V321H1233V320H1232ZM1232 256H1231V320H1232H1233V256H1232ZM1232 320V319H1168V320V321H1232V320Z" fill="#D0D5DD" mask="url(#path-233-inside-116_1599_103477)"/>
<mask id="path-235-inside-117_1599_103477" fill="white">
<path d="M1232 256H1296V320H1232V256Z"/>
</mask>
<path d="M1296 320V321H1297V320H1296ZM1296 256H1295V320H1296H1297V256H1296ZM1296 320V319H1232V320V321H1296V320Z" fill="#D0D5DD" mask="url(#path-235-inside-117_1599_103477)"/>
<mask id="path-237-inside-118_1599_103477" fill="white">
<path d="M1296 256H1360V320H1296V256Z"/>
</mask>
<path d="M1296 256H1360V320H1296V256Z" fill="#F2F4F7"/>
<path d="M1360 320V321H1361V320H1360ZM1360 256H1359V320H1360H1361V256H1360ZM1360 320V319H1296V320V321H1360V320Z" fill="#D0D5DD" mask="url(#path-237-inside-118_1599_103477)"/>
<mask id="path-239-inside-119_1599_103477" fill="white">
<path d="M1360 256H1424V320H1360V256Z"/>
</mask>
<path d="M1424 320V321H1425V320H1424ZM1424 256H1423V320H1424H1425V256H1424ZM1424 320V319H1360V320V321H1424V320Z" fill="#D0D5DD" mask="url(#path-239-inside-119_1599_103477)"/>
<mask id="path-241-inside-120_1599_103477" fill="white">
<path d="M1424 256H1488V320H1424V256Z"/>
</mask>
<path d="M1488 320V321H1489V320H1488ZM1488 256H1487V320H1488H1489V256H1488ZM1488 320V319H1424V320V321H1488V320Z" fill="#D0D5DD" mask="url(#path-241-inside-120_1599_103477)"/>
<mask id="path-243-inside-121_1599_103477" fill="white">
<path d="M-48 320H16V384H-48V320Z"/>
</mask>
<path d="M16 384V385H17V384H16ZM16 320H15V384H16H17V320H16ZM16 384V383H-48V384V385H16V384Z" fill="#D0D5DD" mask="url(#path-243-inside-121_1599_103477)"/>
<mask id="path-245-inside-122_1599_103477" fill="white">
<path d="M16 320H80V384H16V320Z"/>
</mask>
<path d="M80 384V385H81V384H80ZM80 320H79V384H80H81V320H80ZM80 384V383H16V384V385H80V384Z" fill="#D0D5DD" mask="url(#path-245-inside-122_1599_103477)"/>
<mask id="path-247-inside-123_1599_103477" fill="white">
<path d="M80 320H144V384H80V320Z"/>
</mask>
<path d="M144 384V385H145V384H144ZM144 320H143V384H144H145V320H144ZM144 384V383H80V384V385H144V384Z" fill="#D0D5DD" mask="url(#path-247-inside-123_1599_103477)"/>
<mask id="path-249-inside-124_1599_103477" fill="white">
<path d="M144 320H208V384H144V320Z"/>
</mask>
<path d="M208 384V385H209V384H208ZM208 320H207V384H208H209V320H208ZM208 384V383H144V384V385H208V384Z" fill="#D0D5DD" mask="url(#path-249-inside-124_1599_103477)"/>
<mask id="path-251-inside-125_1599_103477" fill="white">
<path d="M208 320H272V384H208V320Z"/>
</mask>
<path d="M272 384V385H273V384H272ZM272 320H271V384H272H273V320H272ZM272 384V383H208V384V385H272V384Z" fill="#D0D5DD" mask="url(#path-251-inside-125_1599_103477)"/>
<mask id="path-253-inside-126_1599_103477" fill="white">
<path d="M272 320H336V384H272V320Z"/>
</mask>
<path d="M336 384V385H337V384H336ZM336 320H335V384H336H337V320H336ZM336 384V383H272V384V385H336V384Z" fill="#D0D5DD" mask="url(#path-253-inside-126_1599_103477)"/>
<mask id="path-255-inside-127_1599_103477" fill="white">
<path d="M336 320H400V384H336V320Z"/>
</mask>
<path d="M400 384V385H401V384H400ZM400 320H399V384H400H401V320H400ZM400 384V383H336V384V385H400V384Z" fill="#D0D5DD" mask="url(#path-255-inside-127_1599_103477)"/>
<mask id="path-257-inside-128_1599_103477" fill="white">
<path d="M400 320H464V384H400V320Z"/>
</mask>
<path d="M464 384V385H465V384H464ZM464 320H463V384H464H465V320H464ZM464 384V383H400V384V385H464V384Z" fill="#D0D5DD" mask="url(#path-257-inside-128_1599_103477)"/>
<mask id="path-259-inside-129_1599_103477" fill="white">
<path d="M464 320H528V384H464V320Z"/>
</mask>
<path d="M464 320H528V384H464V320Z" fill="#F2F4F7"/>
<path d="M528 384V385H529V384H528ZM528 320H527V384H528H529V320H528ZM528 384V383H464V384V385H528V384Z" fill="#D0D5DD" mask="url(#path-259-inside-129_1599_103477)"/>
<mask id="path-261-inside-130_1599_103477" fill="white">
<path d="M528 320H592V384H528V320Z"/>
</mask>
<path d="M592 384V385H593V384H592ZM592 320H591V384H592H593V320H592ZM592 384V383H528V384V385H592V384Z" fill="#D0D5DD" mask="url(#path-261-inside-130_1599_103477)"/>
<mask id="path-263-inside-131_1599_103477" fill="white">
<path d="M592 320H656V384H592V320Z"/>
</mask>
<path d="M656 384V385H657V384H656ZM656 320H655V384H656H657V320H656ZM656 384V383H592V384V385H656V384Z" fill="#D0D5DD" mask="url(#path-263-inside-131_1599_103477)"/>
<mask id="path-265-inside-132_1599_103477" fill="white">
<path d="M656 320H720V384H656V320Z"/>
</mask>
<path d="M720 384V385H721V384H720ZM720 320H719V384H720H721V320H720ZM720 384V383H656V384V385H720V384Z" fill="#D0D5DD" mask="url(#path-265-inside-132_1599_103477)"/>
<mask id="path-267-inside-133_1599_103477" fill="white">
<path d="M720 320H784V384H720V320Z"/>
</mask>
<path d="M784 384V385H785V384H784ZM784 320H783V384H784H785V320H784ZM784 384V383H720V384V385H784V384Z" fill="#D0D5DD" mask="url(#path-267-inside-133_1599_103477)"/>
<mask id="path-269-inside-134_1599_103477" fill="white">
<path d="M784 320H848V384H784V320Z"/>
</mask>
<path d="M848 384V385H849V384H848ZM848 320H847V384H848H849V320H848ZM848 384V383H784V384V385H848V384Z" fill="#D0D5DD" mask="url(#path-269-inside-134_1599_103477)"/>
<mask id="path-271-inside-135_1599_103477" fill="white">
<path d="M848 320H912V384H848V320Z"/>
</mask>
<path d="M848 320H912V384H848V320Z" fill="#F2F4F7"/>
<path d="M912 384V385H913V384H912ZM912 320H911V384H912H913V320H912ZM912 384V383H848V384V385H912V384Z" fill="#D0D5DD" mask="url(#path-271-inside-135_1599_103477)"/>
<mask id="path-273-inside-136_1599_103477" fill="white">
<path d="M912 320H976V384H912V320Z"/>
</mask>
<path d="M976 384V385H977V384H976ZM976 320H975V384H976H977V320H976ZM976 384V383H912V384V385H976V384Z" fill="#D0D5DD" mask="url(#path-273-inside-136_1599_103477)"/>
<mask id="path-275-inside-137_1599_103477" fill="white">
<path d="M976 320H1040V384H976V320Z"/>
</mask>
<path d="M1040 384V385H1041V384H1040ZM1040 320H1039V384H1040H1041V320H1040ZM1040 384V383H976V384V385H1040V384Z" fill="#D0D5DD" mask="url(#path-275-inside-137_1599_103477)"/>
<mask id="path-277-inside-138_1599_103477" fill="white">
<path d="M1040 320H1104V384H1040V320Z"/>
</mask>
<path d="M1040 320H1104V384H1040V320Z" fill="#F2F4F7"/>
<path d="M1104 384V385H1105V384H1104ZM1104 320H1103V384H1104H1105V320H1104ZM1104 384V383H1040V384V385H1104V384Z" fill="#D0D5DD" mask="url(#path-277-inside-138_1599_103477)"/>
<mask id="path-279-inside-139_1599_103477" fill="white">
<path d="M1104 320H1168V384H1104V320Z"/>
</mask>
<path d="M1168 384V385H1169V384H1168ZM1168 320H1167V384H1168H1169V320H1168ZM1168 384V383H1104V384V385H1168V384Z" fill="#D0D5DD" mask="url(#path-279-inside-139_1599_103477)"/>
<mask id="path-281-inside-140_1599_103477" fill="white">
<path d="M1168 320H1232V384H1168V320Z"/>
</mask>
<path d="M1232 384V385H1233V384H1232ZM1232 320H1231V384H1232H1233V320H1232ZM1232 384V383H1168V384V385H1232V384Z" fill="#D0D5DD" mask="url(#path-281-inside-140_1599_103477)"/>
<mask id="path-283-inside-141_1599_103477" fill="white">
<path d="M1232 320H1296V384H1232V320Z"/>
</mask>
<path d="M1296 384V385H1297V384H1296ZM1296 320H1295V384H1296H1297V320H1296ZM1296 384V383H1232V384V385H1296V384Z" fill="#D0D5DD" mask="url(#path-283-inside-141_1599_103477)"/>
<mask id="path-285-inside-142_1599_103477" fill="white">
<path d="M1296 320H1360V384H1296V320Z"/>
</mask>
<path d="M1360 384V385H1361V384H1360ZM1360 320H1359V384H1360H1361V320H1360ZM1360 384V383H1296V384V385H1360V384Z" fill="#D0D5DD" mask="url(#path-285-inside-142_1599_103477)"/>
<mask id="path-287-inside-143_1599_103477" fill="white">
<path d="M1360 320H1424V384H1360V320Z"/>
</mask>
<path d="M1424 384V385H1425V384H1424ZM1424 320H1423V384H1424H1425V320H1424ZM1424 384V383H1360V384V385H1424V384Z" fill="#D0D5DD" mask="url(#path-287-inside-143_1599_103477)"/>
<mask id="path-289-inside-144_1599_103477" fill="white">
<path d="M1424 320H1488V384H1424V320Z"/>
</mask>
<path d="M1488 384V385H1489V384H1488ZM1488 320H1487V384H1488H1489V320H1488ZM1488 384V383H1424V384V385H1488V384Z" fill="#D0D5DD" mask="url(#path-289-inside-144_1599_103477)"/>
<mask id="path-291-inside-145_1599_103477" fill="white">
<path d="M-48 384H16V448H-48V384Z"/>
</mask>
<path d="M16 448V449H17V448H16ZM16 384H15V448H16H17V384H16ZM16 448V447H-48V448V449H16V448Z" fill="#D0D5DD" mask="url(#path-291-inside-145_1599_103477)"/>
<mask id="path-293-inside-146_1599_103477" fill="white">
<path d="M16 384H80V448H16V384Z"/>
</mask>
<path d="M80 448V449H81V448H80ZM80 384H79V448H80H81V384H80ZM80 448V447H16V448V449H80V448Z" fill="#D0D5DD" mask="url(#path-293-inside-146_1599_103477)"/>
<mask id="path-295-inside-147_1599_103477" fill="white">
<path d="M80 384H144V448H80V384Z"/>
</mask>
<path d="M144 448V449H145V448H144ZM144 384H143V448H144H145V384H144ZM144 448V447H80V448V449H144V448Z" fill="#D0D5DD" mask="url(#path-295-inside-147_1599_103477)"/>
<mask id="path-297-inside-148_1599_103477" fill="white">
<path d="M144 384H208V448H144V384Z"/>
</mask>
<path d="M208 448V449H209V448H208ZM208 384H207V448H208H209V384H208ZM208 448V447H144V448V449H208V448Z" fill="#D0D5DD" mask="url(#path-297-inside-148_1599_103477)"/>
<mask id="path-299-inside-149_1599_103477" fill="white">
<path d="M208 384H272V448H208V384Z"/>
</mask>
<path d="M208 384H272V448H208V384Z" fill="#F2F4F7"/>
<path d="M272 448V449H273V448H272ZM272 384H271V448H272H273V384H272ZM272 448V447H208V448V449H272V448Z" fill="#D0D5DD" mask="url(#path-299-inside-149_1599_103477)"/>
<mask id="path-301-inside-150_1599_103477" fill="white">
<path d="M272 384H336V448H272V384Z"/>
</mask>
<path d="M336 448V449H337V448H336ZM336 384H335V448H336H337V384H336ZM336 448V447H272V448V449H336V448Z" fill="#D0D5DD" mask="url(#path-301-inside-150_1599_103477)"/>
<mask id="path-303-inside-151_1599_103477" fill="white">
<path d="M336 384H400V448H336V384Z"/>
</mask>
<path d="M400 448V449H401V448H400ZM400 384H399V448H400H401V384H400ZM400 448V447H336V448V449H400V448Z" fill="#D0D5DD" mask="url(#path-303-inside-151_1599_103477)"/>
<mask id="path-305-inside-152_1599_103477" fill="white">
<path d="M400 384H464V448H400V384Z"/>
</mask>
<path d="M464 448V449H465V448H464ZM464 384H463V448H464H465V384H464ZM464 448V447H400V448V449H464V448Z" fill="#D0D5DD" mask="url(#path-305-inside-152_1599_103477)"/>
<mask id="path-307-inside-153_1599_103477" fill="white">
<path d="M464 384H528V448H464V384Z"/>
</mask>
<path d="M528 448V449H529V448H528ZM528 384H527V448H528H529V384H528ZM528 448V447H464V448V449H528V448Z" fill="#D0D5DD" mask="url(#path-307-inside-153_1599_103477)"/>
<mask id="path-309-inside-154_1599_103477" fill="white">
<path d="M528 384H592V448H528V384Z"/>
</mask>
<path d="M592 448V449H593V448H592ZM592 384H591V448H592H593V384H592ZM592 448V447H528V448V449H592V448Z" fill="#D0D5DD" mask="url(#path-309-inside-154_1599_103477)"/>
<mask id="path-311-inside-155_1599_103477" fill="white">
<path d="M592 384H656V448H592V384Z"/>
</mask>
<path d="M656 448V449H657V448H656ZM656 384H655V448H656H657V384H656ZM656 448V447H592V448V449H656V448Z" fill="#D0D5DD" mask="url(#path-311-inside-155_1599_103477)"/>
<mask id="path-313-inside-156_1599_103477" fill="white">
<path d="M656 384H720V448H656V384Z"/>
</mask>
<path d="M656 384H720V448H656V384Z" fill="#F2F4F7"/>
<path d="M720 448V449H721V448H720ZM720 384H719V448H720H721V384H720ZM720 448V447H656V448V449H720V448Z" fill="#D0D5DD" mask="url(#path-313-inside-156_1599_103477)"/>
<mask id="path-315-inside-157_1599_103477" fill="white">
<path d="M720 384H784V448H720V384Z"/>
</mask>
<path d="M784 448V449H785V448H784ZM784 384H783V448H784H785V384H784ZM784 448V447H720V448V449H784V448Z" fill="#D0D5DD" mask="url(#path-315-inside-157_1599_103477)"/>
<mask id="path-317-inside-158_1599_103477" fill="white">
<path d="M784 384H848V448H784V384Z"/>
</mask>
<path d="M848 448V449H849V448H848ZM848 384H847V448H848H849V384H848ZM848 448V447H784V448V449H848V448Z" fill="#D0D5DD" mask="url(#path-317-inside-158_1599_103477)"/>
<mask id="path-319-inside-159_1599_103477" fill="white">
<path d="M848 384H912V448H848V384Z"/>
</mask>
<path d="M912 448V449H913V448H912ZM912 384H911V448H912H913V384H912ZM912 448V447H848V448V449H912V448Z" fill="#D0D5DD" mask="url(#path-319-inside-159_1599_103477)"/>
<mask id="path-321-inside-160_1599_103477" fill="white">
<path d="M912 384H976V448H912V384Z"/>
</mask>
<path d="M976 448V449H977V448H976ZM976 384H975V448H976H977V384H976ZM976 448V447H912V448V449H976V448Z" fill="#D0D5DD" mask="url(#path-321-inside-160_1599_103477)"/>
<mask id="path-323-inside-161_1599_103477" fill="white">
<path d="M976 384H1040V448H976V384Z"/>
</mask>
<path d="M1040 448V449H1041V448H1040ZM1040 384H1039V448H1040H1041V384H1040ZM1040 448V447H976V448V449H1040V448Z" fill="#D0D5DD" mask="url(#path-323-inside-161_1599_103477)"/>
<mask id="path-325-inside-162_1599_103477" fill="white">
<path d="M1040 384H1104V448H1040V384Z"/>
</mask>
<path d="M1104 448V449H1105V448H1104ZM1104 384H1103V448H1104H1105V384H1104ZM1104 448V447H1040V448V449H1104V448Z" fill="#D0D5DD" mask="url(#path-325-inside-162_1599_103477)"/>
<mask id="path-327-inside-163_1599_103477" fill="white">
<path d="M1104 384H1168V448H1104V384Z"/>
</mask>
<path d="M1168 448V449H1169V448H1168ZM1168 384H1167V448H1168H1169V384H1168ZM1168 448V447H1104V448V449H1168V448Z" fill="#D0D5DD" mask="url(#path-327-inside-163_1599_103477)"/>
<mask id="path-329-inside-164_1599_103477" fill="white">
<path d="M1168 384H1232V448H1168V384Z"/>
</mask>
<path d="M1232 448V449H1233V448H1232ZM1232 384H1231V448H1232H1233V384H1232ZM1232 448V447H1168V448V449H1232V448Z" fill="#D0D5DD" mask="url(#path-329-inside-164_1599_103477)"/>
<mask id="path-331-inside-165_1599_103477" fill="white">
<path d="M1232 384H1296V448H1232V384Z"/>
</mask>
<path d="M1232 384H1296V448H1232V384Z" fill="#F2F4F7"/>
<path d="M1296 448V449H1297V448H1296ZM1296 384H1295V448H1296H1297V384H1296ZM1296 448V447H1232V448V449H1296V448Z" fill="#D0D5DD" mask="url(#path-331-inside-165_1599_103477)"/>
<mask id="path-333-inside-166_1599_103477" fill="white">
<path d="M1296 384H1360V448H1296V384Z"/>
</mask>
<path d="M1360 448V449H1361V448H1360ZM1360 384H1359V448H1360H1361V384H1360ZM1360 448V447H1296V448V449H1360V448Z" fill="#D0D5DD" mask="url(#path-333-inside-166_1599_103477)"/>
<mask id="path-335-inside-167_1599_103477" fill="white">
<path d="M1360 384H1424V448H1360V384Z"/>
</mask>
<path d="M1424 448V449H1425V448H1424ZM1424 384H1423V448H1424H1425V384H1424ZM1424 448V447H1360V448V449H1424V448Z" fill="#D0D5DD" mask="url(#path-335-inside-167_1599_103477)"/>
<mask id="path-337-inside-168_1599_103477" fill="white">
<path d="M1424 384H1488V448H1424V384Z"/>
</mask>
<path d="M1488 448V449H1489V448H1488ZM1488 384H1487V448H1488H1489V384H1488ZM1488 448V447H1424V448V449H1488V448Z" fill="#D0D5DD" mask="url(#path-337-inside-168_1599_103477)"/>
<mask id="path-339-inside-169_1599_103477" fill="white">
<path d="M-48 448H16V512H-48V448Z"/>
</mask>
<path d="M16 512V513H17V512H16ZM16 448H15V512H16H17V448H16ZM16 512V511H-48V512V513H16V512Z" fill="#D0D5DD" mask="url(#path-339-inside-169_1599_103477)"/>
<mask id="path-341-inside-170_1599_103477" fill="white">
<path d="M16 448H80V512H16V448Z"/>
</mask>
<path d="M80 512V513H81V512H80ZM80 448H79V512H80H81V448H80ZM80 512V511H16V512V513H80V512Z" fill="#D0D5DD" mask="url(#path-341-inside-170_1599_103477)"/>
<mask id="path-343-inside-171_1599_103477" fill="white">
<path d="M80 448H144V512H80V448Z"/>
</mask>
<path d="M144 512V513H145V512H144ZM144 448H143V512H144H145V448H144ZM144 512V511H80V512V513H144V512Z" fill="#D0D5DD" mask="url(#path-343-inside-171_1599_103477)"/>
<mask id="path-345-inside-172_1599_103477" fill="white">
<path d="M144 448H208V512H144V448Z"/>
</mask>
<path d="M208 512V513H209V512H208ZM208 448H207V512H208H209V448H208ZM208 512V511H144V512V513H208V512Z" fill="#D0D5DD" mask="url(#path-345-inside-172_1599_103477)"/>
<mask id="path-347-inside-173_1599_103477" fill="white">
<path d="M208 448H272V512H208V448Z"/>
</mask>
<path d="M272 512V513H273V512H272ZM272 448H271V512H272H273V448H272ZM272 512V511H208V512V513H272V512Z" fill="#D0D5DD" mask="url(#path-347-inside-173_1599_103477)"/>
<mask id="path-349-inside-174_1599_103477" fill="white">
<path d="M272 448H336V512H272V448Z"/>
</mask>
<path d="M336 512V513H337V512H336ZM336 448H335V512H336H337V448H336ZM336 512V511H272V512V513H336V512Z" fill="#D0D5DD" mask="url(#path-349-inside-174_1599_103477)"/>
<mask id="path-351-inside-175_1599_103477" fill="white">
<path d="M336 448H400V512H336V448Z"/>
</mask>
<path d="M400 512V513H401V512H400ZM400 448H399V512H400H401V448H400ZM400 512V511H336V512V513H400V512Z" fill="#D0D5DD" mask="url(#path-351-inside-175_1599_103477)"/>
<mask id="path-353-inside-176_1599_103477" fill="white">
<path d="M400 448H464V512H400V448Z"/>
</mask>
<path d="M464 512V513H465V512H464ZM464 448H463V512H464H465V448H464ZM464 512V511H400V512V513H464V512Z" fill="#D0D5DD" mask="url(#path-353-inside-176_1599_103477)"/>
<mask id="path-355-inside-177_1599_103477" fill="white">
<path d="M464 448H528V512H464V448Z"/>
</mask>
<path d="M528 512V513H529V512H528ZM528 448H527V512H528H529V448H528ZM528 512V511H464V512V513H528V512Z" fill="#D0D5DD" mask="url(#path-355-inside-177_1599_103477)"/>
<mask id="path-357-inside-178_1599_103477" fill="white">
<path d="M528 448H592V512H528V448Z"/>
</mask>
<path d="M528 448H592V512H528V448Z" fill="#F2F4F7"/>
<path d="M592 512V513H593V512H592ZM592 448H591V512H592H593V448H592ZM592 512V511H528V512V513H592V512Z" fill="#D0D5DD" mask="url(#path-357-inside-178_1599_103477)"/>
<mask id="path-359-inside-179_1599_103477" fill="white">
<path d="M592 448H656V512H592V448Z"/>
</mask>
<path d="M656 512V513H657V512H656ZM656 448H655V512H656H657V448H656ZM656 512V511H592V512V513H656V512Z" fill="#D0D5DD" mask="url(#path-359-inside-179_1599_103477)"/>
<mask id="path-361-inside-180_1599_103477" fill="white">
<path d="M656 448H720V512H656V448Z"/>
</mask>
<path d="M720 512V513H721V512H720ZM720 448H719V512H720H721V448H720ZM720 512V511H656V512V513H720V512Z" fill="#D0D5DD" mask="url(#path-361-inside-180_1599_103477)"/>
<mask id="path-363-inside-181_1599_103477" fill="white">
<path d="M720 448H784V512H720V448Z"/>
</mask>
<path d="M784 512V513H785V512H784ZM784 448H783V512H784H785V448H784ZM784 512V511H720V512V513H784V512Z" fill="#D0D5DD" mask="url(#path-363-inside-181_1599_103477)"/>
<mask id="path-365-inside-182_1599_103477" fill="white">
<path d="M784 448H848V512H784V448Z"/>
</mask>
<path d="M848 512V513H849V512H848ZM848 448H847V512H848H849V448H848ZM848 512V511H784V512V513H848V512Z" fill="#D0D5DD" mask="url(#path-365-inside-182_1599_103477)"/>
<mask id="path-367-inside-183_1599_103477" fill="white">
<path d="M848 448H912V512H848V448Z"/>
</mask>
<path d="M912 512V513H913V512H912ZM912 448H911V512H912H913V448H912ZM912 512V511H848V512V513H912V512Z" fill="#D0D5DD" mask="url(#path-367-inside-183_1599_103477)"/>
<mask id="path-369-inside-184_1599_103477" fill="white">
<path d="M912 448H976V512H912V448Z"/>
</mask>
<path d="M912 448H976V512H912V448Z" fill="#F2F4F7"/>
<path d="M976 512V513H977V512H976ZM976 448H975V512H976H977V448H976ZM976 512V511H912V512V513H976V512Z" fill="#D0D5DD" mask="url(#path-369-inside-184_1599_103477)"/>
<mask id="path-371-inside-185_1599_103477" fill="white">
<path d="M976 448H1040V512H976V448Z"/>
</mask>
<path d="M1040 512V513H1041V512H1040ZM1040 448H1039V512H1040H1041V448H1040ZM1040 512V511H976V512V513H1040V512Z" fill="#D0D5DD" mask="url(#path-371-inside-185_1599_103477)"/>
<mask id="path-373-inside-186_1599_103477" fill="white">
<path d="M1040 448H1104V512H1040V448Z"/>
</mask>
<path d="M1104 512V513H1105V512H1104ZM1104 448H1103V512H1104H1105V448H1104ZM1104 512V511H1040V512V513H1104V512Z" fill="#D0D5DD" mask="url(#path-373-inside-186_1599_103477)"/>
<mask id="path-375-inside-187_1599_103477" fill="white">
<path d="M1104 448H1168V512H1104V448Z"/>
</mask>
<path d="M1168 512V513H1169V512H1168ZM1168 448H1167V512H1168H1169V448H1168ZM1168 512V511H1104V512V513H1168V512Z" fill="#D0D5DD" mask="url(#path-375-inside-187_1599_103477)"/>
<mask id="path-377-inside-188_1599_103477" fill="white">
<path d="M1168 448H1232V512H1168V448Z"/>
</mask>
<path d="M1232 512V513H1233V512H1232ZM1232 448H1231V512H1232H1233V448H1232ZM1232 512V511H1168V512V513H1232V512Z" fill="#D0D5DD" mask="url(#path-377-inside-188_1599_103477)"/>
<mask id="path-379-inside-189_1599_103477" fill="white">
<path d="M1232 448H1296V512H1232V448Z"/>
</mask>
<path d="M1296 512V513H1297V512H1296ZM1296 448H1295V512H1296H1297V448H1296ZM1296 512V511H1232V512V513H1296V512Z" fill="#D0D5DD" mask="url(#path-379-inside-189_1599_103477)"/>
<mask id="path-381-inside-190_1599_103477" fill="white">
<path d="M1296 448H1360V512H1296V448Z"/>
</mask>
<path d="M1360 512V513H1361V512H1360ZM1360 448H1359V512H1360H1361V448H1360ZM1360 512V511H1296V512V513H1360V512Z" fill="#D0D5DD" mask="url(#path-381-inside-190_1599_103477)"/>
<mask id="path-383-inside-191_1599_103477" fill="white">
<path d="M1360 448H1424V512H1360V448Z"/>
</mask>
<path d="M1424 512V513H1425V512H1424ZM1424 448H1423V512H1424H1425V448H1424ZM1424 512V511H1360V512V513H1424V512Z" fill="#D0D5DD" mask="url(#path-383-inside-191_1599_103477)"/>
<mask id="path-385-inside-192_1599_103477" fill="white">
<path d="M1424 448H1488V512H1424V448Z"/>
</mask>
<path d="M1424 448H1488V512H1424V448Z" fill="#F2F4F7"/>
<path d="M1488 512V513H1489V512H1488ZM1488 448H1487V512H1488H1489V448H1488ZM1488 512V511H1424V512V513H1488V512Z" fill="#D0D5DD" mask="url(#path-385-inside-192_1599_103477)"/>
<mask id="path-387-inside-193_1599_103477" fill="white">
<path d="M-48 512H16V576H-48V512Z"/>
</mask>
<path d="M16 576V577H17V576H16ZM16 512H15V576H16H17V512H16ZM16 576V575H-48V576V577H16V576Z" fill="#D0D5DD" mask="url(#path-387-inside-193_1599_103477)"/>
<mask id="path-389-inside-194_1599_103477" fill="white">
<path d="M16 512H80V576H16V512Z"/>
</mask>
<path d="M80 576V577H81V576H80ZM80 512H79V576H80H81V512H80ZM80 576V575H16V576V577H80V576Z" fill="#D0D5DD" mask="url(#path-389-inside-194_1599_103477)"/>
<mask id="path-391-inside-195_1599_103477" fill="white">
<path d="M80 512H144V576H80V512Z"/>
</mask>
<path d="M80 512H144V576H80V512Z" fill="#F2F4F7"/>
<path d="M144 576V577H145V576H144ZM144 512H143V576H144H145V512H144ZM144 576V575H80V576V577H144V576Z" fill="#D0D5DD" mask="url(#path-391-inside-195_1599_103477)"/>
<mask id="path-393-inside-196_1599_103477" fill="white">
<path d="M144 512H208V576H144V512Z"/>
</mask>
<path d="M208 576V577H209V576H208ZM208 512H207V576H208H209V512H208ZM208 576V575H144V576V577H208V576Z" fill="#D0D5DD" mask="url(#path-393-inside-196_1599_103477)"/>
<mask id="path-395-inside-197_1599_103477" fill="white">
<path d="M208 512H272V576H208V512Z"/>
</mask>
<path d="M272 576V577H273V576H272ZM272 512H271V576H272H273V512H272ZM272 576V575H208V576V577H272V576Z" fill="#D0D5DD" mask="url(#path-395-inside-197_1599_103477)"/>
<mask id="path-397-inside-198_1599_103477" fill="white">
<path d="M272 512H336V576H272V512Z"/>
</mask>
<path d="M336 576V577H337V576H336ZM336 512H335V576H336H337V512H336ZM336 576V575H272V576V577H336V576Z" fill="#D0D5DD" mask="url(#path-397-inside-198_1599_103477)"/>
<mask id="path-399-inside-199_1599_103477" fill="white">
<path d="M336 512H400V576H336V512Z"/>
</mask>
<path d="M400 576V577H401V576H400ZM400 512H399V576H400H401V512H400ZM400 576V575H336V576V577H400V576Z" fill="#D0D5DD" mask="url(#path-399-inside-199_1599_103477)"/>
<mask id="path-401-inside-200_1599_103477" fill="white">
<path d="M400 512H464V576H400V512Z"/>
</mask>
<path d="M400 512H464V576H400V512Z" fill="#F2F4F7"/>
<path d="M464 576V577H465V576H464ZM464 512H463V576H464H465V512H464ZM464 576V575H400V576V577H464V576Z" fill="#D0D5DD" mask="url(#path-401-inside-200_1599_103477)"/>
<mask id="path-403-inside-201_1599_103477" fill="white">
<path d="M464 512H528V576H464V512Z"/>
</mask>
<path d="M528 576V577H529V576H528ZM528 512H527V576H528H529V512H528ZM528 576V575H464V576V577H528V576Z" fill="#D0D5DD" mask="url(#path-403-inside-201_1599_103477)"/>
<mask id="path-405-inside-202_1599_103477" fill="white">
<path d="M528 512H592V576H528V512Z"/>
</mask>
<path d="M592 576V577H593V576H592ZM592 512H591V576H592H593V512H592ZM592 576V575H528V576V577H592V576Z" fill="#D0D5DD" mask="url(#path-405-inside-202_1599_103477)"/>
<mask id="path-407-inside-203_1599_103477" fill="white">
<path d="M592 512H656V576H592V512Z"/>
</mask>
<path d="M656 576V577H657V576H656ZM656 512H655V576H656H657V512H656ZM656 576V575H592V576V577H656V576Z" fill="#D0D5DD" mask="url(#path-407-inside-203_1599_103477)"/>
<mask id="path-409-inside-204_1599_103477" fill="white">
<path d="M656 512H720V576H656V512Z"/>
</mask>
<path d="M720 576V577H721V576H720ZM720 512H719V576H720H721V512H720ZM720 576V575H656V576V577H720V576Z" fill="#D0D5DD" mask="url(#path-409-inside-204_1599_103477)"/>
<mask id="path-411-inside-205_1599_103477" fill="white">
<path d="M720 512H784V576H720V512Z"/>
</mask>
<path d="M784 576V577H785V576H784ZM784 512H783V576H784H785V512H784ZM784 576V575H720V576V577H784V576Z" fill="#D0D5DD" mask="url(#path-411-inside-205_1599_103477)"/>
<mask id="path-413-inside-206_1599_103477" fill="white">
<path d="M784 512H848V576H784V512Z"/>
</mask>
<path d="M848 576V577H849V576H848ZM848 512H847V576H848H849V512H848ZM848 576V575H784V576V577H848V576Z" fill="#D0D5DD" mask="url(#path-413-inside-206_1599_103477)"/>
<mask id="path-415-inside-207_1599_103477" fill="white">
<path d="M848 512H912V576H848V512Z"/>
</mask>
<path d="M912 576V577H913V576H912ZM912 512H911V576H912H913V512H912ZM912 576V575H848V576V577H912V576Z" fill="#D0D5DD" mask="url(#path-415-inside-207_1599_103477)"/>
<mask id="path-417-inside-208_1599_103477" fill="white">
<path d="M912 512H976V576H912V512Z"/>
</mask>
<path d="M976 576V577H977V576H976ZM976 512H975V576H976H977V512H976ZM976 576V575H912V576V577H976V576Z" fill="#D0D5DD" mask="url(#path-417-inside-208_1599_103477)"/>
<mask id="path-419-inside-209_1599_103477" fill="white">
<path d="M976 512H1040V576H976V512Z"/>
</mask>
<path d="M1040 576V577H1041V576H1040ZM1040 512H1039V576H1040H1041V512H1040ZM1040 576V575H976V576V577H1040V576Z" fill="#D0D5DD" mask="url(#path-419-inside-209_1599_103477)"/>
<mask id="path-421-inside-210_1599_103477" fill="white">
<path d="M1040 512H1104V576H1040V512Z"/>
</mask>
<path d="M1104 576V577H1105V576H1104ZM1104 512H1103V576H1104H1105V512H1104ZM1104 576V575H1040V576V577H1104V576Z" fill="#D0D5DD" mask="url(#path-421-inside-210_1599_103477)"/>
<mask id="path-423-inside-211_1599_103477" fill="white">
<path d="M1104 512H1168V576H1104V512Z"/>
</mask>
<path d="M1104 512H1168V576H1104V512Z" fill="#F2F4F7"/>
<path d="M1168 576V577H1169V576H1168ZM1168 512H1167V576H1168H1169V512H1168ZM1168 576V575H1104V576V577H1168V576Z" fill="#D0D5DD" mask="url(#path-423-inside-211_1599_103477)"/>
<mask id="path-425-inside-212_1599_103477" fill="white">
<path d="M1168 512H1232V576H1168V512Z"/>
</mask>
<path d="M1232 576V577H1233V576H1232ZM1232 512H1231V576H1232H1233V512H1232ZM1232 576V575H1168V576V577H1232V576Z" fill="#D0D5DD" mask="url(#path-425-inside-212_1599_103477)"/>
<mask id="path-427-inside-213_1599_103477" fill="white">
<path d="M1232 512H1296V576H1232V512Z"/>
</mask>
<path d="M1296 576V577H1297V576H1296ZM1296 512H1295V576H1296H1297V512H1296ZM1296 576V575H1232V576V577H1296V576Z" fill="#D0D5DD" mask="url(#path-427-inside-213_1599_103477)"/>
<mask id="path-429-inside-214_1599_103477" fill="white">
<path d="M1296 512H1360V576H1296V512Z"/>
</mask>
<path d="M1360 576V577H1361V576H1360ZM1360 512H1359V576H1360H1361V512H1360ZM1360 576V575H1296V576V577H1360V576Z" fill="#D0D5DD" mask="url(#path-429-inside-214_1599_103477)"/>
<mask id="path-431-inside-215_1599_103477" fill="white">
<path d="M1360 512H1424V576H1360V512Z"/>
</mask>
<path d="M1424 576V577H1425V576H1424ZM1424 512H1423V576H1424H1425V512H1424ZM1424 576V575H1360V576V577H1424V576Z" fill="#D0D5DD" mask="url(#path-431-inside-215_1599_103477)"/>
<mask id="path-433-inside-216_1599_103477" fill="white">
<path d="M1424 512H1488V576H1424V512Z"/>
</mask>
<path d="M1488 576V577H1489V576H1488ZM1488 512H1487V576H1488H1489V512H1488ZM1488 576V575H1424V576V577H1488V576Z" fill="#D0D5DD" mask="url(#path-433-inside-216_1599_103477)"/>
<mask id="path-435-inside-217_1599_103477" fill="white">
<path d="M-48 576H16V640H-48V576Z"/>
</mask>
<path d="M16 640V641H17V640H16ZM16 576H15V640H16H17V576H16ZM16 640V639H-48V640V641H16V640Z" fill="#D0D5DD" mask="url(#path-435-inside-217_1599_103477)"/>
<mask id="path-437-inside-218_1599_103477" fill="white">
<path d="M16 576H80V640H16V576Z"/>
</mask>
<path d="M80 640V641H81V640H80ZM80 576H79V640H80H81V576H80ZM80 640V639H16V640V641H80V640Z" fill="#D0D5DD" mask="url(#path-437-inside-218_1599_103477)"/>
<mask id="path-439-inside-219_1599_103477" fill="white">
<path d="M80 576H144V640H80V576Z"/>
</mask>
<path d="M144 640V641H145V640H144ZM144 576H143V640H144H145V576H144ZM144 640V639H80V640V641H144V640Z" fill="#D0D5DD" mask="url(#path-439-inside-219_1599_103477)"/>
<mask id="path-441-inside-220_1599_103477" fill="white">
<path d="M144 576H208V640H144V576Z"/>
</mask>
<path d="M208 640V641H209V640H208ZM208 576H207V640H208H209V576H208ZM208 640V639H144V640V641H208V640Z" fill="#D0D5DD" mask="url(#path-441-inside-220_1599_103477)"/>
<mask id="path-443-inside-221_1599_103477" fill="white">
<path d="M208 576H272V640H208V576Z"/>
</mask>
<path d="M208 576H272V640H208V576Z" fill="#F2F4F7"/>
<path d="M272 640V641H273V640H272ZM272 576H271V640H272H273V576H272ZM272 640V639H208V640V641H272V640Z" fill="#D0D5DD" mask="url(#path-443-inside-221_1599_103477)"/>
<mask id="path-445-inside-222_1599_103477" fill="white">
<path d="M272 576H336V640H272V576Z"/>
</mask>
<path d="M336 640V641H337V640H336ZM336 576H335V640H336H337V576H336ZM336 640V639H272V640V641H336V640Z" fill="#D0D5DD" mask="url(#path-445-inside-222_1599_103477)"/>
<mask id="path-447-inside-223_1599_103477" fill="white">
<path d="M336 576H400V640H336V576Z"/>
</mask>
<path d="M400 640V641H401V640H400ZM400 576H399V640H400H401V576H400ZM400 640V639H336V640V641H400V640Z" fill="#D0D5DD" mask="url(#path-447-inside-223_1599_103477)"/>
<mask id="path-449-inside-224_1599_103477" fill="white">
<path d="M400 576H464V640H400V576Z"/>
</mask>
<path d="M464 640V641H465V640H464ZM464 576H463V640H464H465V576H464ZM464 640V639H400V640V641H464V640Z" fill="#D0D5DD" mask="url(#path-449-inside-224_1599_103477)"/>
<mask id="path-451-inside-225_1599_103477" fill="white">
<path d="M464 576H528V640H464V576Z"/>
</mask>
<path d="M528 640V641H529V640H528ZM528 576H527V640H528H529V576H528ZM528 640V639H464V640V641H528V640Z" fill="#D0D5DD" mask="url(#path-451-inside-225_1599_103477)"/>
<mask id="path-453-inside-226_1599_103477" fill="white">
<path d="M528 576H592V640H528V576Z"/>
</mask>
<path d="M592 640V641H593V640H592ZM592 576H591V640H592H593V576H592ZM592 640V639H528V640V641H592V640Z" fill="#D0D5DD" mask="url(#path-453-inside-226_1599_103477)"/>
<mask id="path-455-inside-227_1599_103477" fill="white">
<path d="M592 576H656V640H592V576Z"/>
</mask>
<path d="M656 640V641H657V640H656ZM656 576H655V640H656H657V576H656ZM656 640V639H592V640V641H656V640Z" fill="#D0D5DD" mask="url(#path-455-inside-227_1599_103477)"/>
<mask id="path-457-inside-228_1599_103477" fill="white">
<path d="M656 576H720V640H656V576Z"/>
</mask>
<path d="M656 576H720V640H656V576Z" fill="#F2F4F7"/>
<path d="M720 640V641H721V640H720ZM720 576H719V640H720H721V576H720ZM720 640V639H656V640V641H720V640Z" fill="#D0D5DD" mask="url(#path-457-inside-228_1599_103477)"/>
<mask id="path-459-inside-229_1599_103477" fill="white">
<path d="M720 576H784V640H720V576Z"/>
</mask>
<path d="M784 640V641H785V640H784ZM784 576H783V640H784H785V576H784ZM784 640V639H720V640V641H784V640Z" fill="#D0D5DD" mask="url(#path-459-inside-229_1599_103477)"/>
<mask id="path-461-inside-230_1599_103477" fill="white">
<path d="M784 576H848V640H784V576Z"/>
</mask>
<path d="M848 640V641H849V640H848ZM848 576H847V640H848H849V576H848ZM848 640V639H784V640V641H848V640Z" fill="#D0D5DD" mask="url(#path-461-inside-230_1599_103477)"/>
<mask id="path-463-inside-231_1599_103477" fill="white">
<path d="M848 576H912V640H848V576Z"/>
</mask>
<path d="M912 640V641H913V640H912ZM912 576H911V640H912H913V576H912ZM912 640V639H848V640V641H912V640Z" fill="#D0D5DD" mask="url(#path-463-inside-231_1599_103477)"/>
<mask id="path-465-inside-232_1599_103477" fill="white">
<path d="M912 576H976V640H912V576Z"/>
</mask>
<path d="M976 640V641H977V640H976ZM976 576H975V640H976H977V576H976ZM976 640V639H912V640V641H976V640Z" fill="#D0D5DD" mask="url(#path-465-inside-232_1599_103477)"/>
<mask id="path-467-inside-233_1599_103477" fill="white">
<path d="M976 576H1040V640H976V576Z"/>
</mask>
<path d="M1040 640V641H1041V640H1040ZM1040 576H1039V640H1040H1041V576H1040ZM1040 640V639H976V640V641H1040V640Z" fill="#D0D5DD" mask="url(#path-467-inside-233_1599_103477)"/>
<mask id="path-469-inside-234_1599_103477" fill="white">
<path d="M1040 576H1104V640H1040V576Z"/>
</mask>
<path d="M1104 640V641H1105V640H1104ZM1104 576H1103V640H1104H1105V576H1104ZM1104 640V639H1040V640V641H1104V640Z" fill="#D0D5DD" mask="url(#path-469-inside-234_1599_103477)"/>
<mask id="path-471-inside-235_1599_103477" fill="white">
<path d="M1104 576H1168V640H1104V576Z"/>
</mask>
<path d="M1168 640V641H1169V640H1168ZM1168 576H1167V640H1168H1169V576H1168ZM1168 640V639H1104V640V641H1168V640Z" fill="#D0D5DD" mask="url(#path-471-inside-235_1599_103477)"/>
<mask id="path-473-inside-236_1599_103477" fill="white">
<path d="M1168 576H1232V640H1168V576Z"/>
</mask>
<path d="M1232 640V641H1233V640H1232ZM1232 576H1231V640H1232H1233V576H1232ZM1232 640V639H1168V640V641H1232V640Z" fill="#D0D5DD" mask="url(#path-473-inside-236_1599_103477)"/>
<mask id="path-475-inside-237_1599_103477" fill="white">
<path d="M1232 576H1296V640H1232V576Z"/>
</mask>
<path d="M1296 640V641H1297V640H1296ZM1296 576H1295V640H1296H1297V576H1296ZM1296 640V639H1232V640V641H1296V640Z" fill="#D0D5DD" mask="url(#path-475-inside-237_1599_103477)"/>
<mask id="path-477-inside-238_1599_103477" fill="white">
<path d="M1296 576H1360V640H1296V576Z"/>
</mask>
<path d="M1360 640V641H1361V640H1360ZM1360 576H1359V640H1360H1361V576H1360ZM1360 640V639H1296V640V641H1360V640Z" fill="#D0D5DD" mask="url(#path-477-inside-238_1599_103477)"/>
<mask id="path-479-inside-239_1599_103477" fill="white">
<path d="M1360 576H1424V640H1360V576Z"/>
</mask>
<path d="M1360 576H1424V640H1360V576Z" fill="#F2F4F7"/>
<path d="M1424 640V641H1425V640H1424ZM1424 576H1423V640H1424H1425V576H1424ZM1424 640V639H1360V640V641H1424V640Z" fill="#D0D5DD" mask="url(#path-479-inside-239_1599_103477)"/>
<mask id="path-481-inside-240_1599_103477" fill="white">
<path d="M1424 576H1488V640H1424V576Z"/>
</mask>
<path d="M1488 640V641H1489V640H1488ZM1488 576H1487V640H1488H1489V576H1488ZM1488 640V639H1424V640V641H1488V640Z" fill="#D0D5DD" mask="url(#path-481-inside-240_1599_103477)"/>
<mask id="path-483-inside-241_1599_103477" fill="white">
<path d="M-48 640H16V704H-48V640Z"/>
</mask>
<path d="M-48 640H16V704H-48V640Z" fill="#F2F4F7"/>
<path d="M16 704V705H17V704H16ZM16 640H15V704H16H17V640H16ZM16 704V703H-48V704V705H16V704Z" fill="#D0D5DD" mask="url(#path-483-inside-241_1599_103477)"/>
<mask id="path-485-inside-242_1599_103477" fill="white">
<path d="M16 640H80V704H16V640Z"/>
</mask>
<path d="M80 704V705H81V704H80ZM80 640H79V704H80H81V640H80ZM80 704V703H16V704V705H80V704Z" fill="#D0D5DD" mask="url(#path-485-inside-242_1599_103477)"/>
<mask id="path-487-inside-243_1599_103477" fill="white">
<path d="M80 640H144V704H80V640Z"/>
</mask>
<path d="M144 704V705H145V704H144ZM144 640H143V704H144H145V640H144ZM144 704V703H80V704V705H144V704Z" fill="#D0D5DD" mask="url(#path-487-inside-243_1599_103477)"/>
<mask id="path-489-inside-244_1599_103477" fill="white">
<path d="M144 640H208V704H144V640Z"/>
</mask>
<path d="M208 704V705H209V704H208ZM208 640H207V704H208H209V640H208ZM208 704V703H144V704V705H208V704Z" fill="#D0D5DD" mask="url(#path-489-inside-244_1599_103477)"/>
<mask id="path-491-inside-245_1599_103477" fill="white">
<path d="M208 640H272V704H208V640Z"/>
</mask>
<path d="M272 704V705H273V704H272ZM272 640H271V704H272H273V640H272ZM272 704V703H208V704V705H272V704Z" fill="#D0D5DD" mask="url(#path-491-inside-245_1599_103477)"/>
<mask id="path-493-inside-246_1599_103477" fill="white">
<path d="M272 640H336V704H272V640Z"/>
</mask>
<path d="M336 704V705H337V704H336ZM336 640H335V704H336H337V640H336ZM336 704V703H272V704V705H336V704Z" fill="#D0D5DD" mask="url(#path-493-inside-246_1599_103477)"/>
<mask id="path-495-inside-247_1599_103477" fill="white">
<path d="M336 640H400V704H336V640Z"/>
</mask>
<path d="M400 704V705H401V704H400ZM400 640H399V704H400H401V640H400ZM400 704V703H336V704V705H400V704Z" fill="#D0D5DD" mask="url(#path-495-inside-247_1599_103477)"/>
<mask id="path-497-inside-248_1599_103477" fill="white">
<path d="M400 640H464V704H400V640Z"/>
</mask>
<path d="M464 704V705H465V704H464ZM464 640H463V704H464H465V640H464ZM464 704V703H400V704V705H464V704Z" fill="#D0D5DD" mask="url(#path-497-inside-248_1599_103477)"/>
<mask id="path-499-inside-249_1599_103477" fill="white">
<path d="M464 640H528V704H464V640Z"/>
</mask>
<path d="M528 704V705H529V704H528ZM528 640H527V704H528H529V640H528ZM528 704V703H464V704V705H528V704Z" fill="#D0D5DD" mask="url(#path-499-inside-249_1599_103477)"/>
<mask id="path-501-inside-250_1599_103477" fill="white">
<path d="M528 640H592V704H528V640Z"/>
</mask>
<path d="M528 640H592V704H528V640Z" fill="#F2F4F7"/>
<path d="M592 704V705H593V704H592ZM592 640H591V704H592H593V640H592ZM592 704V703H528V704V705H592V704Z" fill="#D0D5DD" mask="url(#path-501-inside-250_1599_103477)"/>
<mask id="path-503-inside-251_1599_103477" fill="white">
<path d="M592 640H656V704H592V640Z"/>
</mask>
<path d="M656 704V705H657V704H656ZM656 640H655V704H656H657V640H656ZM656 704V703H592V704V705H656V704Z" fill="#D0D5DD" mask="url(#path-503-inside-251_1599_103477)"/>
<mask id="path-505-inside-252_1599_103477" fill="white">
<path d="M656 640H720V704H656V640Z"/>
</mask>
<path d="M720 704V705H721V704H720ZM720 640H719V704H720H721V640H720ZM720 704V703H656V704V705H720V704Z" fill="#D0D5DD" mask="url(#path-505-inside-252_1599_103477)"/>
<mask id="path-507-inside-253_1599_103477" fill="white">
<path d="M720 640H784V704H720V640Z"/>
</mask>
<path d="M784 704V705H785V704H784ZM784 640H783V704H784H785V640H784ZM784 704V703H720V704V705H784V704Z" fill="#D0D5DD" mask="url(#path-507-inside-253_1599_103477)"/>
<mask id="path-509-inside-254_1599_103477" fill="white">
<path d="M784 640H848V704H784V640Z"/>
</mask>
<path d="M848 704V705H849V704H848ZM848 640H847V704H848H849V640H848ZM848 704V703H784V704V705H848V704Z" fill="#D0D5DD" mask="url(#path-509-inside-254_1599_103477)"/>
<mask id="path-511-inside-255_1599_103477" fill="white">
<path d="M848 640H912V704H848V640Z"/>
</mask>
<path d="M912 704V705H913V704H912ZM912 640H911V704H912H913V640H912ZM912 704V703H848V704V705H912V704Z" fill="#D0D5DD" mask="url(#path-511-inside-255_1599_103477)"/>
<mask id="path-513-inside-256_1599_103477" fill="white">
<path d="M912 640H976V704H912V640Z"/>
</mask>
<path d="M976 704V705H977V704H976ZM976 640H975V704H976H977V640H976ZM976 704V703H912V704V705H976V704Z" fill="#D0D5DD" mask="url(#path-513-inside-256_1599_103477)"/>
<mask id="path-515-inside-257_1599_103477" fill="white">
<path d="M976 640H1040V704H976V640Z"/>
</mask>
<path d="M976 640H1040V704H976V640Z" fill="#F2F4F7"/>
<path d="M1040 704V705H1041V704H1040ZM1040 640H1039V704H1040H1041V640H1040ZM1040 704V703H976V704V705H1040V704Z" fill="#D0D5DD" mask="url(#path-515-inside-257_1599_103477)"/>
<mask id="path-517-inside-258_1599_103477" fill="white">
<path d="M1040 640H1104V704H1040V640Z"/>
</mask>
<path d="M1104 704V705H1105V704H1104ZM1104 640H1103V704H1104H1105V640H1104ZM1104 704V703H1040V704V705H1104V704Z" fill="#D0D5DD" mask="url(#path-517-inside-258_1599_103477)"/>
<mask id="path-519-inside-259_1599_103477" fill="white">
<path d="M1104 640H1168V704H1104V640Z"/>
</mask>
<path d="M1168 704V705H1169V704H1168ZM1168 640H1167V704H1168H1169V640H1168ZM1168 704V703H1104V704V705H1168V704Z" fill="#D0D5DD" mask="url(#path-519-inside-259_1599_103477)"/>
<mask id="path-521-inside-260_1599_103477" fill="white">
<path d="M1168 640H1232V704H1168V640Z"/>
</mask>
<path d="M1232 704V705H1233V704H1232ZM1232 640H1231V704H1232H1233V640H1232ZM1232 704V703H1168V704V705H1232V704Z" fill="#D0D5DD" mask="url(#path-521-inside-260_1599_103477)"/>
<mask id="path-523-inside-261_1599_103477" fill="white">
<path d="M1232 640H1296V704H1232V640Z"/>
</mask>
<path d="M1296 704V705H1297V704H1296ZM1296 640H1295V704H1296H1297V640H1296ZM1296 704V703H1232V704V705H1296V704Z" fill="#D0D5DD" mask="url(#path-523-inside-261_1599_103477)"/>
<mask id="path-525-inside-262_1599_103477" fill="white">
<path d="M1296 640H1360V704H1296V640Z"/>
</mask>
<path d="M1360 704V705H1361V704H1360ZM1360 640H1359V704H1360H1361V640H1360ZM1360 704V703H1296V704V705H1360V704Z" fill="#D0D5DD" mask="url(#path-525-inside-262_1599_103477)"/>
<mask id="path-527-inside-263_1599_103477" fill="white">
<path d="M1360 640H1424V704H1360V640Z"/>
</mask>
<path d="M1424 704V705H1425V704H1424ZM1424 640H1423V704H1424H1425V640H1424ZM1424 704V703H1360V704V705H1424V704Z" fill="#D0D5DD" mask="url(#path-527-inside-263_1599_103477)"/>
<mask id="path-529-inside-264_1599_103477" fill="white">
<path d="M1424 640H1488V704H1424V640Z"/>
</mask>
<path d="M1488 704V705H1489V704H1488ZM1488 640H1487V704H1488H1489V640H1488ZM1488 704V703H1424V704V705H1488V704Z" fill="#D0D5DD" mask="url(#path-529-inside-264_1599_103477)"/>
<mask id="path-531-inside-265_1599_103477" fill="white">
<path d="M-48 704H16V768H-48V704Z"/>
</mask>
<path d="M16 768V769H17V768H16ZM16 704H15V768H16H17V704H16ZM16 768V767H-48V768V769H16V768Z" fill="#D0D5DD" mask="url(#path-531-inside-265_1599_103477)"/>
<mask id="path-533-inside-266_1599_103477" fill="white">
<path d="M16 704H80V768H16V704Z"/>
</mask>
<path d="M80 768V769H81V768H80ZM80 704H79V768H80H81V704H80ZM80 768V767H16V768V769H80V768Z" fill="#D0D5DD" mask="url(#path-533-inside-266_1599_103477)"/>
<mask id="path-535-inside-267_1599_103477" fill="white">
<path d="M80 704H144V768H80V704Z"/>
</mask>
<path d="M144 768V769H145V768H144ZM144 704H143V768H144H145V704H144ZM144 768V767H80V768V769H144V768Z" fill="#D0D5DD" mask="url(#path-535-inside-267_1599_103477)"/>
<mask id="path-537-inside-268_1599_103477" fill="white">
<path d="M144 704H208V768H144V704Z"/>
</mask>
<path d="M144 704H208V768H144V704Z" fill="#F2F4F7"/>
<path d="M208 768V769H209V768H208ZM208 704H207V768H208H209V704H208ZM208 768V767H144V768V769H208V768Z" fill="#D0D5DD" mask="url(#path-537-inside-268_1599_103477)"/>
<mask id="path-539-inside-269_1599_103477" fill="white">
<path d="M208 704H272V768H208V704Z"/>
</mask>
<path d="M272 768V769H273V768H272ZM272 704H271V768H272H273V704H272ZM272 768V767H208V768V769H272V768Z" fill="#D0D5DD" mask="url(#path-539-inside-269_1599_103477)"/>
<mask id="path-541-inside-270_1599_103477" fill="white">
<path d="M272 704H336V768H272V704Z"/>
</mask>
<path d="M336 768V769H337V768H336ZM336 704H335V768H336H337V704H336ZM336 768V767H272V768V769H336V768Z" fill="#D0D5DD" mask="url(#path-541-inside-270_1599_103477)"/>
<mask id="path-543-inside-271_1599_103477" fill="white">
<path d="M336 704H400V768H336V704Z"/>
</mask>
<path d="M400 768V769H401V768H400ZM400 704H399V768H400H401V704H400ZM400 768V767H336V768V769H400V768Z" fill="#D0D5DD" mask="url(#path-543-inside-271_1599_103477)"/>
<mask id="path-545-inside-272_1599_103477" fill="white">
<path d="M400 704H464V768H400V704Z"/>
</mask>
<path d="M464 768V769H465V768H464ZM464 704H463V768H464H465V704H464ZM464 768V767H400V768V769H464V768Z" fill="#D0D5DD" mask="url(#path-545-inside-272_1599_103477)"/>
<mask id="path-547-inside-273_1599_103477" fill="white">
<path d="M464 704H528V768H464V704Z"/>
</mask>
<path d="M528 768V769H529V768H528ZM528 704H527V768H528H529V704H528ZM528 768V767H464V768V769H528V768Z" fill="#D0D5DD" mask="url(#path-547-inside-273_1599_103477)"/>
<mask id="path-549-inside-274_1599_103477" fill="white">
<path d="M528 704H592V768H528V704Z"/>
</mask>
<path d="M592 768V769H593V768H592ZM592 704H591V768H592H593V704H592ZM592 768V767H528V768V769H592V768Z" fill="#D0D5DD" mask="url(#path-549-inside-274_1599_103477)"/>
<mask id="path-551-inside-275_1599_103477" fill="white">
<path d="M592 704H656V768H592V704Z"/>
</mask>
<path d="M656 768V769H657V768H656ZM656 704H655V768H656H657V704H656ZM656 768V767H592V768V769H656V768Z" fill="#D0D5DD" mask="url(#path-551-inside-275_1599_103477)"/>
<mask id="path-553-inside-276_1599_103477" fill="white">
<path d="M656 704H720V768H656V704Z"/>
</mask>
<path d="M720 768V769H721V768H720ZM720 704H719V768H720H721V704H720ZM720 768V767H656V768V769H720V768Z" fill="#D0D5DD" mask="url(#path-553-inside-276_1599_103477)"/>
<mask id="path-555-inside-277_1599_103477" fill="white">
<path d="M720 704H784V768H720V704Z"/>
</mask>
<path d="M784 768V769H785V768H784ZM784 704H783V768H784H785V704H784ZM784 768V767H720V768V769H784V768Z" fill="#D0D5DD" mask="url(#path-555-inside-277_1599_103477)"/>
<mask id="path-557-inside-278_1599_103477" fill="white">
<path d="M784 704H848V768H784V704Z"/>
</mask>
<path d="M784 704H848V768H784V704Z" fill="#F2F4F7"/>
<path d="M848 768V769H849V768H848ZM848 704H847V768H848H849V704H848ZM848 768V767H784V768V769H848V768Z" fill="#D0D5DD" mask="url(#path-557-inside-278_1599_103477)"/>
<mask id="path-559-inside-279_1599_103477" fill="white">
<path d="M848 704H912V768H848V704Z"/>
</mask>
<path d="M912 768V769H913V768H912ZM912 704H911V768H912H913V704H912ZM912 768V767H848V768V769H912V768Z" fill="#D0D5DD" mask="url(#path-559-inside-279_1599_103477)"/>
<mask id="path-561-inside-280_1599_103477" fill="white">
<path d="M912 704H976V768H912V704Z"/>
</mask>
<path d="M976 768V769H977V768H976ZM976 704H975V768H976H977V704H976ZM976 768V767H912V768V769H976V768Z" fill="#D0D5DD" mask="url(#path-561-inside-280_1599_103477)"/>
<mask id="path-563-inside-281_1599_103477" fill="white">
<path d="M976 704H1040V768H976V704Z"/>
</mask>
<path d="M1040 768V769H1041V768H1040ZM1040 704H1039V768H1040H1041V704H1040ZM1040 768V767H976V768V769H1040V768Z" fill="#D0D5DD" mask="url(#path-563-inside-281_1599_103477)"/>
<mask id="path-565-inside-282_1599_103477" fill="white">
<path d="M1040 704H1104V768H1040V704Z"/>
</mask>
<path d="M1104 768V769H1105V768H1104ZM1104 704H1103V768H1104H1105V704H1104ZM1104 768V767H1040V768V769H1104V768Z" fill="#D0D5DD" mask="url(#path-565-inside-282_1599_103477)"/>
<mask id="path-567-inside-283_1599_103477" fill="white">
<path d="M1104 704H1168V768H1104V704Z"/>
</mask>
<path d="M1104 704H1168V768H1104V704Z" fill="#F2F4F7"/>
<path d="M1168 768V769H1169V768H1168ZM1168 704H1167V768H1168H1169V704H1168ZM1168 768V767H1104V768V769H1168V768Z" fill="#D0D5DD" mask="url(#path-567-inside-283_1599_103477)"/>
<mask id="path-569-inside-284_1599_103477" fill="white">
<path d="M1168 704H1232V768H1168V704Z"/>
</mask>
<path d="M1232 768V769H1233V768H1232ZM1232 704H1231V768H1232H1233V704H1232ZM1232 768V767H1168V768V769H1232V768Z" fill="#D0D5DD" mask="url(#path-569-inside-284_1599_103477)"/>
<mask id="path-571-inside-285_1599_103477" fill="white">
<path d="M1232 704H1296V768H1232V704Z"/>
</mask>
<path d="M1296 768V769H1297V768H1296ZM1296 704H1295V768H1296H1297V704H1296ZM1296 768V767H1232V768V769H1296V768Z" fill="#D0D5DD" mask="url(#path-571-inside-285_1599_103477)"/>
<mask id="path-573-inside-286_1599_103477" fill="white">
<path d="M1296 704H1360V768H1296V704Z"/>
</mask>
<path d="M1360 768V769H1361V768H1360ZM1360 704H1359V768H1360H1361V704H1360ZM1360 768V767H1296V768V769H1360V768Z" fill="#D0D5DD" mask="url(#path-573-inside-286_1599_103477)"/>
<mask id="path-575-inside-287_1599_103477" fill="white">
<path d="M1360 704H1424V768H1360V704Z"/>
</mask>
<path d="M1424 768V769H1425V768H1424ZM1424 704H1423V768H1424H1425V704H1424ZM1424 768V767H1360V768V769H1424V768Z" fill="#D0D5DD" mask="url(#path-575-inside-287_1599_103477)"/>
<mask id="path-577-inside-288_1599_103477" fill="white">
<path d="M1424 704H1488V768H1424V704Z"/>
</mask>
<path d="M1488 768V769H1489V768H1488ZM1488 704H1487V768H1488H1489V704H1488ZM1488 768V767H1424V768V769H1488V768Z" fill="#D0D5DD" mask="url(#path-577-inside-288_1599_103477)"/>
<mask id="path-579-inside-289_1599_103477" fill="white">
<path d="M-48 768H16V832H-48V768Z"/>
</mask>
<path d="M16 832V833H17V832H16ZM16 768H15V832H16H17V768H16ZM16 832V831H-48V832V833H16V832Z" fill="#D0D5DD" mask="url(#path-579-inside-289_1599_103477)"/>
<mask id="path-581-inside-290_1599_103477" fill="white">
<path d="M16 768H80V832H16V768Z"/>
</mask>
<path d="M16 768H80V832H16V768Z" fill="#F2F4F7"/>
<path d="M80 832V833H81V832H80ZM80 768H79V832H80H81V768H80ZM80 832V831H16V832V833H80V832Z" fill="#D0D5DD" mask="url(#path-581-inside-290_1599_103477)"/>
<mask id="path-583-inside-291_1599_103477" fill="white">
<path d="M80 768H144V832H80V768Z"/>
</mask>
<path d="M144 832V833H145V832H144ZM144 768H143V832H144H145V768H144ZM144 832V831H80V832V833H144V832Z" fill="#D0D5DD" mask="url(#path-583-inside-291_1599_103477)"/>
<mask id="path-585-inside-292_1599_103477" fill="white">
<path d="M144 768H208V832H144V768Z"/>
</mask>
<path d="M208 832V833H209V832H208ZM208 768H207V832H208H209V768H208ZM208 832V831H144V832V833H208V832Z" fill="#D0D5DD" mask="url(#path-585-inside-292_1599_103477)"/>
<mask id="path-587-inside-293_1599_103477" fill="white">
<path d="M208 768H272V832H208V768Z"/>
</mask>
<path d="M272 832V833H273V832H272ZM272 768H271V832H272H273V768H272ZM272 832V831H208V832V833H272V832Z" fill="#D0D5DD" mask="url(#path-587-inside-293_1599_103477)"/>
<mask id="path-589-inside-294_1599_103477" fill="white">
<path d="M272 768H336V832H272V768Z"/>
</mask>
<path d="M336 832V833H337V832H336ZM336 768H335V832H336H337V768H336ZM336 832V831H272V832V833H336V832Z" fill="#D0D5DD" mask="url(#path-589-inside-294_1599_103477)"/>
<mask id="path-591-inside-295_1599_103477" fill="white">
<path d="M336 768H400V832H336V768Z"/>
</mask>
<path d="M400 832V833H401V832H400ZM400 768H399V832H400H401V768H400ZM400 832V831H336V832V833H400V832Z" fill="#D0D5DD" mask="url(#path-591-inside-295_1599_103477)"/>
<mask id="path-593-inside-296_1599_103477" fill="white">
<path d="M400 768H464V832H400V768Z"/>
</mask>
<path d="M464 832V833H465V832H464ZM464 768H463V832H464H465V768H464ZM464 832V831H400V832V833H464V832Z" fill="#D0D5DD" mask="url(#path-593-inside-296_1599_103477)"/>
<mask id="path-595-inside-297_1599_103477" fill="white">
<path d="M464 768H528V832H464V768Z"/>
</mask>
<path d="M528 832V833H529V832H528ZM528 768H527V832H528H529V768H528ZM528 832V831H464V832V833H528V832Z" fill="#D0D5DD" mask="url(#path-595-inside-297_1599_103477)"/>
<mask id="path-597-inside-298_1599_103477" fill="white">
<path d="M528 768H592V832H528V768Z"/>
</mask>
<path d="M528 768H592V832H528V768Z" fill="#F2F4F7"/>
<path d="M592 832V833H593V832H592ZM592 768H591V832H592H593V768H592ZM592 832V831H528V832V833H592V832Z" fill="#D0D5DD" mask="url(#path-597-inside-298_1599_103477)"/>
<mask id="path-599-inside-299_1599_103477" fill="white">
<path d="M592 768H656V832H592V768Z"/>
</mask>
<path d="M656 832V833H657V832H656ZM656 768H655V832H656H657V768H656ZM656 832V831H592V832V833H656V832Z" fill="#D0D5DD" mask="url(#path-599-inside-299_1599_103477)"/>
<mask id="path-601-inside-300_1599_103477" fill="white">
<path d="M656 768H720V832H656V768Z"/>
</mask>
<path d="M720 832V833H721V832H720ZM720 768H719V832H720H721V768H720ZM720 832V831H656V832V833H720V832Z" fill="#D0D5DD" mask="url(#path-601-inside-300_1599_103477)"/>
<mask id="path-603-inside-301_1599_103477" fill="white">
<path d="M720 768H784V832H720V768Z"/>
</mask>
<path d="M784 832V833H785V832H784ZM784 768H783V832H784H785V768H784ZM784 832V831H720V832V833H784V832Z" fill="#D0D5DD" mask="url(#path-603-inside-301_1599_103477)"/>
<mask id="path-605-inside-302_1599_103477" fill="white">
<path d="M784 768H848V832H784V768Z"/>
</mask>
<path d="M848 832V833H849V832H848ZM848 768H847V832H848H849V768H848ZM848 832V831H784V832V833H848V832Z" fill="#D0D5DD" mask="url(#path-605-inside-302_1599_103477)"/>
<mask id="path-607-inside-303_1599_103477" fill="white">
<path d="M848 768H912V832H848V768Z"/>
</mask>
<path d="M912 832V833H913V832H912ZM912 768H911V832H912H913V768H912ZM912 832V831H848V832V833H912V832Z" fill="#D0D5DD" mask="url(#path-607-inside-303_1599_103477)"/>
<mask id="path-609-inside-304_1599_103477" fill="white">
<path d="M912 768H976V832H912V768Z"/>
</mask>
<path d="M976 832V833H977V832H976ZM976 768H975V832H976H977V768H976ZM976 832V831H912V832V833H976V832Z" fill="#D0D5DD" mask="url(#path-609-inside-304_1599_103477)"/>
<mask id="path-611-inside-305_1599_103477" fill="white">
<path d="M976 768H1040V832H976V768Z"/>
</mask>
<path d="M1040 832V833H1041V832H1040ZM1040 768H1039V832H1040H1041V768H1040ZM1040 832V831H976V832V833H1040V832Z" fill="#D0D5DD" mask="url(#path-611-inside-305_1599_103477)"/>
<mask id="path-613-inside-306_1599_103477" fill="white">
<path d="M1040 768H1104V832H1040V768Z"/>
</mask>
<path d="M1104 832V833H1105V832H1104ZM1104 768H1103V832H1104H1105V768H1104ZM1104 832V831H1040V832V833H1104V832Z" fill="#D0D5DD" mask="url(#path-613-inside-306_1599_103477)"/>
<mask id="path-615-inside-307_1599_103477" fill="white">
<path d="M1104 768H1168V832H1104V768Z"/>
</mask>
<path d="M1168 832V833H1169V832H1168ZM1168 768H1167V832H1168H1169V768H1168ZM1168 832V831H1104V832V833H1168V832Z" fill="#D0D5DD" mask="url(#path-615-inside-307_1599_103477)"/>
<mask id="path-617-inside-308_1599_103477" fill="white">
<path d="M1168 768H1232V832H1168V768Z"/>
</mask>
<path d="M1232 832V833H1233V832H1232ZM1232 768H1231V832H1232H1233V768H1232ZM1232 832V831H1168V832V833H1232V832Z" fill="#D0D5DD" mask="url(#path-617-inside-308_1599_103477)"/>
<mask id="path-619-inside-309_1599_103477" fill="white">
<path d="M1232 768H1296V832H1232V768Z"/>
</mask>
<path d="M1296 832V833H1297V832H1296ZM1296 768H1295V832H1296H1297V768H1296ZM1296 832V831H1232V832V833H1296V832Z" fill="#D0D5DD" mask="url(#path-619-inside-309_1599_103477)"/>
<mask id="path-621-inside-310_1599_103477" fill="white">
<path d="M1296 768H1360V832H1296V768Z"/>
</mask>
<path d="M1296 768H1360V832H1296V768Z" fill="#F2F4F7"/>
<path d="M1360 832V833H1361V832H1360ZM1360 768H1359V832H1360H1361V768H1360ZM1360 832V831H1296V832V833H1360V832Z" fill="#D0D5DD" mask="url(#path-621-inside-310_1599_103477)"/>
<mask id="path-623-inside-311_1599_103477" fill="white">
<path d="M1360 768H1424V832H1360V768Z"/>
</mask>
<path d="M1424 832V833H1425V832H1424ZM1424 768H1423V832H1424H1425V768H1424ZM1424 832V831H1360V832V833H1424V832Z" fill="#D0D5DD" mask="url(#path-623-inside-311_1599_103477)"/>
<mask id="path-625-inside-312_1599_103477" fill="white">
<path d="M1424 768H1488V832H1424V768Z"/>
</mask>
<path d="M1488 832V833H1489V832H1488ZM1488 768H1487V832H1488H1489V768H1488ZM1488 832V831H1424V832V833H1488V832Z" fill="#D0D5DD" mask="url(#path-625-inside-312_1599_103477)"/>
</g>
<rect x="-239.5" y="0.5" width="1919" height="1407" stroke="#D0D5DD"/>
</g>
<defs>
<radialGradient id="paint0_radial_1599_103477" cx="0" cy="0" r="1" gradientUnits="userSpaceOnUse" gradientTransform="translate(720 1440) rotate(-90) scale(1440 751.455)">
<stop/>
<stop offset="0.958333" stop-opacity="0"/>
</radialGradient>
<clipPath id="clip0_1599_103477">
<rect x="-240" width="1920" height="1408" fill="white"/>
</clipPath>
</defs>
</svg>
