<svg width="169" height="54" viewBox="0 0 169 54" fill="none" xmlns="http://www.w3.org/2000/svg">
<path d="M10.508 14V4.158H11.852L15.842 10.542H15.072L19.048 4.158H20.392V14H18.502V7.42L18.866 7.532L16.094 11.984H14.806L12.034 7.532L12.412 7.42V14H10.508ZM25.3845 14.14C24.7032 14.14 24.0872 13.986 23.5365 13.678C22.9952 13.3607 22.5612 12.936 22.2345 12.404C21.9172 11.8627 21.7585 11.2607 21.7585 10.598C21.7585 9.93533 21.9172 9.34267 22.2345 8.82C22.5519 8.288 22.9859 7.868 23.5365 7.56C24.0872 7.24267 24.6985 7.084 25.3705 7.084C26.0612 7.084 26.6772 7.24267 27.2185 7.56C27.7692 7.868 28.2032 8.288 28.5205 8.82C28.8379 9.34267 28.9965 9.93533 28.9965 10.598C28.9965 11.2607 28.8379 11.8627 28.5205 12.404C28.2032 12.936 27.7692 13.3607 27.2185 13.678C26.6772 13.986 26.0659 14.14 25.3845 14.14ZM25.3705 12.432C25.7159 12.432 26.0192 12.3573 26.2805 12.208C26.5512 12.0493 26.7565 11.8347 26.8965 11.564C27.0459 11.284 27.1205 10.9667 27.1205 10.612C27.1205 10.2573 27.0459 9.94467 26.8965 9.674C26.7472 9.40333 26.5419 9.19333 26.2805 9.044C26.0192 8.88533 25.7159 8.806 25.3705 8.806C25.0345 8.806 24.7359 8.88533 24.4745 9.044C24.2132 9.19333 24.0079 9.40333 23.8585 9.674C23.7092 9.94467 23.6345 10.2573 23.6345 10.612C23.6345 10.9667 23.7092 11.284 23.8585 11.564C24.0079 11.8347 24.2132 12.0493 24.4745 12.208C24.7359 12.3573 25.0345 12.432 25.3705 12.432ZM32.5012 14.154C32.1186 14.154 31.7406 14.1027 31.3672 14C31.0032 13.8973 30.6672 13.7573 30.3592 13.58C30.0512 13.3933 29.7852 13.1693 29.5612 12.908L30.6532 11.802C30.8866 12.0633 31.1572 12.2593 31.4652 12.39C31.7732 12.5207 32.1139 12.586 32.4872 12.586C32.7859 12.586 33.0099 12.544 33.1592 12.46C33.3179 12.376 33.3972 12.25 33.3972 12.082C33.3972 11.8953 33.3132 11.7507 33.1452 11.648C32.9866 11.5453 32.7766 11.4613 32.5152 11.396C32.2539 11.3213 31.9786 11.242 31.6892 11.158C31.4092 11.0647 31.1386 10.948 30.8772 10.808C30.6159 10.6587 30.4012 10.458 30.2332 10.206C30.0746 9.94467 29.9952 9.60867 29.9952 9.198C29.9952 8.76867 30.0979 8.39533 30.3032 8.078C30.5179 7.76067 30.8212 7.51333 31.2132 7.336C31.6052 7.15867 32.0672 7.07 32.5992 7.07C33.1592 7.07 33.6632 7.168 34.1112 7.364C34.5686 7.56 34.9466 7.854 35.2452 8.246L34.1392 9.352C33.9339 9.1 33.7006 8.918 33.4392 8.806C33.1872 8.694 32.9119 8.638 32.6132 8.638C32.3426 8.638 32.1326 8.68 31.9832 8.764C31.8432 8.848 31.7732 8.96467 31.7732 9.114C31.7732 9.282 31.8526 9.41267 32.0112 9.506C32.1792 9.59933 32.3939 9.68333 32.6552 9.758C32.9166 9.82333 33.1872 9.90267 33.4672 9.996C33.7566 10.08 34.0272 10.2013 34.2792 10.36C34.5406 10.5187 34.7506 10.7287 34.9092 10.99C35.0772 11.2513 35.1612 11.5873 35.1612 11.998C35.1612 12.6607 34.9232 13.188 34.4472 13.58C33.9712 13.9627 33.3226 14.154 32.5012 14.154ZM37.3919 14V4.424H39.2259V14H37.3919ZM35.8099 8.848V7.238H40.8079V8.848H35.8099ZM48.3257 14.14C47.8404 14.14 47.4017 14.042 47.0097 13.846C46.6177 13.6407 46.3051 13.3653 46.0717 13.02C45.8384 12.6747 45.7124 12.278 45.6937 11.83V9.436C45.7124 8.988 45.8384 8.59133 46.0717 8.246C46.3144 7.89133 46.6271 7.61133 47.0097 7.406C47.4017 7.20067 47.8404 7.098 48.3257 7.098C48.9511 7.098 49.5111 7.252 50.0057 7.56C50.5004 7.868 50.8877 8.288 51.1677 8.82C51.4571 9.352 51.6017 9.954 51.6017 10.626C51.6017 11.2887 51.4571 11.886 51.1677 12.418C50.8877 12.95 50.5004 13.37 50.0057 13.678C49.5111 13.986 48.9511 14.14 48.3257 14.14ZM44.5737 16.828V7.238H46.4077V9.016L46.0997 10.654L46.3937 12.292V16.828H44.5737ZM48.0037 12.446C48.3397 12.446 48.6384 12.3713 48.8997 12.222C49.1611 12.0633 49.3617 11.8487 49.5017 11.578C49.6511 11.298 49.7257 10.976 49.7257 10.612C49.7257 10.2573 49.6511 9.94467 49.5017 9.674C49.3617 9.394 49.1611 9.17933 48.8997 9.03C48.6384 8.87133 48.3397 8.792 48.0037 8.792C47.6771 8.792 47.3831 8.87133 47.1217 9.03C46.8604 9.17933 46.6551 9.394 46.5057 9.674C46.3657 9.94467 46.2957 10.2573 46.2957 10.612C46.2957 10.976 46.3657 11.298 46.5057 11.578C46.6551 11.8487 46.8557 12.0633 47.1077 12.222C47.3691 12.3713 47.6677 12.446 48.0037 12.446ZM55.9822 14.14C55.3009 14.14 54.6849 13.986 54.1342 13.678C53.5929 13.3607 53.1589 12.936 52.8322 12.404C52.5149 11.8627 52.3562 11.2607 52.3562 10.598C52.3562 9.93533 52.5149 9.34267 52.8322 8.82C53.1495 8.288 53.5835 7.868 54.1342 7.56C54.6849 7.24267 55.2962 7.084 55.9682 7.084C56.6589 7.084 57.2749 7.24267 57.8162 7.56C58.3669 7.868 58.8009 8.288 59.1182 8.82C59.4355 9.34267 59.5942 9.93533 59.5942 10.598C59.5942 11.2607 59.4355 11.8627 59.1182 12.404C58.8009 12.936 58.3669 13.3607 57.8162 13.678C57.2749 13.986 56.6635 14.14 55.9822 14.14ZM55.9682 12.432C56.3135 12.432 56.6169 12.3573 56.8782 12.208C57.1489 12.0493 57.3542 11.8347 57.4942 11.564C57.6435 11.284 57.7182 10.9667 57.7182 10.612C57.7182 10.2573 57.6435 9.94467 57.4942 9.674C57.3449 9.40333 57.1395 9.19333 56.8782 9.044C56.6169 8.88533 56.3135 8.806 55.9682 8.806C55.6322 8.806 55.3335 8.88533 55.0722 9.044C54.8109 9.19333 54.6055 9.40333 54.4562 9.674C54.3069 9.94467 54.2322 10.2573 54.2322 10.612C54.2322 10.9667 54.3069 11.284 54.4562 11.564C54.6055 11.8347 54.8109 12.0493 55.0722 12.208C55.3335 12.3573 55.6322 12.432 55.9682 12.432ZM64.5269 14.14C64.0416 14.14 63.6029 14.042 63.2109 13.846C62.8189 13.6407 62.5062 13.3653 62.2729 13.02C62.0396 12.6747 61.9136 12.278 61.8949 11.83V9.436C61.9136 8.988 62.0396 8.59133 62.2729 8.246C62.5156 7.89133 62.8282 7.61133 63.2109 7.406C63.6029 7.20067 64.0416 7.098 64.5269 7.098C65.1522 7.098 65.7122 7.252 66.2069 7.56C66.7016 7.868 67.0889 8.288 67.3689 8.82C67.6582 9.352 67.8029 9.954 67.8029 10.626C67.8029 11.2887 67.6582 11.886 67.3689 12.418C67.0889 12.95 66.7016 13.37 66.2069 13.678C65.7122 13.986 65.1522 14.14 64.5269 14.14ZM60.7749 16.828V7.238H62.6089V9.016L62.3009 10.654L62.5949 12.292V16.828H60.7749ZM64.2049 12.446C64.5409 12.446 64.8396 12.3713 65.1009 12.222C65.3622 12.0633 65.5629 11.8487 65.7029 11.578C65.8522 11.298 65.9269 10.976 65.9269 10.612C65.9269 10.2573 65.8522 9.94467 65.7029 9.674C65.5629 9.394 65.3622 9.17933 65.1009 9.03C64.8396 8.87133 64.5409 8.792 64.2049 8.792C63.8782 8.792 63.5842 8.87133 63.3229 9.03C63.0616 9.17933 62.8562 9.394 62.7069 9.674C62.5669 9.94467 62.4969 10.2573 62.4969 10.612C62.4969 10.976 62.5669 11.298 62.7069 11.578C62.8562 11.8487 63.0569 12.0633 63.3089 12.222C63.5702 12.3713 63.8689 12.446 64.2049 12.446ZM71.8894 14.14C71.292 14.14 70.76 14.014 70.2934 13.762C69.836 13.51 69.4767 13.16 69.2154 12.712C68.954 12.264 68.8234 11.746 68.8234 11.158V7.238H70.6714V11.116C70.6714 11.396 70.718 11.6387 70.8114 11.844C70.9047 12.04 71.0447 12.1893 71.2314 12.292C71.418 12.3947 71.6374 12.446 71.8894 12.446C72.272 12.446 72.5707 12.3293 72.7854 12.096C73 11.8627 73.1074 11.536 73.1074 11.116V7.238H74.9414V11.158C74.9414 11.7553 74.8107 12.278 74.5494 12.726C74.2974 13.174 73.938 13.524 73.4714 13.776C73.014 14.0187 72.4867 14.14 71.8894 14.14ZM76.4018 14V3.878H78.2358V14H76.4018ZM82.6888 14.14C82.0728 14.14 81.5175 13.986 81.0228 13.678C80.5282 13.37 80.1408 12.95 79.8608 12.418C79.5808 11.886 79.4408 11.2887 79.4408 10.626C79.4408 9.954 79.5808 9.352 79.8608 8.82C80.1408 8.288 80.5282 7.868 81.0228 7.56C81.5175 7.252 82.0728 7.098 82.6888 7.098C83.1742 7.098 83.6082 7.196 83.9908 7.392C84.3735 7.588 84.6768 7.86333 84.9008 8.218C85.1342 8.56333 85.2602 8.95533 85.2788 9.394V11.83C85.2602 12.278 85.1342 12.6747 84.9008 13.02C84.6768 13.3653 84.3735 13.6407 83.9908 13.846C83.6082 14.042 83.1742 14.14 82.6888 14.14ZM83.0248 12.446C83.5382 12.446 83.9535 12.278 84.2708 11.942C84.5882 11.5967 84.7468 11.1533 84.7468 10.612C84.7468 10.2573 84.6722 9.94467 84.5228 9.674C84.3828 9.394 84.1822 9.17933 83.9208 9.03C83.6688 8.87133 83.3702 8.792 83.0248 8.792C82.6888 8.792 82.3902 8.87133 82.1288 9.03C81.8768 9.17933 81.6762 9.394 81.5268 9.674C81.3868 9.94467 81.3168 10.2573 81.3168 10.612C81.3168 10.976 81.3868 11.298 81.5268 11.578C81.6762 11.8487 81.8768 12.0633 82.1288 12.222C82.3902 12.3713 82.6888 12.446 83.0248 12.446ZM84.6488 14V12.18L84.9428 10.528L84.6488 8.904V7.238H86.4688V14H84.6488ZM88.0913 14V7.238H89.9253V14H88.0913ZM89.9253 10.262L89.2113 9.786C89.2953 8.95533 89.538 8.302 89.9393 7.826C90.3406 7.34067 90.9193 7.098 91.6753 7.098C92.002 7.098 92.296 7.154 92.5573 7.266C92.8186 7.36867 93.0566 7.54133 93.2713 7.784L92.1233 9.1C92.0206 8.988 91.8946 8.904 91.7453 8.848C91.6053 8.792 91.442 8.764 91.2553 8.764C90.8633 8.764 90.5413 8.89 90.2893 9.142C90.0466 9.38467 89.9253 9.758 89.9253 10.262ZM94.5256 10.57L94.2456 3.878H96.2056L95.9256 10.57H94.5256ZM95.2256 14.14C94.8896 14.14 94.6143 14.028 94.3996 13.804C94.1849 13.58 94.0776 13.3047 94.0776 12.978C94.0776 12.6513 94.1849 12.376 94.3996 12.152C94.6143 11.928 94.8896 11.816 95.2256 11.816C95.5616 11.816 95.8369 11.928 96.0516 12.152C96.2663 12.376 96.3736 12.6513 96.3736 12.978C96.3736 13.3047 96.2663 13.58 96.0516 13.804C95.8369 14.028 95.5616 14.14 95.2256 14.14Z" fill="#8F4400"/>
<path d="M150.781 50.4487C150.938 51.262 150.406 52.0489 149.593 52.2063C148.78 52.3636 147.993 51.8318 147.835 51.0185L149.308 50.7336L150.781 50.4487ZM109.417 11.7913C108.596 11.6804 108.021 10.9249 108.132 10.1039C108.243 9.28295 108.998 8.70739 109.819 8.81836L109.618 10.3048L109.417 11.7913ZM155.214 40.3309C155.641 39.6209 156.562 39.3914 157.272 39.8183C157.982 40.2452 158.212 41.1668 157.785 41.8768L156.5 41.1038L155.214 40.3309ZM151.025 50.21L152.31 50.9829L152.309 50.9841L151.025 50.21ZM147.408 51.2607L148.021 49.8917L148.022 49.8922L147.408 51.2607ZM136.489 48.0157C135.733 47.6772 135.394 46.7898 135.733 46.0337C136.071 45.2776 136.959 44.939 137.715 45.2776L137.102 46.6466L136.489 48.0157ZM149.308 50.7336C147.835 51.0185 147.835 51.0188 147.835 51.0191C147.835 51.0191 147.835 51.0193 147.835 51.0193C147.835 51.0193 147.835 51.019 147.835 51.0185C147.835 51.0174 147.835 51.0153 147.834 51.0122C147.833 51.0059 147.831 50.9954 147.828 50.9809C147.822 50.9518 147.813 50.9065 147.8 50.8457C147.774 50.7241 147.734 50.5405 147.678 50.3009C147.566 49.8218 147.392 49.1194 147.146 48.2422C146.653 46.4864 145.872 44.0372 144.724 41.2783C142.418 35.7376 138.678 29.0616 132.917 24.2003L133.885 23.054L134.852 21.9077C141.125 27.2014 145.096 34.3652 147.494 40.1256C148.697 43.0172 149.516 45.5838 150.034 47.4312C150.294 48.3556 150.479 49.1017 150.6 49.6205C150.66 49.88 150.705 50.0828 150.734 50.2229C150.749 50.2929 150.76 50.3472 150.768 50.3851C150.772 50.404 150.775 50.4189 150.777 50.4295C150.778 50.4348 150.779 50.4391 150.779 50.4423C150.78 50.4439 150.78 50.4452 150.78 50.4463C150.78 50.4468 150.78 50.4474 150.78 50.4477C150.781 50.4482 150.781 50.4487 149.308 50.7336ZM133.885 23.054L132.917 24.2003C121.105 14.2312 111.716 12.1021 109.417 11.7913L109.618 10.3048L109.819 8.81836C112.678 9.20477 122.599 11.5667 134.852 21.9077L133.885 23.054ZM156.5 41.1038L157.785 41.8768L152.31 50.9829L151.025 50.21L149.739 49.437L155.214 40.3309L156.5 41.1038ZM151.025 50.21L152.309 50.9841C151.167 52.8799 148.781 53.521 146.794 52.6292L147.408 51.2607L148.022 49.8922C148.723 50.2069 149.435 49.9414 149.74 49.4358L151.025 50.21ZM147.408 51.2607L146.795 52.6298L136.489 48.0157L137.102 46.6466L137.715 45.2776L148.021 49.8917L147.408 51.2607Z" fill="#8F4400"/>
</svg>
