<svg width="166" height="54" viewBox="0 0 166 54" fill="none" xmlns="http://www.w3.org/2000/svg">
<path d="M69.508 14V4.158H70.852L74.842 10.542H74.072L78.048 4.158H79.392V14H77.502V7.42L77.866 7.532L75.094 11.984H73.806L71.034 7.532L71.412 7.42V14H69.508ZM84.3845 14.14C83.7032 14.14 83.0872 13.986 82.5365 13.678C81.9952 13.3607 81.5612 12.936 81.2345 12.404C80.9172 11.8627 80.7585 11.2607 80.7585 10.598C80.7585 9.93533 80.9172 9.34267 81.2345 8.82C81.5519 8.288 81.9859 7.868 82.5365 7.56C83.0872 7.24267 83.6985 7.084 84.3705 7.084C85.0612 7.084 85.6772 7.24267 86.2185 7.56C86.7692 7.868 87.2032 8.288 87.5205 8.82C87.8379 9.34267 87.9965 9.93533 87.9965 10.598C87.9965 11.2607 87.8379 11.8627 87.5205 12.404C87.2032 12.936 86.7692 13.3607 86.2185 13.678C85.6772 13.986 85.0659 14.14 84.3845 14.14ZM84.3705 12.432C84.7159 12.432 85.0192 12.3573 85.2805 12.208C85.5512 12.0493 85.7565 11.8347 85.8965 11.564C86.0459 11.284 86.1205 10.9667 86.1205 10.612C86.1205 10.2573 86.0459 9.94467 85.8965 9.674C85.7472 9.40333 85.5419 9.19333 85.2805 9.044C85.0192 8.88533 84.7159 8.806 84.3705 8.806C84.0345 8.806 83.7359 8.88533 83.4745 9.044C83.2132 9.19333 83.0079 9.40333 82.8585 9.674C82.7092 9.94467 82.6345 10.2573 82.6345 10.612C82.6345 10.9667 82.7092 11.284 82.8585 11.564C83.0079 11.8347 83.2132 12.0493 83.4745 12.208C83.7359 12.3573 84.0345 12.432 84.3705 12.432ZM91.5012 14.154C91.1186 14.154 90.7406 14.1027 90.3672 14C90.0032 13.8973 89.6672 13.7573 89.3592 13.58C89.0512 13.3933 88.7852 13.1693 88.5612 12.908L89.6532 11.802C89.8866 12.0633 90.1572 12.2593 90.4652 12.39C90.7732 12.5207 91.1139 12.586 91.4872 12.586C91.7859 12.586 92.0099 12.544 92.1592 12.46C92.3179 12.376 92.3972 12.25 92.3972 12.082C92.3972 11.8953 92.3132 11.7507 92.1452 11.648C91.9866 11.5453 91.7766 11.4613 91.5152 11.396C91.2539 11.3213 90.9786 11.242 90.6892 11.158C90.4092 11.0647 90.1386 10.948 89.8772 10.808C89.6159 10.6587 89.4012 10.458 89.2332 10.206C89.0746 9.94467 88.9952 9.60867 88.9952 9.198C88.9952 8.76867 89.0979 8.39533 89.3032 8.078C89.5179 7.76067 89.8212 7.51333 90.2132 7.336C90.6052 7.15867 91.0672 7.07 91.5992 7.07C92.1592 7.07 92.6632 7.168 93.1112 7.364C93.5686 7.56 93.9466 7.854 94.2452 8.246L93.1392 9.352C92.9339 9.1 92.7006 8.918 92.4392 8.806C92.1872 8.694 91.9119 8.638 91.6132 8.638C91.3426 8.638 91.1326 8.68 90.9832 8.764C90.8432 8.848 90.7732 8.96467 90.7732 9.114C90.7732 9.282 90.8526 9.41267 91.0112 9.506C91.1792 9.59933 91.3939 9.68333 91.6552 9.758C91.9166 9.82333 92.1872 9.90267 92.4672 9.996C92.7566 10.08 93.0272 10.2013 93.2792 10.36C93.5406 10.5187 93.7506 10.7287 93.9092 10.99C94.0772 11.2513 94.1612 11.5873 94.1612 11.998C94.1612 12.6607 93.9232 13.188 93.4472 13.58C92.9712 13.9627 92.3226 14.154 91.5012 14.154ZM96.3919 14V4.424H98.2259V14H96.3919ZM94.8099 8.848V7.238H99.8079V8.848H94.8099ZM107.326 14.14C106.84 14.14 106.402 14.042 106.01 13.846C105.618 13.6407 105.305 13.3653 105.072 13.02C104.838 12.6747 104.712 12.278 104.694 11.83V9.436C104.712 8.988 104.838 8.59133 105.072 8.246C105.314 7.89133 105.627 7.61133 106.01 7.406C106.402 7.20067 106.84 7.098 107.326 7.098C107.951 7.098 108.511 7.252 109.006 7.56C109.5 7.868 109.888 8.288 110.168 8.82C110.457 9.352 110.602 9.954 110.602 10.626C110.602 11.2887 110.457 11.886 110.168 12.418C109.888 12.95 109.5 13.37 109.006 13.678C108.511 13.986 107.951 14.14 107.326 14.14ZM103.574 16.828V7.238H105.408V9.016L105.1 10.654L105.394 12.292V16.828H103.574ZM107.004 12.446C107.34 12.446 107.638 12.3713 107.9 12.222C108.161 12.0633 108.362 11.8487 108.502 11.578C108.651 11.298 108.726 10.976 108.726 10.612C108.726 10.2573 108.651 9.94467 108.502 9.674C108.362 9.394 108.161 9.17933 107.9 9.03C107.638 8.87133 107.34 8.792 107.004 8.792C106.677 8.792 106.383 8.87133 106.122 9.03C105.86 9.17933 105.655 9.394 105.506 9.674C105.366 9.94467 105.296 10.2573 105.296 10.612C105.296 10.976 105.366 11.298 105.506 11.578C105.655 11.8487 105.856 12.0633 106.108 12.222C106.369 12.3713 106.668 12.446 107.004 12.446ZM114.982 14.14C114.301 14.14 113.685 13.986 113.134 13.678C112.593 13.3607 112.159 12.936 111.832 12.404C111.515 11.8627 111.356 11.2607 111.356 10.598C111.356 9.93533 111.515 9.34267 111.832 8.82C112.15 8.288 112.584 7.868 113.134 7.56C113.685 7.24267 114.296 7.084 114.968 7.084C115.659 7.084 116.275 7.24267 116.816 7.56C117.367 7.868 117.801 8.288 118.118 8.82C118.436 9.34267 118.594 9.93533 118.594 10.598C118.594 11.2607 118.436 11.8627 118.118 12.404C117.801 12.936 117.367 13.3607 116.816 13.678C116.275 13.986 115.664 14.14 114.982 14.14ZM114.968 12.432C115.314 12.432 115.617 12.3573 115.878 12.208C116.149 12.0493 116.354 11.8347 116.494 11.564C116.644 11.284 116.718 10.9667 116.718 10.612C116.718 10.2573 116.644 9.94467 116.494 9.674C116.345 9.40333 116.14 9.19333 115.878 9.044C115.617 8.88533 115.314 8.806 114.968 8.806C114.632 8.806 114.334 8.88533 114.072 9.044C113.811 9.19333 113.606 9.40333 113.456 9.674C113.307 9.94467 113.232 10.2573 113.232 10.612C113.232 10.9667 113.307 11.284 113.456 11.564C113.606 11.8347 113.811 12.0493 114.072 12.208C114.334 12.3573 114.632 12.432 114.968 12.432ZM123.527 14.14C123.042 14.14 122.603 14.042 122.211 13.846C121.819 13.6407 121.506 13.3653 121.273 13.02C121.04 12.6747 120.914 12.278 120.895 11.83V9.436C120.914 8.988 121.04 8.59133 121.273 8.246C121.516 7.89133 121.828 7.61133 122.211 7.406C122.603 7.20067 123.042 7.098 123.527 7.098C124.152 7.098 124.712 7.252 125.207 7.56C125.702 7.868 126.089 8.288 126.369 8.82C126.658 9.352 126.803 9.954 126.803 10.626C126.803 11.2887 126.658 11.886 126.369 12.418C126.089 12.95 125.702 13.37 125.207 13.678C124.712 13.986 124.152 14.14 123.527 14.14ZM119.775 16.828V7.238H121.609V9.016L121.301 10.654L121.595 12.292V16.828H119.775ZM123.205 12.446C123.541 12.446 123.84 12.3713 124.101 12.222C124.362 12.0633 124.563 11.8487 124.703 11.578C124.852 11.298 124.927 10.976 124.927 10.612C124.927 10.2573 124.852 9.94467 124.703 9.674C124.563 9.394 124.362 9.17933 124.101 9.03C123.84 8.87133 123.541 8.792 123.205 8.792C122.878 8.792 122.584 8.87133 122.323 9.03C122.062 9.17933 121.856 9.394 121.707 9.674C121.567 9.94467 121.497 10.2573 121.497 10.612C121.497 10.976 121.567 11.298 121.707 11.578C121.856 11.8487 122.057 12.0633 122.309 12.222C122.57 12.3713 122.869 12.446 123.205 12.446ZM130.889 14.14C130.292 14.14 129.76 14.014 129.293 13.762C128.836 13.51 128.477 13.16 128.215 12.712C127.954 12.264 127.823 11.746 127.823 11.158V7.238H129.671V11.116C129.671 11.396 129.718 11.6387 129.811 11.844C129.905 12.04 130.045 12.1893 130.231 12.292C130.418 12.3947 130.637 12.446 130.889 12.446C131.272 12.446 131.571 12.3293 131.785 12.096C132 11.8627 132.107 11.536 132.107 11.116V7.238H133.941V11.158C133.941 11.7553 133.811 12.278 133.549 12.726C133.297 13.174 132.938 13.524 132.471 13.776C132.014 14.0187 131.487 14.14 130.889 14.14ZM135.402 14V3.878H137.236V14H135.402ZM141.689 14.14C141.073 14.14 140.517 13.986 140.023 13.678C139.528 13.37 139.141 12.95 138.861 12.418C138.581 11.886 138.441 11.2887 138.441 10.626C138.441 9.954 138.581 9.352 138.861 8.82C139.141 8.288 139.528 7.868 140.023 7.56C140.517 7.252 141.073 7.098 141.689 7.098C142.174 7.098 142.608 7.196 142.991 7.392C143.373 7.588 143.677 7.86333 143.901 8.218C144.134 8.56333 144.26 8.95533 144.279 9.394V11.83C144.26 12.278 144.134 12.6747 143.901 13.02C143.677 13.3653 143.373 13.6407 142.991 13.846C142.608 14.042 142.174 14.14 141.689 14.14ZM142.025 12.446C142.538 12.446 142.953 12.278 143.271 11.942C143.588 11.5967 143.747 11.1533 143.747 10.612C143.747 10.2573 143.672 9.94467 143.523 9.674C143.383 9.394 143.182 9.17933 142.921 9.03C142.669 8.87133 142.37 8.792 142.025 8.792C141.689 8.792 141.39 8.87133 141.129 9.03C140.877 9.17933 140.676 9.394 140.527 9.674C140.387 9.94467 140.317 10.2573 140.317 10.612C140.317 10.976 140.387 11.298 140.527 11.578C140.676 11.8487 140.877 12.0633 141.129 12.222C141.39 12.3713 141.689 12.446 142.025 12.446ZM143.649 14V12.18L143.943 10.528L143.649 8.904V7.238H145.469V14H143.649ZM147.091 14V7.238H148.925V14H147.091ZM148.925 10.262L148.211 9.786C148.295 8.95533 148.538 8.302 148.939 7.826C149.341 7.34067 149.919 7.098 150.675 7.098C151.002 7.098 151.296 7.154 151.557 7.266C151.819 7.36867 152.057 7.54133 152.271 7.784L151.123 9.1C151.021 8.988 150.895 8.904 150.745 8.848C150.605 8.792 150.442 8.764 150.255 8.764C149.863 8.764 149.541 8.89 149.289 9.142C149.047 9.38467 148.925 9.758 148.925 10.262ZM153.526 10.57L153.246 3.878H155.206L154.926 10.57H153.526ZM154.226 14.14C153.89 14.14 153.614 14.028 153.4 13.804C153.185 13.58 153.078 13.3047 153.078 12.978C153.078 12.6513 153.185 12.376 153.4 12.152C153.614 11.928 153.89 11.816 154.226 11.816C154.562 11.816 154.837 11.928 155.052 12.152C155.266 12.376 155.374 12.6513 155.374 12.978C155.374 13.3047 155.266 13.58 155.052 13.804C154.837 14.028 154.562 14.14 154.226 14.14Z" fill="#8F4400"/>
<path d="M18.2193 50.4487C18.062 51.262 18.5938 52.0489 19.4071 52.2063C20.2205 52.3636 21.0074 51.8318 21.1647 51.0185L19.692 50.7336L18.2193 50.4487ZM59.5829 11.7913C60.4038 11.6804 60.9794 10.9249 60.8684 10.1039C60.7574 9.28295 60.0019 8.70739 59.181 8.81836L59.3819 10.3048L59.5829 11.7913ZM13.786 40.3309C13.3592 39.6209 12.4376 39.3914 11.7276 39.8183C11.0176 40.2452 10.7881 41.1668 11.215 41.8768L12.5005 41.1038L13.786 40.3309ZM17.9755 50.21L16.6899 50.9829L16.6907 50.9841L17.9755 50.21ZM21.592 51.2607L20.9791 49.8917L20.9778 49.8922L21.592 51.2607ZM32.5111 48.0157C33.2672 47.6772 33.6057 46.7898 33.2672 46.0337C32.9287 45.2776 32.0413 44.939 31.2852 45.2776L31.8981 46.6466L32.5111 48.0157ZM19.692 50.7336C21.1647 51.0185 21.1647 51.0188 21.1646 51.0191C21.1646 51.0191 21.1646 51.0193 21.1646 51.0193C21.1646 51.0193 21.1646 51.019 21.1647 51.0185C21.1649 51.0174 21.1654 51.0153 21.166 51.0122C21.1672 51.0059 21.1693 50.9954 21.1722 50.9809C21.1781 50.9518 21.1875 50.9065 21.2004 50.8457C21.2262 50.7241 21.2663 50.5405 21.3221 50.3009C21.4337 49.8218 21.6076 49.1194 21.8539 48.2422C22.3469 46.4864 23.1279 44.0372 24.2761 41.2783C26.5821 35.7376 30.3224 29.0616 36.0826 24.2003L35.1151 23.054L34.1477 21.9077C27.8751 27.2014 23.9038 34.3652 21.5064 40.1256C20.303 43.0172 19.4843 45.5838 18.9656 47.4312C18.7061 48.3556 18.5211 49.1017 18.4003 49.6205C18.3399 49.88 18.2955 50.0828 18.2657 50.2229C18.2509 50.2929 18.2397 50.3472 18.232 50.3851C18.2282 50.404 18.2252 50.4189 18.2231 50.4295C18.2221 50.4348 18.2212 50.4391 18.2206 50.4423C18.2203 50.4439 18.22 50.4452 18.2198 50.4463C18.2197 50.4468 18.2196 50.4474 18.2195 50.4477C18.2194 50.4482 18.2193 50.4487 19.692 50.7336ZM35.1151 23.054L36.0826 24.2003C47.8951 14.2312 57.2836 12.1021 59.5829 11.7913L59.3819 10.3048L59.181 8.81836C56.3224 9.20477 46.4008 11.5667 34.1477 21.9077L35.1151 23.054ZM12.5005 41.1038L11.215 41.8768L16.6899 50.9829L17.9755 50.21L19.261 49.437L13.786 40.3309L12.5005 41.1038ZM17.9755 50.21L16.6907 50.9841C17.8329 52.8799 20.2192 53.521 22.2062 52.6292L21.592 51.2607L20.9778 49.8922C20.2767 50.2069 19.5649 49.9414 19.2603 49.4358L17.9755 50.21ZM21.592 51.2607L22.2049 52.6298L32.5111 48.0157L31.8981 46.6466L31.2852 45.2776L20.9791 49.8917L21.592 51.2607Z" fill="#8F4400"/>
</svg>
