<svg width="131" height="100" viewBox="0 0 131 100" fill="none" xmlns="http://www.w3.org/2000/svg">
<path d="M59.1209 45.0851L59.0603 39.0426L58.9994 33H60.2569H61.5143V39.1108V45.2218L60.3176 45.1533L59.1209 45.0851Z" fill="#B2836B"/>
<path d="M64.5344 35.3549C63.6753 35.0574 63.5304 33.8859 64.2874 33.3605C64.5732 33.1622 64.9664 33 65.1613 33C65.9189 33 66.5576 33.6899 66.4847 34.4294C66.3999 35.2898 65.5335 35.701 64.5344 35.3549Z" fill="#B2836B"/>
<path d="M19.3455 36.6301C19.3455 35.3063 20.2983 34.305 21.9668 33.8746C22.7794 33.6652 25.2603 33.8245 26.0975 34.1398C26.6562 34.3504 26.681 34.4245 26.5295 35.4322C26.4413 36.0201 26.3489 36.5221 26.3246 36.5476C26.3002 36.5731 25.8739 36.4505 25.3772 36.2752C24.2284 35.8697 22.7429 35.8503 22.2134 36.2338C21.4519 36.7857 21.8907 37.3558 23.9068 38.4345C26.3594 39.7467 26.9491 40.5133 26.8117 42.21C26.6464 44.2507 25.2437 45.1994 22.3962 45.1967C21.6586 45.196 20.6705 45.0896 20.2003 44.9602C19.346 44.7253 19.3455 44.7241 19.3455 43.4933C19.3455 42.8158 19.3713 42.2615 19.4025 42.2617C19.4337 42.2617 19.999 42.465 20.6587 42.7135C22.0981 43.2556 23.1683 43.2891 23.8535 42.8133C24.8956 42.09 24.4165 41.3464 22.2602 40.3396C20.1392 39.3495 19.3455 38.3394 19.3455 36.6301Z" fill="#B2836B"/>
<path d="M63.9448 44.5769C63.9591 44.2972 63.9824 42.3351 63.9963 40.2167L64.0216 36.3646L65.2183 36.4331L66.4149 36.5013L66.4769 40.8612L66.5389 45.2209L65.2288 45.1531C64.033 45.091 63.9208 45.0406 63.9448 44.5769Z" fill="#B2836B"/>
<path d="M77.6979 39.0624C77.6979 37.8935 78.165 37.1385 79.1517 36.713C80.012 36.3418 82.047 36.3018 83.2476 36.6321C84.106 36.8684 84.1213 36.891 83.9679 37.7021C83.7506 38.849 83.7356 38.8591 82.7721 38.5185C81.6397 38.118 80.5536 38.1182 80.218 38.5192C79.895 38.9045 80.3933 39.273 82.0652 39.8853C83.5496 40.4288 84.4119 41.3742 84.4119 42.4582C84.4119 44.3123 83.1053 45.2001 80.3835 45.1949C77.8377 45.1901 77.6979 45.1197 77.6979 43.8384V42.7575L78.7599 43.0742C80.6358 43.6338 81.9274 43.4183 81.7632 42.5732C81.7074 42.2863 81.2381 41.9931 80.3163 41.6697C78.3786 40.9895 77.6979 40.3116 77.6979 39.0624Z" fill="#B2836B"/>
<path d="M29.9016 44.7571C28.913 44.1596 28.6938 43.2265 28.6924 39.6073L28.691 36.6142H29.9447H31.1983V39.3875C31.1983 42.6249 31.4112 43.165 32.6877 43.165C33.9758 43.165 34.2299 42.5222 34.2087 39.3154L34.191 36.6142H35.549H36.9069L36.8449 40.8497L36.7829 45.0851L35.8417 45.1533C35.0008 45.2141 34.8855 45.161 34.7569 44.6532L34.6129 44.0853L33.7857 44.6417C32.7301 45.3514 30.9718 45.4038 29.9016 44.7571Z" fill="#B2836B"/>
<path d="M101.404 40.922C100.526 38.6655 99.808 36.773 99.808 36.7168C99.808 36.6603 100.403 36.6142 101.13 36.6142H102.452L103.352 39.4164C103.848 40.9574 104.298 42.1743 104.354 42.1205C104.41 42.0668 104.822 40.8312 105.269 39.3748L106.082 36.7272L107.39 36.6594C108.109 36.6221 108.698 36.6456 108.698 36.7118C108.698 36.8487 105.984 44.3356 105.376 45.8757C104.521 48.0422 103.7 48.7002 101.537 48.9521L100.264 49.1003L100.265 47.9964L100.265 46.8922L101.098 46.8737C101.708 46.8604 102.074 46.6905 102.465 46.2401C102.759 45.9015 102.999 45.4897 102.999 45.3248C102.999 45.1599 102.281 43.1786 101.404 40.922Z" fill="#B2836B"/>
<path d="M25.9551 63.0246C25.9555 58.6037 26.0241 54.9188 26.1078 54.8361C26.1912 54.7532 27.3708 54.6854 28.7291 54.6854H31.1983V67.3353V79.9851H28.6274H26.0567L20.7715 72.1354C17.8648 67.8182 15.406 64.0626 15.3076 63.7897C15.2091 63.5171 15.1601 66.9985 15.1986 71.5264L15.2686 79.7592H12.6343H10V67.3353V54.9113L12.6783 54.917L15.3566 54.9228L19.8431 61.6372C22.3105 65.3303 24.695 68.9617 25.142 69.7071L25.9546 71.0624L25.9551 63.0246Z" fill="#B2836B"/>
<path d="M36.213 54.9267L38.6634 54.8625C40.0112 54.8273 41.1914 54.8551 41.2867 54.9246C41.3818 54.994 41.433 60.6356 41.4007 67.4615L41.3416 79.8722L38.7773 79.9361L36.213 80V67.4633V54.9267Z" fill="#B2836B"/>
<path d="M53.0235 63.4346C53.8696 62.3969 55.8443 60.006 57.4113 58.1214L60.2606 54.6949L63.2808 54.6902C64.942 54.6877 66.301 54.7505 66.301 54.8298C66.301 54.9093 65.7113 55.6333 64.9903 56.439C56.9247 65.4531 56.0474 66.513 56.3562 66.8686C56.5253 67.0631 58.0327 68.8996 59.7062 70.9495C61.3798 72.9995 63.7068 75.8204 64.8777 77.2179L67.0064 79.7592H63.7095H60.4124L57.3546 75.8626C55.6726 73.7196 53.664 71.1187 52.8909 70.0828L51.4849 68.1998V73.9794V79.7592H48.8636H46.2423V67.3353V54.9113H48.8636H51.4849V60.1163V65.3212L53.0235 63.4346Z" fill="#B2836B"/>
<path d="M78.8376 59.4291V57.0573V54.6854H88.419H98.0005L97.9355 57.0008L97.8706 59.3162L94.3945 59.3785L90.9184 59.4409V69.6V79.7592H88.2971H85.6758V69.5942V59.4291H82.2567H78.8376Z" fill="#B2836B"/>
<path d="M70.119 79.8127C70.0248 79.7687 69.948 74.1479 69.948 67.3219V54.9113H72.5693H75.1906V67.3147V79.7181L72.7403 79.8055C71.3925 79.8536 70.2131 79.857 70.119 79.8127Z" fill="#B2836B"/>
<path fill-rule="evenodd" clip-rule="evenodd" d="M39.6854 36.5539L38.941 36.6434L39.0016 42.7844L39.0622 48.9252L40.2589 48.9935L41.4556 49.0619V46.6618V44.2617L42.0562 44.7298C42.8465 45.3458 44.494 45.3575 45.4924 44.7542C46.6339 44.0643 47.2134 42.7031 47.2232 40.6866C47.2327 38.7672 46.9011 37.9172 45.7771 36.98C44.8234 36.1846 43.2287 36.1584 42.0968 36.9196C41.3118 37.4475 41.3054 37.448 41.0961 36.9908C40.858 36.4694 40.7264 36.4288 39.6854 36.5539ZM44.6468 40.7932C44.6468 39.9208 44.5182 39.2436 44.2919 38.9235C43.9217 38.3997 42.7843 38.2382 42.1722 38.6224C41.408 39.1022 41.4137 42.4874 42.1795 42.9685C42.3455 43.0729 42.8089 43.1596 43.2091 43.1617C44.2385 43.1664 44.6468 42.4939 44.6468 40.7932Z" fill="#B2836B"/>
<path fill-rule="evenodd" clip-rule="evenodd" d="M49.6044 36.5501L48.9776 36.6443V42.8411V49.0382H50.2313H51.4849V46.6498V44.2617L52.0856 44.7298C52.835 45.3142 54.2628 45.3458 55.3588 44.8023C56.6122 44.1809 57.2634 42.7813 57.2705 40.6943C57.2794 37.9919 56.271 36.6113 54.165 36.4428C53.1662 36.3628 52.8284 36.4405 52.1373 36.9083L51.308 37.4699L51.0596 36.9291C50.9228 36.6316 50.6805 36.4035 50.521 36.4222C50.3616 36.4408 49.9491 36.4984 49.6044 36.5501ZM53.9209 42.9875C54.6759 42.5118 54.9159 40.214 54.3282 39.0877C54.0306 38.5174 53.8484 38.4214 53.063 38.4214C52.2189 38.4214 52.117 38.4889 51.7897 39.2651C51.3591 40.2863 51.5139 42.121 52.083 42.7442C52.4733 43.1716 53.4283 43.2979 53.9209 42.9875Z" fill="#B2836B"/>
<path fill-rule="evenodd" clip-rule="evenodd" d="M90.6905 45.2514V39.5775V33.9036L93.4827 33.9085C97.528 33.9158 98.8963 34.64 98.8963 36.7739C98.8963 37.5083 98.7454 37.9038 98.2599 38.4424L97.6237 39.148L98.3738 39.8914C99.0073 40.5192 99.1242 40.7989 99.1242 41.6855C99.1242 43.098 98.625 43.9642 97.4669 44.5608C96.6622 44.9753 96.0224 45.0734 93.5967 45.1545L90.6905 45.2514ZM95.7202 36.1704C96.3434 36.5008 96.3046 37.6183 95.6543 38.0696C95.3758 38.263 94.709 38.4214 94.1727 38.4214H93.1978V37.179V35.9366H94.2386C94.8109 35.9366 95.4776 36.0418 95.7202 36.1704ZM94.4749 43.0977C96.3883 42.9019 97.0646 42.0918 96.262 40.9565C95.9632 40.5334 95.694 40.4544 94.5524 40.4544H93.1978V41.8413V43.2283L94.4749 43.0977Z" fill="#B2836B"/>
<path fill-rule="evenodd" clip-rule="evenodd" d="M105.943 55.2994C105.81 55.645 103.758 61.0103 101.382 67.2223C99.0068 73.4343 96.9629 78.7504 96.8403 79.0357C96.7174 79.321 96.6169 79.6006 96.6169 79.6569C96.6169 79.7131 97.8398 79.7592 99.3344 79.7592H102.052L102.331 78.9121C102.484 78.4463 102.911 77.2774 103.28 76.3144L103.951 74.5637H108.784H113.617L114.544 77.105L115.472 79.6463L118.239 79.7097C119.761 79.7445 121.004 79.6937 121 79.5968C120.997 79.4997 118.862 73.8804 116.256 67.1094L111.519 54.7984L108.852 54.7347L106.185 54.671L105.943 55.2994ZM111.557 69.4263C111.473 69.2097 110.836 67.4055 110.141 65.4168C109.445 63.4281 108.81 61.7309 108.73 61.6451C108.617 61.5249 106.525 67.0852 105.803 69.4247C105.691 69.7873 105.93 69.8201 108.695 69.8201C111.468 69.8201 111.697 69.7884 111.557 69.4263Z" fill="#B2836B"/>
<path fill-rule="evenodd" clip-rule="evenodd" d="M70.082 36.888C67.2813 38.5117 67.5779 43.6564 70.5432 44.8843C71.4485 45.259 74.1505 45.2977 75.1566 44.95C75.8117 44.7237 75.8744 44.6173 75.8744 43.7298V42.7575L74.7917 43.0891C72.8766 43.6758 70.8598 43.121 70.8598 42.0076C70.8598 41.6374 71.1306 41.5915 73.652 41.5343L76.4443 41.4709L76.385 40.1327C76.2747 37.6371 75.1614 36.5469 72.6147 36.4399C71.2374 36.382 70.8304 36.4541 70.082 36.888ZM72.4553 39.7767C74.2055 39.7767 74.4701 39.5144 73.595 38.6472C73.3418 38.3963 72.8353 38.1955 72.4553 38.1955C71.7284 38.1955 70.8598 38.8718 70.8598 39.4379C70.8598 39.7067 71.1889 39.7767 72.4553 39.7767Z" fill="#B2836B"/>
</svg>
