<svg width="240" height="100" viewBox="0 0 240 100" fill="none" xmlns="http://www.w3.org/2000/svg">
<path fill-rule="evenodd" clip-rule="evenodd" d="M89.0691 44.0861C88.4079 45.184 81.8672 62.5323 80.5212 66.7577C78.8798 71.9103 78.8827 73.5929 80.5362 75.0922C81.3919 75.8681 81.7462 75.8981 83.7346 75.3652C84.9645 75.036 86.9258 74.1205 88.0937 73.3311C89.2612 72.5416 90.3145 71.8957 90.434 71.8957C90.5541 71.8957 90.6518 72.5455 90.6518 73.3393C90.6518 74.3382 91.0192 75.0238 91.8435 75.565C93.4534 76.6221 95.2932 75.967 99.359 72.8893C101.087 71.5815 102.539 70.5506 102.587 70.5981C102.634 70.6462 102.442 71.6994 102.159 72.9388C101.875 74.1787 101.777 75.5417 101.941 75.9689C102.359 77.0624 103.887 76.9324 104.977 75.711C106.109 74.442 112.516 69.8776 112.785 70.1477C112.893 70.2553 112.747 71.2145 112.46 72.2798C111.48 75.9262 112.82 76.9038 115.795 74.7125C116.899 73.8994 117.857 73.3146 117.924 73.4135C117.991 73.5119 118.303 74.1932 118.617 74.9264C119.517 77.0245 121.783 76.7559 125.77 74.0778C127.556 72.8777 129.05 71.8957 129.088 71.8957C129.126 71.8957 129.078 72.7337 128.98 73.7573C128.624 77.4964 131.113 78.1039 136.257 75.5335C139.604 73.8606 144.863 70.4352 144.863 69.928C144.863 68.8578 143.643 69.1114 140.644 70.8047C137.155 72.7758 132.68 74.8051 131.825 74.8051C130.612 74.8051 131.458 73.4717 133.144 72.7264C137.083 70.9856 138.299 68.2929 135.578 67.3381C134.504 66.9614 133.99 67.103 132.612 68.1557C131.695 68.8564 130.831 69.3146 130.69 69.174C130.551 69.0338 128.727 69.8975 126.638 71.0932C121.735 73.9003 120.661 74.2267 120.661 72.9092C120.661 72.3642 120.108 71.5549 119.432 71.1107C118.437 70.458 117.969 70.4095 116.989 70.8571C115.349 71.6058 115.337 71.5999 115.337 70.0531C115.337 66.9662 113.174 66.7752 108.745 69.4712C106.992 70.538 105.501 71.4108 105.432 71.4108C105.363 71.4108 105.41 70.8682 105.537 70.2044C105.825 68.6964 104.365 67.9326 103.489 69.1333C103.078 69.6962 102.763 69.7728 102.392 69.4009C102.021 69.029 101.23 69.3219 99.6339 70.4221C97.3135 72.0213 93.1276 74.0531 92.8096 73.734C92.7094 73.6341 93.1663 72.3874 93.8251 70.9638C94.7418 68.9805 94.8933 68.2197 94.4718 67.711C93.7089 66.7902 92.7055 66.8809 92.3832 67.8997C92.0889 68.8278 92.0294 68.8666 86.7666 71.5321C82.6828 73.6007 81.4553 73.7985 81.4553 72.3879C81.4553 71.2746 85.3222 60.3124 88.7985 51.5716C91.1668 45.6175 91.1828 45.5423 90.2549 44.6132C89.7394 44.0963 89.2056 43.8592 89.0691 44.0861ZM29.7696 47.9198C22.8911 49.9573 16.3151 53.9636 12.4787 58.4533C10.0344 61.3142 9.46082 63.5419 10.4811 66.2175C11.8001 69.6773 14.4308 71.2096 22.6075 73.2797C25.7309 74.0705 28.3916 74.8226 28.5198 74.9511C28.6481 75.0796 27.6699 76.0994 26.3466 77.2175C23.7357 79.4229 22.6176 81.4304 23.1191 83.0126C24.0968 86.1 34.9888 80.785 34.9888 77.2204C34.9888 76.4567 34.7676 75.6949 34.4971 75.5276C33.6268 74.9889 34.5324 74.2718 38.5285 72.336C42.8722 70.2316 46.5425 69.7079 45.8576 71.2896C45.0604 73.1298 45.0658 75.133 45.8702 75.9389C47.2299 77.3009 49.2047 76.9174 51.9249 74.763C53.3015 73.6734 54.4733 72.8549 54.529 72.9446C54.5851 73.0348 54.8436 73.7626 55.104 74.5627C55.4714 75.692 55.9002 76.048 57.0207 76.1542C58.1461 76.2608 59.1282 75.7507 61.4801 73.8363C64.9428 71.0181 65.9336 69.6143 64.7739 69.1682C64.3111 68.9907 63.2927 69.5411 62.1195 70.603C59.9501 72.5664 57.254 74.0996 57.254 73.3698C57.254 73.1002 57.5173 71.8933 57.8392 70.6879C58.3436 68.7987 58.3165 68.388 57.6432 67.7135C56.9239 66.9934 56.5256 67.2252 52.6432 70.6258C47.5193 75.1131 46.4283 75.4806 48.5435 72.0053C49.075 71.132 49.5096 70.0885 49.5096 69.6865C49.5096 68.7482 48.149 68.2158 47.4753 68.8908C47.1084 69.2584 46.7405 69.191 46.21 68.6595C44.8634 67.3105 41.1844 68.0975 35.7057 70.908L30.7647 73.4421L23.4448 71.6552C15.8127 69.7917 13.4105 68.6644 12.3446 66.445C11.0794 63.8086 13.8858 59.8256 20.1336 55.3907C24.136 52.5496 29.0571 50.4471 34.3528 49.3153C38.1287 48.5084 38.3765 48.5084 39.6132 49.3202C40.7792 50.0858 40.8891 50.4005 40.6945 52.4269C40.5692 53.7362 39.924 55.5613 39.1573 56.7784C37.7318 59.0395 37.6636 60.3963 38.9622 60.647C39.9385 60.8351 41.9167 57.9049 42.6781 55.1419C43.4036 52.5099 42.6408 50.0349 40.5314 48.1797C39.0793 46.9025 38.454 46.6847 36.303 46.7065C34.9148 46.7206 31.9748 47.2666 29.7696 47.9198ZM167.153 47.9431C161.934 49.4884 157.444 51.8581 153.392 55.2064C147.889 59.7538 146.468 62.879 148.16 66.7112C149.4 69.5183 152.516 71.3929 158.358 72.8461C160.652 73.4174 163.401 74.1161 164.466 74.3993L166.402 74.9147L164.17 76.9208C161.208 79.5824 160.167 81.2747 160.55 82.8026C160.931 84.3247 162.241 84.3849 165.817 83.0446C169.328 81.7286 172.452 79.019 172.452 77.2888C172.452 76.5629 172.218 75.7347 171.933 75.4486C170.896 74.41 178.846 70.4532 181.983 70.4459C184.334 70.4401 184.9 69.8882 183.744 68.7298C182.322 67.3047 178.765 68.0374 173.169 70.908L168.228 73.4421L160.908 71.6552C153.445 69.833 150.904 68.6721 149.881 66.6142C147.436 61.7021 159.229 52.1981 171.125 49.4933C175.58 48.4798 175.786 48.4735 177.058 49.308C178.245 50.0873 178.353 50.3937 178.158 52.4269C178.033 53.7362 177.387 55.5613 176.621 56.7784C175.215 59.0095 175.125 60.3958 176.373 60.6368C177.261 60.808 179.28 57.9631 180.148 55.3194C180.978 52.7921 180.162 50.0858 177.995 48.1797C176.543 46.9025 175.917 46.6847 173.766 46.7065C172.378 46.7206 169.402 47.2773 167.153 47.9431ZM193.781 50.1964C193.546 50.7967 192.175 53.7968 190.735 56.8638C186.92 64.9927 182.954 75.1761 183.276 76.0164C183.748 77.2495 185.243 76.8398 185.927 75.2901C186.659 73.6346 187.457 73.3727 187.457 74.7882C187.457 75.8918 190.166 79.1693 191.078 79.1693C191.417 79.1693 191.987 78.8163 192.345 78.3847C192.905 77.7087 192.821 77.4561 191.74 76.5663C190.092 75.2081 189.038 73.2263 189.826 72.9635C191.028 72.562 193.165 70.3988 193.745 68.9955C194.229 67.8269 194.23 67.3837 193.749 66.8038C192.971 65.8645 191.346 65.8767 189.985 66.8319C189.393 67.247 188.909 67.4788 188.909 67.3474C188.909 67.2155 190.125 64.421 191.611 61.1372C195.92 51.6152 196.302 50.6343 196.001 49.8487C195.578 48.7446 194.271 48.9492 193.781 50.1964ZM72.6233 55.0454C70.1683 59.5264 67.1228 66.4842 65.3692 71.6193C64.0546 75.469 63.9191 76.2686 64.4694 76.9329C65.4496 78.1161 65.7516 77.9299 67.3242 75.1688C69.0807 72.0853 72.7429 68.3482 72.7429 69.6395C72.7429 71.2242 71.3266 73.2433 69.8532 73.7578C68.2284 74.3251 68.0255 74.8711 69.1064 75.7696C70.7888 77.1686 73.8421 75.0093 74.7012 71.8133C75.3266 69.4867 74.8677 67.6781 73.4094 66.7209C72.3634 66.0342 72.1485 66.0376 71.0488 66.7597C70.3256 67.2344 69.8387 67.3391 69.8387 67.0201C69.8387 66.7267 71.2922 63.5709 73.0686 60.0074C75.7985 54.5314 76.2012 53.4113 75.6717 52.7717C75.3266 52.3552 74.8735 52.0148 74.664 52.0148C74.4549 52.0148 73.5367 53.3788 72.6233 55.0454ZM95.2138 61.9276C94.6678 64.1063 96.4195 65.0557 97.4446 63.1365C97.8415 62.3936 97.8309 61.9562 97.4025 61.4393C96.5284 60.3842 95.5453 60.6038 95.2138 61.9276ZM201.674 62.0309C201.435 62.9828 201.586 63.4905 202.252 63.9783C203.052 64.5645 203.226 64.4986 203.807 63.3852C204.317 62.412 204.335 61.978 203.887 61.4379C202.992 60.3575 202.028 60.616 201.674 62.0309ZM198.202 69.2419C196.742 72.2531 196.791 74.5559 198.339 75.5718C199.875 76.5794 201.643 76.0198 205.084 73.4377C208.792 70.6554 208.751 70.6568 207.889 73.3577C207.167 75.6198 207.17 75.8501 207.931 76.6134C208.702 77.3848 208.875 77.316 210.81 75.468C212.877 73.493 215.657 71.4108 216.228 71.4108C216.395 71.4108 216.307 71.8327 216.031 72.3486C214.881 74.5021 215.73 76.754 217.684 76.7351C218.551 76.7268 226.624 72.2376 229.325 70.2626C230.182 69.6361 230.202 69.5183 229.503 69.2404C229.034 69.0542 226.785 69.8286 223.98 71.1412C221.377 72.3598 219.158 73.2675 219.049 73.1579C218.94 73.0488 219.317 72.0446 219.887 70.9259C221.766 67.2363 220.067 66.5255 215.236 68.98C211.876 70.6869 212.142 70.6253 212.142 69.6986C212.142 68.6939 210.84 68.2575 209.979 68.9737C209.595 69.2933 209.055 69.415 208.779 69.2443C208.504 69.0736 207.289 69.6162 206.08 70.4493C203.792 72.0262 199.611 74.0506 199.295 73.734C199.195 73.6341 199.652 72.3874 200.311 70.9638C201.228 68.9805 201.379 68.2197 200.957 67.711C200.015 66.573 199.305 66.9677 198.202 69.2419ZM33.0527 76.2167C33.0527 77.1579 27.5068 81.0483 26.954 80.4945C26.7241 80.2647 32.1389 75.8293 32.6897 75.7968C32.8891 75.7847 33.0527 75.9738 33.0527 76.2167ZM170.516 76.2167C170.516 77.1579 164.97 81.0483 164.417 80.4945C164.187 80.2647 169.602 75.8293 170.153 75.7968C170.353 75.7847 170.516 75.9738 170.516 76.2167ZM223.881 81.8362C223.886 82.903 223.985 83.2822 224.101 82.679C224.217 82.0758 224.213 81.2029 224.091 80.7394C223.97 80.2758 223.876 80.7694 223.881 81.8362Z" fill="#B2836B"/>
</svg>
