<svg width="272" height="100" viewBox="0 0 272 100" fill="none" xmlns="http://www.w3.org/2000/svg">
<path d="M228.6 52.732C228.537 53.0765 228.506 55.5506 228.506 58.2127L228.537 63.0982H227.754C227.065 63.0982 226.846 62.879 226.908 62.2526C226.939 62.1274 226.72 62.0647 226.407 62.0961C226.125 62.0961 225.906 61.9708 225.937 61.7829C225.968 61.5636 225.781 61.4384 225.467 61.4697C225.185 61.4697 224.966 61.3444 224.997 61.1565C225.029 60.9686 224.904 60.812 224.684 60.7807C224.465 60.7807 223.463 60.4362 222.429 60.0917C220.424 59.3401 217.355 59.2148 215.851 59.7785C215.381 59.9664 214.88 59.9978 214.692 59.9038C214.504 59.7785 214.442 59.8412 214.567 60.0291C214.755 60.3736 213.627 60.906 213.032 60.7494C212.876 60.7181 212.813 60.7494 212.907 60.8747C213.189 61.1252 211.654 62.785 211.247 62.6598C211.09 62.6285 211.028 62.7224 211.153 62.879C211.247 63.0669 211.059 63.7559 210.683 64.4449C210.339 65.1339 210.057 66.1047 210.025 66.5745C210.025 67.3261 209.994 67.3574 209.743 66.825C209.587 66.3553 209.524 66.5432 209.556 67.4827C209.556 68.203 209.681 68.7354 209.837 68.6415C210.025 68.5162 210.182 69.3618 210.182 70.8024C210.182 71.0842 210.307 71.2408 210.464 71.1469C210.683 71.0216 210.714 71.1782 210.558 71.554C210.433 71.8672 210.433 72.0238 210.558 71.8985C210.84 71.6166 212.281 73.5583 212.061 73.9342C211.967 74.0907 211.999 74.1847 212.155 74.1534C212.656 74.0281 213.502 74.5605 213.283 74.905C213.189 75.0616 213.252 75.1242 213.44 74.999C213.627 74.905 213.972 74.999 214.223 75.2495C214.473 75.5 214.755 75.6253 214.88 75.5314C214.974 75.4061 215.068 75.5 215.068 75.688C215.068 75.8759 215.288 75.9698 215.601 75.8445C215.914 75.7193 216.039 75.7819 215.914 75.9698C215.789 76.1577 216.039 76.2204 216.572 76.1577C217.136 76.0638 217.292 76.0951 217.01 76.3143C216.227 76.8467 223.243 76.4709 225.499 75.8445C226.658 75.5 227.535 75.1556 227.441 75.0616C227.347 74.9676 227.472 74.8111 227.723 74.7171C228.004 74.5918 228.286 74.6545 228.38 74.8111C228.506 74.999 228.85 75.1242 229.195 75.1242C229.539 75.1242 229.758 74.999 229.633 74.8424C229.539 74.6858 229.758 74.4352 230.134 74.3413C231.513 73.9028 231.669 72.6501 231.763 62.2213C231.794 55.8638 231.7 52.4189 231.513 52.3876C231.356 52.3876 230.98 52.2623 230.729 52.1683C229.79 51.7925 228.662 52.0744 228.6 52.732ZM217.104 63.2235C217.01 63.3801 217.073 63.5367 217.23 63.5367C217.417 63.5367 217.574 63.4114 217.574 63.2861C217.574 63.1295 218.294 63.0043 219.14 62.9416C220.111 62.9103 220.706 63.0043 220.706 63.2235C220.706 63.4114 220.863 63.474 221.051 63.3801C221.521 63.0669 222.962 63.5054 222.742 63.8498C222.617 64.0378 222.774 64.0691 223.087 63.9438C223.494 63.7872 223.557 63.8498 223.369 64.163C223.212 64.4449 223.243 64.5075 223.463 64.3509C223.901 64.0691 225.467 65.0712 225.217 65.4471C225.123 65.6036 225.154 65.7289 225.311 65.6976C226 65.5723 226.376 65.8229 227.253 67.0443C227.848 67.8272 228.224 68.7354 228.224 69.3305C228.224 70.5205 227.378 71.7732 226.752 71.554C226.47 71.4287 226.407 71.4914 226.532 71.7419C226.689 71.9925 226.595 72.0238 226.219 71.8985C225.937 71.7732 225.749 71.8046 225.843 71.9611C226.188 72.4935 223.557 73.2139 221.709 73.0573C220.424 72.9633 220.143 73.0259 220.706 73.2139C221.364 73.4644 221.395 73.4957 220.863 73.527C220.518 73.527 219.892 73.3391 219.485 73.1199C219.078 72.9007 218.451 72.7754 218.107 72.8694C217.668 72.9633 217.543 72.9007 217.699 72.6814C217.825 72.4309 217.762 72.3683 217.449 72.4935C216.822 72.7128 215.632 72.0551 215.883 71.6166C216.008 71.4287 215.977 71.3661 215.789 71.4601C215.319 71.7732 213.909 70.2387 213.721 69.2052C213.471 68.0777 213.815 66.0108 214.16 66.23C214.317 66.3239 214.348 66.1987 214.254 65.9481C214.035 65.3531 215.663 63.4427 216.227 63.6619C216.478 63.7559 216.603 63.7246 216.478 63.568C216.384 63.4114 216.509 63.1922 216.697 63.1295C217.292 62.879 217.323 62.879 217.104 63.2235Z" fill="#B2836B"/>
<path d="M11.1277 52.732C10.7519 52.732 10.5013 73.5897 10.8771 75.7819C10.9711 76.5022 11.1277 76.5962 12.1614 76.5335C12.9131 76.4709 13.2577 76.5962 13.1324 76.7841C13.0384 76.972 13.101 77.0033 13.3203 76.878C13.5082 76.7527 13.6022 76.5335 13.5082 76.4083C13.4456 76.2517 13.5709 75.8759 13.7901 75.5627C14.2287 74.999 14.26 74.999 14.9491 75.594C15.5129 76.0638 15.5755 76.0951 15.2623 75.6566C15.0117 75.3434 14.9804 75.1242 15.1683 75.1242C15.3563 75.1242 15.6695 75.4061 15.8574 75.7193C16.014 76.0638 16.4525 76.4396 16.7971 76.5335C17.1416 76.6588 17.3609 76.8154 17.2983 76.9407C17.2356 77.0659 17.5802 77.1912 18.1126 77.1912C18.6451 77.2225 19.1463 77.3478 19.2716 77.5044C19.4595 77.7862 24.0326 77.9115 24.3145 77.6296C24.847 77.0659 26.2565 76.3769 26.5384 76.5335C26.695 76.6588 26.789 76.6275 26.7576 76.4709C26.601 76.0638 28.449 74.1847 28.7936 74.4039C28.9815 74.4979 29.0128 74.4352 28.8876 74.216C28.7623 74.0281 28.9502 73.527 29.2634 73.0886C29.608 72.6501 30.1405 71.46 30.4537 70.4579C30.7356 69.4244 31.1428 68.6728 31.2994 68.7667C31.4873 68.892 31.5186 68.798 31.362 68.5162C30.9862 67.9211 31.1741 65.6349 31.6126 65.3531C31.8945 65.1652 31.8945 64.9773 31.6126 64.4762C31.1428 63.7559 31.0801 63.4427 31.456 63.6619C31.5813 63.7246 31.7066 63.4427 31.7379 62.9729C31.8005 62.2213 31.7692 62.19 31.4873 62.7537C31.2681 63.2235 31.2367 62.9103 31.3307 61.7202C31.3934 60.7807 31.3307 60.217 31.2054 60.4049C30.9235 60.8747 30.5163 58.9016 30.7982 58.4005C30.8922 58.2126 30.8922 58.15 30.7356 58.2753C30.391 58.5885 29.2634 56.7094 29.514 56.2709C29.6393 56.083 29.608 56.0204 29.42 56.1144C29.2634 56.2396 28.6996 55.8951 28.1985 55.3627C27.6973 54.8616 26.6637 54.11 25.8806 53.7342C25.0975 53.3584 24.3771 52.9199 24.2518 52.732C24.0952 52.5441 23.9073 52.5441 23.688 52.7634C23.4688 52.9826 22.811 53.0139 21.9653 52.8886C21.2136 52.7634 20.6498 52.7947 20.7124 52.9199C20.9317 53.2331 19.3655 53.5776 18.8957 53.3271C18.6764 53.2018 18.6138 53.2018 18.7391 53.3584C19.021 53.6716 17.6115 54.799 17.079 54.7051C16.8597 54.6424 16.6718 54.7364 16.6405 54.9243C16.6092 55.488 16.1393 56.0204 15.8261 55.8325C15.6695 55.7385 15.5755 55.8325 15.6068 56.0517C15.6695 56.2396 15.5129 56.4902 15.3249 56.5528C15.043 56.6468 14.9177 56.3649 14.9177 55.7385C14.9177 55.2061 14.7925 54.7677 14.6672 54.7677C14.3853 54.7677 13.3203 53.0452 13.4769 52.8573C13.5709 52.7947 13.0697 52.732 12.3806 52.732C11.7229 52.732 11.1591 52.732 11.1277 52.732ZM22.1219 56.6468C22.1219 56.8033 22.3412 56.9599 22.6231 56.9599C22.8736 56.9599 23.0303 56.8347 22.9363 56.6781C22.811 56.4902 23.0929 56.4902 23.5941 56.6154C24.0952 56.772 24.4398 57.0539 24.3771 57.2418C24.3458 57.461 24.4398 57.555 24.5964 57.461C24.9722 57.2105 25.9432 58.1813 25.6927 58.5571C25.5987 58.7137 25.6927 58.8077 25.9432 58.7764C26.1625 58.7137 26.3191 58.933 26.3191 59.2148C26.2878 59.528 26.3818 59.7159 26.507 59.6219C26.8829 59.4027 27.2275 60.6241 26.9456 61.0626C26.8203 61.3131 26.8516 61.3444 27.0709 61.2191C27.2901 61.0939 27.4467 61.0939 27.4467 61.2505C27.478 61.3757 27.6033 62.1274 27.7599 62.9103C28.1045 64.5701 27.8226 68.203 27.4154 67.5453C27.2588 67.2948 27.2275 67.5766 27.3528 68.203C27.5094 69.0486 27.4467 69.2052 27.1335 69.0173C26.8516 68.8607 26.789 68.892 26.9456 69.1425C27.2275 69.581 26.8829 70.8024 26.507 70.5832C26.3818 70.4892 26.2878 70.6771 26.3191 70.9903C26.3191 71.3035 26.1625 71.4914 25.8806 71.4287C25.63 71.3661 25.5047 71.4287 25.6613 71.554C25.9432 71.8359 24.9409 72.9633 24.5964 72.7441C24.4398 72.6501 24.3145 72.7441 24.3145 72.932C24.3145 73.1199 24.1579 73.1825 23.9386 73.0573C23.7194 72.932 23.688 72.9633 23.8133 73.1825C24.1265 73.6836 22.7484 74.1847 21.1509 74.1847C19.898 74.1847 17.6741 73.2765 17.2356 72.5875C17.079 72.3369 17.1416 72.3056 17.4235 72.4622C17.7054 72.6188 17.7681 72.5875 17.6115 72.3369C17.4862 72.149 17.2669 72.0551 17.1103 72.149C16.9537 72.243 16.5152 71.8672 16.1393 71.3035C15.7321 70.7711 15.6068 70.4266 15.8887 70.5832C16.108 70.7084 16.014 70.5205 15.6382 70.176C15.1996 69.7376 15.043 69.2991 15.137 68.8294C15.2623 68.3596 15.231 68.203 14.9804 68.3596C14.7298 68.5162 14.6045 68.3283 14.6045 67.7959C14.6045 67.3887 14.5106 66.7937 14.3853 66.4805C14.2287 66.0734 14.2913 66.0108 14.6045 66.1987C14.9177 66.3866 14.9491 66.3239 14.7298 66.0108C14.2287 65.1965 15.0117 61.501 15.6068 61.8455C15.8261 61.9708 15.8574 61.9395 15.7321 61.7202C15.1996 60.8433 18.1126 57.4297 19.992 56.772C21.3075 56.2709 22.1219 56.2396 22.1219 56.6468Z" fill="#B2836B"/>
<path d="M103.028 53.0139C102.902 53.2018 102.84 53.6089 102.902 53.9534C102.934 54.2666 102.871 54.4545 102.714 54.3606C102.589 54.2666 102.464 55.9264 102.464 58.0247C102.464 60.0917 102.526 61.3757 102.652 60.8746C102.777 60.3422 102.84 62.3153 102.84 65.2591C102.808 69.487 102.777 70.0194 102.62 67.9211C102.464 65.8542 102.432 66.3552 102.432 70.176C102.464 72.9007 102.558 75.1242 102.683 75.1242C102.808 75.1242 102.84 75.4374 102.777 75.7819C102.683 76.1577 102.714 76.3769 102.84 76.283C102.934 76.189 103.215 76.283 103.466 76.5335C104.124 77.2225 105.345 77.0972 105.878 76.3143C106.191 75.8758 106.379 74.9363 106.379 73.9655C106.379 72.9633 106.504 72.3056 106.724 72.3056C106.912 72.3056 107.005 72.1177 106.912 71.8985C106.849 71.7106 106.974 71.3348 107.193 71.1155C107.601 70.7397 107.757 70.865 107.663 71.4287C107.663 71.554 107.883 71.554 108.164 71.46C108.54 71.3034 108.603 71.3661 108.415 71.6793C108.258 71.9298 108.29 72.0238 108.478 71.8985C108.822 71.6793 117.749 75.8758 117.53 76.0951C117.436 76.1577 117.906 76.2203 118.532 76.2517C119.159 76.2517 119.722 76.4396 119.785 76.6275C119.848 76.878 120.067 76.9093 120.443 76.6901C120.756 76.5335 121.539 76.3456 122.166 76.283C122.792 76.2203 123.481 76.0011 123.7 75.7819C124.108 75.3748 124.014 73.2765 123.575 72.7441C123.418 72.5562 123.387 72.3056 123.481 72.2117C123.606 72.1177 122.729 72.0864 121.57 72.1803C119.378 72.3369 116.214 71.6166 116.559 71.0216C116.684 70.865 116.496 70.8337 116.214 70.959C115.838 71.0842 115.744 71.0529 115.901 70.8024C116.026 70.5831 115.964 70.4892 115.682 70.5831C115.118 70.8337 112.894 69.8628 113.113 69.487C113.239 69.2991 113.082 69.2678 112.769 69.3931C112.362 69.5497 112.299 69.487 112.487 69.1738C112.644 68.9233 112.612 68.8293 112.393 68.9859C111.986 69.2365 110.42 68.5475 110.639 68.203C110.733 68.0464 110.608 68.0151 110.388 68.0777C110.138 68.1717 109.699 68.0464 109.355 67.7959C108.728 67.3261 108.76 67.2948 109.668 66.5432C110.608 65.7915 111.954 65.2591 112.236 65.541C112.33 65.6036 112.675 65.3844 113.019 65.0399C113.395 64.6641 113.896 64.4762 114.241 64.5701C114.554 64.6641 114.773 64.6328 114.679 64.4762C114.46 64.1317 115.431 63.7872 115.87 64.0691C116.089 64.163 116.152 64.163 116.026 64.0064C115.682 63.6619 116.935 62.8163 117.405 63.0982C117.624 63.2548 117.655 63.1922 117.499 62.9103C117.311 62.5971 117.373 62.5345 117.843 62.7224C118.156 62.8477 118.313 62.8477 118.188 62.7224C117.937 62.4718 118.532 61.6576 118.971 61.6576C119.127 61.6576 119.159 61.8142 119.033 62.0334C118.908 62.2526 118.939 62.2839 119.19 62.1587C119.378 62.0334 119.472 61.8142 119.378 61.6576C119.159 61.3131 120.944 60.0604 121.257 60.3422C121.414 60.4675 121.414 60.3736 121.289 60.1543C121.038 59.7472 122.26 58.2753 122.698 58.4319C122.823 58.4632 122.886 58.2753 122.855 57.9621C122.855 57.6802 123.011 57.461 123.231 57.5236C123.481 57.555 123.575 57.461 123.481 57.3044C123.387 57.1478 123.45 56.6154 123.638 56.083C124.014 54.9869 123.575 53.8281 122.792 53.8281C122.541 53.8281 122.416 53.6716 122.541 53.4837C122.667 53.2331 122.541 53.2331 122.072 53.4837C121.696 53.7029 121.163 53.8281 120.85 53.7655C120.537 53.7029 120.349 53.8281 120.411 54.11C120.537 54.7364 119.566 56.083 119.159 55.8325C118.939 55.7072 118.908 55.7385 119.033 55.9578C119.597 56.866 113.865 61.4384 112.925 60.8433C112.706 60.7181 112.644 60.7494 112.737 60.9373C113.019 61.3757 110.889 62.4092 110.263 62.1587C110.012 62.0647 109.856 62.096 109.95 62.2526C110.044 62.4092 109.699 62.6911 109.135 62.879C107.945 63.2861 107.851 63.3174 108.07 62.9416C108.196 62.785 107.976 62.7224 107.632 62.8163C107.131 62.9416 107.005 62.8163 106.974 62.096C106.912 61.2505 106.912 61.2505 106.786 61.9394C106.692 62.4405 106.818 62.8477 107.193 63.1295C107.507 63.3487 107.601 63.5366 107.413 63.5366C106.63 63.5366 106.348 62.5658 106.442 60.4049C106.473 59.1835 106.63 58.0874 106.755 58.0247C106.912 57.9308 107.005 57.6489 107.005 57.3984C107.005 57.1478 106.88 57.0226 106.692 57.1165C106.254 57.3984 106.316 56.2396 106.786 55.7385C107.099 55.394 107.068 55.3627 106.692 55.5506C106.316 55.7385 106.285 55.7072 106.63 55.3627C107.068 54.8616 107.131 54.3292 106.692 54.6111C106.536 54.705 106.379 54.6111 106.379 54.3919C106.379 53.5776 105.815 53.1392 104.531 52.8886C103.685 52.732 103.153 52.7633 103.028 53.0139Z" fill="#B2836B"/>
<path d="M149.823 53.1078C149.698 53.2018 149.291 53.3271 148.884 53.3584C148.508 53.3897 148.194 53.5463 148.163 53.7029C148.007 55.0809 147.599 56.6467 147.38 56.6467C147.223 56.6467 147.098 56.8973 147.098 57.1791C147.098 57.555 147.192 57.6176 147.349 57.3671C147.474 57.1791 147.568 59.7785 147.599 63.1608C147.631 68.0464 147.756 69.6749 148.163 71.0529C148.476 71.9924 148.727 73.0259 148.758 73.3078C148.79 73.5896 148.884 73.8089 148.978 73.7776C149.228 73.6836 151.013 75.5627 150.92 75.8445C150.888 76.0011 150.982 76.0324 151.17 75.9072C151.546 75.6879 153.707 76.3769 153.519 76.6901C153.457 76.7841 154.208 76.7841 155.179 76.6901C156.15 76.5648 157.403 76.5022 157.967 76.5022C158.5 76.5335 158.875 76.4396 158.813 76.3456C158.687 76.1264 160.222 75.594 160.661 75.7193C160.817 75.7506 160.817 75.594 160.692 75.4061C160.536 75.1242 160.629 75.0929 160.974 75.2182C161.413 75.3748 161.882 75.0616 162.008 74.4979C162.008 74.4039 162.196 73.9341 162.384 73.4644C162.697 72.7441 162.665 72.3683 162.258 71.4914C161.976 70.8963 161.6 70.4266 161.413 70.4266C161.225 70.4266 161.162 70.5205 161.287 70.6145C161.569 70.8963 159.251 72.0238 158.75 71.8359C158.531 71.7419 158.406 71.8045 158.5 71.9611C158.75 72.3683 157.779 72.6814 156.996 72.4622C156.464 72.3056 156.432 72.3369 156.808 72.6188C157.153 72.8693 156.902 72.932 155.712 72.8693C154.678 72.8067 154.177 72.6501 154.208 72.3996C154.271 72.1803 154.114 72.0864 153.864 72.1803C153.331 72.3996 152.329 71.3974 152.548 70.865C152.642 70.6145 152.548 70.4579 152.329 70.5205C152.11 70.5518 151.953 70.27 151.984 69.8942C151.984 69.5183 151.859 69.2678 151.703 69.3931C151.452 69.5497 151.452 64.1317 151.734 63.3174C151.797 63.0669 152.517 63.0042 153.926 63.0669C155.336 63.1608 155.775 63.0982 155.242 62.9103C154.49 62.6598 155.305 62.5971 159.533 62.5032C159.909 62.4718 160.191 62.4092 160.097 62.3466C160.034 62.2839 160.191 62.0021 160.442 61.7515C160.692 61.4697 160.849 61.0625 160.755 60.812C160.661 60.5615 160.567 60.1543 160.567 59.9038C160.567 59.5593 159.784 59.4653 156.464 59.4653C153.488 59.4653 152.266 59.3401 151.953 59.0582C151.703 58.7764 151.483 57.6176 151.421 55.9891C151.327 53.6402 151.233 53.3584 150.732 53.4523C150.387 53.515 150.262 53.421 150.387 53.2331C150.606 52.8573 150.136 52.7633 149.823 53.1078Z" fill="#B2836B"/>
<path d="M197.433 53.3271C197.559 53.4837 197.308 53.5463 196.964 53.4523C196.525 53.3271 196.337 53.3897 196.494 53.6089C196.619 53.8282 196.494 53.8595 196.149 53.7342C195.805 53.5776 195.679 53.6402 195.836 53.8908C195.993 54.1413 195.899 54.1726 195.523 54.0474C195.241 53.9221 195.053 53.9534 195.147 54.0787C195.241 54.2353 194.74 54.8616 194.051 55.5193C193.393 56.177 192.829 56.866 192.829 57.0226C192.829 57.1792 192.704 57.2418 192.547 57.1478C192.391 57.0539 192.297 57.2105 192.328 57.4923C192.359 57.8681 192.109 58.056 191.639 58.0874C191.012 58.1187 190.918 57.9934 190.981 57.1478C191.044 56.6154 191.2 55.9891 191.357 55.7699C191.545 55.5506 191.576 55.3001 191.451 55.1748C191.357 55.0809 191.263 55.1748 191.263 55.4254C191.263 55.8012 191.2 55.8012 190.95 55.394C190.762 55.1122 190.793 54.799 191.012 54.5171C191.294 54.204 191.263 54.1413 190.918 54.204C190.668 54.2666 190.511 54.1413 190.542 53.9847C190.574 53.7968 190.041 53.6716 189.384 53.6716C188.726 53.6716 188.193 53.7968 188.225 53.9847C188.256 54.1413 188.099 54.2666 187.88 54.204C187.567 54.1413 187.504 56.177 187.567 64.1317C187.629 69.8942 187.786 74.0594 187.943 73.9655C188.099 73.8715 188.162 74.1534 188.068 74.5918C187.974 75.0616 188.005 75.3434 188.131 75.2808C188.287 75.1869 188.444 75.3434 188.569 75.594C188.82 76.283 190.542 76.189 190.95 75.4687C191.106 75.1242 191.263 73.5897 191.263 72.0238C191.263 70.4892 191.42 69.1112 191.576 69.0173C191.764 68.892 191.795 68.297 191.67 67.5453C191.576 66.7937 191.607 66.3239 191.764 66.4179C191.921 66.5118 192.077 65.9794 192.109 65.2278C192.171 63.6932 193.549 60.3422 194.364 59.7159C194.834 59.3401 194.834 59.3714 194.395 59.9351C193.957 60.5302 193.957 60.5302 194.458 60.123C194.771 59.9038 194.959 59.5906 194.865 59.4653C194.614 59.0895 195.711 57.8368 196.149 58.0247C196.4 58.1187 196.556 58.0247 196.494 57.8055C196.462 57.5863 196.682 57.461 196.964 57.461C197.277 57.4923 197.465 57.3984 197.371 57.2731C197.308 57.1478 197.747 56.9599 198.342 56.866C200.597 56.4902 203.322 58.745 204.136 61.595C204.575 63.1295 204.7 72.1804 204.324 73.6523C204.168 74.2473 204.199 74.4665 204.418 74.3413C204.575 74.2473 204.732 74.4039 204.732 74.7171C204.732 75.0303 204.982 75.5 205.295 75.7506C205.859 76.2517 207.237 76.2203 207.237 75.7193C207.237 75.5314 207.394 75.5 207.551 75.594C207.739 75.6879 207.864 75.6253 207.864 75.4374C207.864 75.2495 207.958 75.1555 208.114 75.2182C208.365 75.4061 208.334 64.5075 208.02 61.7829C207.895 60.6867 207.425 59.0269 206.924 57.9308C206.423 56.866 206.11 56.0204 206.204 56.0204C206.298 56.0204 206.141 55.7385 205.828 55.394C205.515 55.0495 205.17 54.8616 205.013 54.9556C204.638 55.1748 203.134 54.1413 203.353 53.7968C203.447 53.6402 203.291 53.6089 203.009 53.7029C202.758 53.8282 202.351 53.7655 202.132 53.5776C201.662 53.1705 197.214 52.9513 197.433 53.3271Z" fill="#B2836B"/>
<path d="M173.503 53.421C173.785 53.4836 174.287 53.4836 174.6 53.421C174.882 53.3271 174.631 53.2644 174.036 53.2644C173.441 53.2644 173.19 53.3271 173.503 53.421Z" fill="#B2836B"/>
<path d="M85.8939 53.9847C85.3927 54.2666 84.7976 54.4232 84.5783 54.3292C84.2025 54.1727 83.3568 54.9243 83.1375 55.5506C83.0749 55.7072 82.9496 55.8325 82.8556 55.8012C82.7303 55.7699 82.6677 55.9578 82.699 56.2709C82.699 56.5528 82.5737 56.772 82.3545 56.7407C82.1352 56.6781 82.0412 56.8347 82.1352 57.0852C82.2292 57.3044 82.0725 57.6802 81.7906 57.8995C81.5401 58.1187 81.3208 58.4945 81.3208 58.745C81.3208 58.9956 81.1016 59.1522 80.7883 59.0895C80.3811 59.0269 80.1932 58.6511 80.1619 57.8995C80.0992 56.9286 80.1306 56.8973 80.3811 57.5863C80.5691 58.1813 80.6004 57.9934 80.5378 56.866C80.4751 56.0517 80.3498 55.2688 80.1932 55.1435C80.0679 55.0182 80.0679 55.1122 80.2245 55.3627C80.4125 55.6759 80.3498 55.7385 80.0992 55.582C79.8173 55.394 79.8173 55.2375 80.0992 54.893C80.5691 54.3292 79.9739 54.2666 77.6561 54.6424C76.873 54.7677 76.6851 54.9243 76.8417 55.3001C76.9983 55.6759 76.9357 55.7385 76.6224 55.5506C76.3719 55.394 76.2779 55.4254 76.4032 55.6133C76.5285 55.8012 76.5911 58.4632 76.5911 61.5323C76.5911 64.6015 76.6224 67.4201 76.6538 67.7646C76.6851 68.109 76.7164 69.3931 76.7477 70.6458C76.7477 71.8672 76.873 72.8067 76.9983 72.7128C77.1549 72.6501 77.0923 72.9633 76.9357 73.4017C76.7791 73.8402 76.7477 74.1534 76.9043 74.0594C77.2176 73.8402 77.6561 75.6879 77.3742 76.0951C77.2802 76.2517 77.3115 76.3769 77.4681 76.3456C77.5934 76.3143 77.938 76.3456 78.1886 76.4709C79.0656 76.7841 80.0366 76.9407 80.0366 76.7214C79.9739 76.2203 80.4751 75.0929 80.663 75.3748C80.757 75.5627 80.851 74.6545 80.851 73.4017C80.851 72.149 80.7883 71.0216 80.6944 70.9276C80.4125 70.6771 80.7257 68.2343 81.0076 68.3909C81.1642 68.4849 81.1955 68.0464 81.1016 67.4201C80.9763 66.6684 81.0076 66.3239 81.2268 66.4492C81.4148 66.5745 81.4774 66.3239 81.3835 65.8229C81.2895 65.2591 81.3521 65.0712 81.5714 65.2278C81.7906 65.3531 81.8846 65.2905 81.7593 65.0086C81.5401 64.4136 82.8243 61.1252 83.4507 60.6554C83.7326 60.4362 84.0145 60.0291 84.0772 59.7785C84.1085 59.528 84.6097 58.933 85.1421 58.4319C86.3011 57.461 87.8985 57.3044 88.5563 58.1187C88.9322 58.5571 88.9322 58.6198 88.525 58.4005C88.2744 58.2753 88.3997 58.4319 88.8069 58.7764C89.2767 59.1522 89.4646 59.528 89.308 59.7785C89.1201 60.0604 89.1827 60.123 89.4646 59.9351C89.7465 59.7472 89.8405 59.9664 89.7152 60.812C89.6526 61.4384 89.6839 61.8768 89.8092 61.7829C89.9345 61.7202 90.1224 62.1274 90.2164 62.7224C90.3417 63.4427 90.6862 63.8812 91.25 64.1317C91.8451 64.4136 92.1584 64.4136 92.221 64.1943C92.2837 64.0064 92.4403 63.9125 92.5342 63.9751C92.6595 64.0377 92.7848 63.5367 92.8475 62.8477C92.8788 62.1587 93.0667 61.3131 93.2233 60.9999C93.4113 60.6867 93.5366 60.1857 93.5052 59.8725C93.4739 59.4654 93.4113 59.528 93.192 60.0917C92.9728 60.7494 92.9414 60.6554 93.0041 59.5593C93.0354 58.839 92.9414 58.3379 92.7848 58.4319C92.6282 58.5258 92.5656 58.244 92.6595 57.8055C92.7535 57.2731 92.6909 57.0539 92.5029 57.1792C92.315 57.3044 92.2523 57.1792 92.3776 56.8347C92.5342 56.4902 92.4716 56.3649 92.221 56.5215C91.9704 56.6781 91.9391 56.5841 92.0644 56.2083C92.1897 55.8951 92.1584 55.7385 91.9704 55.8638C91.7825 55.9578 91.6572 55.8951 91.6572 55.7385C91.6572 55.0809 91.5946 54.9243 91.2814 54.5485C91.0934 54.3292 90.8428 54.204 90.7175 54.2979C90.5923 54.3919 89.9658 54.2353 89.3394 53.9847C87.9298 53.3897 87.0528 53.3897 85.8939 53.9847ZM80.6004 72.5249C80.5064 72.838 80.4438 72.5875 80.4438 71.9924C80.4438 71.3974 80.5064 71.1469 80.6004 71.4287C80.663 71.7419 80.663 72.243 80.6004 72.5249Z" fill="#B2836B"/>
<path d="M133.41 53.7342C133.661 54.11 131.844 54.5485 131.343 54.2353C131.155 54.11 131.124 54.204 131.28 54.4545C131.468 54.7677 131.406 54.8303 130.936 54.6424C130.623 54.5172 130.466 54.5172 130.591 54.6424C130.717 54.7677 130.309 55.2061 129.714 55.6133C129.119 56.0204 128.493 56.6154 128.305 56.9599C128.117 57.3357 127.835 57.5237 127.647 57.4297C127.49 57.3044 127.365 57.3357 127.396 57.4923C127.522 58.15 127.334 58.5571 126.989 58.3379C126.77 58.2126 126.739 58.244 126.864 58.4632C126.958 58.6511 126.77 59.6219 126.425 60.6241C125.548 63.1295 125.548 68.1717 126.425 70.4579C126.739 71.3661 126.958 72.2117 126.864 72.3683C126.77 72.5249 126.864 72.5875 127.114 72.5562C127.334 72.4935 127.522 72.7441 127.522 73.0886C127.522 73.4957 127.71 73.6836 128.085 73.621C128.555 73.527 128.743 73.8715 128.681 74.5292C128.649 74.6545 128.869 74.7171 129.182 74.6858C129.464 74.6858 129.683 74.8424 129.62 75.0616C129.589 75.2495 129.652 75.4061 129.777 75.3748C129.934 75.3435 131.061 75.6566 132.345 76.0638C134.35 76.6901 135.008 76.7528 137.514 76.5648C141.46 76.2517 141.429 76.283 141.272 76.0324C141.084 75.7193 142.901 75.1242 143.214 75.3748C143.34 75.5 143.34 75.4374 143.214 75.2182C143.089 74.999 143.277 74.6858 143.653 74.4979C143.997 74.31 144.279 74.2786 144.279 74.4039C144.279 74.8424 145.031 73.8715 145.094 73.3391C145.125 73.0259 145.219 72.5562 145.344 72.3056C145.657 71.554 144.78 70.6458 143.715 70.5518C143.12 70.5205 142.776 70.6458 142.807 70.865C142.838 71.0529 142.619 71.1782 142.337 71.1782C142.024 71.1469 141.867 71.2408 141.961 71.3974C142.181 71.7732 140.583 72.3683 140.145 72.1177C139.957 71.9925 139.894 72.0551 139.988 72.2117C140.27 72.6501 138.86 72.9946 137.827 72.7441C137.232 72.5875 137.044 72.6188 137.2 72.9007C137.357 73.1199 137.138 73.2452 136.637 73.2452C136.198 73.2452 135.822 73.0886 135.822 72.932C135.822 72.7128 135.415 72.6814 134.695 72.8067C133.786 72.9633 133.598 72.932 133.786 72.6188C133.943 72.3369 133.911 72.2743 133.692 72.4309C132.815 72.9633 129.652 70.2073 129.996 69.2678C130.09 69.0173 130.059 68.892 129.902 68.986C129.589 69.2052 129.244 68.4849 129.244 67.6393C129.244 66.9816 130.309 66.9503 130.905 67.608C131.218 67.9211 131.186 67.9525 130.842 67.7646C130.56 67.608 130.466 67.6393 130.623 67.8585C130.748 68.0464 130.998 68.1404 131.218 68.0464C131.468 67.9525 132.063 68.1091 132.565 68.3909C133.849 69.0486 137.326 69.0173 139.236 68.2656C140.113 67.9525 140.865 67.7332 140.959 67.7959C141.084 67.8585 141.084 67.8272 140.99 67.7019C140.802 67.4514 141.429 66.6684 141.836 66.6684C141.993 66.6684 142.024 66.8563 141.899 67.0443C141.773 67.2635 141.961 67.1695 142.337 66.8563C142.713 66.5118 142.964 66.1987 142.87 66.1047C142.807 66.0108 142.995 65.447 143.34 64.8207C144.185 63.2548 144.53 61.4071 144.217 59.9351C144.06 59.2774 144.029 58.4945 144.123 58.244C144.217 57.9621 144.248 57.8368 144.123 57.9308C143.935 58.15 140.677 55.0182 140.771 54.7051C140.802 54.5798 140.646 54.5485 140.427 54.6424C140.176 54.7364 139.581 54.6424 139.08 54.4545C138.579 54.2666 137.2 54.0474 136.041 53.9848C134.882 53.8908 133.755 53.7342 133.567 53.6403C133.379 53.515 133.316 53.5463 133.41 53.7342ZM137.733 57.4297C139.33 57.9934 140.614 59.0895 140.364 59.7159C140.301 59.9351 140.364 60.0291 140.52 59.9351C140.928 59.6846 141.241 61.1252 140.99 62.0334C140.614 63.1609 139.581 64.5075 139.205 64.2883C139.017 64.163 138.954 64.2257 139.048 64.3822C139.362 64.8833 137.733 65.8229 136.887 65.635C136.449 65.5723 136.229 65.635 136.355 65.8229C136.637 66.2613 133.536 65.8855 132.439 65.3218C131.969 65.1026 131.625 64.7267 131.688 64.5075C131.719 64.2883 131.625 64.1943 131.468 64.2883C131.312 64.4136 130.873 64.163 130.497 63.7872C129.996 63.2548 129.871 62.8164 129.996 62.1274C130.121 61.4384 130.09 61.3131 129.871 61.6576C129.652 62.0021 129.558 62.0334 129.558 61.7202C129.558 61.0312 130.184 60.0604 130.497 60.2483C130.685 60.3423 130.717 60.2483 130.654 60.0291C130.403 59.434 132.157 57.8368 133.097 57.7742C133.536 57.7742 133.817 57.6489 133.755 57.5237C133.63 57.3044 134.475 57.0852 135.697 56.9913C136.073 56.9913 136.981 57.1792 137.733 57.4297Z" fill="#B2836B"/>
<path d="M135.29 57.4923C135.572 57.555 136.073 57.555 136.386 57.4923C136.668 57.3984 136.417 57.3357 135.822 57.3357C135.227 57.3357 134.976 57.3984 135.29 57.4923Z" fill="#B2836B"/>
<path d="M171.06 54.1413C170.559 54.3292 169.932 54.3919 169.713 54.2979C169.494 54.204 169.4 54.2666 169.494 54.4232C169.65 54.7364 168.617 55.2061 167.771 55.2375C167.52 55.2375 167.301 55.394 167.301 55.5506C167.301 56.083 165.798 57.5863 165.484 57.3671C165.296 57.2731 165.265 57.3357 165.39 57.5236C165.484 57.7116 165.453 57.9308 165.265 58.056C165.046 58.1813 165.046 58.4319 165.265 58.839C165.453 59.1835 165.547 59.6219 165.516 59.8412C165.39 60.4362 167.489 60.1543 168.272 59.434C168.617 59.0895 169.024 58.9329 169.18 59.0582C169.306 59.2148 169.337 59.1522 169.243 58.9643C168.961 58.4945 169.838 57.7742 170.308 58.0874C170.559 58.244 170.59 58.1813 170.433 57.8995C170.245 57.5863 170.308 57.5236 170.715 57.6802C170.997 57.8055 171.185 57.7742 171.091 57.6176C170.84 57.2105 172.031 56.9599 174.286 56.9599C175.695 56.9599 176.197 57.0539 176.04 57.3357C175.915 57.555 175.946 57.5863 176.197 57.461C176.698 57.1478 178.17 57.5236 177.951 57.8995C177.857 58.056 177.951 58.1187 178.201 58.056C178.734 57.8368 179.799 58.9956 179.485 59.4967C179.329 59.7472 179.391 59.8098 179.673 59.6219C179.987 59.434 180.049 59.4967 179.893 59.9038C179.767 60.217 179.799 60.3736 179.987 60.2483C180.3 60.0604 180.362 60.4049 180.394 61.9708C180.425 62.6598 180.3 62.7537 179.485 62.6598C175.915 62.2839 171.905 62.2526 170.621 62.5971C168.648 63.1295 166.706 64.2883 165.891 65.4157C165.516 65.9481 165.108 66.2926 165.014 66.23C164.795 66.1047 164.607 67.8585 164.513 70.6458C164.513 71.3348 164.607 71.8672 164.764 71.7419C164.92 71.648 164.983 71.8672 164.889 72.243C164.764 72.6501 164.827 72.8693 165.077 72.838C165.265 72.8067 165.422 72.9946 165.422 73.2765C165.422 73.8715 166.205 74.905 166.455 74.6545C166.549 74.5918 167.05 74.7797 167.583 75.1242C168.648 75.7506 173.847 76.5022 173.503 75.9385C173.378 75.7819 173.597 75.7193 173.973 75.8132C174.411 75.9385 174.599 75.8758 174.443 75.6566C174.317 75.4687 174.505 75.4061 174.912 75.5C175.351 75.6253 175.539 75.5627 175.382 75.3434C175.257 75.1242 175.382 75.0929 175.727 75.2182C176.071 75.3748 176.197 75.3121 176.04 75.0616C175.883 74.811 176.009 74.7797 176.416 74.9363C176.729 75.0616 176.886 75.0616 176.76 74.9363C176.478 74.6231 178.139 73.527 178.514 73.7776C178.702 73.8715 178.734 73.8402 178.64 73.6523C178.452 73.3704 179.016 72.7441 179.924 72.1804C180.112 72.0551 180.55 72.1177 180.895 72.3056C181.396 72.5562 181.459 72.7754 181.239 73.5583C181.083 74.0907 181.083 74.4352 181.239 74.3413C181.459 74.216 182.054 75.9072 181.96 76.4082C181.929 76.5022 182.461 76.5962 183.15 76.6275C184.027 76.6901 184.434 76.5648 184.56 76.2203C184.654 75.9698 184.842 75.8132 184.967 75.8758C185.092 75.9698 185.061 74.8737 184.936 73.4644C184.81 72.0551 184.56 68.7667 184.403 66.1987C184.246 63.5993 183.965 60.812 183.777 59.9977C183.589 59.1522 183.526 58.3379 183.62 58.15C183.745 57.9621 183.714 57.8995 183.526 57.9934C183.338 58.1187 182.962 57.8681 182.68 57.4297C182.085 56.5215 182.054 56.2083 182.586 56.5215C182.868 56.6781 182.868 56.6154 182.555 56.3023C182.336 56.0517 182.054 55.8638 181.929 55.8325C181.302 55.7699 180.644 55.3001 180.801 55.0495C180.895 54.893 180.707 54.8616 180.425 54.9869C180.049 55.1122 179.955 55.0809 180.112 54.8303C180.268 54.5798 180.143 54.5171 179.799 54.6737C179.423 54.799 179.329 54.7677 179.485 54.5171C179.642 54.2666 179.517 54.204 179.172 54.3606C178.859 54.4545 178.702 54.4232 178.796 54.2666C179.047 53.8908 172.25 53.7655 171.06 54.1413ZM174.349 65.1025C173.973 65.3218 174.098 65.4157 174.818 65.4157C175.445 65.4157 175.633 65.3218 175.351 65.1339C175.1 64.9773 175.821 64.946 177.074 65.0086C178.233 65.1025 179.297 65.3218 179.391 65.4784C179.485 65.6349 179.673 65.7602 179.799 65.7602C180.456 65.6663 180.613 65.8229 180.613 66.4805C180.613 67.3261 178.922 69.7063 177.951 70.2387C177.606 70.4266 177.168 70.7711 176.98 71.0216C176.792 71.2721 176.478 71.3661 176.228 71.2095C175.977 71.0529 175.883 71.0842 176.009 71.2721C176.291 71.7106 174.505 72.4309 173.879 72.1804C173.597 72.0864 173.44 72.1177 173.534 72.2743C173.847 72.7441 171.498 72.932 170.433 72.4935C169.525 72.1177 168.084 70.5518 168.084 69.9255C168.084 69.8002 168.272 69.9255 168.491 70.27C168.898 70.7711 168.93 70.7397 168.773 69.8315C168.679 69.1112 168.554 68.9233 168.366 69.2052C168.147 69.5497 168.084 69.5497 168.084 69.1425C168.084 68.8607 168.178 68.5475 168.335 68.4222C168.46 68.297 168.554 68.0777 168.585 67.9838C168.679 67.2635 169.18 66.6684 169.556 66.7937C169.807 66.8877 169.901 66.825 169.807 66.6684C169.619 66.3866 170.057 66.23 170.684 66.3239C170.84 66.3553 170.872 66.23 170.778 66.0734C170.496 65.6663 171.028 65.3844 172.72 65.1025C174.787 64.758 174.881 64.758 174.349 65.1025Z" fill="#B2836B"/>
<path d="M250.118 54.4545C250.087 54.5485 250.087 54.893 250.118 55.2375C250.181 55.7386 250.118 55.7699 249.867 55.4254C249.68 55.1435 249.586 56.772 249.617 60.123C249.68 65.1965 249.272 68.1717 248.583 67.7646C248.395 67.6393 248.364 67.7959 248.489 68.1091C248.646 68.5162 248.583 68.5788 248.27 68.3909C247.988 68.2343 247.925 68.2657 248.082 68.4849C248.364 68.9546 247.518 70.2074 247.174 69.8629C247.017 69.7376 247.017 69.8315 247.142 70.0508C247.456 70.5832 246.422 71.7732 245.858 71.5227C245.608 71.4601 245.482 71.4914 245.576 71.648C245.796 71.9925 244.887 72.3683 244.449 72.0864C244.229 71.9925 244.198 72.0551 244.323 72.2743C244.511 72.5562 244.323 72.5875 243.666 72.4622C243.008 72.3056 242.914 72.337 243.258 72.5875C243.666 72.8694 243.666 72.932 243.196 72.932C242.413 72.932 241.066 72.243 241.254 71.9611C241.348 71.8046 241.222 71.7732 240.972 71.8672C240.377 72.0864 238.748 69.9881 238.999 69.3305C239.093 69.0799 239.03 68.8607 238.842 68.8607C238.654 68.8607 238.591 68.6415 238.685 68.3596C238.779 68.1091 238.748 67.9838 238.591 68.0777C238.028 68.3909 237.902 65.6036 238.153 60.0604L238.403 54.5485L237.119 54.4858C234.739 54.3606 234.394 55.488 234.488 63.3801C234.582 69.7376 234.613 70.4266 234.77 70.2387C234.927 70.0821 236.43 73.2765 236.461 73.7776C236.461 73.9968 236.555 74.0908 236.681 74.0281C237.025 73.8089 237.965 74.9676 237.714 75.2495C237.558 75.3748 237.62 75.4687 237.777 75.4374C238.435 75.2808 238.905 75.4374 238.717 75.7506C238.591 75.9385 238.748 75.9698 239.061 75.8445C239.468 75.688 239.531 75.7506 239.343 76.0638C239.186 76.3143 239.218 76.4083 239.437 76.283C239.594 76.1577 240.439 76.2204 241.285 76.4083C242.444 76.6901 243.102 76.6588 244.198 76.3456C244.981 76.1264 245.796 75.9385 245.983 75.9698C246.203 75.9698 246.297 75.8445 246.171 75.6566C246.046 75.4687 246.171 75.4061 246.516 75.5314C246.829 75.6566 246.986 75.6253 246.86 75.4374C246.673 75.1556 247.925 74.31 248.364 74.4352C248.521 74.4666 248.552 74.3726 248.458 74.2473C248.364 74.0907 248.583 73.6836 248.928 73.3704C249.523 72.838 249.554 72.838 249.742 73.4957C249.836 73.8715 250.055 74.0908 250.243 73.9655C250.431 73.8402 250.494 73.9655 250.369 74.2787C250.118 74.9676 251.402 76.3769 252.279 76.3769C253.094 76.3769 253.595 75.5 253.595 74.0594C253.595 73.4644 253.751 72.8694 253.908 72.7754C254.096 72.6815 254.221 72.3683 254.221 72.1177C254.221 71.8672 254.096 71.7106 253.939 71.8046C253.595 72.0238 253.407 68.5475 253.563 64.7894C253.689 62.5032 253.751 62.0961 253.908 63.0669C254.033 63.7872 254.096 62.9103 254.096 60.9999C254.065 59.1522 253.971 57.7116 253.845 57.8055C253.689 57.8682 253.595 57.5863 253.595 57.1792C253.595 55.8325 252.937 54.4545 252.248 54.3293C251.371 54.1727 250.149 54.2353 250.118 54.4545Z" fill="#B2836B"/>
<path d="M39.6938 54.799C39.2553 54.9556 38.7228 55.0182 38.5036 54.9556C38.2843 54.8616 38.1277 54.9556 38.1903 55.1435C38.2217 55.3314 38.065 55.5506 37.8145 55.6446C37.5326 55.7385 37.4699 55.6446 37.6265 55.3627C37.8458 54.9869 37.7831 54.9869 37.4386 55.3314C37.188 55.5506 37.0001 55.8325 37.0001 55.9578C36.9688 56.3023 35.2147 58.056 34.9641 57.9934C34.8388 57.9621 34.7449 58.15 34.7762 58.4632C34.7762 58.745 34.6509 58.9643 34.4316 58.9329C34.1811 58.8703 34.1184 59.0582 34.2437 59.3714C34.4003 59.7472 34.3377 59.8098 34.0245 59.6219C33.7426 59.4653 33.6799 59.4967 33.8365 59.7472C33.9618 59.9351 33.8992 60.5615 33.7112 61.1565C33.5233 61.7202 33.304 62.5345 33.2101 62.9416C32.9282 64.3509 33.0221 68.8294 33.398 69.9255C33.5859 70.5518 33.6486 71.2095 33.5233 71.4287C33.398 71.6479 33.4293 71.7419 33.5546 71.6166C33.8365 71.3661 35.3087 73.5583 35.0894 73.9028C35.0268 73.9968 35.34 74.4352 35.7472 74.811C36.1857 75.2182 36.5303 75.4374 36.5303 75.3121C36.5303 75.1555 36.8435 75.2495 37.2507 75.5C37.6265 75.7506 38.4722 76.1577 39.13 76.3456C39.7565 76.5648 40.2263 76.8467 40.1637 76.9406C40.101 77.0659 41.4166 77.1599 43.108 77.1599C44.862 77.1599 46.1149 77.0346 46.021 76.878C45.8957 76.7214 46.2715 76.6901 46.8353 76.7841C47.5558 76.9406 47.775 76.878 47.6184 76.6275C47.4618 76.4082 47.6184 76.3456 48.0569 76.4396C48.4328 76.5648 48.6834 76.5335 48.5894 76.3769C48.4015 76.0951 49.3098 75.6879 49.6857 75.9072C49.811 76.0011 50.0302 75.8445 50.1242 75.5627C50.2182 75.3121 50.4687 75.1869 50.6567 75.3121C50.9073 75.4374 50.9386 75.4061 50.8133 75.1869C50.688 74.9989 50.9699 74.5918 51.4084 74.31C51.8469 74.0281 52.1915 73.5896 52.1915 73.3704C52.1915 73.1199 52.4107 72.838 52.6613 72.7441C53.0372 72.5875 53.0059 72.4622 52.5047 71.9298C52.1601 71.554 52.0035 71.1155 52.0975 70.9276C52.1915 70.7397 52.1915 70.6771 52.0349 70.8024C51.9096 70.9276 51.565 70.865 51.3144 70.6458C50.9073 70.3326 50.8759 70.3639 51.0952 70.7084C51.2831 71.0529 51.2205 71.1155 50.8133 70.959C50.5314 70.8337 50.3434 70.865 50.4374 71.0216C50.688 71.4287 47.5244 73.0259 46.8353 72.838C46.5221 72.7441 46.3029 72.8067 46.3968 72.932C46.4908 73.0886 46.0523 73.3704 45.3945 73.527C43.9537 73.9341 42.9827 73.9655 43.891 73.5583C44.2982 73.3704 43.9537 73.3391 42.9827 73.4644C41.9177 73.5896 41.5105 73.5583 41.6358 73.3391C41.7924 73.1199 41.6045 73.0572 41.166 73.1825C40.7275 73.2765 40.5708 73.2138 40.7275 72.9946C40.8527 72.7441 40.7901 72.6814 40.5082 72.8067C40.2576 72.9007 39.9757 72.7441 39.8504 72.4622C39.7565 72.1804 39.5059 72.0551 39.3179 72.149C38.6289 72.5875 36.5616 69.8628 37.0314 69.1112C37.1567 68.892 37.1254 68.8607 36.9061 68.9859C36.6869 69.1112 36.5303 69.0173 36.5303 68.7354C36.5303 68.0464 37.1254 67.8272 37.6892 68.2969C38.0024 68.5162 38.1277 68.5475 38.0024 68.3283C37.8458 68.0777 37.9711 68.0777 38.5349 68.3283C38.9421 68.5475 39.2553 68.7667 39.1927 68.892C39.13 68.9859 39.3179 69.0486 39.5998 69.0486C41.2599 69.0486 41.9804 69.2052 41.6045 69.4557C41.3226 69.6123 41.5105 69.7062 42.137 69.6749C42.6694 69.6436 43.108 69.5497 43.108 69.3931C43.108 69.2678 43.4212 69.1738 43.7971 69.1738C44.1416 69.1738 45.2066 68.8294 46.1462 68.3909C47.0546 67.9525 47.9943 67.6706 48.2135 67.7959C48.4015 67.9211 48.4954 67.8898 48.3388 67.7645C48.0256 67.4201 49.6857 65.6976 50.0929 65.9481C50.2808 66.0421 50.3121 65.9794 50.1868 65.7915C49.9676 65.4157 50.6254 63.8185 50.9386 64.0064C51.0325 64.0691 51.0952 63.6932 51.0012 63.1295C50.9386 62.3779 50.9699 62.2526 51.2205 62.5971C51.659 63.2548 51.3144 60.9686 50.7193 59.3088C50.4687 58.6198 50.2495 57.8055 50.2182 57.5236C50.1868 57.2418 50.0929 57.0539 49.9676 57.1165C49.8736 57.2105 49.4664 56.9286 49.0592 56.4902C48.6834 56.083 47.9629 55.5819 47.4618 55.394C46.9606 55.1748 46.6161 54.9243 46.6787 54.799C46.898 54.4858 40.4769 54.4545 39.6938 54.799ZM45.1439 57.8995C45.5824 58.056 45.8643 58.3379 45.7704 58.5258C45.6764 58.6824 45.7704 58.745 46.021 58.6511C46.5534 58.4632 47.6184 59.9664 47.3052 60.4675C47.1799 60.6554 47.2112 60.7181 47.4305 60.5928C47.869 60.3422 48.0256 60.8746 47.869 62.1274C47.7124 63.5053 45.7391 65.8228 44.956 65.6349C44.5801 65.541 44.4235 65.6036 44.5488 65.7915C44.7054 66.0108 44.4862 66.0734 43.9537 65.9794C43.4838 65.8855 43.2019 65.9481 43.2959 66.0734C43.5152 66.4805 41.1973 66.4179 40.0384 66.0108C39.4746 65.8228 39.13 65.541 39.224 65.3844C39.3179 65.2278 39.1927 65.1965 38.9421 65.2904C38.2843 65.541 36.8435 63.6619 36.8435 62.5971C36.8435 61.501 37.1567 60.6867 37.4699 60.8746C37.5952 60.9686 37.6892 60.7807 37.6579 60.4675C37.6579 60.1857 37.8145 59.9664 38.0337 60.0291C38.2843 60.0604 38.3783 59.9664 38.2843 59.8098C38.0651 59.4653 38.8794 58.7764 39.1613 59.0895C39.2866 59.2148 39.3493 59.0895 39.2866 58.839C39.224 58.5571 39.4119 58.4005 39.7251 58.4005C40.0384 58.4319 40.195 58.3066 40.0697 58.1187C39.9444 57.9308 40.1323 57.8681 40.5395 57.9621C40.9154 58.0874 41.2286 58.0247 41.2286 57.8681C41.2286 57.4923 44.1103 57.5236 45.1439 57.8995Z" fill="#B2836B"/>
<path d="M59.239 54.7677C59.4269 55.0809 57.8295 55.7385 57.4536 55.5193C57.2656 55.394 57.203 55.4567 57.297 55.6133C57.5789 56.0517 56.7018 56.772 56.2633 56.4902C56.0754 56.3649 55.9814 56.4588 56.0128 56.7094C56.0754 56.9286 55.9188 57.0852 55.6995 57.0226C55.4489 56.9912 55.355 57.0852 55.4489 57.2418C55.5742 57.3984 55.4803 57.6489 55.261 57.8055C54.7912 58.0874 54.6972 60.2796 55.167 60.3422C55.355 60.3736 55.8248 60.4675 56.2947 60.5615C56.9211 60.718 57.3283 60.5301 58.3933 59.4653C59.239 58.6198 59.8654 58.2126 60.1786 58.3379C60.5232 58.4632 60.6171 58.4005 60.4605 58.15C60.3039 57.9308 60.4605 57.8681 60.8991 57.9621C61.2749 58.0874 61.5255 58.0247 61.4002 57.8681C61.3062 57.7115 62.2772 57.5863 63.6241 57.5863C65.3468 57.5863 65.942 57.6802 65.7854 57.9621C65.6601 58.1813 65.6914 58.2126 65.942 58.0874C66.4744 57.7429 67.6021 58.1813 67.3515 58.6198C67.2262 58.839 67.2262 58.9016 67.3828 58.7763C67.7587 58.4319 68.855 59.1522 68.667 59.6219C68.5731 59.8725 68.667 60.1543 68.855 60.2796C69.0742 60.4362 69.1055 60.3422 68.9489 60.0604C68.761 59.7159 68.7923 59.6846 69.1369 59.9977C69.3561 60.217 69.544 60.906 69.544 61.501C69.544 62.1587 69.638 62.4405 69.7946 62.19C69.9512 61.9081 70.0452 61.9708 70.0452 62.3153C70.0452 63.0042 68.8236 63.2235 66.9756 62.8477C65.3782 62.5345 59.7088 62.6284 59.8967 62.9416C60.0847 63.2548 58.4872 63.5993 58.08 63.3487C57.8921 63.2235 57.8295 63.2548 57.9234 63.4427C58.1114 63.7559 55.6995 65.6036 55.2923 65.5097C55.167 65.4783 55.1044 65.6663 55.1357 65.9794C55.1357 66.2613 55.0104 66.4805 54.7912 66.4492C54.5406 66.3866 54.478 66.5745 54.6032 66.8876C54.6972 67.1695 54.6032 67.5453 54.3527 67.7332C53.9455 68.0464 53.6636 71.6793 54.0708 71.6793C54.1647 71.6793 54.4153 72.0864 54.6346 72.5875C54.8538 73.0886 55.4176 73.9028 55.8875 74.3726C56.326 74.8737 56.6705 75.4061 56.6392 75.5313C56.6079 75.6879 56.7018 75.7192 56.8585 75.6253C57.2343 75.3748 58.174 75.7506 58.0174 76.0324C57.8608 76.2517 62.4025 76.2203 64.0939 76.0011C64.5325 75.9385 65.0336 75.7193 65.2216 75.4687C65.4408 75.2182 65.7227 75.1242 65.9733 75.2808C66.2552 75.4687 66.3178 75.4061 66.1299 75.1242C65.942 74.811 66.0046 74.7484 66.4118 74.905C66.725 75.0303 66.8816 74.9989 66.7563 74.811C66.6624 74.6231 66.725 74.4665 66.8816 74.4665C67.0696 74.4352 67.4141 74.4039 67.6334 74.3726C67.8213 74.3726 68.0092 74.122 68.0092 73.8715C68.0092 73.3704 69.5754 72.3682 69.8886 72.6814C70.0139 72.8067 70.1392 73.2451 70.1705 73.6523C70.1705 74.0907 70.2958 74.3726 70.4211 74.31C70.609 74.1847 71.1728 76.6275 71.0475 77.0972C70.9849 77.2538 71.1102 77.2851 71.2981 77.1599C71.4547 77.0659 71.7993 77.0659 71.9872 77.1912C72.4884 77.5044 73.8039 77.5044 73.8039 77.2225C73.8352 77.0972 74.0232 76.3456 74.2737 75.5313C74.6183 74.3726 74.6496 73.9968 74.3364 73.8089C74.0545 73.6523 73.9605 72.2117 73.9605 68.7041C73.9605 66.0421 73.8352 63.8498 73.6786 63.8498C73.522 63.8498 73.4907 63.1922 73.5846 62.4092C73.6786 61.501 73.616 61.1252 73.4594 61.3757C73.2088 61.7829 73.0522 60.7494 73.0835 59.2461C73.1148 59.0269 72.9895 58.9016 72.8642 58.9956C72.645 59.1208 71.7679 57.461 71.7679 56.8973C71.7679 56.6467 71.2981 56.177 71.0162 56.177C70.515 56.177 68.1972 54.9869 68.3225 54.7677C68.3851 54.6737 66.3492 54.5485 63.7807 54.5485C61.2123 54.5485 59.1763 54.6424 59.239 54.7677ZM68.7923 65.6976C69.2308 65.8228 69.544 66.1047 69.5127 66.2926C69.4501 66.5118 69.5754 66.6684 69.7633 66.6684C70.0139 66.6684 69.9826 66.8563 69.7007 67.2008C69.3248 67.6393 69.3248 67.7019 69.7007 67.4514C70.4211 67.0129 69.0429 69.1425 68.0719 69.9881C67.5707 70.3952 67.0383 70.6771 66.913 70.5831C66.7564 70.4892 66.5371 70.5831 66.4118 70.771C66.2552 71.0216 66.3492 71.0842 66.6311 70.9276C66.8816 70.8024 66.725 70.9903 66.2865 71.3348C65.5661 71.9298 64.971 72.1177 64.3445 72.0238C64.1879 72.0238 64.0939 72.149 64.0939 72.3369C64.0939 72.5248 63.812 72.6188 63.4675 72.5248C63.0916 72.4309 62.9037 72.4935 63.029 72.6814C63.1856 72.9007 62.9037 72.9633 62.2772 72.8693C61.7448 72.8067 61.3689 72.838 61.4629 72.9946C61.5568 73.1199 61.4002 73.2451 61.1183 73.2451C60.8364 73.2451 60.6798 73.1199 60.7738 72.9633C60.8991 72.8067 60.6485 72.7441 60.2726 72.8693C59.8654 72.9633 59.6775 72.9007 59.8028 72.7127C59.9594 72.4935 59.8028 72.4309 59.4582 72.5248C59.0824 72.6188 58.7065 72.3996 58.3933 71.9298C57.7668 70.959 57.4536 70.0507 57.8295 70.27C57.9861 70.3639 58.0487 70.0507 57.9861 69.487C57.9234 68.9859 58.0174 68.5475 58.174 68.5475C58.3619 68.5475 58.4246 68.4222 58.2993 68.2656C58.08 67.8898 59.239 66.7937 60.6485 66.0421C61.5255 65.5723 62.4025 65.447 64.877 65.447C66.5997 65.4783 68.3538 65.5723 68.7923 65.6976Z" fill="#B2836B"/>
<path d="M76.0902 59.6219C76.0902 60.6554 76.1528 61.0312 76.2155 60.4675C76.2781 59.9038 76.2781 59.0582 76.2155 58.5884C76.1528 58.1187 76.0902 58.5884 76.0902 59.6219Z" fill="#B2836B"/>
<path d="M154.24 59.0582C154.804 59.1208 155.65 59.1208 156.119 59.0582C156.589 58.9956 156.119 58.9329 155.086 58.9329C154.052 58.9329 153.676 58.9956 154.24 59.0582Z" fill="#B2836B"/>
<path d="M233.924 60.4049C233.924 60.9999 233.987 61.2505 234.081 60.9373C234.144 60.6554 234.144 60.1543 234.081 59.8412C233.987 59.5593 233.924 59.8098 233.924 60.4049Z" fill="#B2836B"/>
<path d="M10 65.1025C10 65.8855 10.0626 66.1987 10.1253 65.7915C10.1879 65.4157 10.1879 64.7894 10.1253 64.3822C10.0626 64.0064 10 64.3196 10 65.1025Z" fill="#B2836B"/>
<path d="M238.341 65.2591C238.341 65.9481 238.403 66.1987 238.466 65.7915C238.529 65.4157 238.529 64.852 238.466 64.5388C238.372 64.257 238.309 64.5701 238.341 65.2591Z" fill="#B2836B"/>
<path d="M135.917 69.3931C136.199 69.4557 136.7 69.4557 137.013 69.3931C137.295 69.2991 137.044 69.2365 136.449 69.2365C135.854 69.2365 135.603 69.2991 135.917 69.3931Z" fill="#B2836B"/>
<path d="M187.285 70.7397C187.285 71.6793 187.348 72.0864 187.41 71.5853C187.473 71.1155 187.473 70.3639 187.41 69.8628C187.348 69.3931 187.285 69.8002 187.285 70.7397Z" fill="#B2836B"/>
<path d="M10 71.6793C10 72.4622 10.0626 72.7754 10.1253 72.3682C10.1879 71.9924 10.1879 71.3661 10.1253 70.959C10.0626 70.5831 10 70.8963 10 71.6793Z" fill="#B2836B"/>
<path d="M258.794 72.6814C258.512 73.0572 258.293 73.8715 258.293 74.4979C258.293 75.0929 258.168 75.4374 258.042 75.2495C257.917 75.0303 257.792 75.8445 257.729 77.0346C257.667 78.7571 257.761 79.2582 258.136 79.3834C258.387 79.4774 258.512 79.6966 258.418 79.8532C258.324 80.0098 258.512 80.0411 258.825 79.9472C260.767 79.3208 261.049 79.1016 261.237 78.2247C261.363 77.5983 261.551 77.3478 261.77 77.5044C261.989 77.6296 262.052 77.5983 261.958 77.4417C261.864 77.2851 261.738 76.0324 261.707 74.6545L261.613 72.149L260.454 72.0551C259.546 71.9924 259.17 72.149 258.794 72.6814Z" fill="#B2836B"/>
<path d="M42.4188 77.5357C42.7946 77.5983 43.3584 77.5983 43.6717 77.5357C43.9536 77.4417 43.6403 77.3791 42.9513 77.4104C42.2622 77.4104 42.0116 77.473 42.4188 77.5357Z" fill="#B2836B"/>
</svg>
