<svg width="112" height="100" viewBox="0 0 112 100" fill="none" xmlns="http://www.w3.org/2000/svg">
<path d="M50.8227 5.67018C49.3004 5.83366 46.2558 6.37439 44.9725 6.68877C37.5623 8.54989 30.7811 12.2847 24.9813 17.7172C21.0182 21.4268 18.0994 25.4509 15.5455 30.7701C14.0987 33.7882 12.7022 37.8248 12.0605 40.8805C11.9725 41.2955 11.8718 41.6854 11.8215 41.7357C11.7712 41.7985 11.3812 41.7734 10.9534 41.6854C10.4502 41.5848 10.1231 41.5848 10.0476 41.6602C9.97209 41.7357 9.98467 41.786 10.0979 41.786C10.186 41.786 10.5886 41.9369 10.9912 42.1129C11.6579 42.4273 11.7083 42.4776 11.6454 42.792C11.6076 42.9932 11.5447 43.4584 11.4944 43.8357C11.4567 44.213 11.3937 44.6405 11.356 44.7788C11.3183 44.9172 11.2679 46.6148 11.2302 48.5514C11.1421 53.6695 11.5825 57.2785 12.828 61.6924C13.9477 65.6787 16.0613 70.3818 18.1623 73.5759C19.0556 74.934 21.0056 77.5874 21.597 78.2287C21.7228 78.367 22.1379 78.8574 22.528 79.2976C23.4715 80.3665 26.0129 82.8563 27.0445 83.7114C34.1528 89.5966 41.7014 92.9416 50.634 94.1614C53.3766 94.5261 58.1951 94.6141 60.6988 94.3374C66.0331 93.7464 71.0781 92.3128 75.7582 90.0619C78.9916 88.5026 82.313 86.3396 85.1689 83.9629C87.1818 82.2779 90.1761 79.2221 91.4594 77.5371C94.0636 74.1292 95.284 72.1926 96.6931 69.3003C98.4167 65.729 99.4483 62.6355 100.253 58.6115C100.555 57.0899 101.021 54.0844 101.021 53.6192C101.021 53.5563 101.159 53.5437 101.323 53.594C101.499 53.6317 101.738 53.6066 101.864 53.5311C102.065 53.418 102.053 53.4054 101.763 53.3928C101.084 53.3928 101.046 53.2671 101.159 51.1293C101.549 43.0309 99.0709 33.7504 94.5417 26.4066C91.2329 21.037 86.8925 16.5477 81.6587 13.0392C75.2802 8.76366 68.1342 6.24864 60.573 5.60731C58.5223 5.44383 52.5966 5.46898 50.8227 5.67018ZM58.6858 5.98456C61.2649 6.14804 62.8627 6.31151 64.6618 6.62589C75.645 8.53731 85.8356 14.9129 92.3778 23.967C96.844 30.154 99.637 37.4727 100.543 45.4076C100.719 46.9166 100.769 52.6886 100.606 52.8395C100.342 53.1036 98.706 51.7455 98.3286 50.9532C98.165 50.5885 98.1273 49.9975 98.1273 47.2939V44.0621L98.9073 43.3327H97.3599C96.1018 43.3453 95.8376 43.3704 96.0011 43.4962C96.4414 43.8357 96.4918 44.1752 96.4918 46.6903V49.1801L95.7118 48.2999C95.2714 47.822 94.9317 47.3819 94.9443 47.3316C94.9695 47.2813 94.9317 47.2436 94.8688 47.2687C94.8185 47.2813 93.8246 46.2627 92.6671 45.0178C91.5223 43.7603 90.4906 42.6914 90.3774 42.6536C90.2767 42.6159 90.2264 42.5153 90.2642 42.4524C90.3145 42.377 90.3019 42.3393 90.239 42.3518C90.1132 42.3896 88.8048 41.7482 88.8677 41.6854C88.9557 41.5973 87.5089 41.5596 87.1944 41.6351C86.9176 41.7105 86.9176 41.7231 87.1189 41.874C87.2447 41.962 87.446 42.0123 87.5593 41.9872C87.9618 41.874 89.0312 42.553 89.6351 43.2824C89.9496 43.6848 90.1887 44.0746 90.1509 44.1752C90.1132 44.2758 90.1258 44.3261 90.1887 44.2884C90.4026 44.1501 90.4529 44.804 90.4529 47.8849V50.991L90.0503 51.3053L89.6351 51.6323H92.7426L91.9626 50.9029V48.4256C91.9626 46.4388 92.0003 45.986 92.1262 46.0615C92.4533 46.2627 95.4727 49.5951 95.3972 49.6706C95.3595 49.7083 95.3846 49.746 95.4601 49.746C95.523 49.746 95.9508 50.1233 96.3911 50.5885C98.1525 52.4497 98.8193 52.9778 99.939 53.3425L100.555 53.5437L100.467 54.512C100.367 55.8575 100.342 55.9581 99.8257 58.4857C98.0015 67.5147 94.0888 74.7202 87.4963 81.2341C81.7217 86.9433 74.5127 90.9421 66.4986 92.8913C63.215 93.6961 58.3461 94.1991 55.2889 94.0733C53.5779 93.9979 49.401 93.5829 48.9355 93.4446C48.8349 93.4069 48.2687 93.3063 47.6774 93.2057C44.3434 92.6146 39.1097 90.7912 35.9142 89.1062C31.6114 86.8175 28.4914 84.5791 25.2455 81.4479C20.9679 77.2981 17.8604 72.9471 15.5706 67.8416C13.6458 63.5912 12.6896 60.2085 11.8592 54.7761C11.5825 52.9778 11.5196 45.5962 11.7838 45.5082C11.8718 45.4705 11.897 45.3699 11.8592 45.2693C11.8215 45.1687 11.8592 44.6405 11.9473 44.0872C12.0857 43.1692 12.1234 43.0938 12.3373 43.2195C12.4631 43.2824 12.6896 43.5591 12.828 43.8357C13.067 44.2884 13.0796 44.5776 13.0796 47.6711V51.0161L12.7525 51.3179L12.4128 51.6323H13.91C15.3945 51.6323 15.4071 51.6197 15.1051 51.3934C14.9164 51.2425 14.8409 51.1041 14.9039 51.0035C14.9668 50.8904 14.9542 50.8652 14.8535 50.9281C14.7529 51.0035 14.7151 50.3999 14.7277 48.5136L14.7403 46.0112L15.8223 47.1555C16.4262 47.7843 17.4201 48.828 18.0491 49.4945C19.8356 51.3808 21.4837 53.0281 21.5718 53.0155C21.7102 52.9778 22.3896 53.2922 22.3896 53.3928C22.3896 53.4431 22.465 53.4934 22.5405 53.4808C23.0815 53.4683 23.5219 53.5311 23.4715 53.6317C23.4212 53.6946 23.5973 53.6946 23.8741 53.6317C24.1257 53.5689 24.3774 53.5186 24.4403 53.5186C24.4906 53.5186 24.5283 53.4683 24.5283 53.4054C24.5283 53.3551 24.3145 53.267 24.0377 53.2293C23.308 53.1413 22.7041 52.8018 21.9744 52.0724C20.7918 50.8904 20.7666 50.8023 20.754 47.1681C20.754 43.8609 20.7666 43.7854 21.3202 43.4836C21.5089 43.3704 21.2069 43.3453 19.974 43.3327H18.3888L19.1185 44.0621V46.6274L19.1059 49.1801L18.8543 48.8658C17.8352 47.646 13.6709 43.2447 13.067 42.7542C12.6644 42.4273 12.3247 42.0878 12.3247 41.9997C12.3247 41.4716 12.979 38.8434 13.608 36.8565C16.0487 29.1102 20.4269 22.2819 26.2897 17.1261C31.6618 12.3853 37.1848 9.39242 44.2176 7.39297C44.9851 7.16662 46.0545 6.94027 48.3694 6.48757C49.3381 6.29894 51.4391 6.09774 53.5276 5.99713C56.3835 5.84623 56.5219 5.84623 58.6858 5.98456Z" fill="#B2836B"/>
<path d="M51.5146 10.8134C51.414 11.0523 51.3259 11.3038 51.3259 11.3667C51.3259 11.7565 50.3823 14.5231 50.1685 14.7494L49.9168 15.0135H50.5585C50.9107 15.0261 51.2001 14.9758 51.2001 14.9003C51.2001 14.8375 51.112 14.7872 51.0114 14.7872C50.7723 14.7872 50.7598 14.2213 50.9736 13.756C51.112 13.4668 51.2127 13.4165 51.8669 13.3787C52.4708 13.3536 52.6343 13.3787 52.823 13.5925C53.1627 13.9572 53.276 14.4225 53.0747 14.5482C52.7979 14.7117 52.9866 14.7494 53.8295 14.6866C54.597 14.6362 54.6221 14.6237 54.3705 14.4225C54.2321 14.3093 53.7037 13.4542 53.2131 12.5236C52.7224 11.5931 52.2695 10.738 52.2192 10.6374C52.0179 10.2727 51.7033 10.3481 51.5146 10.8134ZM51.8795 11.5931C51.9172 11.7062 51.9172 11.8571 51.8669 11.92C51.8291 11.9955 51.8417 12.0206 51.9172 11.9829C52.043 11.8949 52.5463 12.8506 52.433 12.9638C52.4079 13.0015 52.1059 13.0644 51.7662 13.1147C51.1749 13.1901 51.1624 13.1901 51.2378 12.8883C51.6404 11.3164 51.7159 11.1655 51.8795 11.5931Z" fill="#B2836B"/>
<path d="M57.4906 10.6122C57.4906 10.7254 57.4529 10.9643 57.4151 11.1404L57.3522 11.4547L57.6416 11.1026C57.9184 10.7883 57.9938 10.7631 58.5223 10.8386C59.0884 10.914 59.101 10.9266 59.0632 11.3164C59.0255 11.5302 58.9878 12.159 58.95 12.7123C58.8619 14.1207 58.7613 14.4854 58.4468 14.6363C58.2077 14.762 58.2203 14.7746 58.6229 14.7872C58.8619 14.7872 59.2771 14.8375 59.5413 14.9003C60.0068 15.0135 60.1955 14.8878 59.8055 14.7369C59.6168 14.6614 59.6042 14.4979 59.6797 13.429C59.7929 11.6559 59.8936 11.0398 60.0571 10.9769C60.1326 10.9392 60.422 10.9517 60.6988 11.002C61.1265 11.0649 61.2272 11.1404 61.3404 11.505L61.4788 11.9326L61.5669 11.3919C61.6172 11.1026 61.6298 10.826 61.592 10.8008C61.5669 10.7757 60.9504 10.7002 60.2333 10.6374C59.5287 10.5745 58.6103 10.4865 58.2203 10.4613C57.5913 10.3984 57.4906 10.4236 57.4906 10.6122Z" fill="#B2836B"/>
<path d="M45.0983 11.6559C44.507 11.8697 44.4944 11.8823 44.8718 11.8949C45.2367 11.8949 45.287 11.9452 45.4128 12.423C45.4883 12.7248 45.6393 13.2656 45.7525 13.6302C45.8532 14.0075 45.9161 14.3344 45.8783 14.3596C45.8532 14.3973 45.3751 14.1458 44.8341 13.8063C42.8086 12.5614 42.6198 12.4859 42.0034 12.662C41.4624 12.8003 41.4624 12.8129 41.7769 12.926C42.1418 13.0518 42.2676 13.2907 42.5821 14.4728C43.0602 16.2207 43.0602 16.2962 42.8086 16.5728C42.6198 16.7992 42.6073 16.8369 42.7834 16.7614C42.9092 16.7237 43.2237 16.6231 43.5131 16.5351C44.0038 16.3842 44.1421 16.1327 43.6641 16.2584C43.4502 16.3087 43.3747 16.183 43.1482 15.3908C42.9973 14.8878 42.8211 14.2841 42.7456 14.0578C42.6827 13.8314 42.645 13.6177 42.6827 13.5799C42.7079 13.5548 43.5257 13.9823 44.4818 14.5357C45.438 15.089 46.3187 15.5417 46.4445 15.5417C46.6332 15.5417 46.6332 15.4788 46.4067 14.6866C46.0419 13.4668 45.6393 11.8697 45.6896 11.8446C45.7148 11.8194 45.8657 11.7188 46.0419 11.6056L46.3438 11.3919L46.0419 11.4044C45.8657 11.417 45.4506 11.5302 45.0983 11.6559Z" fill="#B2836B"/>
<path d="M65.6305 11.92C65.6557 12.0835 65.5425 12.662 65.3663 13.2153C64.8505 14.85 64.8379 15.177 65.2153 15.6297C65.6305 16.1201 66.2596 16.4219 66.9641 16.4471C67.9454 16.4974 68.1719 16.2333 68.9016 14.2213C69.279 13.1775 69.3797 13.0266 69.7445 13.0141C69.9207 13.0141 69.8452 12.9512 69.5055 12.8254C69.2287 12.7123 68.9016 12.5739 68.7884 12.5111C68.4361 12.3224 68.3983 12.3727 68.6751 12.7248C68.9016 13.0141 68.9142 13.0895 68.7632 13.5799C68.1845 15.4914 67.7567 16.1704 67.1151 16.1704C66.5615 16.1704 66.096 15.9566 65.8444 15.5794C65.6808 15.3153 65.6683 15.177 65.7941 14.6488C65.8821 14.3093 65.9828 14.0326 66.0205 14.0326C66.0709 14.0326 66.1212 13.844 66.1338 13.6177C66.1589 13.0015 66.5112 12.2596 66.8006 12.1841C67.2157 12.0709 67.0899 11.9326 66.5112 11.8571C66.2092 11.8194 65.8821 11.744 65.7689 11.7062C65.6179 11.6434 65.5928 11.6937 65.6305 11.92Z" fill="#B2836B"/>
<path d="M73.3679 14.3973C73.4937 14.5985 73.4308 14.7872 73.0282 15.5542C71.8833 17.7675 71.682 18.0818 71.443 18.019C70.9523 17.8932 71.2291 18.1447 71.9839 18.522C72.7514 18.9118 73.1037 18.9747 72.6633 18.6477C72.462 18.4968 72.462 18.4591 72.7136 17.9309C72.9778 17.3651 73.9088 15.6674 74.1856 15.2147C74.3366 14.9758 74.3492 14.9758 74.8147 15.2399C75.4437 15.6045 75.5192 16.0824 75.0285 16.6734C74.7014 17.0633 74.6637 17.0758 73.9969 16.9878L73.3175 16.8998L73.5817 17.2645C73.7453 17.4782 73.9088 17.9938 73.9969 18.4968C74.1479 19.4903 74.1856 19.5406 74.714 19.8549L75.0915 20.0687L75.0663 19.7292C75.0537 19.528 75.0034 19.3519 74.9531 19.3142C74.8398 19.2262 74.5882 17.6669 74.6763 17.5411C74.714 17.4782 74.9027 17.4279 75.104 17.4279C75.8966 17.4279 76.4502 16.0824 75.8589 15.5794C75.5947 15.3405 73.4685 14.171 73.3049 14.1584C73.2546 14.1584 73.2798 14.2716 73.3679 14.3973Z" fill="#B2836B"/>
<path d="M31.1334 18.6351C30.6553 18.9495 30.2401 19.2262 30.215 19.2513C30.1898 19.2765 30.3533 19.2765 30.5798 19.2765C30.9572 19.2513 31.0327 19.3393 31.9134 20.622C32.6934 21.7538 32.8318 22.043 32.7689 22.3197L32.6808 22.6466L32.9828 22.3825C33.1463 22.2442 33.8131 21.7663 34.4673 21.3262C35.1216 20.8987 35.6877 20.5214 35.7129 20.4963C35.7758 20.4334 35.2348 19.3142 35.1467 19.3142C35.1216 19.3142 35.1216 19.4525 35.1719 19.6286C35.3103 20.1819 35.1216 20.5214 34.4044 21.0118C33.7251 21.4897 33.7125 21.4897 33.4483 21.2508C33.1212 20.9615 31.6995 18.8489 31.6995 18.6603C31.6995 18.5848 31.7876 18.4088 31.9134 18.283C32.2153 17.9435 32.1021 17.9938 31.1334 18.6351Z" fill="#B2836B"/>
<path d="M54.4083 19.3268C48.319 19.6412 42.796 21.628 37.5749 25.3754C34.3919 27.6641 31.2843 31.0468 29.2588 34.4421C27.9378 36.6553 27.6233 37.4224 28.0384 37.4224C28.1013 37.4224 28.2775 37.1583 28.4284 36.8188C29.9633 33.5492 33.1463 29.5252 36.2035 27.0228C40.7704 23.2628 45.5512 21.0747 51.3888 20.1064C53.3892 19.7795 58.9752 19.7795 60.9504 20.119C64.1963 20.6597 67.0396 21.5274 69.6313 22.7849C70.9775 23.4263 73.393 24.8221 74.0724 25.3503C77.0667 27.6641 77.9725 28.494 79.9351 30.7576C80.9165 31.8893 83.1307 35.2972 83.8101 36.7308C84.0743 37.2966 84.5398 37.6613 84.5398 37.2841C84.5398 37.0577 83.1056 34.4924 82.2249 33.1468C78.2367 27.0605 71.9085 22.4706 64.687 20.4334C62.9382 19.943 60.0823 19.4525 58.4593 19.3771C57.7548 19.3393 56.9496 19.289 56.6728 19.2639C56.3961 19.2513 55.377 19.2765 54.4083 19.3268Z" fill="#B2836B"/>
<path d="M79.8848 20.0561C77.9599 21.2256 77.7586 21.3262 77.4064 21.3262C76.9912 21.3262 77.0541 21.452 77.658 21.9173C78.1864 22.3197 78.4128 22.37 78.1235 22.0179C77.9851 21.8544 77.9977 21.7789 78.199 21.5651C78.3248 21.4142 78.589 21.213 78.7903 21.125C79.1174 20.949 79.1677 20.9615 79.608 21.3262C79.8597 21.5274 80.1239 21.7035 80.1868 21.7035C80.3503 21.7035 79.9855 21.3136 79.5829 21.0621L79.218 20.8358L80.1239 20.2573C80.6271 19.9304 81.0549 19.6915 81.0926 19.7292C81.1933 19.8298 80.8158 20.5717 80.7026 20.4837C80.6523 20.4208 80.6397 20.446 80.69 20.534C80.7781 20.6975 80.0735 22.6718 79.8219 22.9358C79.6961 23.0742 79.5955 23.0742 79.369 22.9736C79.2054 22.8855 79.369 23.1119 79.7464 23.464C80.451 24.1053 80.69 24.2437 80.5642 23.9041C80.5139 23.7909 80.7781 22.7724 81.1429 21.628C81.6713 19.9555 81.772 19.528 81.6462 19.3771C81.5581 19.2765 81.4575 19.1885 81.4071 19.1885C81.3694 19.1885 80.6774 19.5783 79.8848 20.0561Z" fill="#B2836B"/>
<path d="M25.6858 23.64C25.258 24.0802 24.9058 24.4826 24.9058 24.5203C24.9058 24.558 25.0442 24.5203 25.2203 24.4449C25.5348 24.3065 25.6103 24.3568 26.6797 25.4257C27.6484 26.3814 27.812 26.5952 27.7617 26.8844C27.7365 27.0856 27.7365 27.2365 27.7491 27.2365C27.7617 27.2365 28.3781 26.6455 29.1078 25.9287L30.4414 24.6209L30.0388 24.2059C29.7746 23.9167 29.674 23.8538 29.7369 24.0299C29.8501 24.3191 29.8501 24.3317 29.8249 24.6209C29.8124 24.9101 28.9946 25.803 28.6801 25.891C28.4914 25.9413 28.1391 25.6772 27.271 24.8473L26.101 23.7406L26.3148 23.2879C26.4406 23.0364 26.5161 22.8352 26.491 22.8352C26.4784 22.8352 26.101 23.1999 25.6858 23.64Z" fill="#B2836B"/>
<path d="M85.4205 23.376C85.4205 23.4388 85.5085 23.5646 85.6092 23.6778C85.886 23.9544 85.7098 24.1682 84.2882 25.2874C83.1182 26.2054 82.7281 26.3814 82.4262 26.0796C82.3507 26.0042 82.2501 25.9539 82.2249 25.9916C82.1872 26.0293 82.4765 26.394 82.854 26.7964C83.2314 27.2114 83.8479 27.8779 84.2127 28.2677L84.8795 28.9719L85.3953 28.6701C85.6847 28.494 85.9237 28.2928 85.9237 28.2048C85.9237 28.1042 85.886 28.1042 85.7727 28.2174C85.4205 28.5695 84.9172 28.3934 84.2253 27.6641L83.5585 26.9599L83.9485 26.6203C84.175 26.4317 84.7537 25.9664 85.2318 25.6018C85.7224 25.2245 86.1502 24.8724 86.1879 24.8221C86.2257 24.7592 86.4395 24.8598 86.6534 25.0359C86.9428 25.2748 87.056 25.3251 87.056 25.1868C87.056 24.9982 85.4331 23.1999 85.4205 23.376Z" fill="#B2836B"/>
<path d="M21.056 29.1857C21.0182 29.2737 21.144 29.5755 21.3328 29.8396C21.7479 30.3929 22.6286 31.4869 22.8676 31.7384C23.1822 32.0905 23.4212 32.6816 23.3709 33.0462C23.2954 33.5115 23.4841 33.4486 23.8615 32.8576C24.088 32.5055 24.1132 32.3923 23.9748 32.3923C23.8741 32.3923 23.5848 32.1408 23.3206 31.8265L22.8551 31.248L23.1318 30.8707C23.2828 30.6695 23.396 30.4055 23.3709 30.2923C23.3457 30.1414 23.2451 30.2168 23.0186 30.5438C22.7292 30.9713 22.6915 30.9839 22.4776 30.7953C22.1631 30.5061 21.7102 29.7516 21.8108 29.6635C21.8486 29.6258 22.2637 29.7013 22.7292 29.8522C23.2073 29.9905 23.7861 30.154 24.0251 30.1917C24.7045 30.33 24.9309 30.4809 24.8429 30.7701C24.7925 30.8959 24.8177 31.0091 24.8806 31.0091C24.9938 31.0091 25.1322 30.8204 25.8493 29.7013L26.0884 29.3366L25.799 29.5001C25.5726 29.6132 25.3461 29.6258 24.7925 29.5126C23.5093 29.2611 21.8234 28.997 21.4711 28.997C21.2824 28.997 21.0937 29.0851 21.056 29.1857Z" fill="#B2836B"/>
<path d="M31.6618 40.8177C30.7685 41.0817 29.9759 42.1255 29.6866 43.3956C29.5985 43.7728 29.5482 45.1435 29.5482 46.7657C29.5482 48.3627 29.4978 49.6454 29.4223 49.8466C29.2462 50.2867 28.8059 50.7646 28.6423 50.664C28.5668 50.6263 28.5543 50.6514 28.592 50.7143C28.6926 50.8778 27.7994 51.255 27.3213 51.255C26.2645 51.255 25.2958 50.5885 25.0442 49.6831C24.9687 49.3939 24.9058 48.0861 24.9058 46.6148V44.0369L25.2454 43.6848L25.5851 43.3201L24.0503 43.3578C23.1318 43.383 22.5154 43.4459 22.5279 43.5213C22.5279 43.5842 22.6034 43.6345 22.6915 43.6093C23.0564 43.5339 23.1193 43.9489 23.1696 46.728C23.2073 49.3688 23.2325 49.5951 23.4841 50.0855C24.0754 51.1922 25.0819 51.67 26.8558 51.6826C27.9378 51.6952 28.202 51.6574 28.7178 51.4059C29.3972 51.0664 30.0011 50.3873 30.2024 49.746C30.2779 49.5071 30.3659 49.2179 30.3911 49.1173C30.4288 49.0167 30.454 47.7088 30.4414 46.2124C30.4414 44.716 30.4666 43.2572 30.5169 42.9554C30.6301 42.2638 31.2843 41.3081 31.8002 41.0817C32.014 40.9811 32.2028 40.8554 32.2028 40.7925C32.2028 40.6793 32.1398 40.6793 31.6618 40.8177Z" fill="#B2836B"/>
<path d="M68.7632 42.8423C68.7884 42.8926 68.6877 42.968 68.5242 43.0183C68.3103 43.0938 68.4109 43.1315 68.9645 43.207C69.8452 43.3201 70.2855 43.5968 70.5245 44.1501C70.7384 44.6657 70.7007 44.7663 69.5181 47.6334C69.0777 48.6897 68.6248 49.834 68.499 50.161C68.3732 50.5005 68.109 50.9407 67.9077 51.1293C67.719 51.3305 67.5554 51.5191 67.5554 51.5443C67.5554 51.582 68.0083 51.6323 68.5619 51.6574C69.1155 51.6826 69.5684 51.6574 69.5684 51.6197C69.5684 51.5694 69.4426 51.4562 69.2916 51.3556C69.0274 51.1796 69.0274 51.1419 69.1784 50.4628C69.2664 50.0604 69.4174 49.6706 69.5055 49.57C69.6061 49.4819 69.6439 49.3688 69.6061 49.3185C69.5558 49.2807 70.21 49.243 71.0278 49.243H72.5375L72.7514 49.8969C72.8646 50.249 72.9149 50.6011 72.8772 50.664C72.8395 50.7395 72.8646 50.752 72.9401 50.7017C73.0282 50.6514 73.0911 50.6892 73.0911 50.7772C73.0911 50.8778 73.2798 51.2802 73.5188 51.67C73.7579 52.0598 73.9214 52.3868 73.8837 52.3868C73.8459 52.3868 74.0472 52.5754 74.3366 52.8143C74.6134 53.0407 74.8021 53.2796 74.7518 53.3299C74.7014 53.3802 74.7266 53.3928 74.7895 53.3802C74.865 53.3551 75.104 53.4431 75.3305 53.5563C75.9092 53.8707 77.0541 54.0593 77.8215 53.9587C78.5638 53.8707 79.0167 53.6192 78.7525 53.4557C78.6393 53.3802 78.6141 53.4054 78.6896 53.5186C78.828 53.7323 77.8593 53.5689 77.117 53.2545C76.4376 52.9527 76.0979 52.6509 75.6073 51.8712C75.1292 51.1419 74.2108 48.9915 74.2989 48.8532C74.3366 48.7903 74.2989 48.74 74.2234 48.74C74.1479 48.74 74.1101 48.6897 74.1479 48.6268C74.1982 48.564 74.173 48.4885 74.1227 48.4634C74.0598 48.4508 73.5943 47.3819 73.0911 46.0992C72.1475 43.7477 71.7323 43.0812 71.141 42.968C70.5874 42.8674 68.7129 42.7668 68.7632 42.8423ZM71.6568 47.0675C71.9588 47.8094 72.2104 48.5011 72.2104 48.5765C72.2104 48.7023 71.8833 48.74 71.0026 48.74C69.82 48.74 69.8074 48.74 69.8955 48.4508C69.9458 48.2999 70.0087 48.149 70.059 48.1113C70.0968 48.0735 70.1471 47.9603 70.1723 47.8597C70.2478 47.4699 71.0026 45.5962 71.0529 45.6465C71.0781 45.6843 71.3549 46.313 71.6568 47.0675Z" fill="#B2836B"/>
<path d="M61.6046 43.2321C61.6298 43.295 61.5417 43.3327 61.3907 43.3327C60.9504 43.3327 59.7426 43.974 59.1513 44.5148C58.6103 45.0052 57.9938 46.0238 57.9938 46.4136C57.9938 46.5142 57.9561 46.6022 57.8932 46.6022C57.8429 46.6022 57.8303 47.0675 57.8806 47.6334C57.9687 48.8783 58.3335 49.7083 59.1261 50.4251C60.8875 52.0095 64.2592 52.2233 65.7689 50.84C65.9199 50.7017 66.0457 50.6388 66.0457 50.7017C66.0457 50.8526 66.5489 50.0604 66.8131 49.4694C67.0773 48.9035 67.2409 47.9478 67.1151 47.646C67.0522 47.4825 66.9641 47.6711 66.8131 48.2621C66.5741 49.2179 65.9576 50.1987 65.3412 50.6137C64.775 51.0035 63.8692 51.255 63.0514 51.255C62.4979 51.255 62.3846 51.2173 62.4475 51.0664C62.4978 50.9155 62.4727 50.9029 62.2966 51.0161C62.1204 51.1293 61.9569 51.1041 61.5543 50.9029C60.963 50.6011 60.2207 49.7963 60.3339 49.5951C60.3842 49.5197 60.3717 49.4945 60.2836 49.5322C60.2081 49.5825 60.0697 49.3813 59.9565 49.0292C59.7049 48.2873 59.5413 46.728 59.7174 46.728C59.7929 46.728 59.8181 46.5897 59.7929 46.4262C59.7049 45.9986 60.2836 44.9423 60.8875 44.4267C61.7556 43.6848 63.2401 43.4836 64.2466 43.974C64.8379 44.2633 65.5802 45.0681 65.4796 45.307C65.4544 45.395 65.467 45.4705 65.5299 45.4705C65.5928 45.4705 65.6808 45.5962 65.7312 45.7471C65.8067 45.9483 65.857 45.7094 65.9073 44.9675C65.9576 44.3764 65.9954 43.8986 65.9828 43.8986C65.9828 43.886 65.5928 43.7477 65.1021 43.5842C64.4857 43.3704 63.8189 43.2572 62.8879 43.2195C62.1456 43.1818 61.5669 43.1818 61.6046 43.2321Z" fill="#B2836B"/>
<path d="M39.613 43.2698C39.5752 43.295 37.8894 43.3327 35.8638 43.3327C32.2782 43.3578 32.165 43.3578 31.8631 43.6219C31.1334 44.2633 30.9698 45.0178 31.3472 45.9986C31.5108 46.4262 31.7624 46.4765 31.6114 46.0615C31.4353 45.5962 31.5234 44.7285 31.7624 44.4645C31.8882 44.3261 32.014 44.2381 32.0518 44.2633C32.0769 44.301 32.1902 44.2507 32.2782 44.1501C32.5047 43.9363 34.1277 43.7854 34.7819 43.9237L35.2851 44.0369L35.3228 47.3819L35.348 50.7394L34.958 51.1796L34.568 51.6323H36.1909C37.5371 51.6323 37.8265 51.5946 37.8265 51.4437C37.8265 51.3431 37.7761 51.2928 37.7258 51.3305C37.6629 51.3682 37.4994 51.3305 37.361 51.255C37.1219 51.1293 37.1094 51.0035 37.1219 47.5454C37.1345 43.6219 37.0842 43.8986 37.8642 43.9489C38.0403 43.9615 38.3171 43.974 38.4933 43.974C39.1475 43.9615 39.3739 44.0998 39.6381 44.6028C39.7765 44.892 39.9275 45.0932 39.9652 45.0555C40.003 45.0178 39.9904 44.5776 39.9401 44.0998C39.8646 43.295 39.7765 43.0938 39.613 43.2698Z" fill="#B2836B"/>
<path d="M41.0346 43.5213C41.2233 43.6219 41.4372 43.8231 41.5127 43.9615C41.5882 44.0998 41.6385 45.483 41.6385 47.5076C41.6385 50.2993 41.6134 50.8652 41.4372 51.1041C41.3366 51.255 41.1604 51.3808 41.0598 51.3808C40.9591 51.3808 40.8837 51.4311 40.8837 51.5065C40.8837 51.582 41.4875 51.6323 42.4563 51.6323C43.3244 51.6323 44.0289 51.5946 44.0289 51.5568C44.0289 51.5191 43.8905 51.3682 43.7144 51.2299L43.3999 50.991V43.9992L44.1296 43.974C45.0983 43.9489 45.5638 44.2381 45.7777 45.0052C46.1425 46.2879 45.3122 47.4951 44.1799 47.3316C43.8654 47.2813 43.8276 47.319 43.8779 47.5328C43.9157 47.6837 44.0038 47.8346 44.0918 47.8849C44.1673 47.9352 44.4692 48.3124 44.7586 48.7149C45.1612 49.2933 45.2367 49.4945 45.1235 49.6077C45.0102 49.7334 45.0102 49.746 45.1612 49.6831C45.2996 49.6328 45.589 49.9472 46.1425 50.7394C47.0987 52.085 48.2184 53.179 49.0236 53.5563C49.5142 53.7826 49.8539 53.8329 50.8856 53.8329C51.7662 53.8329 52.2317 53.7826 52.4582 53.6443L52.7727 53.4557L52.4582 53.4305C50.2691 53.1916 49.5646 52.6634 47.3126 49.5825L46.0419 47.8346L46.4948 47.5328C46.7338 47.3693 46.9729 47.231 47.0232 47.231C47.0735 47.231 47.2497 46.9543 47.4132 46.6148C47.6522 46.137 47.7026 45.8729 47.6522 45.3699C47.5768 44.5651 47.3251 44.1878 46.5829 43.7477C45.979 43.3956 45.979 43.3956 43.337 43.3578C40.9088 43.3327 40.7201 43.3453 41.0346 43.5213Z" fill="#B2836B"/>
<path d="M49.3129 43.4459C49.2123 43.5213 49.0991 43.5465 49.0487 43.5087C48.9355 43.4459 48.5581 44.2507 48.5581 44.5776C48.5581 44.9046 49.0865 45.4705 49.3758 45.4705C49.5394 45.4705 49.5268 45.395 49.2626 45.0806C48.8726 44.6154 48.86 44.5399 49.1746 44.2255C49.4639 43.9363 50.0552 43.798 50.7598 43.8609L51.263 43.8986V51.0287L50.9611 51.2676C50.8101 51.3934 50.6088 51.4688 50.5207 51.4185C50.4201 51.3682 50.4201 51.3808 50.5207 51.494C50.6591 51.6449 51.2127 51.6826 52.8985 51.6449C53.754 51.6323 53.7666 51.6197 53.515 51.4059C52.9866 50.991 52.9614 50.7646 52.9614 47.3693V44.0998L53.4269 43.7225L53.905 43.3327H51.7033C50.4956 43.3327 49.4136 43.383 49.3129 43.4459Z" fill="#B2836B"/>
<path d="M76.6515 43.5213C76.8402 43.6345 76.966 43.7728 76.9283 43.8357C76.878 43.9112 76.9031 43.9615 76.966 43.9615C77.0289 43.9615 77.0793 45.4076 77.0918 47.231C77.1044 49.0292 77.0918 50.5005 77.0541 50.5005C77.0163 50.5005 76.7647 50.2993 76.5005 50.0478C76.0979 49.6957 75.9721 49.4568 75.8463 48.8909C75.6702 48.0609 75.6324 47.9981 75.494 48.2244C75.4311 48.3125 75.4311 48.5388 75.494 48.7274C75.5569 48.9035 75.6576 49.2807 75.7331 49.5574C75.796 49.834 76.035 50.2616 76.2615 50.5005C76.4879 50.7395 76.6515 50.991 76.6389 51.0413C76.6263 51.1041 76.6515 51.1167 76.7144 51.079C76.8402 51.0035 77.7712 51.4437 77.6831 51.5317C77.6454 51.5568 78.4632 51.6071 79.4822 51.6197C81.1178 51.6449 81.4197 51.6197 82.0487 51.3808C83.2565 50.9407 83.9107 49.8969 83.6717 48.828C83.4452 47.8723 82.8665 47.3567 81.6965 47.0927L81.0423 46.9418L81.5707 46.5519C82.1494 46.1118 82.4891 45.3196 82.3381 44.7537C82.2752 44.4645 81.8097 43.9489 81.2436 43.5088C81.1429 43.4207 80.1742 43.3704 78.6896 43.3578C76.4754 43.3327 76.3244 43.3453 76.6515 43.5213ZM80.1113 44.1249C80.4132 44.3639 80.6397 44.9423 80.6397 45.4579C80.6397 46.1118 80.1742 46.6777 79.4696 46.8663C79.0167 46.9921 78.979 47.0298 79.1929 47.1178C79.3313 47.1681 79.7087 47.2561 80.0484 47.2939C80.3755 47.3316 80.6397 47.4322 80.6397 47.4951C80.6397 47.5705 80.69 47.5957 80.7529 47.5454C80.9542 47.4196 81.7971 48.2496 81.7342 48.5137C81.6965 48.6394 81.7216 48.7149 81.7846 48.6646C81.9984 48.5388 81.8978 49.6831 81.6587 50.1233C81.2561 50.8904 80.0484 51.3305 79.218 51.0161L78.9287 50.9029L78.9035 47.4699C78.8783 44.8669 78.9035 44.0243 79.0293 43.9489C79.2054 43.8357 79.8848 43.9489 80.1113 44.1249Z" fill="#B2836B"/>
<path d="M84.2882 43.4962C83.4452 43.7854 83.3194 44.9172 84.0617 45.3447C84.3511 45.4956 84.4266 45.5082 84.565 45.3573C84.6656 45.2441 84.6782 45.2064 84.5775 45.2693C84.414 45.3573 83.9107 44.8794 83.9107 44.6279C83.9107 44.5273 83.9611 44.4896 84.0366 44.5273C84.0995 44.5651 84.1246 44.5273 84.0869 44.4267C84.0114 44.213 84.3511 43.9112 84.5398 44.0243C84.6027 44.0621 84.6656 44.0369 84.6656 43.974C84.6656 43.886 84.9676 43.8357 85.4205 43.8357H86.1753V50.991L85.7727 51.3053L85.3576 51.6323H88.7419L88.3393 51.2802L87.9367 50.9407L87.9618 47.3567C87.9996 43.7728 87.9996 43.7728 88.2889 43.6471C88.4399 43.5842 88.5657 43.4836 88.5657 43.4333C88.5657 43.2698 84.7788 43.3327 84.2882 43.4962Z" fill="#B2836B"/>
<path d="M26.9187 61.4535C26.9187 61.7175 28.2901 64.4715 28.9946 65.6158C30.2401 67.6279 32.1902 70.08 33.5615 71.3627C33.8257 71.6016 34.3164 72.0669 34.6812 72.4064C37.3484 74.9089 41.2988 77.361 44.5951 78.5682C47.149 79.4988 50.2691 80.2659 52.5211 80.5174C54.207 80.706 59.3274 80.618 60.6988 80.3665C67.8196 79.1215 73.4559 76.2167 78.3751 71.2621C80.8284 68.7973 82.7533 66.144 84.2756 63.1008C84.9927 61.6924 85.0934 61.3151 84.7914 61.3151C84.7411 61.3151 84.3637 61.9565 83.9737 62.7236C81.5204 67.5776 78.5135 71.1363 74.1982 74.3304C73.4559 74.8711 72.5753 75.4747 72.2481 75.6508C71.921 75.8394 71.2542 76.2167 70.7636 76.4807C68.6751 77.6754 65.5425 78.8449 62.6362 79.5365C61.1391 79.8886 59.3526 80.0772 56.9119 80.1401C52.3953 80.2533 48.9229 79.7 44.9977 78.2161C42.104 77.1221 39.8898 75.8897 37.1094 73.84C36.3419 73.2741 33.4231 70.6962 33.0205 70.2309C30.6175 67.4392 29.1959 65.3517 28.0133 62.9247C27.5855 62.0319 27.1578 61.3151 27.0823 61.3151C26.9942 61.3151 26.9187 61.378 26.9187 61.4535Z" fill="#B2836B"/>
<path d="M32.1524 76.0532C32.2028 76.3173 32.0769 77.0592 31.8253 78.0401C31.234 80.3413 31.2592 80.2281 31.4605 80.1527C31.5611 80.1024 31.9637 79.9263 32.3663 79.7503L33.0834 79.4233V79.7125C33.0708 79.8634 32.9954 80.3287 32.8947 80.7437C32.7941 81.1461 32.7312 81.5108 32.7563 81.5359C32.7815 81.5485 33.5489 81.1964 34.4799 80.7311C35.3983 80.2784 36.3671 79.8634 36.6313 79.8383C37.21 79.7503 37.2352 79.5742 36.6816 79.2221C36.2916 78.9706 36.279 78.9706 36.279 79.197C36.2916 79.373 35.9771 79.5994 35.0586 80.0772C34.3793 80.4293 33.8005 80.6934 33.7754 80.6683C33.7502 80.6431 33.7628 80.3413 33.8005 80.0144C33.876 79.4233 33.8886 79.3982 34.6057 79.0335C35.0083 78.8323 35.4738 78.6688 35.6248 78.6688H35.9016L35.6122 78.3796C35.3983 78.191 35.2977 78.1532 35.2599 78.2664C35.197 78.4299 34.3289 78.9203 34.1025 78.9203C34.0018 78.9203 34.0899 78.5053 34.3667 77.8137C34.3919 77.7634 34.4422 77.7383 34.5051 77.7508C34.7819 77.8514 34.5302 77.5245 34.0899 77.2352C33.5363 76.8706 33.3602 76.8203 33.5867 77.0969C33.6999 77.2352 33.6999 77.4364 33.5363 78.0526C33.335 78.8826 33.0205 79.3479 32.7437 79.2347C32.6431 79.2095 32.5928 79.2221 32.6305 79.2724C32.6557 79.3227 32.5424 79.4233 32.3789 79.5113C32.2153 79.5868 32.0769 79.5994 32.0769 79.5491C32.0769 79.4862 32.2908 78.7946 32.5424 78.0149C32.8066 77.2352 33.0205 76.5562 33.0205 76.5185C33.0205 76.4807 32.8066 76.267 32.555 76.0406L32.0895 75.6382L32.1524 76.0532Z" fill="#B2836B"/>
<path d="M77.2931 76.8957C76.4502 77.4113 76.2363 78.2538 76.8025 78.7946C77.1799 79.1467 77.7586 79.1844 78.6393 78.9203C79.3438 78.7191 79.8471 78.8323 80.0358 79.2473C80.1616 79.5239 80.1365 79.5994 79.8093 79.9389C79.2684 80.4796 78.7148 80.6054 78.3122 80.2784C77.8844 79.9389 77.8215 80.0269 78.1864 80.4796C78.438 80.794 78.5261 80.8317 78.9287 80.7563C79.5326 80.6431 80.2245 80.0144 80.3881 79.4485C80.4887 79.0838 80.4636 78.9203 80.2874 78.6059C79.9603 78.0526 79.3438 77.9269 78.3122 78.2035C77.3435 78.4676 76.8654 78.3544 76.8654 77.864C76.8654 77.3736 77.4441 76.9963 78.0983 77.0718C78.6267 77.1221 78.6267 77.1221 78.4254 76.8957C78.1487 76.5939 77.7838 76.5939 77.2931 76.8957Z" fill="#B2836B"/>
<path d="M72.9275 79.9515C72.3614 80.1024 71.7575 80.6431 71.6317 81.1084C71.4304 81.9509 72.1349 82.4414 73.5817 82.4414C74.2108 82.4414 74.5127 82.4917 74.6511 82.6426C75.0537 83.0324 74.8524 83.5228 74.1856 83.8246C73.6446 84.0635 73.2043 83.9881 72.8772 83.5857C72.6256 83.2965 72.5878 83.4725 72.8017 83.9252C72.9527 84.2396 73.0785 84.3276 73.3553 84.3276C74.2359 84.3276 75.2299 83.5605 75.2299 82.8689C75.2299 82.3533 75.016 81.8503 74.7392 81.7497C74.626 81.6994 74.0724 81.6491 73.4937 81.624C72.3865 81.5737 72.0846 81.4479 72.0846 80.9952C72.0846 80.3665 73.003 80.0898 73.7579 80.4922C73.9592 80.5928 74.0976 80.6305 74.0724 80.5802C73.6446 79.7 73.7075 79.7503 72.9275 79.9515Z" fill="#B2836B"/>
<path d="M39.311 80.706C39.3614 80.8946 39.1601 81.4605 38.6946 82.4288C37.9523 84.0007 37.6881 84.3779 37.4113 84.2773C37.3106 84.2396 37.2352 84.227 37.2352 84.2647C37.2352 84.3402 40.3804 85.8744 40.4182 85.8241C40.4559 85.7863 40.6572 85.3588 40.8585 84.9061C40.8962 84.8432 40.7453 84.9312 40.5314 85.0821C40.2043 85.3336 40.1036 85.3462 39.7388 85.2205C39.4997 85.1324 39.1475 84.9312 38.9336 84.7678L38.5562 84.4659L38.921 83.7617C39.1097 83.3845 39.2985 83.0701 39.3236 83.0701C39.4872 83.0701 40.4056 83.7366 40.4685 83.8875C40.5566 84.1516 40.7579 84.1264 40.7579 83.8498C40.7579 83.724 40.8208 83.5605 40.9088 83.4725C40.9843 83.3971 41.0221 83.2839 40.9717 83.2336C40.9214 83.1833 40.8208 83.2084 40.7327 83.2965C40.632 83.3971 40.4433 83.3468 39.9778 83.1204L39.3739 82.806L39.7765 82.0641C40.003 81.6491 40.2546 81.3096 40.3175 81.3096C40.393 81.3096 40.7327 81.4982 41.0724 81.7246C41.5882 82.0515 41.714 82.215 41.7643 82.5671L41.8272 83.0072L42.0663 82.4665C42.2047 82.1773 42.2802 81.9132 42.255 81.888C42.2298 81.8629 41.865 81.6868 41.4498 81.5108C41.0346 81.3222 40.3678 80.9952 39.9652 80.794C39.2481 80.4168 39.2355 80.4168 39.311 80.706Z" fill="#B2836B"/>
<path d="M66.6118 82.8186C65.857 83.0827 65.0895 83.309 64.9134 83.3216C64.624 83.3342 64.6366 83.3593 65.0266 83.4977C65.4418 83.6486 65.5047 83.7492 66.008 85.0947C66.5741 86.6414 66.637 86.9558 66.398 87.2073C66.2596 87.3582 66.2847 87.3708 66.486 87.2954C66.6244 87.245 67.329 87.0061 68.0587 86.7672C69.7194 86.2265 69.7194 86.2265 69.6187 85.736C69.5181 85.2708 69.3168 85.1953 69.3168 85.6229C69.3168 85.7989 69.2035 85.975 69.04 86.063C68.65 86.2642 67.6938 86.5911 67.4925 86.5911C67.329 86.5911 67.1151 86.1384 66.9893 85.5097C66.9138 85.1324 66.939 85.1073 67.3919 85.0067C67.9329 84.8935 68.0335 84.8935 68.348 85.0193C68.5493 85.1073 68.5619 85.0696 68.4864 84.7552C68.3355 84.0887 68.2474 84.0132 67.9706 84.3151C67.8322 84.466 67.6058 84.6169 67.4799 84.642C67.3541 84.6672 67.1277 84.73 66.9893 84.7678C66.7754 84.8306 66.6999 84.73 66.4735 84.0887L66.2093 83.3342L66.5615 83.1959C67.3667 82.8563 67.8196 82.8312 68.0964 83.0827C68.2348 83.2084 68.3858 83.2965 68.4109 83.2587C68.4613 83.2084 68.0838 82.2904 68.0209 82.3282C68.0083 82.3407 67.3793 82.5671 66.6118 82.8186Z" fill="#B2836B"/>
<path d="M45.4254 83.3468C45.6393 83.5228 45.6267 83.6737 45.0983 85.3965C44.7209 86.654 44.6454 86.8301 44.3686 86.9181C44.0163 87.0313 44.205 87.1193 45.7903 87.5846C46.52 87.8109 47.1993 88.0121 47.3126 88.0499C47.4635 88.0876 47.5768 87.9618 47.7277 87.5972C48.0045 86.9055 47.9794 86.8552 47.6145 87.2576C47.4384 87.4463 47.1993 87.5972 47.0987 87.5972C46.7842 87.5972 45.7399 87.3205 45.5764 87.1948C45.4254 87.0816 45.5386 86.566 46.0041 85.2079C46.3941 84.0635 46.4571 83.9378 46.7716 83.7743C47.0987 83.6108 47.0861 83.5983 46.4696 83.4599C46.1299 83.3845 45.7148 83.2965 45.5386 83.2462C45.2619 83.1833 45.2493 83.1959 45.4254 83.3468Z" fill="#B2836B"/>
<path d="M61.7682 84.0761C61.6675 84.139 61.3656 84.2019 61.1139 84.2019C60.8497 84.2019 60.6359 84.2522 60.6359 84.3276C60.6359 84.3905 60.7491 84.4534 60.8749 84.4534C61.0385 84.4534 61.1643 84.5917 61.2523 84.8558C61.4536 85.5097 61.6675 86.7295 61.6046 86.8049C61.5165 86.893 60.6359 86.2768 59.5287 85.3462C58.6355 84.5791 58.5977 84.5666 58.0442 84.6546C57.5283 84.73 57.2516 84.9564 57.6793 84.9564C57.9687 84.9564 58.0693 85.2959 58.2455 86.893C58.409 88.2888 58.3964 88.402 58.1951 88.5529C58.0064 88.6912 58.0567 88.7038 58.6103 88.6786C59.3274 88.6409 59.5287 88.5403 59.101 88.4397C58.8368 88.3642 58.7864 88.2385 58.5852 86.9558C58.4719 86.1762 58.3964 85.5223 58.409 85.4971C58.4342 85.4845 58.8494 85.7863 59.3274 86.1887C61.6801 88.1379 62.2336 88.4523 62.0953 87.7481C62.0575 87.5594 61.9443 86.7924 61.8311 86.0378L61.6172 84.6797L61.9694 84.3151C62.3091 83.9504 62.1833 83.812 61.7682 84.0761Z" fill="#B2836B"/>
<path d="M51.4769 84.6546C51.6782 84.8809 51.6908 85.0444 51.5775 86.1636C51.5146 86.8426 51.4517 87.5594 51.4517 87.7481C51.4517 87.9493 51.3385 88.2133 51.2001 88.3517C51.0617 88.49 50.9611 88.6032 50.9862 88.6032C50.9988 88.6032 51.6404 88.6912 52.3953 88.7918C54.207 89.0307 54.1818 89.0433 54.2699 88.6283C54.3202 88.4397 54.3957 88.1756 54.4334 88.0373C54.4837 87.8361 54.3957 87.8738 54.056 88.2008C53.6408 88.6157 53.5905 88.6157 52.9111 88.5403L52.2066 88.4523V87.987C52.2066 87.3834 52.5337 85.145 52.6343 84.969C52.6847 84.8935 52.8105 84.8306 52.9111 84.8306C53.0118 84.8306 53.0872 84.7678 53.0872 84.7049C53.0872 84.6294 52.7853 84.5791 52.4079 84.5791C52.0304 84.5791 51.6153 84.5414 51.4895 84.4911C51.2756 84.4156 51.2756 84.4282 51.4769 84.6546Z" fill="#B2836B"/>
</svg>
