<svg width="180" height="100" viewBox="0 0 180 100" fill="none" xmlns="http://www.w3.org/2000/svg">
<path fill-rule="evenodd" clip-rule="evenodd" d="M137.163 13.237C136.983 13.3874 136.744 13.7122 136.632 13.9587C136.52 14.2053 136.383 14.407 136.328 14.407C136.273 14.407 136.08 14.2462 135.9 14.0498C135.635 13.7624 135.535 13.7156 135.384 13.8101C135.121 13.9752 135.009 14.4794 135.093 15.1211L135.165 15.6697L134.806 15.3694C134.608 15.2042 134.379 15.0691 134.296 15.0691C134.088 15.0691 133.985 15.4556 134.071 15.9141C134.143 16.2945 134.14 16.2982 133.78 16.2632C133.304 16.2167 133.109 16.5677 133.235 17.2438C133.311 17.6504 133.29 17.7385 133.06 17.9526C132.613 18.3702 132.8 19.1856 133.471 19.7472C133.821 20.0398 133.83 20.0631 133.625 20.1763C133.17 20.4284 132.267 21.3798 131.973 21.9165C131.804 22.2246 131.688 22.4988 131.715 22.5259C131.743 22.5528 132.01 22.4673 132.309 22.3357C133.057 22.0068 133.873 21.8027 134.445 21.8011L134.925 21.7998L134.568 22.1551C133.853 22.8651 133.709 23.8524 134.175 24.8471C134.92 26.4352 136.679 26.4742 137.124 24.9124C137.291 24.3293 137.395 25.4095 137.258 26.2894C136.957 28.2146 136.251 29.6167 134.412 31.946C130.701 36.6478 129.233 40.8189 129.844 44.9318C130.063 46.4026 130.317 47.2256 130.972 48.5768C132.255 51.223 134.176 53.4236 136.297 54.675C141.353 57.658 146.742 58.2594 150.816 56.2954C151.379 56.0238 151.956 55.7084 152.097 55.5943C152.352 55.3885 152.342 55.3867 150.987 55.389C146.263 55.3971 142.996 53.3019 141.99 49.6206C141.664 48.4248 141.667 46.0516 141.997 44.8297C142.568 42.7161 144.122 40.2857 146.046 38.4963C146.876 37.7252 147.526 37.2605 148.564 36.6973L149.286 36.3056L149.422 35.6456C149.64 34.5791 149.764 31.809 149.661 30.3012C149.189 23.4262 145.352 17.3667 140.898 16.4639L140.187 16.3198L140.629 16.2473C140.871 16.2074 141.207 16.1743 141.375 16.1737C141.667 16.1726 141.681 16.1476 141.681 15.633C141.681 14.7988 141.284 14.4475 140.596 14.672C140.38 14.7424 140.32 14.6981 140.181 14.3661C140.091 14.1526 139.932 13.9303 139.828 13.8724C139.614 13.7532 139.184 13.8802 138.882 14.1522C138.606 14.4002 138.413 14.2764 138.056 13.6219C137.882 13.3031 137.683 13.0244 137.614 13.0028C137.546 12.9812 137.342 13.0866 137.163 13.237ZM155.476 19.7576C155.157 19.9863 155.162 20.1701 155.511 21.0246C156.481 23.3966 156.913 26.1945 156.691 28.6693C156.484 30.9877 156.138 32.323 155.274 34.1452C155.003 34.7146 154.782 35.1941 154.782 35.2106C154.782 35.2272 155.014 35.3191 155.297 35.4151C157.546 36.1766 158.69 38.2021 158.527 41.1366C158.494 41.7285 158.489 42.2128 158.515 42.2128C158.66 42.2128 159.504 39.6375 159.824 38.2175C160.399 35.6684 160.496 34.7291 160.498 31.7305C160.5 28.7884 160.416 28.0477 159.905 26.5073C159.791 26.1636 159.736 25.8824 159.784 25.8824C159.896 25.8824 160.712 26.8007 161.114 27.3786C161.964 28.6002 162.697 30.4651 163.128 32.5029C163.453 34.0402 163.53 37.7455 163.282 39.8873C162.719 44.7323 161.269 48.8407 159.141 51.6194C158.595 52.333 158.586 52.3275 159.862 52.087C162.403 51.6079 164.961 50.1886 166.273 48.5297C167.086 47.5005 167.818 45.9308 168.15 44.5024C168.232 44.1527 168.046 44.0852 167.937 44.425C167.837 44.7405 166.025 46.602 165.371 47.0615L164.83 47.4414L165.506 46.7857C167.22 45.1211 168.466 42.7763 168.932 40.338C169.111 39.3977 169.156 37.1412 169.003 36.7517C168.924 36.5494 168.902 36.559 168.74 36.8715C168.517 37.2989 167.545 38.4924 167.475 38.4233C167.447 38.3949 167.555 38.1647 167.716 37.9115C168.556 36.5884 169.025 34.5812 168.801 33.2602C168.661 32.432 168.287 31.4002 168 31.0471L167.795 30.7961L167.663 31.2909C167.521 31.82 167.116 32.6132 166.988 32.6132C166.945 32.6132 166.982 32.4064 167.07 32.1536C167.285 31.5338 167.381 29.7202 167.239 28.972C167.063 28.042 166.705 27.1906 166.189 26.4762L165.721 25.8273L165.637 26.4853C165.592 26.8474 165.475 27.3805 165.378 27.6703C165.172 28.287 164.933 28.5212 165.05 27.9916C165.196 27.3273 165.141 25.947 164.939 25.2385C164.715 24.4495 164.111 23.4576 163.466 22.8167C163.056 22.4085 162.089 21.6895 161.951 21.6895C161.915 21.6895 161.918 22.0305 161.958 22.4475C161.996 22.8644 161.992 23.4964 161.947 23.8519L161.866 24.4983L161.722 24.0818C161.498 23.4346 161.093 22.8966 160.065 21.8796C158.624 20.4537 157.518 19.8037 156.267 19.6466C155.861 19.5958 155.663 19.6235 155.476 19.7576ZM161.189 30.3692C161.342 32.6261 161.281 36.0628 161.065 37.413C160.152 43.1247 157.542 48.3704 154.172 51.2723C152.222 52.951 150.591 53.7253 148.659 53.8908L147.732 53.9701L148.379 54.217C150.179 54.9041 152.417 54.6993 154.616 53.6464C157.061 52.4753 158.804 50.5484 160.379 47.2758C161.407 45.1384 162.114 42.7764 162.571 39.9508C162.76 38.7832 162.76 34.6032 162.57 33.4408C162.286 31.6958 161.539 29.3321 161.206 29.128C161.14 29.087 161.133 29.5457 161.189 30.3692ZM152.599 36.8124C151.448 36.9615 149.855 37.7949 148.215 39.1064C145.663 41.1473 143.457 44.9946 143.457 47.4041C143.457 49.1109 144.471 50.9709 145.883 51.857C146.993 52.5536 148.657 52.7788 150.042 52.4202C152.8 51.7063 154.98 48.9092 156.057 44.7005C156.536 42.8294 156.708 41.5092 156.649 40.1599C156.609 39.2546 156.55 38.9715 156.307 38.5023C155.985 37.8812 155.476 37.3231 155.02 37.0921C154.718 36.9389 153.653 36.685 153.417 36.7098C153.343 36.7175 152.975 36.7637 152.599 36.8124ZM128.135 50.3504C128.136 50.396 128.51 50.8954 128.968 51.4605C129.426 52.0254 129.801 52.524 129.801 52.5684C129.801 52.6128 129.411 52.4614 128.935 52.2321C128.459 52.0027 127.677 51.7151 127.197 51.5931C126.368 51.3825 124.915 51.2876 124.915 51.444C124.915 51.5407 125.408 51.9795 126.72 53.05C127.637 53.7989 127.956 54.1296 127.762 54.1296C127.74 54.1296 127.392 53.9809 126.988 53.7991C125.207 52.9964 123.36 52.662 122.338 52.9571C121.743 53.129 120.825 53.7359 120.813 53.9651C120.806 54.1024 121.059 54.2673 122.195 54.8678C122.684 55.1258 122.995 55.3384 122.886 55.3402C122.425 55.3477 120.03 56.8132 120.03 57.0876C120.03 57.1297 120.792 57.1655 121.723 57.1674C123.022 57.1699 123.585 57.2179 124.138 57.3733C125.504 57.7566 125.47 57.7697 124.883 57.0861L124.359 56.4769L125.436 56.9074C126.028 57.1442 126.94 57.4565 127.462 57.6013C128.539 57.8994 130.398 58.2534 130.577 58.1942C130.642 58.1726 130.394 57.7646 130.026 57.2874C129.258 56.2926 129.168 56.0309 129.782 56.582C130.799 57.4957 132.275 57.9326 134.073 57.8526C135.261 57.7998 137.018 57.4863 137.018 57.3272C137.018 57.2839 136.829 57.1248 136.6 56.9736C135.871 56.4947 134.932 55.5734 133.882 54.308C132.588 52.7478 131.728 51.919 130.72 51.2572C129.709 50.595 128.134 50.0422 128.135 50.3504ZM165.719 51.0816C165.169 51.3446 164.402 51.8029 164.014 52.0999C163.626 52.3969 163.127 52.7807 162.904 52.9526L162.499 53.2653L162.464 52.9859C162.445 52.8323 162.481 52.5207 162.545 52.2933C162.608 52.066 162.63 51.8524 162.594 51.8186C162.559 51.7849 162.324 52.0056 162.073 52.309C161.366 53.1642 160.083 54.4129 159.719 54.5993C159.538 54.6919 159.123 54.8464 158.796 54.9425L158.202 55.1173L158.393 54.8165C158.497 54.6511 158.765 54.359 158.987 54.1675C159.208 53.9759 159.353 53.7817 159.307 53.736C159.185 53.6128 158.102 53.881 157.485 54.1872C157.189 54.3342 156.548 54.7803 156.059 55.1785C155.185 55.8906 153.401 56.8881 153.001 56.8881C152.889 56.8881 152.766 56.9372 152.729 56.9971C152.686 57.0655 152.839 57.0853 153.139 57.0503C155.311 56.7964 156.385 56.6438 156.618 56.5557C156.922 56.4407 156.983 56.5655 156.725 56.7778C156.236 57.1816 156.795 57.2113 157.725 56.8309C158.091 56.6808 158.427 56.5579 158.471 56.5577C158.515 56.5573 158.522 56.7044 158.486 56.8845L158.42 57.2119L159.016 57.1504C160.277 57.0205 161.475 56.604 162.349 55.9913C162.746 55.7131 162.792 55.7304 162.604 56.0882C162.423 56.4334 162.405 56.657 162.541 56.8708C162.617 56.9904 162.869 56.9448 163.844 56.6341C164.509 56.4225 165.739 56.0624 166.579 55.8341C167.419 55.6059 168.106 55.3819 168.106 55.3364C168.106 55.2207 167.1 54.571 166.921 54.571C166.661 54.571 166.76 54.417 167.334 53.9256C167.643 53.6617 167.876 53.3899 167.853 53.3215C167.805 53.177 167.044 53.205 166.387 53.3753C166.143 53.4383 165.478 53.7065 164.908 53.9712L163.872 54.4525L164.415 53.8221C164.714 53.4754 165.243 52.8055 165.591 52.3335C165.939 51.8616 166.404 51.2781 166.623 51.037C166.848 50.7896 166.955 50.5997 166.87 50.6009C166.786 50.6022 166.268 50.8185 165.719 51.0816ZM108.644 53.7369C107.078 54.1734 106.142 54.7158 104.84 55.9427C103.22 57.4699 102.009 59.6542 100.738 63.343L100.433 64.2258L99.1057 64.2809L97.778 64.3361L97.6905 64.7775C97.6424 65.0202 97.5769 65.3306 97.545 65.4671C97.4873 65.7136 97.4958 65.7154 98.78 65.7154H100.073L99.9995 66.1843C99.8749 66.9776 98.1797 74.3369 97.4814 77.1161C96.4186 81.3465 95.6118 83.5273 94.7076 84.6144C94.1299 85.309 93.0428 85.7048 92.7465 85.3284C92.6868 85.2526 92.5769 84.9422 92.5024 84.6388C92.2304 83.5306 91.7088 83.0388 90.8054 83.0388C90.0792 83.0388 89.6051 83.3471 89.2355 84.0599C88.9693 84.5731 88.9312 84.7462 88.9981 85.1398C89.1102 85.7986 89.7756 86.4916 90.5899 86.7976C91.4098 87.1057 93.0111 87.0552 93.9177 86.6929C95.945 85.8824 98.1893 83.4824 99.5416 80.6784C100.64 78.4009 101.277 76.4386 102.719 70.8831C103.265 68.7793 103.801 66.7683 103.909 66.4143L104.106 65.7705L105.655 65.7154L107.205 65.6602L107.275 65.3292C107.315 65.1471 107.352 64.8368 107.36 64.6395L107.373 64.2809H105.937H104.502L104.876 62.8741C106.052 58.4562 107.452 55.7248 108.657 55.5003C108.891 55.4566 109.151 55.4706 109.25 55.5324C109.346 55.5929 109.528 56.0096 109.654 56.4583C109.952 57.5202 110.169 57.8284 110.78 58.0606C111.714 58.4151 112.722 57.9474 113.301 56.8905C113.565 56.4078 113.608 56.2199 113.567 55.7267C113.5 54.9281 113.127 54.4634 112.181 54.0003C111.511 53.6725 111.329 53.6343 110.321 53.6088C109.612 53.5909 109 53.6376 108.644 53.7369ZM15.0773 56.1824C15.0327 56.2266 14.9963 56.4736 14.9963 56.7311V57.1993L15.9678 57.2773C17.6107 57.4091 17.9584 57.6733 17.8286 58.6908C17.7389 59.3933 17.0567 62.0514 15.2754 68.6394C14.5207 71.431 13.7976 74.1604 13.6687 74.7047C13.4023 75.8305 13.0169 76.5666 12.5749 76.7937C12.408 76.8794 11.8148 76.9851 11.2566 77.0285L10.2416 77.1074L10.1208 77.5842C10.0544 77.8463 10 78.1133 10 78.1776C10 78.2582 12.0129 78.2941 16.523 78.2937C23.5648 78.2933 24.2219 78.2513 25.8739 77.6958C27.4196 77.1761 28.6993 76.0783 29.4037 74.6679C29.7627 73.9491 29.8147 73.7382 29.8542 72.8423C29.9311 71.0944 29.4075 69.6391 28.3219 68.5842C27.7028 67.9826 26.547 67.3216 25.8837 67.1897C25.697 67.1526 25.5441 67.0848 25.5441 67.0391C25.5441 66.9933 25.8685 66.8749 26.2649 66.776C29.3522 66.0053 31.6442 63.4606 31.6494 60.7977C31.6537 58.6178 30.2063 57.0414 27.5981 56.385C26.9158 56.2132 26.1099 56.1839 20.9896 56.1456C17.7824 56.1216 15.1219 56.1381 15.0773 56.1824ZM25.4331 57.5962C26.2153 57.8837 26.7084 58.2829 27.0515 58.9065C27.3225 59.3986 27.3742 59.6326 27.4118 60.5352C27.5083 62.855 26.591 64.6338 24.8164 65.5676C23.7863 66.1096 23.0766 66.2738 21.4509 66.3457C20.0276 66.4089 19.9693 66.4029 20.0303 66.2014C20.1773 65.7149 20.9123 62.7174 21.4888 60.2535C21.9169 58.4236 22.1674 57.5598 22.2996 57.4578C22.5673 57.2511 24.7578 57.3479 25.4331 57.5962ZM114.524 63.9533C113.342 64.1862 112.011 65.0625 110.426 66.6525C108.674 68.4094 107.49 70.4425 106.76 72.9427C105.674 76.6688 107.082 79.1843 109.7 78.1956C110.922 77.7342 112.789 76.0496 114.054 74.2668C114.713 73.3387 115.367 72.643 115.367 72.8702C115.367 72.9441 115.248 73.2885 115.102 73.6356C114.615 74.796 113.923 77.0661 113.923 77.5049C113.923 77.7679 114.007 78.0413 114.136 78.1992C114.324 78.4301 114.441 78.4597 115.163 78.4594C115.871 78.459 116.089 78.4063 116.831 78.0545C118.257 77.3781 119.559 76.263 120.471 74.9369L120.845 74.3933L120.469 74.0811L120.092 73.7688L119.815 74.1282C119.245 74.8667 118.203 75.875 117.944 75.9399C117.593 76.0272 117.452 75.8104 117.54 75.3163C117.612 74.9022 118.501 71.9872 119.65 68.3917C120.043 67.1631 120.507 65.6363 120.681 64.9987L120.998 63.8396H119.48H117.961L117.643 64.5016C117.468 64.8657 117.309 65.1637 117.29 65.1637C117.271 65.1637 117.017 64.9204 116.727 64.623C116.031 63.9094 115.526 63.7559 114.524 63.9533ZM126.806 64.0112C126.036 64.2235 125.47 64.557 124.671 65.2693C124.039 65.8324 122.362 67.7452 122.362 67.9021C122.362 67.9477 122.508 68.0711 122.688 68.1764L123.014 68.368L123.944 67.4312C125.304 66.0613 125.915 65.8813 125.915 66.8503C125.915 67.2588 123.618 75.4272 122.989 77.2577L122.719 78.0418L123.789 78.1122C124.378 78.151 125.167 78.183 125.543 78.1833L126.226 78.1839L126.363 77.6046C126.94 75.1716 129.06 70.1323 130.107 68.7039C130.586 68.0513 131.39 67.2601 131.576 67.2601C131.671 67.2601 132.007 67.4527 132.322 67.6879C133.308 68.4237 134.139 68.3892 134.833 67.584C136.069 66.1483 135.424 63.9499 133.766 63.9499C132.145 63.9499 130.699 65.515 128.578 69.5675C128.321 70.0584 128.073 70.46 128.027 70.46C127.981 70.46 128.114 70.0113 128.321 69.4629C128.788 68.2277 129.206 66.6483 129.302 65.7605C129.385 64.9846 129.199 64.3998 128.783 64.1307C128.385 63.8736 127.499 63.8199 126.806 64.0112ZM140.865 63.9553C139.703 64.1491 138.598 64.8208 137.397 66.0645C136.608 66.8817 135.907 67.7075 135.907 67.8208C135.907 67.8646 136.076 67.9993 136.282 68.1204L136.657 68.3403L137.524 67.4743C138.422 66.5764 138.812 66.3335 139.255 66.396C139.589 66.443 139.655 66.8959 139.419 67.5244C139.325 67.7736 138.599 69.7478 137.805 71.9117C136.608 75.173 135.99 76.7874 135.498 77.9356C135.453 78.0425 135.826 78.0735 137.159 78.0735H138.88L139.07 77.4942C140.018 74.6074 141.592 71.6669 143.39 69.4234C145.438 66.8661 146.737 65.8854 147.124 66.6037C147.318 66.9628 147.017 68.136 146.01 70.9599C145.512 72.3539 144.837 74.2682 144.509 75.214C144.181 76.1599 143.811 77.1901 143.687 77.5036L143.46 78.0735L145.097 78.0733L146.733 78.0731L147.155 76.7768C148.222 73.5013 150.666 69.624 153.1 67.3451C154.189 66.3261 154.782 66.1997 154.782 66.9866C154.782 67.2041 154.111 69.4102 153.29 71.8891C152.47 74.3681 151.766 76.5718 151.725 76.7864C151.633 77.2721 151.835 77.9088 152.151 78.1284C152.456 78.3408 153.359 78.3422 154.068 78.1314C154.93 77.8751 156.274 77.0285 157.189 76.1653C157.975 75.4232 158.676 74.5625 158.662 74.3572C158.659 74.3075 158.507 74.1501 158.326 74.0076L157.996 73.7483L157.752 74.0627C156.908 75.1522 155.935 75.977 155.495 75.977C155.172 75.977 155.36 75.1966 156.279 72.722C158.1 67.8193 158.374 66.9499 158.383 66.0464C158.397 64.61 157.811 64.0108 156.392 64.011C155.753 64.0112 155.497 64.0694 154.953 64.3392C153.762 64.9292 151.529 67.2582 149.577 69.9456C149.195 70.4713 148.86 70.9014 148.833 70.9014C148.806 70.9014 148.866 70.7152 148.966 70.4876C149.963 68.2282 150.452 66.5926 150.452 65.5161C150.452 64.8391 150.432 64.7871 150.021 64.3783C149.615 63.9746 149.551 63.9499 148.915 63.9499C147.623 63.9499 146.456 64.6034 144.827 66.2387C143.916 67.153 142.526 68.8336 141.789 69.9117C141.542 70.274 141.32 70.5704 141.295 70.5704C141.271 70.5704 141.572 69.7962 141.964 68.8499C142.851 66.7105 143.124 65.8414 143.124 65.1581C143.124 64.4925 142.812 64.0917 142.18 63.9468C141.676 63.8311 141.607 63.8315 140.865 63.9553ZM165.555 64.2302C163.077 64.9203 161.677 67.4297 162.445 69.8034C162.584 70.233 163.092 71.2384 163.573 72.0376C164.455 73.5006 164.886 74.5673 164.886 75.2862C164.886 76.299 164.359 77.0533 163.579 77.1572C163.008 77.2334 162.74 76.9829 162.495 76.1456C162.269 75.3749 161.884 74.9142 161.325 74.7478C160.729 74.5703 160.124 74.7602 159.678 75.265C159.207 75.798 159.196 76.512 159.649 77.1822C160.224 78.032 161.17 78.4151 162.723 78.4265C164.361 78.4385 165.591 77.9936 166.674 76.9969C167.595 76.1491 167.918 75.4426 167.975 74.1509C168.042 72.6349 167.744 71.7707 166.484 69.8305C165.568 68.4194 165.307 67.842 165.247 67.0965C165.183 66.3126 165.389 65.7163 165.82 65.436C166.329 65.1041 166.623 65.286 167.038 66.1906C167.513 67.2278 167.934 67.5912 168.658 67.5912C169.13 67.5912 169.233 67.5458 169.532 67.2073C170.396 66.2293 170.039 65.0741 168.661 64.3865C168.007 64.0604 166.446 63.9818 165.555 64.2302ZM64.0158 64.3255C62.6377 64.7605 61.0668 65.9268 59.711 67.5215L59.2543 68.0587L59.6332 68.3661L60.0122 68.6734L60.9818 67.7563C61.9772 66.815 62.5206 66.5197 63.0262 66.6459C63.4719 66.757 63.57 67.1294 63.3513 67.8814C63.1556 68.554 61.0798 74.3972 60.2283 76.6719C59.9604 77.3877 59.7411 78.0222 59.7411 78.0817C59.7411 78.1487 60.3557 78.1781 61.3583 78.1592L62.9755 78.1287L63.455 76.9112C64.8333 73.4116 66.7379 70.4471 69.1695 68.0168C70.475 66.7121 70.9737 66.4418 71.6007 66.6999C72.1215 66.9143 72.2376 67.2474 72.0827 68.0827C71.96 68.7447 70.2342 73.979 69.1918 76.8507C68.9402 77.5437 68.7345 78.127 68.7345 78.1472C68.7345 78.1674 69.4964 78.1831 70.4277 78.1822L72.1209 78.1805L72.4376 77.1615C73.1157 74.9793 74.342 72.6513 75.9119 70.5656C76.9238 69.2211 78.6578 67.3997 79.3753 66.9273C80.2706 66.338 80.9477 66.5632 80.9477 67.4503C80.9477 68.0408 80.7237 68.739 79.2045 72.8829C77.7111 76.956 77.6042 77.478 78.1417 78.0757C78.4331 78.3999 78.5517 78.449 79.1481 78.4918C80.7016 78.6035 83.0004 77.3853 84.479 75.667L84.9832 75.081L84.5921 74.6922L84.2009 74.3036L83.5458 74.9907C82.1909 76.412 81.2808 76.7338 81.2808 75.7916C81.2808 75.6994 81.775 74.3752 82.379 72.8489C84.2132 68.214 84.6117 66.9993 84.6117 66.0426C84.6117 65.3074 84.3319 64.8072 83.7231 64.4537C83.417 64.276 83.1586 64.2314 82.5021 64.243C80.9048 64.2712 79.7367 64.9324 77.6632 66.9822C76.2413 68.3877 75.1931 69.6383 74.2625 71.0393C73.9502 71.5097 73.6785 71.8944 73.6589 71.8944C73.6391 71.8944 73.7163 71.6585 73.8303 71.3703C75.241 67.804 75.6153 65.8861 75.0712 65.0111C74.741 64.4801 74.2466 64.2804 73.2699 64.2836C72.3455 64.2866 71.5885 64.5429 70.6749 65.1623C69.7331 65.8008 67.6062 68.0154 66.398 69.6156C65.7635 70.4559 65.2281 71.0954 65.2084 71.0367C65.1887 70.9778 65.4279 70.2226 65.7399 69.3584C66.756 66.5446 66.9406 65.4435 66.5135 64.7471C66.3916 64.5484 66.1636 64.3373 66.007 64.2782C65.6163 64.1305 64.5535 64.1558 64.0158 64.3255ZM40.2 64.456C39.8641 64.5443 39.1678 64.8163 38.6527 65.0604C35.91 66.3599 33.6432 69.0378 32.5877 72.2255C32.3098 73.0646 32.2763 73.326 32.2693 74.7081C32.2624 76.0525 32.2915 76.3174 32.4932 76.7506C33.62 79.17 37.9184 79.3681 40.784 77.133C41.3122 76.721 42.4206 75.457 42.4206 75.2667C42.4206 75.2308 42.2657 75.064 42.0764 74.8959L41.7322 74.5903L41.0339 75.2708C40.6052 75.6884 40.0425 76.0946 39.5762 76.3227C38.9134 76.647 38.7081 76.6943 37.9621 76.6943C37.0473 76.6943 36.733 76.5571 36.2869 75.9631C35.9004 75.4487 35.8593 73.7592 36.1991 72.3516L36.3283 71.8165L37.4036 71.75C38.6596 71.6724 40.3982 71.2583 41.357 70.8086C42.8104 70.1269 44.09 68.8795 44.538 67.7075C44.7885 67.0524 44.8164 66.0816 44.5994 65.5656C44.408 65.1104 43.7607 64.5719 43.2064 64.4068C42.6252 64.2338 40.9402 64.2614 40.2 64.456ZM53.8797 64.4526C52.3152 64.8712 50.9368 65.6802 49.5291 67.0064C47.7797 68.6544 46.687 70.4653 46.1272 72.6441C45.8295 73.8027 45.7488 75.5884 45.9624 76.2897C46.2955 77.3834 47.0668 78.1175 48.2562 78.4728C49.1238 78.732 50.8691 78.7289 51.8581 78.4665C53.4532 78.0434 55.0818 76.9181 55.9124 75.6652L56.2288 75.1879L55.892 74.8751L55.5551 74.5621L54.8483 75.2202C54.4314 75.6084 53.801 76.0456 53.3109 76.2862C52.5698 76.6503 52.3878 76.6943 51.6221 76.6943C50.6932 76.6943 50.3909 76.5591 49.9219 75.9342C49.721 75.6664 49.6932 75.4719 49.6951 74.3411C49.6963 73.6326 49.7623 72.7676 49.8418 72.4186L49.9863 71.7841H50.5851C51.9571 71.7841 54.4598 71.1149 55.6108 70.4403C56.4564 69.9445 57.6556 68.7279 58.012 68.0038C58.3364 67.345 58.4765 66.4947 58.3613 65.8844C58.256 65.3266 57.6279 64.6691 56.996 64.4552C56.3511 64.2367 54.6919 64.2354 53.8797 64.4526ZM115.676 65.5566C117.101 66.5489 115.833 70.2298 112.832 73.8124C112.021 74.7805 111.13 75.5357 110.8 75.5357C110.68 75.5357 110.46 75.4138 110.31 75.2648C109.962 74.9194 109.953 74.3764 110.27 72.9132C110.928 69.8718 112.85 66.337 114.242 65.6059C114.735 65.3468 115.344 65.3259 115.676 65.5566ZM40.9693 65.9319C41.506 66.2173 41.5432 67.3693 41.0467 68.3273C40.5887 69.2108 39.8712 69.8477 38.9114 70.2228C38.339 70.4463 36.7446 70.8145 36.67 70.7403C36.5926 70.6634 37.2152 69.0896 37.6563 68.247C38.192 67.2236 38.7447 66.5604 39.4124 66.1395C39.9297 65.8135 40.5829 65.7264 40.9693 65.9319ZM54.8109 66.0583C54.9711 66.2345 55.0219 66.4554 55.0206 66.9697C55.0175 68.2091 54.188 69.4037 52.8694 70.0678C52.2835 70.3628 51.1295 70.6763 50.6186 70.679L50.3231 70.6807L50.6519 69.8318C51.4294 67.8254 52.373 66.4672 53.3014 66.0186C53.8574 65.7499 54.5469 65.768 54.8109 66.0583ZM22.4353 67.8337C23.8078 68.2487 24.6484 68.9419 25.1812 70.0985C25.7138 71.2546 25.6228 73.1221 24.9664 74.5107C24.2255 76.0782 22.0513 77.0804 19.3919 77.0804C17.3476 77.0804 17.2497 76.8158 18.0673 73.4979C18.4537 71.9295 19.493 68.1919 19.6749 67.7166C19.773 67.46 19.7931 67.4565 20.7443 67.5353C21.2774 67.5794 22.0384 67.7136 22.4353 67.8337Z" fill="#B2836B"/>
</svg>
